# Blender v2.79 (sub 0) OBJ File: 'SSLLeg.obj'
# www.blender.org
mtllib SSKnee.mtl
o 2
v -12.781250 4.937513 -81.625000
v -13.265625 4.667982 -81.500000
v -13.132812 4.628920 -80.687500
v -12.664062 4.898451 -80.687500
v -11.539062 5.347670 -81.812500
v -12.210938 5.175795 -81.687500
v -12.093750 5.140638 -80.750000
v -11.437500 5.308607 -80.875000
v -10.734375 5.390638 -80.937500
v -10.039062 5.382826 -81.062500
v -10.109375 5.417982 -82.000000
v -10.820312 5.429701 -81.875000
v -8.750000 5.121107 -81.187500
v -8.804688 5.144545 -82.125000
v -9.437500 5.320326 -82.062500
v -9.375000 5.289076 -81.125000
v -7.695312 4.628920 -82.250000
v -8.218750 4.910170 -82.187500
v -8.164062 4.894545 -81.312500
v -7.648438 4.625013 -81.437500
v -9.562500 5.031263 -82.937500
v -8.945312 4.863295 -83.000000
v -9.117188 4.511733 -84.000000
v -9.703125 4.660170 -84.000000
v -10.320312 4.746108 -83.937500
v -10.210938 5.125013 -82.875000
v -10.976562 4.753920 -83.875000
v -10.898438 5.136732 -82.812500
v -9.335938 3.980483 -85.125000
v -9.867188 4.097670 -85.125000
v -10.445312 4.160170 -85.125000
v -11.046875 4.160170 -85.062500
v -12.742188 4.355483 -83.500000
v -13.187500 4.125013 -83.375000
v -13.242188 4.429701 -82.375000
v -12.773438 4.683607 -82.500000
v -12.226562 4.902357 -82.625000
v -12.226562 4.546889 -83.625000
v -11.585938 5.058607 -82.687500
v -11.632812 4.683608 -83.750000
v -12.664062 3.869154 -84.687500
v -13.062500 3.693373 -84.500000
v -12.187500 4.003920 -84.812500
v -11.640625 4.105483 -84.937500
v -12.554688 3.437514 -85.312500
v -12.921875 3.316420 -85.187500
v -13.601562 4.187513 -82.312500
v -13.531250 3.900404 -83.250000
v -13.375000 3.509779 -84.375000
v -13.625000 3.333998 -84.250000
v -13.812500 3.687514 -83.187500
v -13.882812 3.962904 -82.250000
v -7.851562 4.371107 -83.000000
v -7.425781 4.109388 -83.000000
v -7.644531 3.800795 -83.875000
v -8.062500 4.050795 -83.937500
v -7.320312 3.574232 -83.812500
v -7.101562 3.875014 -83.000000
v -8.007812 3.363295 -84.812500
v -8.390625 3.587904 -84.937500
v -7.710938 3.164076 -84.750000
v -8.632812 3.183608 -85.500000
v -9.031250 3.353530 -85.625000
v -8.843750 3.808608 -85.062500
v -8.375000 4.640638 -83.000000
v -8.570312 4.304701 -83.937500
v -9.476562 3.488295 -85.687500
v -9.968750 3.578139 -85.750000
v -10.507812 3.623061 -85.750000
v -11.070312 3.623061 -85.687500
v -11.617188 3.585952 -85.625000
v -12.125000 3.523451 -85.500000
v -11.734375 4.484388 -79.812500
v -11.179688 4.628919 -79.875000
v -11.328125 5.253919 -79.937500
v -11.968750 5.085950 -79.875000
v -9.398438 4.601575 -80.062500
v -8.820312 4.460950 -80.187500
v -8.695312 5.082044 -80.312500
v -9.320312 5.238294 -80.187500
v -12.312500 2.919936 -85.125000
v -12.656250 2.828139 -84.937500
v -12.921875 3.316420 -85.187500
v -12.554688 3.437514 -85.312500
v -10.546875 3.068373 -85.500000
v -11.015625 3.068373 -85.437500
v -11.070312 3.623061 -85.687500
v -10.507812 3.623061 -85.750000
v -13.445312 3.236341 -82.062500
v -13.882812 3.962904 -82.250000
v -13.812500 3.687514 -83.187500
v -13.429688 3.064467 -83.000000
v -12.992188 4.574232 -79.875000
v -13.328125 4.328138 -79.937500
v -12.968750 3.794935 -79.875000
v -12.648438 4.023450 -79.812500
v -7.460938 3.181654 -82.750000
v -7.652344 2.996107 -83.562500
v -7.320312 3.574232 -83.812500
v -7.101562 3.875014 -83.000000
v -7.972656 2.718764 -84.500000
v -7.710938 3.164076 -84.750000
v -8.859375 2.689467 -85.312500
v -9.250000 2.820326 -85.375000
v -9.031250 3.353530 -85.625000
v -8.632812 3.183608 -85.500000
v -8.281250 4.273450 -80.312500
v -7.816406 4.046888 -80.437500
v -7.605469 4.605482 -80.625000
v -8.109375 4.863294 -80.437500
v -13.914062 4.191420 -81.437500
v -13.632812 4.425795 -81.437500
v -7.269531 4.355482 -82.250000
v -12.992188 4.574232 -79.875000
v -12.531250 4.843763 -79.812500
v -11.968750 5.085950 -79.875000
v -11.328125 5.253919 -79.937500
v -9.320312 5.238294 -80.187500
v -8.695312 5.082044 -80.312500
v -7.250000 4.367201 -81.562500
v -8.109375 4.863294 -80.437500
v -7.605469 4.605482 -80.625000
v -13.484375 4.382826 -80.687500
v -6.957031 4.136732 -81.625000
v -6.953125 4.113295 -82.312500
v -7.238281 4.359388 -80.812500
v -6.968750 4.152357 -81.000000
v -13.328125 4.328138 -79.937500
v -10.648438 5.332044 -80.000000
v -9.968750 5.324232 -80.125000
v -12.234375 4.269544 -79.750000
v -12.531250 4.843763 -79.812500
v -10.585938 4.695325 -79.937500
v -9.984375 4.683607 -80.000000
v -9.968750 5.324232 -80.125000
v -10.648438 5.332044 -80.000000
v -6.957031 4.136732 -81.625000
v -7.269531 3.486341 -81.437500
v -7.324219 3.330091 -82.062500
v -6.953125 4.113295 -82.312500
v -7.238281 4.359388 -80.812500
v -7.476562 3.832044 -80.687500
v -7.218750 3.648451 -80.875000
v -6.968750 4.152357 -81.000000
v -11.492188 3.037123 -85.375000
v -11.921875 2.986342 -85.250000
v -12.125000 3.523451 -85.500000
v -11.617188 3.585952 -85.625000
v -9.656250 2.941420 -85.437500
v -10.085938 3.027358 -85.500000
v -9.968750 3.578139 -85.750000
v -9.476562 3.488295 -85.687500
v -12.937500 2.730483 -84.812500
v -13.195312 3.187514 -85.000000
v -13.320312 2.833998 -84.000000
v -13.625000 3.333998 -84.250000
v -13.757812 4.156263 -80.750000
v -13.335938 3.484388 -80.625000
v -13.226562 3.591810 -80.000000
v -13.585938 4.113294 -80.062500
v -13.429688 3.382826 -81.312500
v -13.914062 4.191420 -81.437500
v -8.304688 3.015639 -85.375000
v -8.523438 2.576186 -85.250000
v -8.046875 2.873061 -85.250000
v -8.242188 2.490248 -85.125000
v -6.968750 4.152357 -81.000000
v -7.218750 3.648451 -80.875000
v -13.195312 3.187514 -85.000000
v -8.304688 3.015639 -85.375000
v -13.414062 3.070326 -84.812500
v -13.171875 2.644545 -84.625000
v -8.046875 2.873061 -85.250000
v -13.757812 4.156263 -80.750000
v -13.585938 4.113294 -80.062500
v -13.585938 4.113294 -80.062500
v -13.226562 3.591810 -80.000000
v -13.171875 2.644545 -84.625000
v -13.414062 3.070326 -84.812500
v -13.414062 3.070326 -84.812500
vt 0.687012 0.297852
vt 0.692871 0.297363
vt 0.693848 0.306152
vt 0.687988 0.307129
vt 0.673828 0.298340
vt 0.680664 0.298340
vt 0.681641 0.307617
vt 0.674316 0.308105
vt 0.666504 0.308105
vt 0.659180 0.308105
vt 0.659180 0.298340
vt 0.666504 0.298340
vt 0.645020 0.307129
vt 0.645508 0.297363
vt 0.652344 0.297852
vt 0.652344 0.307617
vt 0.632812 0.296387
vt 0.639160 0.296875
vt 0.638672 0.306152
vt 0.632324 0.304688
vt 0.652344 0.288086
vt 0.645996 0.288086
vt 0.646484 0.276855
vt 0.652832 0.276855
vt 0.659180 0.276855
vt 0.659180 0.288574
vt 0.665527 0.276855
vt 0.666016 0.288574
vt 0.646973 0.263672
vt 0.652832 0.263184
vt 0.658691 0.263184
vt 0.665039 0.263184
vt 0.685059 0.277344
vt 0.689941 0.277344
vt 0.691895 0.288086
vt 0.686523 0.288086
vt 0.680176 0.288574
vt 0.679199 0.276855
vt 0.673340 0.288574
vt 0.672363 0.276855
vt 0.682617 0.263672
vt 0.687500 0.264648
vt 0.677734 0.263184
vt 0.671387 0.263184
vt 0.682129 0.255859
vt 0.686523 0.256836
vt 0.696289 0.287598
vt 0.694824 0.276855
vt 0.691895 0.265137
vt 0.695312 0.265625
vt 0.698242 0.276855
vt 0.700195 0.287109
vt 0.633301 0.287598
vt 0.628418 0.287598
vt 0.629395 0.277832
vt 0.634277 0.277344
vt 0.625000 0.277832
vt 0.624023 0.287109
vt 0.631348 0.265625
vt 0.636230 0.265137
vt 0.627441 0.266113
vt 0.636719 0.257324
vt 0.641602 0.256836
vt 0.641602 0.264648
vt 0.639648 0.288086
vt 0.640137 0.277344
vt 0.646973 0.255859
vt 0.652344 0.254883
vt 0.658691 0.254395
vt 0.665039 0.254395
vt 0.670898 0.254395
vt 0.676758 0.254883
vt 0.378662 0.606201
vt 0.388916 0.606201
vt 0.388916 0.616211
vt 0.378662 0.616211
vt 0.420166 0.606201
vt 0.430420 0.606201
vt 0.430420 0.616211
vt 0.420166 0.616211
vt 0.092102 0.012695
vt 0.087830 0.012695
vt 0.087830 0.006836
vt 0.092102 0.006836
vt 0.113708 0.012695
vt 0.107727 0.012695
vt 0.107727 0.006836
vt 0.113708 0.006836
vt 0.281250 0.616211
vt 0.281250 0.609375
vt 0.292725 0.609375
vt 0.292725 0.616211
vt 0.359619 0.616211
vt 0.351807 0.616211
vt 0.351807 0.606201
vt 0.359619 0.606201
vt 0.171265 0.012695
vt 0.160156 0.012695
vt 0.160156 0.006836
vt 0.171265 0.006836
vt 0.150024 0.012695
vt 0.150024 0.006836
vt 0.135498 0.012695
vt 0.130371 0.012695
vt 0.130371 0.006836
vt 0.135498 0.006836
vt 0.439941 0.606201
vt 0.448486 0.606201
vt 0.448486 0.616211
vt 0.439941 0.616211
vt 0.701172 0.296387
vt 0.697266 0.296875
vt 0.627930 0.295410
vt 0.694336 0.314941
vt 0.688965 0.316406
vt 0.682129 0.317383
vt 0.674805 0.317871
vt 0.652344 0.317383
vt 0.645020 0.316895
vt 0.627441 0.303223
vt 0.638184 0.315430
vt 0.631836 0.313477
vt 0.698242 0.304688
vt 0.623535 0.302246
vt 0.623535 0.294922
vt 0.627441 0.311035
vt 0.623535 0.308594
vt 0.698730 0.312988
vt 0.666992 0.317871
vt 0.659668 0.317871
vt 0.368652 0.606201
vt 0.368652 0.616211
vt 0.399414 0.606201
vt 0.409912 0.606201
vt 0.409912 0.616211
vt 0.399414 0.616211
vt 0.188232 0.006836
vt 0.188232 0.012695
vt 0.180420 0.012695
vt 0.180420 0.006836
vt 0.455322 0.616211
vt 0.455322 0.606201
vt 0.461426 0.606201
vt 0.461426 0.616211
vt 0.101929 0.012695
vt 0.096680 0.012695
vt 0.096680 0.006836
vt 0.101929 0.006836
vt 0.125122 0.012695
vt 0.119507 0.012695
vt 0.119507 0.006836
vt 0.125122 0.006836
vt 0.084229 0.012695
vt 0.084229 0.006836
vt 0.303467 0.616211
vt 0.303467 0.609375
vt 0.261475 0.609375
vt 0.261475 0.616211
vt 0.253174 0.616211
vt 0.253174 0.609375
vt 0.270508 0.616211
vt 0.270508 0.609375
vt 0.140259 0.006836
vt 0.140259 0.012695
vt 0.144165 0.006836
vt 0.144165 0.012695
vt 0.195557 0.006836
vt 0.195557 0.012695
vt 0.689941 0.257812
vt 0.632812 0.258301
vt 0.311523 0.609375
vt 0.311523 0.616211
vt 0.629395 0.259277
vt 0.701660 0.303711
vt 0.702148 0.311523
vt 0.345703 0.616211
vt 0.345703 0.606201
vt 0.080811 0.012695
vt 0.080811 0.006836
vt 0.693359 0.258789
vn -0.4444 0.8927 -0.0747
vn -0.5309 0.8454 -0.0590
vn -0.5268 0.8390 0.1366
vn -0.4364 0.8925 0.1140
vn -0.1994 0.9733 -0.1134
vn -0.3265 0.9401 -0.0983
vn -0.3102 0.9464 0.0903
vn -0.1761 0.9821 0.0665
vn -0.0430 0.9974 0.0587
vn 0.0826 0.9956 0.0433
vn 0.0669 0.9871 -0.1455
vn -0.0665 0.9894 -0.1291
vn 0.3092 0.9509 0.0118
vn 0.3022 0.9382 -0.1688
vn 0.1920 0.9681 -0.1607
vn 0.2006 0.9793 0.0275
vn 0.4839 0.8537 -0.1928
vn 0.4031 0.8965 -0.1839
vn 0.4108 0.9117 -0.0039
vn 0.5041 0.8636 -0.0117
vn 0.1691 0.9243 -0.3422
vn 0.2776 0.8954 -0.3480
vn 0.2787 0.8675 -0.4121
vn 0.1612 0.9001 -0.4048
vn 0.0275 0.9172 -0.3976
vn 0.0430 0.9422 -0.3323
vn -0.0983 0.9159 -0.3892
vn -0.0901 0.9440 -0.3173
vn 0.2637 0.7833 -0.5629
vn 0.1369 0.8175 -0.5594
vn 0.0039 0.8338 -0.5520
vn -0.1060 0.8363 -0.5379
vn -0.4523 0.8299 -0.3265
vn -0.5445 0.7796 -0.3095
vn -0.5373 0.8039 -0.2549
vn -0.4580 0.8494 -0.2622
vn -0.3403 0.8959 -0.2856
vn -0.3407 0.8732 -0.3485
vn -0.2155 0.9287 -0.3017
vn -0.2150 0.9032 -0.3715
vn -0.4360 0.7738 -0.4595
vn -0.5532 0.7101 -0.4355
vn -0.3164 0.8086 -0.4961
vn -0.2078 0.8275 -0.5216
vn -0.4114 0.7249 -0.5525
vn -0.5366 0.6698 -0.5131
vn -0.6068 0.7556 -0.2466
vn -0.6168 0.7267 -0.3025
vn -0.6414 0.6414 -0.4210
vn -0.6721 0.6250 -0.3970
vn -0.6477 0.7027 -0.2944
vn -0.6368 0.7306 -0.2462
vn 0.4585 0.8033 -0.3801
vn 0.5227 0.7585 -0.3891
vn 0.5384 0.7113 -0.4519
vn 0.4807 0.7621 -0.4338
vn 0.5693 0.6871 -0.4515
vn 0.5442 0.7399 -0.3954
vn 0.5533 0.6083 -0.5690
vn 0.4980 0.6548 -0.5685
vn 0.5851 0.5851 -0.5615
vn 0.4736 0.5989 -0.6458
vn 0.3799 0.6541 -0.6541
vn 0.3965 0.7263 -0.5614
vn 0.3801 0.8502 -0.3644
vn 0.3885 0.8202 -0.4199
vn 0.2552 0.7106 -0.6557
vn 0.1213 0.7473 -0.6534
vn 0.0039 0.7634 -0.6460
vn -0.0984 0.7674 -0.6336
vn -0.1996 0.7632 -0.6145
vn -0.2796 0.7600 -0.5867
vn 0.0509 0.1292 0.9903
vn 0.0981 0.1451 0.9845
vn 0.1609 0.1374 0.9774
vn 0.2080 0.1295 0.9695
vn -0.2234 -0.4899 -0.8427
vn -0.2632 -0.5067 -0.8210
vn -0.2159 -0.4908 -0.8441
vn -0.0666 -0.4194 -0.9054
vn -0.1055 -0.4337 -0.8948
vn -0.0978 -0.4341 -0.8956
vn -0.0586 -0.4260 -0.9028
vn -0.8581 -0.5055 0.0901
vn -0.8615 -0.4996 0.0905
vn -0.8571 -0.5126 0.0509
vn -0.8567 -0.5125 0.0587
vn -0.1688 -0.0118 0.9856
vn -0.2629 -0.0824 0.9613
vn -0.2791 -0.0983 0.9552
vn -0.1840 -0.0118 0.9828
vn 0.8770 -0.4759 -0.0668
vn 0.8428 -0.5292 -0.0980
vn 0.8526 -0.5147 -0.0904
vn 0.8799 -0.4732 -0.0430
vn 0.8272 -0.5449 -0.1372
vn 0.8298 -0.5388 -0.1455
vn 0.0983 -0.3892 -0.9159
vn 0.0432 -0.3812 -0.9235
vn 0.0590 -0.3970 -0.9159
vn 0.1060 -0.3889 -0.9152
vn 0.3192 0.1064 0.9417
vn 0.4607 0.0512 0.8861
vn 0.4513 0.0510 0.8909
vn 0.3189 0.1142 0.9409
vn -0.6409 0.7668 -0.0354
vn -0.6013 0.7978 -0.0432
vn 0.5516 0.8099 -0.1995
vn -0.5443 0.8263 0.1449
vn -0.4424 0.8886 0.1214
vn -0.3100 0.9457 0.0981
vn -0.1759 0.9810 0.0821
vn 0.1929 0.9803 0.0433
vn 0.2948 0.9552 0.0275
vn 0.5789 0.8152 -0.0197
vn 0.4043 0.9145 0.0118
vn 0.4982 0.8670 -0.0039
vn -0.6086 0.7735 0.1767
vn 0.6106 0.7917 -0.0197
vn 0.5764 0.7882 -0.2157
vn 0.5753 0.8179 -0.0039
vn 0.6069 0.7948 -0.0039
vn -0.6381 0.7477 0.1840
vn -0.0430 0.9969 0.0665
vn 0.0748 0.9959 0.0512
vn -0.0511 0.0826 0.9953
vn -0.0433 0.0748 0.9963
vn 0.1213 0.1447 0.9820
vn 0.1377 0.1456 0.9797
vn 0.1213 0.1448 0.9820
vn 0.9041 -0.4266 0.0273
vn 0.9038 -0.4265 0.0352
vn 0.8995 -0.4361 -0.0275
vn 0.8966 -0.4424 -0.0196
vn 0.5281 -0.0196 0.8489
vn 0.5519 -0.0117 0.8338
vn 0.5695 -0.0432 0.8209
vn 0.5460 -0.0432 0.8367
vn -0.1377 -0.4445 -0.8851
vn -0.1840 -0.4660 -0.8654
vn -0.1765 -0.4667 -0.8667
vn -0.1290 -0.4419 -0.8877
vn 0.0118 -0.3977 -0.9174
vn -0.0430 -0.4103 -0.9110
vn -0.0274 -0.4107 -0.9114
vn 0.0275 -0.4042 -0.9143
vn -0.3089 -0.5122 -0.8014
vn -0.3108 -0.5154 -0.7986
vn -0.8546 -0.5190 -0.0195
vn -0.8525 -0.5224 -0.0196
vn -0.8416 -0.5049 0.1918
vn -0.8385 -0.5000 0.2165
vn -0.8288 -0.5224 0.2003
vn -0.8172 -0.5513 0.1681
vn -0.8560 -0.4964 0.1446
vn -0.8602 -0.4910 0.1375
vn 0.1375 -0.3968 -0.9075
vn 0.5789 -0.5316 -0.6183
vn 0.5300 -0.5378 -0.6556
vn 0.8993 -0.4359 0.0353
vn 0.8987 -0.4356 0.0510
vn -0.6369 0.5900 -0.4962
vn 0.5365 0.5521 -0.6383
vn -0.8511 -0.5217 -0.0588
vn -0.8605 -0.5069 -0.0511
vn 0.5579 0.5423 -0.6282
vn -0.6408 0.7431 0.1926
vn -0.6657 0.7208 0.1930
vn -0.3021 -0.1216 0.9455
vn -0.3108 -0.1377 0.9404
vn -0.3249 -0.5128 -0.7947
vn -0.3339 -0.5147 -0.7897
vn -0.6792 0.5457 -0.4908
usemtl Material.00026e
s 1
f 1/1/1 2/2/2 3/3/3
f 3/3/3 4/4/4 1/1/1
f 5/5/5 6/6/6 7/7/7
f 7/7/7 8/8/8 5/5/5
f 9/9/9 10/10/10 11/11/11
f 11/11/11 12/12/12 9/9/9
f 13/13/13 14/14/14 15/15/15
f 15/15/15 16/16/16 13/13/13
f 17/17/17 18/18/18 19/19/19
f 19/19/19 20/20/20 17/17/17
f 21/21/21 22/22/22 23/23/23
f 23/23/23 24/24/24 21/21/21
f 24/24/24 25/25/25 26/26/26
f 26/26/26 21/21/21 24/24/24
f 25/25/25 27/27/27 28/28/28
f 28/28/28 26/26/26 25/25/25
f 23/23/23 29/29/29 30/30/30
f 30/30/30 24/24/24 23/23/23
f 30/30/30 31/31/31 25/25/25
f 25/25/25 24/24/24 30/30/30
f 31/31/31 32/32/32 27/27/27
f 27/27/27 25/25/25 31/31/31
f 33/33/33 34/34/34 35/35/35
f 35/35/35 36/36/36 33/33/33
f 37/37/37 38/38/38 33/33/33
f 33/33/33 36/36/36 37/37/37
f 39/39/39 40/40/40 38/38/38
f 38/38/38 37/37/37 39/39/39
f 33/33/33 41/41/41 42/42/42
f 42/42/42 34/34/34 33/33/33
f 33/33/33 38/38/38 43/43/43
f 43/43/43 41/41/41 33/33/33
f 40/40/40 44/44/44 43/43/43
f 43/43/43 38/38/38 40/40/40
f 45/45/45 46/46/46 42/42/42
f 42/42/42 41/41/41 45/45/45
f 47/47/47 35/35/35 34/34/34
f 34/34/34 48/48/48 47/47/47
f 42/42/42 49/49/49 48/48/48
f 48/48/48 34/34/34 42/42/42
f 48/48/48 49/49/49 50/50/50
f 50/50/50 51/51/51 48/48/48
f 47/47/47 48/48/48 51/51/51
f 51/51/51 52/52/52 47/47/47
f 53/53/53 54/54/54 55/55/55
f 55/55/55 56/56/56 53/53/53
f 57/57/57 55/55/55 54/54/54
f 54/54/54 58/58/58 57/57/57
f 56/56/56 55/55/55 59/59/59
f 59/59/59 60/60/60 56/56/56
f 59/59/59 55/55/55 57/57/57
f 57/57/57 61/61/61 59/59/59
f 62/62/62 63/63/63 64/64/64
f 64/64/64 60/60/60 62/62/62
f 18/18/18 17/17/17 53/53/53
f 53/53/53 65/65/65 18/18/18
f 15/15/15 14/14/14 22/22/22
f 22/22/22 21/21/21 15/15/15
f 56/56/56 66/66/66 65/65/65
f 65/65/65 53/53/53 56/56/56
f 65/65/65 66/66/66 23/23/23
f 23/23/23 22/22/22 65/65/65
f 56/56/56 60/60/60 64/64/64
f 64/64/64 66/66/66 56/56/56
f 66/66/66 64/64/64 29/29/29
f 29/29/29 23/23/23 66/66/66
f 30/30/30 29/29/29 67/67/67
f 67/67/67 68/68/68 30/30/30
f 12/12/12 11/11/11 26/26/26
f 26/26/26 28/28/28 12/12/12
f 6/6/6 5/5/5 39/39/39
f 39/39/39 37/37/37 6/6/6
f 28/28/28 27/27/27 40/40/40
f 40/40/40 39/39/39 28/28/28
f 32/32/32 44/44/44 40/40/40
f 40/40/40 27/27/27 32/32/32
f 32/32/32 31/31/31 69/69/69
f 69/69/69 70/70/70 32/32/32
f 43/43/43 44/44/44 71/71/71
f 71/71/71 72/72/72 43/43/43
f 73/73/73 74/74/74 75/75/74
f 75/75/74 76/76/73 73/73/73
f 77/77/75 78/78/76 79/79/76
f 79/79/76 80/80/75 77/77/75
f 81/81/77 82/82/78 83/83/78
f 83/83/78 84/84/79 81/81/77
f 85/85/80 86/86/81 87/87/82
f 87/87/82 88/88/83 85/85/80
f 89/89/84 90/90/85 91/91/86
f 91/91/86 92/92/87 89/89/84
f 93/93/88 94/94/89 95/95/90
f 95/95/90 96/96/91 93/93/88
f 97/97/92 98/98/93 99/99/94
f 99/99/94 100/100/95 97/97/92
f 101/101/96 102/102/97 99/99/94
f 99/99/94 98/98/93 101/101/96
f 103/103/98 104/104/99 105/105/100
f 105/105/100 106/106/101 103/103/98
f 107/107/102 108/108/103 109/109/104
f 109/109/104 110/110/105 107/107/102
f 26/26/26 11/11/11 15/15/15
f 15/15/15 21/21/21 26/26/26
f 2/2/2 1/1/1 36/36/36
f 36/36/36 35/35/35 2/2/2
f 36/36/36 1/1/1 6/6/6
f 6/6/6 37/37/37 36/36/36
f 111/111/106 112/112/107 47/47/47
f 47/47/47 52/52/52 111/111/106
f 53/53/53 17/17/17 113/113/108
f 113/113/108 54/54/54 53/53/53
f 22/22/22 14/14/14 18/18/18
f 18/18/18 65/65/65 22/22/22
f 39/39/39 5/5/5 12/12/12
f 12/12/12 28/28/28 39/39/39
f 7/7/7 6/6/6 1/1/1
f 1/1/1 4/4/4 7/7/7
f 4/4/4 3/3/3 114/114/109
f 114/114/109 115/115/110 4/4/4
f 116/116/111 117/117/112 8/8/8
f 8/8/8 7/7/7 116/116/111
f 16/16/16 15/15/15 11/11/11
f 11/11/11 10/10/10 16/16/16
f 13/13/13 16/16/16 118/118/113
f 118/118/113 119/119/114 13/13/13
f 120/120/115 113/113/108 17/17/17
f 17/17/17 20/20/20 120/120/115
f 19/19/19 121/121/116 122/122/117
f 122/122/117 20/20/20 19/19/19
f 3/3/3 2/2/2 112/112/107
f 112/112/107 123/123/118 3/3/3
f 19/19/19 18/18/18 14/14/14
f 14/14/14 13/13/13 19/19/19
f 9/9/9 12/12/12 5/5/5
f 5/5/5 8/8/8 9/9/9
f 120/120/115 124/124/119 125/125/120
f 125/125/120 113/113/108 120/120/115
f 113/113/108 125/125/120 58/58/58
f 58/58/58 54/54/54 113/113/108
f 124/124/119 120/120/115 126/126/121
f 126/126/121 127/127/122 124/124/119
f 123/123/118 128/128/123 114/114/109
f 114/114/109 3/3/3 123/123/118
f 13/13/13 119/119/114 121/121/116
f 121/121/116 19/19/19 13/13/13
f 4/4/4 115/115/110 116/116/111
f 116/116/111 7/7/7 4/4/4
f 129/129/124 130/130/125 10/10/10
f 10/10/10 9/9/9 129/129/124
f 10/10/10 130/130/125 118/118/113
f 118/118/113 16/16/16 10/10/10
f 122/122/117 126/126/121 120/120/115
f 120/120/115 20/20/20 122/122/117
f 8/8/8 117/117/112 129/129/124
f 129/129/124 9/9/9 8/8/8
f 96/96/91 131/131/126 132/132/127
f 132/132/127 93/93/88 96/96/91
f 132/132/127 131/131/126 73/73/73
f 73/73/73 76/76/73 132/132/127
f 133/133/128 134/134/129 135/135/129
f 135/135/129 136/136/130 133/133/128
f 135/135/129 134/134/129 77/77/75
f 77/77/75 80/80/75 135/135/129
f 137/137/131 138/138/132 139/139/133
f 139/139/133 140/140/134 137/137/131
f 141/141/135 142/142/136 143/143/137
f 143/143/137 144/144/138 141/141/135
f 145/145/139 146/146/140 147/147/141
f 147/147/141 148/148/142 145/145/139
f 147/147/141 146/146/140 81/81/77
f 81/81/77 84/84/79 147/147/141
f 149/149/143 150/150/144 151/151/145
f 151/151/145 152/152/146 149/149/143
f 151/151/145 150/150/144 85/85/80
f 85/85/80 88/88/83 151/151/145
f 83/83/78 82/82/78 153/153/147
f 153/153/147 154/154/148 83/83/78
f 155/155/149 92/92/87 91/91/86
f 91/91/86 156/156/150 155/155/149
f 157/157/151 158/158/152 159/159/153
f 159/159/153 160/160/154 157/157/151
f 90/90/85 89/89/84 161/161/155
f 161/161/155 162/162/156 90/90/85
f 163/163/157 164/164/157 103/103/98
f 103/103/98 106/106/101 163/163/157
f 79/79/76 78/78/76 107/107/102
f 107/107/102 110/110/105 79/79/76
f 105/105/100 104/104/99 149/149/143
f 149/149/143 152/152/146 105/105/100
f 75/75/74 74/74/74 133/133/128
f 133/133/128 136/136/130 75/75/74
f 87/87/82 86/86/81 145/145/139
f 145/145/139 148/148/142 87/87/82
f 140/140/134 139/139/133 97/97/92
f 97/97/92 100/100/95 140/140/134
f 161/161/155 158/158/152 157/157/151
f 157/157/151 162/162/156 161/161/155
f 109/109/104 108/108/103 142/142/136
f 142/142/136 141/141/135 109/109/104
f 165/165/158 166/166/159 164/164/157
f 164/164/157 163/163/157 165/165/158
f 167/167/160 168/168/161 138/138/132
f 138/138/132 137/137/131 167/167/160
f 43/43/43 72/72/72 45/45/45
f 45/45/45 41/41/41 43/43/43
f 30/30/30 68/68/68 69/69/69
f 69/69/69 31/31/31 30/30/30
f 42/42/42 46/46/46 169/169/162
f 169/169/162 49/49/49 42/42/42
f 59/59/59 170/170/163 62/62/62
f 62/62/62 60/60/60 59/59/59
f 64/64/64 63/63/63 67/67/67
f 67/67/67 29/29/29 64/64/64
f 32/32/32 70/70/70 71/71/71
f 71/71/71 44/44/44 32/32/32
f 155/155/149 156/156/150 171/171/164
f 171/171/164 172/172/165 155/155/149
f 61/61/61 173/173/166 170/170/163
f 170/170/163 59/59/59 61/61/61
f 102/102/97 101/101/96 166/166/159
f 166/166/159 165/165/158 102/102/97
f 123/123/118 174/174/167 175/175/168
f 175/175/168 128/128/123 123/123/118
f 47/47/47 112/112/107 2/2/2
f 2/2/2 35/35/35 47/47/47
f 95/95/90 94/94/89 176/176/169
f 176/176/169 177/177/170 95/95/90
f 111/111/106 174/174/167 123/123/118
f 123/123/118 112/112/107 111/111/106
f 153/153/147 178/178/171 179/179/172
f 179/179/172 154/154/148 153/153/147
f 169/169/162 180/180/173 50/50/50
f 50/50/50 49/49/49 169/169/162
