# Blender 4.5.3 LTS
# www.blender.org
mtllib CalfPlus.mtl
o stalker_monolith4nosorog.ogf_03
v 3.423456 19.615480 2.469414
v 8.026095 15.036955 2.712662
v 7.469386 17.790474 3.340527
v 3.707446 26.218300 2.209468
v 2.277625 27.389015 0.263434
v 3.088506 27.346560 1.042533
v 3.990456 12.310875 2.514388
v 4.921701 13.438750 2.855113
v 4.187750 13.271205 1.400198
v 7.613655 14.807355 -1.199918
v 8.754305 17.088200 1.770252
v 8.396360 15.840065 -0.514898
v 8.514661 17.701294 2.877687
v 3.318209 32.684898 -4.294231
v 3.415544 32.015526 -4.325067
v 2.389800 18.880270 0.812969
v 3.010665 20.704889 -1.587437
v 3.232320 18.511509 -1.179547
v 7.163659 29.488316 -3.851273
v 5.696109 32.077789 -4.728862
v 7.368724 30.983725 -3.566512
v 3.337984 25.412495 -2.929967
v 7.012424 25.602718 -2.974557
v 2.100857 31.238699 -0.490060
v 7.842625 27.606401 0.948452
v 5.086479 25.170191 -3.595632
v 6.566140 27.484425 1.689963
v 8.026236 25.821819 1.963837
v 3.518969 30.577200 -4.687107
v 3.434059 31.863344 -4.527331
v 4.803154 29.222666 -5.123487
v 8.160600 14.121321 -0.801373
v 8.449105 11.301650 1.030912
v 7.797580 14.086845 -1.206568
v 7.245840 15.277370 -1.037378
v 1.874076 23.619165 2.431019
v 6.676145 15.395494 -1.671368
v 2.122856 21.745930 2.642979
v 2.514891 23.629841 2.592824
v 8.663341 15.245029 1.596057
v 8.381660 15.000835 2.641892
v 4.788001 10.890505 2.683018
v 7.645436 10.904330 2.842967
v 5.615609 32.348305 -4.535522
v 6.616084 32.693581 -3.911157
v 7.522864 27.144260 -2.406088
v 7.663424 28.132206 -2.273298
v 7.769335 28.125204 -2.720038
v 7.559440 27.058895 -2.907113
v 6.905499 25.803024 -3.044908
v 7.237229 28.085411 -3.654852
v 6.903505 25.899311 -3.308282
v 7.697270 29.676056 -2.528098
v 7.389794 31.094639 -3.116657
v 7.362040 32.229622 -3.125548
v 6.674254 31.969219 -3.955817
v 6.906549 30.806135 -3.986758
v 7.756104 29.694183 -2.952263
v 6.194999 25.319675 -3.454442
v 4.536419 32.343895 -4.638842
v 5.591354 33.000916 -4.509517
v 6.683949 31.780115 -4.209637
v 4.743793 30.781179 -5.043023
v 4.656469 32.157589 -4.877227
v 4.501419 33.029510 -4.645212
v 5.869464 30.825665 -4.847163
v 6.049784 29.309956 -4.895078
v 6.166194 27.926895 -4.715912
v 3.770095 13.546655 -1.207827
v 4.375840 14.947004 -0.950577
v 3.106740 13.576790 1.370028
v 4.266150 13.713710 -1.205412
v 3.903270 13.270645 1.769798
v 4.144385 10.906010 1.365863
v 8.081185 11.100085 2.027047
v 5.449535 27.418449 1.920298
v 4.190025 27.355101 1.717788
v 8.186500 27.568390 0.737542
v 7.917392 31.500010 -0.529852
v 7.835325 27.637873 -0.202702
v 2.354940 27.287235 -0.383611
v 5.090644 25.308531 -3.488540
v 3.435463 25.411625 -2.784640
v 8.035370 28.182079 -0.277423
v 2.228624 30.342455 -2.760286
v 2.238179 29.057045 -2.204276
v 2.045506 30.054136 -0.268651
v 2.581635 26.988859 -2.280787
v 7.859460 28.238150 -1.638048
v 8.122869 30.497959 -0.414903
v 2.410589 27.964870 -2.127626
v 2.123345 28.958765 -0.239411
v 7.749385 27.332664 -1.563743
v 4.121774 25.313200 -3.423327
v 7.952980 29.537874 -1.833488
v 7.887844 30.895699 -2.007543
v 8.090565 31.502214 -0.554938
v 8.007895 27.622709 -0.227478
v 2.121560 31.749315 -2.639606
v 7.853930 31.916088 -2.140333
v 8.119090 29.218466 -0.233498
v 1.928826 31.219820 -0.515995
v 2.649745 17.340061 0.926543
v 3.535945 17.382656 1.199438
v 2.438871 19.321514 2.804608
v 1.545566 25.987860 1.898984
v 1.683045 27.231480 0.074889
v 2.238460 26.795765 -2.022276
v 2.687719 31.373695 -3.615232
v 2.787084 30.195807 -3.822222
v 3.602199 29.116579 -4.694527
v 2.661224 31.154699 -3.886621
v 2.540369 32.207848 -3.605746
v 4.907174 27.783010 -4.929412
v 3.908904 26.542681 -4.085457
v 3.732364 27.740416 -4.488937
v 2.769724 29.102089 -3.835137
v 2.267089 30.126961 -3.119702
v 8.876140 19.414755 2.041572
v 8.512001 13.073735 1.381542
v 8.179326 12.591400 2.589042
v 7.799261 12.453360 2.512147
v 7.499521 12.227225 2.842967
v 4.270316 12.241156 1.910953
v 3.267811 12.135035 2.162078
v 8.692250 27.606716 0.611157
v 8.415470 25.695435 2.269597
v 7.424235 26.287741 2.218987
v 8.152866 23.714504 2.828862
v 5.403545 26.324350 2.462903
v 7.341811 13.386845 2.871667
v 8.511511 23.691616 2.713537
v 6.722486 26.422874 2.248457
v 3.758090 11.158500 1.013063
v 8.109675 17.731606 2.927807
v 3.141356 21.703791 2.699328
v 2.821211 23.319984 2.750568
v 2.729336 21.720591 2.815319
v 7.868736 17.767479 2.686972
v 3.986816 19.626644 3.503803
v 7.420876 15.079725 3.052162
v 2.629900 25.826721 1.404923
v 6.865776 24.033356 3.929368
v 3.962666 23.942951 3.893318
v 2.289596 25.947960 2.098378
v 4.387461 17.648201 3.297338
v 3.202571 19.501625 2.756799
v 3.724490 14.982215 1.354768
v 3.004471 26.116800 2.042238
v 8.426636 21.562389 3.052337
v 7.762826 21.544680 3.741942
v 3.725610 17.542500 1.115893
v 4.771481 15.096874 3.029833
v 4.787931 12.248190 2.674478
v 8.404691 11.660190 1.857542
v 1.815555 23.272034 0.487154
v 2.069480 21.346125 0.669714
v 2.682014 25.472729 -2.886917
v 1.481480 25.801485 0.236099
v 4.157405 16.082581 -1.034997
v 3.860220 20.761696 -1.676162
v 2.842139 22.782946 -2.085662
v 3.675980 22.802406 -2.134557
v 4.076694 18.608740 -1.409497
v 5.838665 15.389231 -1.806152
v 4.926425 15.223225 -1.525557
v 4.571034 20.708984 -2.203577
v 4.411084 22.804680 -2.695397
v 5.747735 16.081669 -1.811122
v 5.610149 18.503635 -2.076947
v 4.742710 18.489389 -1.843217
v 4.882255 16.052971 -1.563777
v 6.629980 16.117756 -1.726703
v 7.216790 18.714195 -1.415448
v 6.474509 18.540981 -2.075897
v 5.394794 20.730862 -2.394642
v 7.262745 16.025740 -1.124598
v 7.872410 18.769705 -1.528533
v 7.179585 20.950485 -1.829323
v 7.822360 22.981079 -2.346483
v 8.321985 27.166555 -1.847278
v 6.274135 22.862499 -2.892272
v 7.150744 22.918955 -2.257443
v 7.821660 21.025070 -1.910628
v 7.677320 25.565723 -2.996188
v 6.395935 20.780560 -2.423937
v 6.901027 25.605362 -2.839624
v 7.218374 32.223858 -3.025798
v 6.117479 25.447281 -3.363169
v 7.688383 31.915575 -2.083609
v 7.580110 27.357910 -1.527233
v 2.748047 27.042988 -2.280124
v 2.672018 32.228210 -3.492266
v 2.295322 28.988771 -0.227256
v 2.217643 30.078827 -0.249066
v 6.772048 25.982386 -3.228033
v 2.263800 27.967773 -0.194156
v 3.395468 32.689774 -4.137289
v 2.436840 27.990334 -0.181056
v 7.872585 15.905305 -1.104193
v 5.227459 22.891026 -2.916353
v 7.862271 28.193808 -0.254565
v 4.513355 33.031738 -4.470640
v 6.509718 32.677818 -3.773094
v 6.123297 25.571339 -3.557344
v 7.945580 29.228062 -0.212840
v 5.539794 32.994011 -4.342432
v 2.285109 31.761389 -2.578541
v 7.949338 30.496923 -0.392328
v 2.528023 27.308935 -0.369661
v 6.971693 27.014503 -3.368187
v 8.472344 18.874704 -0.767703
v 8.518195 21.126499 -1.031988
v 8.907605 23.412420 1.206787
v 8.555155 23.108549 -1.289728
v 8.596700 25.554104 -1.637453
v 5.073592 25.458694 -3.685179
v 2.582561 27.993284 -2.143189
v 3.379179 25.930080 -2.767858
v 4.203461 25.433554 -3.326035
v 2.921366 30.207230 -3.710590
v 2.431322 30.122986 -3.059399
v 4.160440 25.571739 -3.502850
v 3.529658 31.795464 -4.397423
v 4.754726 30.766914 -4.868952
v 5.634460 32.008522 -4.580454
v 7.596092 28.139805 -2.700096
v 7.099881 28.104233 -3.548059
v 7.584827 29.679440 -2.919535
v 6.772745 25.851181 -2.941564
v 3.288902 26.171371 -3.093766
v 2.842825 31.349020 -3.538047
v 3.520356 31.964521 -4.194544
v 5.800344 30.810677 -4.687095
v 7.396841 27.110811 -2.868520
v 5.555002 32.286957 -4.383252
v 8.910160 25.678249 2.164177
v 8.977151 23.638241 2.561462
v 2.708486 27.097898 -2.643860
v 2.811326 31.122345 -3.802676
v 3.610429 30.575428 -4.537923
v 5.972583 29.311188 -4.738033
v 2.459035 27.990385 -2.528673
v 4.815779 29.231718 -4.949182
v 6.086061 27.958891 -4.563669
v 2.412512 29.072042 -2.207048
v 4.919121 27.827045 -4.760468
v 4.563902 32.276497 -4.479699
v 7.216427 30.941490 -3.491379
v 6.565988 31.714748 -4.098117
v 4.671738 32.076233 -4.723045
v 7.031027 29.489325 -3.737120
v 3.226090 27.028158 -3.319201
v 2.364288 29.069048 -2.534126
v 6.118311 26.676613 -4.094694
v 3.993592 26.606972 -3.946469
v 5.051561 26.498726 -4.228884
v 3.824839 27.785837 -4.347487
v 2.910826 29.119205 -3.733053
v 6.791071 30.801531 -3.855354
v 3.025624 27.895922 -3.526484
v 2.400025 30.339022 -2.725171
v 3.696800 29.132622 -4.548180
v 3.568180 15.818750 -0.850302
v 8.264026 19.473101 2.229347
v 8.886990 21.358166 1.603232
v 8.038171 19.503796 2.199387
v 8.905576 21.558819 2.923642
v 3.044721 15.315135 1.165838
v 8.939980 25.700581 0.834177
v 3.663486 21.509014 3.700783
v 7.568436 19.568825 3.530332
v 6.548218 31.911354 -3.849093
v 7.782984 29.545019 -1.792583
v 7.719472 30.893696 -1.959888
v 7.524005 29.667793 -2.504972
v 7.226955 31.065144 -3.059763
v 7.489503 28.149668 -2.264929
v 7.353462 27.186560 -2.394392
v 7.689256 28.257481 -1.602270
v 2.287319 27.962385 -2.547451
v 4.082994 25.464294 -3.617227
v 3.096764 26.979654 -3.426651
v 3.154689 26.088659 -3.169716
v 5.044479 26.426306 -4.388032
v 3.245164 25.873165 -2.864936
v 2.887149 27.858191 -3.626606
v 6.192934 25.464470 -3.677147
v 2.549294 27.038280 -2.685422
v 5.067124 25.346870 -3.819632
v 2.191035 29.057571 -2.555921
v 7.100169 26.976189 -3.480657
v 6.194614 26.617720 -4.240752
vn -0.0134 -0.7221 -0.6916
vn 0.5777 -0.0406 -0.8152
vn 0.4104 -0.6939 -0.5916
vn -0.3208 -0.5299 0.7850
vn -0.6086 0.0114 0.7934
vn -0.4747 0.0749 0.8769
vn 0.5776 -0.0403 -0.8153
vn 0.4103 -0.6942 -0.5915
vn 0.5781 0.0221 -0.8157
vn -0.1102 0.2304 0.9668
vn -0.4256 0.0027 0.9049
vn 0.7998 0.3112 0.5133
vn 0.9082 0.0522 0.4152
vn -0.0319 -0.3752 0.9264
vn -0.2746 0.1428 0.9509
vn 0.6222 -0.1883 0.7598
vn -0.5216 -0.2171 0.8251
vn -0.0133 -0.7222 -0.6916
vn -0.0208 0.3346 0.9421
vn 0.4374 0.0608 0.8972
vn -0.3651 -0.5519 -0.7498
vn 0.2343 -0.6015 0.7637
vn 0.6196 0.0419 0.7838
vn 0.4169 -0.4841 0.7694
vn -0.5375 -0.3633 -0.7610
vn -0.6169 0.3549 -0.7025
vn 0.5771 -0.5482 0.6053
vn -0.5377 0.8431 0.0007
vn -0.0534 -0.1719 0.9837
vn -0.0653 -0.0680 0.9955
vn -0.0768 0.0301 0.9966
vn -0.0885 0.0228 0.9958
vn -0.1238 0.1030 0.9870
vn -0.1267 0.1003 0.9869
vn -0.1717 0.5181 0.8379
vn -0.1785 0.8162 0.5496
vn 0.1115 0.6651 0.7384
vn 0.0990 0.6634 0.7417
vn 0.1313 0.1395 0.9815
vn 0.1263 0.1396 0.9821
vn 0.1241 0.0442 0.9913
vn 0.1205 0.0440 0.9917
vn 0.1321 0.0161 0.9911
vn 0.1321 0.0177 0.9911
vn -0.5623 -0.1998 0.8024
vn 0.4800 0.8649 0.1468
vn -0.8069 -0.4048 0.4302
vn 0.5370 0.6819 -0.4966
vn -0.1679 0.9460 0.2772
vn -0.2442 0.9253 0.2902
vn -0.3101 0.9031 0.2971
vn -0.3742 0.8989 0.2279
vn -0.3410 0.9239 0.1734
vn -0.3158 0.9443 0.0926
vn -0.1223 0.9918 0.0361
vn -0.1258 0.9920 -0.0041
vn 0.0954 0.9942 0.0489
vn 0.1433 0.9805 0.1345
vn 0.2179 0.9513 0.2180
vn 0.2120 0.9303 0.2992
vn 0.1983 0.9331 0.2999
vn 0.1431 0.9465 0.2893
vn 0.0993 0.9630 0.2506
vn 0.0645 0.9648 0.2551
vn -0.3652 -0.5516 -0.7499
vn -0.5374 -0.3630 -0.7612
vn -0.6171 0.3546 -0.7025
vn 0.5372 0.6817 -0.4966
vn 0.0128 0.9968 -0.0790
vn -0.5380 0.8430 0.0008
vn 0.1023 0.9903 -0.0938
vn 0.1780 0.9751 -0.1321
vn -0.0578 0.9964 -0.0627
vn -0.1537 0.9853 -0.0745
vn 0.4803 0.8647 0.1473
vn 0.0172 0.9997 0.0163
vn 0.1291 0.9911 0.0319
vn -0.3305 0.7816 0.5290
vn -0.7294 0.6078 0.3140
vn -0.8301 0.5429 0.1271
vn 0.0919 0.7983 0.5952
vn 0.5133 0.7394 0.4358
vn 0.7726 0.6008 0.2054
vn 0.7651 0.6004 0.2326
vn 0.9055 0.4241 0.0126
vn 0.9342 0.3325 -0.1293
vn 0.9629 0.1760 -0.2048
vn 0.9383 0.1683 -0.3020
vn 0.9783 0.0560 -0.1994
vn 0.9979 0.0079 -0.0639
vn 0.9931 -0.0978 0.0649
vn 0.9731 -0.1721 0.1534
vn 0.9103 -0.3406 0.2353
vn 0.8564 -0.4211 0.2987
vn 0.6698 -0.5754 0.4694
vn 0.5191 -0.6211 0.5871
vn 0.2300 -0.7244 0.6498
vn 0.0487 -0.6951 0.7173
vn -0.2596 -0.6755 0.6901
vn -0.4066 -0.6423 0.6497
vn -0.6993 -0.5842 0.4120
vn -0.6804 -0.5980 0.4236
vn -0.8912 -0.4114 0.1911
vn -0.9375 -0.3458 0.0386
vn -0.9816 -0.1787 -0.0678
vn -0.9787 -0.1023 -0.1782
vn -0.9788 0.0835 -0.1872
vn -0.9681 0.0762 -0.2388
vn -0.9455 0.2763 -0.1723
vn -0.9298 0.3670 -0.0263
vn -0.9022 0.1030 0.4189
vn -0.9538 0.1076 0.2803
vn -0.9785 0.1009 0.1799
vn -0.9892 0.0670 0.1302
vn -0.9911 0.0607 0.1188
vn -0.9739 0.0441 0.2229
vn -0.9917 -0.0075 0.1285
vn -0.9303 0.0137 0.3665
vn -0.9640 -0.0115 0.2655
vn -0.9898 -0.0123 0.1422
vn -0.9422 -0.0035 0.3351
vn -0.8791 -0.0140 0.4765
vn -0.8127 -0.0491 0.5806
vn -0.6844 -0.0801 0.7247
vn -0.5984 -0.0920 0.7959
vn -0.3812 -0.0784 0.9212
vn -0.2522 -0.0477 0.9665
vn 0.0853 -0.0258 0.9960
vn 0.0812 -0.0065 0.9967
vn 0.4088 0.0100 0.9126
vn 0.5347 0.0372 0.8442
vn 0.7392 0.0971 0.6664
vn 0.8132 0.0860 0.5756
vn 0.9308 0.0802 0.3565
vn 0.9789 0.0629 0.1945
vn 0.9911 0.0934 0.0951
vn 0.9942 0.0771 0.0750
vn 0.9935 0.0911 0.0683
vn 0.9899 0.1250 0.0669
vn 0.9868 0.1432 0.0759
vn 0.9891 0.1278 0.0736
vn 0.4105 -0.6941 -0.5914
vn -0.0134 -0.7224 -0.6914
vn 0.3300 -0.7708 -0.5450
vn 0.7304 -0.6163 -0.2944
vn 0.8229 -0.5593 -0.1002
vn -0.0929 -0.7908 -0.6050
vn -0.3652 -0.5521 -0.7495
vn -0.5145 -0.7392 -0.4346
vn -0.7687 -0.6074 -0.2004
vn -0.7592 -0.6160 -0.2102
vn -0.9007 -0.4341 -0.0164
vn -0.9343 -0.3389 0.1103
vn -0.9668 -0.1770 0.1844
vn -0.9454 -0.1693 0.2786
vn -0.9816 -0.0557 0.1827
vn -0.9987 -0.0083 0.0511
vn -0.9926 0.0970 -0.0734
vn -0.9723 0.1707 -0.1597
vn -0.9089 0.3428 -0.2375
vn -0.8536 0.4252 -0.3010
vn -0.6661 0.5865 -0.4608
vn -0.5166 0.6314 -0.5784
vn -0.2285 0.7395 -0.6332
vn -0.0475 0.7048 -0.7079
vn 0.2585 0.6857 -0.6804
vn 0.4025 0.6496 -0.6450
vn 0.6946 0.5903 -0.4112
vn 0.6756 0.6033 -0.4237
vn 0.8888 0.4136 -0.1975
vn 0.9359 0.3497 -0.0438
vn 0.9817 0.1807 0.0600
vn 0.9795 0.1047 0.1722
vn 0.9805 -0.0836 0.1777
vn 0.9700 -0.0758 0.2311
vn 0.9446 -0.2855 0.1619
vn 0.9245 -0.3801 0.0280
vn -0.3651 -0.5519 -0.7497
vn -0.5374 -0.3628 -0.7613
vn -0.6177 -0.0134 -0.7863
vn -0.6170 0.3547 -0.7025
vn 0.9003 -0.0968 -0.4243
vn 0.9521 -0.1085 -0.2858
vn 0.9781 -0.1010 -0.1821
vn 0.9731 -0.0448 -0.2260
vn 0.9289 -0.0163 -0.3701
vn 0.9636 0.0106 -0.2672
vn 0.8781 0.0098 -0.4783
vn 0.4803 0.8646 0.1472
vn 0.9892 -0.0670 -0.1306
vn 0.9910 -0.0605 -0.1194
vn 0.9915 0.0078 -0.1295
vn 0.9896 0.0129 -0.1435
vn 0.9417 0.0031 -0.3363
vn 0.8113 0.0446 -0.5830
vn 0.6830 0.0702 -0.7270
vn 0.5966 0.0833 -0.7982
vn 0.3796 0.0647 -0.9229
vn 0.2499 0.0318 -0.9677
vn -0.0842 0.0056 -0.9964
vn -0.0790 -0.0133 -0.9968
vn -0.4048 -0.0259 -0.9140
vn -0.5304 -0.0540 -0.8460
vn -0.7349 -0.1064 -0.6698
vn -0.8110 -0.0949 -0.5772
vn -0.9302 -0.0815 -0.3578
vn -0.9788 -0.0633 -0.1949
vn -0.9911 -0.0919 -0.0965
vn -0.9942 -0.0770 -0.0754
vn -0.9935 -0.0914 -0.0686
vn -0.9898 -0.1253 -0.0674
vn -0.9867 -0.1433 -0.0770
vn -0.9890 -0.1276 -0.0749
vn -0.5380 0.8430 0.0010
vn -0.6167 0.3551 -0.7025
vn 0.0587 -0.1601 -0.9853
vn -0.2499 -0.1102 -0.9620
vn -0.0894 0.0841 -0.9924
vn -0.5293 -0.1127 0.8409
vn -0.3800 0.3848 0.8412
vn -0.2921 0.2461 0.9242
vn -0.4224 -0.0742 0.9034
vn -0.5188 -0.7736 0.3638
vn -0.7839 -0.6208 0.0109
vn -0.9618 -0.1094 -0.2509
vn -0.9480 -0.2216 -0.2283
vn -0.9570 -0.1695 -0.2353
vn -0.9505 -0.2243 -0.2150
vn -0.9569 -0.1086 -0.2693
vn -0.9432 -0.1399 -0.3012
vn -0.9543 -0.1820 -0.2371
vn -0.9210 -0.1660 -0.3525
vn -0.9684 -0.1571 -0.1937
vn -0.9890 -0.1377 0.0549
vn -0.9788 -0.1410 -0.1483
vn -0.9907 -0.1257 0.0523
vn -0.9872 -0.1380 -0.0801
vn -0.9984 -0.0368 0.0426
vn -0.9245 -0.1525 -0.3492
vn -0.9271 -0.1562 -0.3407
vn -0.9766 -0.0472 -0.2099
vn -0.9840 0.1243 -0.1277
vn -0.9494 0.0098 -0.3139
vn -0.9308 -0.1204 -0.3451
vn 0.0959 0.8162 0.5697
vn 0.2216 0.4325 0.8740
vn 0.1363 0.9628 0.2332
vn 0.2017 0.4406 0.8748
vn 0.2794 0.1767 0.9438
vn 0.3235 0.1708 0.9307
vn 0.2742 -0.1168 0.9545
vn 0.2568 -0.1192 0.9591
vn 0.2487 -0.0058 0.9686
vn 0.2929 -0.0039 0.9561
vn 0.1924 0.1405 0.9712
vn 0.1320 0.1407 0.9812
vn 0.0800 -0.0697 0.9944
vn 0.1883 -0.0659 0.9799
vn 0.0263 -0.2481 0.9684
vn 0.1922 -0.2981 0.9350
vn 0.0574 0.5701 0.8196
vn 0.4975 0.4993 0.7093
vn 0.1789 0.4880 0.8543
vn -0.2244 0.3883 0.8938
vn 0.4262 0.2654 0.8648
vn 0.3115 0.1785 0.9333
vn 0.5644 -0.1146 0.8175
vn 0.3759 -0.0158 0.9265
vn 0.2365 0.3214 0.9169
vn 0.4285 0.4743 0.7691
vn 0.2168 0.5171 0.8280
vn 0.1252 0.5099 0.8510
vn 0.0332 0.4576 0.8885
vn 0.5645 -0.1452 0.8125
vn -0.4005 -0.1690 0.9006
vn -0.5542 -0.1283 0.8224
vn -0.3526 0.3338 0.8742
vn -0.0513 0.5063 0.8608
vn 0.5231 -0.1248 0.8431
vn 0.3437 0.0897 0.9348
vn 0.3807 -0.1118 0.9179
vn -0.5476 -0.2073 0.8107
vn -0.3213 -0.3713 0.8711
vn -0.1294 -0.0763 0.9887
vn -0.5546 0.1296 0.8219
vn 0.3224 -0.0838 0.9429
vn -0.5186 -0.1117 0.8477
vn 0.2140 -0.0651 0.9747
vn 0.2782 -0.0763 0.9575
vn -0.5676 -0.0926 0.8181
vn 0.6581 -0.0343 0.7522
vn -0.2620 0.4728 0.8413
vn -0.2626 0.5461 0.7955
vn -0.4329 0.5626 0.7043
vn -0.6428 0.3971 0.6551
vn -0.3221 0.5857 0.7438
vn -0.0008 0.4819 0.8762
vn 0.8746 0.3068 0.3756
vn 0.2170 0.2996 0.9291
vn 0.0481 0.0409 0.9980
vn 0.6632 -0.0660 0.7455
vn -0.6872 0.1526 0.7102
vn -0.3289 0.0955 0.9395
vn -0.3995 -0.0366 0.9160
vn -0.5235 -0.0256 0.8516
vn 0.4091 0.0134 0.9124
vn 0.4792 0.0529 0.8761
vn 0.8222 0.0123 0.5691
vn 0.7966 -0.3015 0.5239
vn 0.8709 -0.4321 0.2342
vn 0.5918 -0.4442 0.6726
vn 0.9957 -0.0446 0.0809
vn 0.9669 -0.0339 0.2529
vn 0.9845 -0.0158 0.1749
vn 0.9592 -0.1348 -0.2485
vn 0.9226 -0.1004 -0.3726
vn 0.6858 -0.0592 -0.7254
vn 0.9673 -0.0794 0.2407
vn 0.9973 -0.0729 0.0021
vn 0.8684 -0.0329 -0.4947
vn 0.6472 0.0151 -0.7622
vn 0.7557 -0.0933 -0.6482
vn 0.9968 -0.0555 0.0569
vn 0.9311 -0.0588 -0.3600
vn 0.7872 -0.0879 -0.6104
vn 0.9202 -0.0654 -0.3861
vn 0.9964 -0.0287 -0.0794
vn 0.9965 -0.0194 -0.0813
vn 0.9653 -0.0746 0.2502
vn 0.9991 -0.0407 -0.0078
vn 0.9997 -0.0222 -0.0107
vn 0.9992 -0.0110 -0.0372
vn 0.9989 0.0478 -0.0027
vn 0.9967 0.0322 -0.0739
vn 0.9277 -0.0721 -0.3663
vn 0.9308 0.0170 -0.3653
vn 0.8234 -0.1040 -0.5579
vn 0.8281 -0.0130 -0.5604
vn 0.9211 0.1083 -0.3739
vn 0.9868 0.1293 -0.0975
vn -0.2437 0.1411 -0.9595
vn -0.1186 0.0128 -0.9929
vn -0.0776 -0.0411 -0.9961
vn -0.0486 -0.1242 -0.9911
vn -0.1034 -0.1519 -0.9830
vn -0.1562 -0.1455 -0.9770
vn 0.7316 -0.0952 -0.6751
vn 0.5510 -0.0600 -0.8324
vn 0.7017 -0.0580 -0.7101
vn 0.4207 -0.0592 -0.9053
vn -0.0773 -0.0414 -0.9961
vn -0.0694 -0.0817 -0.9942
vn -0.3823 -0.0920 -0.9195
vn -0.5233 -0.1053 -0.8456
vn -0.6015 -0.1290 -0.7884
vn -0.6651 -0.1818 -0.7243
vn 0.6619 -0.0886 -0.7444
vn 0.3101 -0.1172 -0.9435
vn -0.1324 -0.1363 -0.9818
vn -0.4127 -0.1514 -0.8982
vn -0.5712 -0.1572 -0.8057
vn -0.4703 -0.2035 -0.8587
vn -0.5939 -0.1925 -0.7812
vn -0.2622 0.6210 0.7387
vn -0.2479 0.9077 0.3386
vn -0.2937 0.9556 0.0247
vn -0.2161 0.4024 0.8896
vn -0.2451 0.1456 0.9585
vn -0.2530 0.1128 0.9609
vn -0.2623 0.0623 0.9630
vn -0.1609 0.0331 0.9864
vn -0.0559 -0.3345 0.9407
vn 0.1302 -0.3015 0.9445
vn -0.1490 -0.3148 0.9374
vn -0.2612 -0.3437 0.9020
vn -0.2542 0.0682 0.9648
vn -0.2849 0.1100 0.9522
vn -0.1173 -0.1994 -0.9729
vn -0.0904 -0.1786 -0.9798
vn -0.1918 -0.1612 -0.9681
vn -0.2384 -0.1659 -0.9569
vn -0.2424 -0.1386 -0.9602
vn -0.1474 -0.0362 -0.9884
vn -0.0622 -0.2533 -0.9654
vn -0.0632 -0.2745 -0.9595
vn -0.5375 -0.3632 -0.7610
vn -0.2871 0.1170 -0.9507
vn -0.6169 0.3552 -0.7023
vn -0.5534 0.7160 -0.4255
vn -0.5376 0.8432 0.0005
vn -0.5865 -0.2534 -0.7692
vn -0.3752 -0.2758 -0.8850
vn -0.1350 -0.2035 -0.9697
vn -0.0527 -0.2561 -0.9652
vn 0.4104 -0.6940 -0.5916
vn 0.3017 -0.2049 -0.9311
vn 0.5776 -0.0406 -0.8153
vn 0.5966 -0.1616 -0.7861
vn 0.3736 -0.1583 -0.9140
vn 0.6179 -0.1456 -0.7727
vn -0.5373 -0.3630 -0.7612
vn -0.3652 -0.5517 -0.7499
vn -0.1184 -0.1880 -0.9750
vn -0.1039 -0.1991 -0.9745
vn -0.0895 -0.2344 -0.9680
vn -0.1067 -0.2321 -0.9668
vn 0.4801 0.8648 0.1472
vn 0.0868 0.8982 -0.4308
vn -0.0943 0.2091 -0.9733
vn 0.5779 -0.0405 -0.8151
vn 0.7983 -0.1015 -0.5937
vn -0.7999 0.1694 0.5758
vn -0.7212 0.2161 0.6581
vn -0.6822 0.2703 0.6793
vn -0.4334 0.3331 0.8374
vn -0.5503 0.1691 0.8177
vn -0.7957 0.1061 0.5963
vn -0.8620 0.0751 0.5013
vn -0.8415 0.0370 0.5390
vn -0.7356 0.0058 0.6774
vn -0.7151 0.0005 0.6991
vn -0.3173 0.4216 0.8494
vn 0.0451 0.4248 0.9042
vn 0.0686 0.2545 0.9646
vn -0.4436 0.0091 0.8962
vn 0.0368 0.4636 0.8853
vn 0.3734 0.4293 0.8224
vn 0.4882 0.3569 0.7965
vn 0.5963 0.2565 0.7606
vn 0.5485 0.0898 0.8313
vn 0.0710 0.0224 0.9972
vn -0.3925 -0.0723 0.9169
vn -0.6532 -0.0246 0.7568
vn 0.6966 0.2811 0.6601
vn 0.7310 0.2780 0.6233
vn 0.8116 0.2056 0.5469
vn 0.8014 0.1037 0.5890
vn 0.7598 0.0620 0.6472
vn 0.5271 0.0064 0.8498
vn 0.0649 -0.0863 0.9942
vn 0.8090 0.2346 0.5390
vn 0.8675 0.1296 0.4803
vn 0.8891 0.1278 0.4396
vn 0.8328 0.0957 0.5452
vn 0.7267 0.0896 0.6810
vn 0.4233 -0.0750 0.9029
vn 0.0715 -0.1060 0.9918
vn -0.2738 -0.1263 0.9534
vn -0.6012 -0.0205 0.7988
vn 0.8106 -0.1708 -0.5601
vn 0.6859 -0.2767 -0.6730
vn 0.7248 -0.2191 -0.6532
vn 0.8006 -0.1056 -0.5898
vn 0.5478 -0.1692 -0.8193
vn 0.4327 -0.3352 -0.8369
vn 0.3195 -0.4246 -0.8471
vn -0.0444 -0.4266 -0.9034
vn -0.0369 -0.4662 -0.8839
vn -0.3753 -0.4325 -0.8198
vn 0.8680 -0.0749 -0.4909
vn 0.8480 -0.0360 -0.5287
vn 0.7399 -0.0053 -0.6727
vn 0.4419 -0.0098 -0.8970
vn -0.0674 -0.2540 -0.9649
vn -0.4871 -0.3598 -0.7958
vn -0.6994 -0.2876 -0.6543
vn -0.7325 -0.2811 -0.6201
vn -0.8152 -0.2349 -0.5294
vn 0.7299 0.0093 -0.6835
vn 0.6587 0.0329 -0.7517
vn 0.3918 0.0763 -0.9169
vn -0.0705 -0.0231 -0.9972
vn -0.5463 -0.0901 -0.8327
vn -0.5942 -0.2561 -0.7625
vn -0.8143 -0.2048 -0.5432
vn -0.8720 -0.1287 -0.4723
vn 0.6074 0.0352 -0.7936
vn 0.2742 0.1328 -0.9525
vn -0.0665 0.0913 -0.9936
vn -0.5269 -0.0014 -0.8499
vn -0.7611 -0.0571 -0.6461
vn -0.8021 -0.1045 -0.5880
vn -0.8914 -0.1294 -0.4344
vn -0.0736 0.1147 -0.9907
vn -0.4259 0.0829 -0.9010
vn -0.7309 -0.0790 -0.6780
vn -0.8373 -0.0931 -0.5387
vt 0.630615 0.256655
vt 0.638429 0.251588
vt 0.635333 0.254787
vt 0.365936 0.245240
vt 0.373626 0.246935
vt 0.371065 0.270188
vt 0.641211 0.004747
vt 0.676531 0.000000
vt 0.643508 0.012419
vt 0.449307 0.933872
vt 0.502364 0.949322
vt 0.444090 0.944114
vt 0.416039 0.939946
vt 0.374347 0.936004
vt 0.416304 0.922930
vt 0.583273 0.973501
vt 0.586468 0.966709
vt 0.295875 0.693907
vt 0.298017 0.691970
vt 0.307541 0.699684
vt 0.306872 0.701382
vt 0.313354 0.702848
vt 0.315488 0.699987
vt 0.324145 0.696834
vt 0.313400 0.703938
vt 0.324846 0.697829
vt 0.335647 0.689754
vt 0.336304 0.690779
vt 0.340439 0.688049
vt 0.339786 0.687022
vt 0.346373 0.684392
vt 0.345764 0.683338
vt 0.352578 0.679932
vt 0.351937 0.678897
vt 0.358893 0.674405
vt 0.359576 0.675413
vt 0.284340 0.675141
vt 0.278429 0.651165
vt 0.283201 0.650753
vt 0.288105 0.674136
vt 0.353123 0.396432
vt 0.359576 0.399043
vt 0.344489 0.436403
vt 0.338068 0.433867
vt 0.327200 0.483488
vt 0.320815 0.481388
vt 0.309364 0.518885
vt 0.315467 0.520850
vt 0.308965 0.539690
vt 0.303223 0.537902
vt 0.296170 0.583562
vt 0.290810 0.582281
vt 0.612199 0.314070
vt 0.610063 0.315289
vt 0.593195 0.282411
vt 0.596421 0.280639
vt 0.585406 0.264878
vt 0.587700 0.263588
vt 0.577669 0.249416
vt 0.579908 0.248107
vt 0.568765 0.232638
vt 0.570907 0.231393
vt 0.562329 0.216359
vt 0.559721 0.217837
vt 0.549311 0.196587
vt 0.546331 0.198345
vt 0.533208 0.173296
vt 0.528945 0.176302
vt 0.514004 0.149385
vt 0.510221 0.152377
vt 0.484683 0.115439
vt 0.481584 0.118490
vt 0.626158 0.256598
vt 0.621982 0.256232
vt 0.617411 0.249192
vt 0.639493 0.241062
vt 0.620717 0.230008
vt 0.614576 0.240964
vt 0.616488 0.233999
vt 0.613601 0.238160
vt 0.626069 0.227911
vt 0.631208 0.227847
vt 0.639493 0.234799
vt 0.637580 0.229808
vt 0.639312 0.230379
vt 0.494797 0.243850
vt 0.494517 0.244956
vt 0.489429 0.243397
vt 0.498269 0.246317
vt 0.499178 0.245059
vt 0.489401 0.244665
vt 0.484743 0.243966
vt 0.484878 0.245083
vt 0.479344 0.245504
vt 0.480030 0.247373
vt 0.475873 0.251152
vt 0.474339 0.250209
vt 0.474087 0.255180
vt 0.472219 0.254620
vt 0.471575 0.259971
vt 0.473162 0.260219
vt 0.473330 0.266411
vt 0.475004 0.265465
vt 0.477664 0.271648
vt 0.478727 0.270363
vt 0.482528 0.274510
vt 0.483111 0.273386
vt 0.488055 0.275959
vt 0.488651 0.274489
vt 0.493209 0.275844
vt 0.493193 0.274098
vt 0.498937 0.273840
vt 0.498070 0.272564
vt 0.502021 0.268718
vt 0.504029 0.269461
vt 0.504671 0.262636
vt 0.506649 0.262448
vt 0.504557 0.255427
vt 0.506649 0.254970
vt 0.504728 0.250445
vt 0.502495 0.250971
vt 0.399125 0.214237
vt 0.393321 0.190616
vt 0.420827 0.199636
vt 0.415803 0.181683
vt 0.384873 0.154921
vt 0.398831 0.149728
vt 0.423209 0.136697
vt 0.448807 0.171276
vt 0.455810 0.126589
vt 0.460096 0.188149
vt 0.483432 0.160535
vt 0.500624 0.187829
vt 0.529988 0.204517
vt 0.547392 0.223921
vt 0.558219 0.239906
vt 0.568175 0.256887
vt 0.574222 0.274626
vt 0.573563 0.297325
vt 0.598068 0.331225
vt 0.563499 0.317937
vt 0.584605 0.343642
vt 0.550442 0.330801
vt 0.572420 0.355374
vt 0.561687 0.360617
vt 0.536764 0.339712
vt 0.194367 0.991728
vt 0.150993 0.995098
vt 0.191815 0.982268
vt 0.222788 0.971953
vt 0.229380 0.980004
vt 0.150797 0.984215
vt 0.112942 0.990041
vt 0.114336 0.980948
vt 0.070525 0.976064
vt 0.075477 0.963132
vt 0.042895 0.933960
vt 0.029833 0.941166
vt 0.028591 0.902791
vt 0.013414 0.907223
vt 0.008949 0.866505
vt 0.021713 0.864385
vt 0.023369 0.817275
vt 0.036880 0.824277
vt 0.057527 0.777078
vt 0.065821 0.786457
vt 0.096644 0.754757
vt 0.101301 0.762610
vt 0.141044 0.743461
vt 0.145930 0.754008
vt 0.182946 0.744779
vt 0.182809 0.757587
vt 0.228707 0.760329
vt 0.221797 0.769573
vt 0.253034 0.799638
vt 0.268880 0.794682
vt 0.274085 0.846589
vt 0.289242 0.848385
vt 0.273181 0.901828
vt 0.289242 0.905517
vt 0.274350 0.940282
vt 0.256581 0.936350
vt 0.290417 0.761351
vt 0.278429 0.744158
vt 0.284582 0.735434
vt 0.290417 0.703938
vt 0.599440 0.040377
vt 0.573123 0.032666
vt 0.579352 0.064314
vt 0.560803 0.056468
vt 0.544359 0.090467
vt 0.559468 0.105778
vt 0.527000 0.124499
vt 0.550567 0.148631
vt 0.535563 0.019772
vt 0.528545 0.034082
vt 0.511647 0.057940
vt 0.496448 0.090483
vt 0.559326 0.183811
vt 0.571787 0.208602
vt 0.581105 0.226967
vt 0.590089 0.245349
vt 0.600893 0.261235
vt 0.619429 0.274727
vt 0.631923 0.314228
vt 0.641970 0.279649
vt 0.649758 0.311165
vt 0.660067 0.277227
vt 0.666063 0.308602
vt 0.676531 0.303301
vt 0.675544 0.271459
vt 0.127390 0.314889
vt 0.116188 0.315514
vt 0.128564 0.283160
vt 0.044827 0.348373
vt 0.035368 0.322769
vt 0.056138 0.315985
vt 0.028966 0.351007
vt 0.058418 0.381506
vt 0.068323 0.370913
vt 0.059277 0.275159
vt 0.108598 0.261894
vt 0.059488 0.225795
vt 0.110335 0.195794
vt 0.061042 0.189909
vt 0.020054 0.183436
vt 0.057653 0.136428
vt 0.015550 0.134642
vt 0.054637 0.095447
vt 0.013981 0.094948
vt 0.017743 0.047023
vt 0.112208 0.144603
vt 0.114304 0.097032
vt 0.049572 0.043716
vt 0.046722 0.014095
vt 0.093924 0.014450
vt 0.117874 0.038265
vt 0.340781 0.010958
vt 0.354860 0.066027
vt 0.328978 0.015064
vt 0.365936 0.063411
vt 0.365936 0.113114
vt 0.354275 0.113280
vt 0.351361 0.161294
vt 0.361905 0.164626
vt 0.336528 0.209842
vt 0.321727 0.206583
vt 0.330124 0.251296
vt 0.339148 0.252578
vt 0.318777 0.312588
vt 0.310449 0.310504
vt 0.296609 0.363946
vt 0.302207 0.371232
vt 0.969545 0.725885
vt 0.967318 0.741152
vt 0.887591 0.737080
vt 0.877112 0.721275
vt 0.805473 0.738424
vt 0.804113 0.724957
vt 0.726512 0.735493
vt 0.727502 0.768176
vt 0.809100 0.794918
vt 0.899277 0.764277
vt 0.949639 0.795187
vt 0.904970 0.790797
vt 0.943497 0.836458
vt 0.660469 0.777264
vt 0.670689 0.898765
vt 0.734495 0.903310
vt 0.810340 0.885768
vt 0.899821 0.838373
vt 0.648099 0.730025
vt 0.592993 0.758932
vt 0.598788 0.784998
vt 0.601791 0.890876
vt 0.666736 0.939415
vt 0.741257 0.941100
vt 0.800651 0.940554
vt 0.505640 0.794716
vt 0.513034 0.884408
vt 0.500459 0.772006
vt 0.448444 0.802311
vt 0.456493 0.883384
vt 0.415678 0.786404
vt 0.944168 0.881721
vt 0.900634 0.898107
vt 0.954523 0.926217
vt 0.898860 0.924347
vt 0.969545 0.962348
vt 0.900094 0.952224
vt 0.889828 0.977663
vt 0.813110 0.950913
vt 0.744619 0.955406
vt 0.669023 0.951803
vt 0.587392 0.748660
vt 0.646743 0.722948
vt 0.416804 0.891364
vt 0.373300 0.892946
vt 0.409392 0.801217
vt 0.366130 0.800228
vt 0.371513 0.770187
vt 0.277730 0.396432
vt 0.254852 0.385101
vt 0.275394 0.380861
vt 0.271483 0.346710
vt 0.226619 0.312258
vt 0.214133 0.311335
vt 0.287554 0.298846
vt 0.242087 0.274300
vt 0.214035 0.294150
vt 0.223774 0.269307
vt 0.301551 0.258218
vt 0.253366 0.203385
vt 0.230538 0.201084
vt 0.259956 0.150772
vt 0.321103 0.159602
vt 0.322851 0.111581
vt 0.325819 0.059280
vt 0.265628 0.105333
vt 0.271297 0.051271
vt 0.236714 0.101402
vt 0.237282 0.042914
vt 0.272451 0.016022
vt 0.207087 0.282082
vt 0.209433 0.264725
vt 0.214916 0.201354
vt 0.188335 0.275961
vt 0.189285 0.259019
vt 0.168797 0.273909
vt 0.168129 0.257597
vt 0.146521 0.256939
vt 0.146547 0.276315
vt 0.124658 0.256064
vt 0.191238 0.201028
vt 0.170816 0.199813
vt 0.149580 0.198646
vt 0.130941 0.195324
vt 0.151870 0.146052
vt 0.131567 0.145198
vt 0.035059 0.005958
vt 0.003480 0.044818
vt 0.000000 0.096555
vt 0.002344 0.138462
vt 0.006094 0.188252
vt 0.040089 0.233029
vt 0.043944 0.283668
vt 0.132739 0.098267
vt 0.131269 0.037474
vt 0.101802 0.007770
vt 0.059530 0.001907
vt 0.045328 0.000214
vt 0.153455 0.096633
vt 0.171573 0.146739
vt 0.172827 0.095151
vt 0.174166 0.040547
vt 0.200410 0.039706
vt 0.196759 0.098103
vt 0.223867 0.037346
vt 0.221344 0.102101
vt 0.195104 0.147803
vt 0.218541 0.148450
vt 0.151979 0.037325
vt 0.233861 0.147507
vt 0.307419 0.000000
vt 0.331162 0.002554
vt 0.270790 0.002282
vt 0.499459 0.251099
vt 0.494249 0.250585
vt 0.493997 0.256377
vt 0.500143 0.256037
vt 0.500114 0.262257
vt 0.489466 0.250092
vt 0.489138 0.256172
vt 0.493797 0.262046
vt 0.484591 0.250352
vt 0.484312 0.255803
vt 0.483989 0.261569
vt 0.488930 0.261983
vt 0.493572 0.268547
vt 0.499395 0.268255
vt 0.479858 0.251508
vt 0.479343 0.255623
vt 0.479137 0.261181
vt 0.478799 0.266078
vt 0.483606 0.267816
vt 0.488875 0.268529
vt 0.231275 0.934240
vt 0.236926 0.896660
vt 0.188502 0.894004
vt 0.190104 0.938286
vt 0.151508 0.942065
vt 0.236761 0.849393
vt 0.187131 0.850492
vt 0.149139 0.895561
vt 0.112386 0.939760
vt 0.075113 0.930609
vt 0.230933 0.804097
vt 0.185463 0.801206
vt 0.147773 0.850886
vt 0.107996 0.854085
vt 0.110292 0.898290
vt 0.071023 0.899437
vt 0.147605 0.801110
vt 0.105353 0.806702
vt 0.067426 0.820108
vt 0.069529 0.857051
s 1
usemtl act\nosorog\act_nosorog_parts
f 26/1/1 23/2/2 59/3/3
f 187/4/4 230/5/5 189/6/6
f 23/7/7 59/8/8 50/9/9
f 9/10/10 148/11/11 73/12/12
f 7/13/13 74/14/14 124/15/15
f 104/16/16 148/11/11 152/17/17
f 26/18/18 82/19/19 220/20/20
f 26/18/18 220/20/20 94/21/21
f 94/21/21 220/20/20 83/22/22
f 220/20/20 219/23/23 83/22/22
f 83/22/22 219/23/23 192/24/24
f 94/21/21 83/22/22 22/25/25
f 22/25/25 83/22/22 192/24/24
f 22/25/25 192/24/24 88/26/26
f 88/26/26 192/24/24 210/27/27
f 88/26/26 210/27/27 81/28/28
f 197/29/29 81/28/28 210/27/27
f 197/29/29 210/27/27 199/30/30
f 92/31/31 197/29/29 199/30/30
f 92/31/31 199/30/30 194/32/32
f 87/33/33 92/31/31 194/32/32
f 87/33/33 194/32/32 195/34/34
f 87/33/33 195/34/34 24/35/35
f 87/33/33 24/35/35 102/36/36
f 59/37/3 23/38/7 187/39/4
f 59/37/3 187/39/4 189/40/6
f 26/18/18 59/37/3 189/40/6
f 26/18/18 189/40/6 82/19/19
f 97/41/37 79/42/38 209/43/39
f 97/41/37 209/43/39 90/44/40
f 90/44/40 209/43/39 206/45/41
f 90/44/40 206/45/41 101/46/42
f 84/47/43 101/46/42 206/45/41
f 84/47/43 206/45/41 202/48/44
f 84/47/43 202/48/44 80/49/45
f 84/47/43 80/49/45 98/50/46
f 98/50/46 80/49/45 191/51/47
f 98/50/46 191/51/47 93/52/48
f 93/52/48 191/51/47 187/39/4
f 93/52/48 187/39/4 23/38/7
f 102/53/36 24/54/35 208/55/49
f 102/53/36 208/55/49 99/56/50
f 99/56/50 208/55/49 193/57/51
f 99/56/50 193/57/51 113/58/52
f 113/58/52 193/57/51 198/59/53
f 113/58/52 198/59/53 14/60/54
f 14/60/54 198/59/53 203/61/55
f 14/60/54 203/61/55 65/62/56
f 61/63/57 65/62/56 203/61/55
f 61/63/57 203/61/55 207/64/58
f 45/65/59 61/63/57 207/64/58
f 45/65/59 207/64/58 204/66/60
f 55/67/61 45/65/59 204/66/60
f 55/67/61 204/66/60 188/68/62
f 100/69/63 55/67/61 188/68/62
f 100/69/63 188/68/62 190/70/64
f 97/71/37 100/69/63 190/70/64
f 97/71/37 190/70/64 79/72/38
f 94/73/65 22/74/66 88/75/67
f 94/73/65 88/75/67 93/76/68
f 77/77/69 93/76/68 88/75/67
f 88/75/67 81/78/70 77/77/69
f 6/79/71 77/77/69 81/78/70
f 5/80/72 6/79/71 81/78/70
f 26/1/1 94/73/65 93/76/68
f 93/76/68 23/2/2 26/1/1
f 77/77/69 76/81/73 93/76/68
f 76/81/73 27/82/74 93/76/68
f 98/83/75 93/76/68 27/82/74
f 27/82/74 25/84/76 98/83/75
f 25/84/76 78/85/77 98/83/75
f 189/86/6 205/87/78 82/88/19
f 196/89/79 205/87/78 189/86/6
f 189/86/6 230/90/80 196/89/79
f 205/87/78 217/91/81 82/88/19
f 82/88/19 217/91/81 220/92/20
f 220/92/20 217/91/81 223/93/82
f 223/93/82 219/94/83 220/92/20
f 231/95/84 219/94/83 223/93/82
f 239/96/85 219/94/83 231/95/84
f 192/97/86 219/94/83 239/96/85
f 192/97/86 239/96/85 243/98/87
f 243/98/87 218/99/88 192/97/86
f 246/100/89 218/99/88 243/98/87
f 254/101/90 246/100/89 243/98/87
f 254/101/90 262/102/91 246/100/89
f 222/103/92 262/102/91 254/101/90
f 232/104/93 262/102/91 222/103/92
f 222/103/92 240/105/94 232/104/93
f 240/105/94 233/106/95 232/104/93
f 224/107/96 233/106/95 240/105/94
f 248/108/97 233/106/95 224/107/96
f 251/109/98 248/108/97 224/107/96
f 236/110/99 248/108/97 251/109/98
f 251/109/98 226/111/100 236/110/99
f 226/111/100 273/112/101 236/110/99
f 250/113/102 273/112/101 226/111/100
f 249/114/103 273/112/101 250/113/102
f 277/115/104 273/112/101 249/114/103
f 229/116/105 277/115/104 249/114/103
f 276/117/106 277/115/104 229/116/105
f 229/116/105 227/118/107 276/117/106
f 276/117/106 227/118/107 278/119/108
f 278/119/108 227/118/107 279/120/109
f 279/120/109 227/118/107 235/121/110
f 235/121/110 230/90/80 279/120/109
f 196/89/79 230/90/80 235/121/110
f 279/122/111 230/5/5 187/4/4
f 191/123/47 279/122/111 187/4/4
f 191/123/47 278/124/112 279/122/111
f 191/123/47 280/125/113 278/124/112
f 80/126/45 280/125/113 191/123/47
f 202/127/114 280/125/113 80/126/45
f 206/128/115 280/125/113 202/127/114
f 274/129/116 280/125/113 206/128/115
f 206/128/115 209/130/117 274/129/116
f 278/124/112 280/125/113 274/129/116
f 276/131/118 278/124/112 274/129/116
f 274/129/116 275/132/119 276/131/118
f 209/130/117 275/132/119 274/129/116
f 79/72/120 275/132/119 209/130/117
f 190/70/121 275/132/119 79/72/120
f 277/133/122 275/132/119 190/70/121
f 188/68/123 277/133/122 190/70/121
f 188/68/123 273/134/124 277/133/122
f 204/66/125 273/134/124 188/68/123
f 276/131/118 275/132/119 277/133/122
f 236/135/126 273/134/124 204/66/125
f 207/64/127 236/135/126 204/66/125
f 207/64/127 248/136/128 236/135/126
f 203/61/129 248/136/128 207/64/127
f 198/59/130 248/136/128 203/61/129
f 198/59/130 233/137/131 248/136/128
f 193/57/132 233/137/131 198/59/130
f 232/138/133 233/137/131 193/57/132
f 208/55/134 232/138/133 193/57/132
f 208/55/134 262/139/135 232/138/133
f 24/54/136 262/139/135 208/55/134
f 195/140/137 262/139/135 24/54/136
f 246/141/138 262/139/135 195/140/137
f 194/142/139 246/141/138 195/140/137
f 194/142/139 218/143/140 246/141/138
f 199/144/141 218/143/140 194/142/139
f 210/145/27 218/143/140 199/144/141
f 192/146/24 218/143/140 210/145/27
f 59/147/142 26/148/143 288/149/144
f 52/150/145 59/147/142 288/149/144
f 59/147/142 52/150/145 50/151/146
f 288/149/144 26/148/143 290/152/147
f 26/148/143 94/153/148 290/152/147
f 94/153/148 282/154/149 290/152/147
f 282/154/149 94/153/148 286/155/150
f 284/156/151 282/154/149 286/155/150
f 289/157/152 284/156/151 286/155/150
f 88/158/153 289/157/152 286/155/150
f 88/158/153 281/159/154 289/157/152
f 281/159/154 88/158/153 91/160/155
f 86/161/156 281/159/154 91/160/155
f 291/162/157 281/159/154 86/161/156
f 291/162/157 86/161/156 85/163/158
f 118/164/159 291/162/157 85/163/158
f 109/165/160 118/164/159 85/163/158
f 118/164/159 109/165/160 112/166/161
f 112/166/161 109/165/160 15/167/162
f 30/168/163 112/166/161 15/167/162
f 60/169/164 30/168/163 15/167/162
f 64/170/165 30/168/163 60/169/164
f 44/171/166 64/170/165 60/169/164
f 64/170/165 44/171/166 20/172/167
f 20/172/167 44/171/166 56/173/168
f 62/174/169 20/172/167 56/173/168
f 21/175/170 62/174/169 56/173/168
f 54/176/171 21/175/170 56/173/168
f 58/177/172 21/175/170 54/176/171
f 53/178/173 58/177/172 54/176/171
f 58/177/172 53/178/173 48/179/174
f 53/178/173 47/180/175 48/179/174
f 47/180/175 46/181/176 48/179/174
f 46/181/176 49/182/177 48/179/174
f 49/182/177 46/181/176 50/151/146
f 52/150/145 49/182/177 50/151/146
f 94/183/178 22/184/179 286/185/180
f 22/184/179 88/186/181 286/185/180
f 46/187/182 23/7/7 50/9/9
f 93/188/48 23/7/7 46/187/182
f 93/188/48 46/187/182 47/189/183
f 93/188/48 47/189/183 89/190/184
f 47/189/183 95/191/185 89/190/184
f 53/192/186 95/191/185 47/189/183
f 95/191/185 53/192/186 96/193/187
f 53/192/186 54/194/188 96/193/187
f 98/195/189 93/188/48 89/190/184
f 84/196/190 98/195/189 89/190/184
f 101/197/191 84/196/190 89/190/184
f 95/191/185 101/197/191 89/190/184
f 101/197/191 95/191/185 90/198/192
f 90/198/192 95/191/185 96/193/187
f 97/71/193 90/198/192 96/193/187
f 100/69/194 97/71/193 96/193/187
f 54/194/188 100/69/194 96/193/187
f 55/67/195 100/69/194 54/194/188
f 55/67/195 54/194/188 56/199/196
f 45/65/197 55/67/195 56/199/196
f 44/200/198 45/65/197 56/199/196
f 61/63/199 45/65/197 44/200/198
f 61/63/199 44/200/198 60/201/200
f 65/62/201 61/63/199 60/201/200
f 14/60/202 65/62/201 60/201/200
f 14/60/202 60/201/200 15/202/203
f 113/58/204 14/60/202 15/202/203
f 109/203/205 113/58/204 15/202/203
f 99/56/206 113/58/204 109/203/205
f 99/56/206 109/203/205 85/204/207
f 102/53/208 99/56/206 85/204/207
f 87/205/209 102/53/208 85/204/207
f 86/206/210 87/205/209 85/204/207
f 92/207/211 87/205/209 86/206/210
f 92/207/211 86/206/210 91/208/212
f 197/209/213 92/207/211 91/208/212
f 81/210/214 197/209/213 91/208/212
f 88/211/215 81/210/214 91/208/212
f 72/212/216 69/213/217 70/214/218
f 125/215/219 73/216/220 71/217/221
f 7/218/222 73/216/220 125/215/219
f 125/215/219 74/219/223 7/218/222
f 134/220/224 74/219/223 125/215/219
f 69/213/225 134/220/226 71/217/227
f 71/217/227 134/220/226 125/215/228
f 71/217/227 269/221/229 69/213/225
f 69/213/225 269/221/229 264/222/230
f 264/222/230 269/221/229 103/223/231
f 264/222/230 103/223/231 18/224/232
f 18/224/232 103/223/231 16/225/233
f 103/223/231 105/226/234 16/225/233
f 105/226/234 157/227/235 16/225/233
f 157/227/235 105/226/234 38/228/236
f 157/227/235 38/228/236 156/229/237
f 38/228/236 36/230/236 156/229/237
f 36/230/236 106/231/238 156/229/237
f 17/232/239 18/224/232 16/225/233
f 157/227/235 17/232/239 16/225/233
f 157/227/235 162/233/240 17/232/239
f 162/233/240 157/227/235 156/229/237
f 159/234/241 162/233/240 156/229/237
f 106/231/238 159/234/241 156/229/237
f 106/231/238 107/235/242 159/234/241
f 107/235/242 108/236/243 159/234/241
f 159/234/241 108/236/243 158/237/244
f 162/233/240 159/234/241 158/237/244
f 78/238/245 237/239/246 126/240/247
f 127/241/248 237/239/246 78/238/245
f 127/241/248 132/242/249 237/239/246
f 237/239/246 132/242/249 238/243/250
f 132/242/249 268/244/251 238/243/250
f 150/245/252 268/244/251 132/242/249
f 150/245/252 265/246/253 268/244/251
f 268/244/251 265/246/253 119/247/254
f 265/246/253 13/248/255 119/247/254
f 135/249/256 13/248/255 265/246/253
f 2/250/257 13/248/255 135/249/256
f 13/248/255 2/250/257 41/251/258
f 2/250/257 121/252/259 41/251/258
f 122/253/260 121/252/259 2/250/257
f 78/254/261 25/255/262 28/256/263
f 127/257/264 78/254/261 28/256/263
f 127/257/264 28/256/263 129/258/265
f 132/259/266 127/257/264 129/258/265
f 150/260/267 132/259/266 129/258/265
f 151/261/268 150/260/267 129/258/265
f 143/262/269 151/261/268 129/258/265
f 128/263/270 143/262/269 129/258/265
f 28/256/263 128/263/270 129/258/265
f 25/255/262 128/263/270 28/256/263
f 25/255/262 27/264/271 128/263/270
f 128/263/270 27/264/271 133/265/272
f 27/264/271 76/266/273 133/265/272
f 272/267/274 150/260/267 151/261/268
f 272/267/274 151/261/268 140/268/275
f 151/261/268 271/269/276 140/268/275
f 143/262/269 271/269/276 151/261/268
f 271/269/276 143/262/269 144/270/277
f 144/270/277 143/262/269 130/271/278
f 130/271/278 143/262/269 133/265/272
f 143/262/269 128/263/270 133/265/272
f 267/272/279 150/260/267 272/267/274
f 272/267/274 139/273/280 267/272/279
f 139/273/280 272/267/274 3/274/281
f 272/267/274 146/275/282 3/274/281
f 146/275/282 272/267/274 140/268/275
f 1/276/283 146/275/282 140/268/275
f 271/269/276 1/276/283 140/268/275
f 1/276/283 271/269/276 136/277/284
f 136/277/284 271/269/276 137/278/285
f 137/278/285 271/269/276 144/270/277
f 141/279/286 139/273/280 3/274/281
f 153/280/287 141/279/286 3/274/281
f 146/275/282 153/280/287 3/274/281
f 2/281/288 139/273/280 141/279/286
f 131/282/289 2/281/288 141/279/286
f 8/283/290 131/282/289 141/279/286
f 153/280/287 8/283/290 141/279/286
f 148/11/11 8/283/290 153/280/287
f 152/17/17 148/11/11 153/280/287
f 152/17/17 153/280/287 146/275/282
f 122/284/291 2/281/288 131/282/289
f 9/10/10 8/283/290 148/11/11
f 1/276/283 152/17/17 146/275/282
f 76/266/273 130/271/278 133/265/272
f 76/266/273 77/285/292 130/271/278
f 130/271/278 77/285/292 4/286/293
f 77/285/292 6/287/294 4/286/293
f 6/287/294 149/288/295 4/286/293
f 6/287/294 5/289/296 149/288/295
f 149/288/295 5/289/296 142/290/297
f 137/278/285 149/288/295 142/290/297
f 137/278/285 144/270/277 149/288/295
f 144/270/277 130/271/278 4/286/293
f 149/288/295 144/270/277 4/286/293
f 5/289/296 145/291/298 142/290/297
f 145/291/298 39/292/299 142/290/297
f 39/292/299 137/278/285 142/290/297
f 138/293/300 137/278/285 39/292/299
f 136/277/284 137/278/285 138/293/300
f 147/294/301 136/277/284 138/293/300
f 1/276/283 136/277/284 147/294/301
f 104/16/16 1/276/283 147/294/301
f 152/17/17 1/276/283 104/16/16
f 139/273/280 2/281/288 135/295/302
f 135/295/302 265/296/303 139/273/280
f 139/273/280 265/296/303 267/272/279
f 267/272/279 265/296/303 150/260/267
f 8/283/290 9/10/10 124/15/15
f 8/283/290 124/15/15 154/297/304
f 154/297/304 124/15/15 42/298/305
f 124/15/15 74/14/14 42/298/305
f 131/282/289 8/283/290 154/297/304
f 123/299/306 131/282/289 154/297/304
f 123/299/306 154/297/304 42/298/305
f 43/300/307 123/299/306 42/298/305
f 122/284/291 131/282/289 123/299/306
f 75/301/308 122/284/291 123/299/306
f 75/301/308 123/299/306 43/300/307
f 9/10/10 73/12/12 124/15/15
f 73/12/12 7/13/13 124/15/15
f 75/302/309 33/303/310 155/304/311
f 122/253/260 75/302/309 155/304/311
f 121/252/259 122/253/260 155/304/311
f 120/305/312 121/252/313 155/304/314
f 33/303/315 120/305/312 155/304/314
f 33/303/315 32/306/316 120/305/312
f 32/306/316 33/303/315 34/307/317
f 121/252/313 120/305/312 41/251/318
f 120/305/312 40/308/319 41/251/318
f 120/305/312 32/306/316 40/308/319
f 40/308/319 32/306/316 12/309/320
f 32/306/316 34/307/317 12/309/320
f 34/307/317 10/310/321 12/309/320
f 10/310/321 200/311/322 12/309/320
f 41/251/318 40/308/319 11/312/323
f 40/308/319 12/309/320 11/312/323
f 12/309/320 212/313/324 11/312/323
f 200/311/322 212/313/324 12/309/320
f 212/313/324 200/311/322 178/314/325
f 212/313/324 178/314/325 213/315/326
f 266/316/327 212/313/324 213/315/326
f 214/317/328 266/316/327 213/315/326
f 13/248/329 41/251/318 11/312/323
f 119/247/330 13/248/329 11/312/323
f 212/313/324 119/247/330 11/312/323
f 266/316/327 119/247/330 212/313/324
f 119/247/330 266/316/327 268/244/331
f 268/244/331 266/316/327 238/243/332
f 266/316/327 214/317/328 238/243/332
f 214/317/328 237/239/333 238/243/332
f 270/318/334 237/239/333 214/317/328
f 215/319/335 270/318/334 214/317/328
f 270/318/334 215/319/335 216/320/336
f 216/320/336 215/319/335 180/321/337
f 185/322/338 216/320/336 180/321/337
f 185/322/338 181/323/339 216/320/336
f 181/323/339 126/240/340 216/320/336
f 270/318/334 126/240/340 237/239/333
f 126/240/340 270/318/334 216/320/336
f 10/310/341 35/324/342 200/311/343
f 200/311/343 35/324/342 177/325/344
f 178/314/345 200/311/343 177/325/344
f 174/326/346 178/314/345 177/325/344
f 35/324/347 37/327/348 177/325/349
f 37/327/348 173/328/350 177/325/349
f 37/327/348 165/329/351 173/328/350
f 173/328/350 165/329/351 169/330/352
f 169/330/352 165/329/351 172/331/353
f 165/329/351 166/332/354 172/331/353
f 166/332/354 160/333/355 172/331/353
f 166/332/354 70/214/356 160/333/355
f 173/328/350 174/326/357 177/325/349
f 174/326/357 173/328/350 175/334/358
f 173/328/350 169/330/352 175/334/358
f 169/330/352 170/335/359 175/334/358
f 170/335/359 169/330/352 172/331/353
f 171/336/360 170/335/359 172/331/353
f 160/333/355 171/336/360 172/331/353
f 171/336/360 160/333/355 164/337/361
f 167/338/362 171/336/360 164/337/361
f 161/339/363 167/338/362 164/337/361
f 106/231/364 5/340/365 107/235/366
f 145/341/367 5/340/365 106/231/364
f 145/341/367 106/231/364 36/230/368
f 39/342/369 145/341/367 36/230/368
f 39/342/369 36/230/368 38/228/370
f 138/343/371 39/342/369 38/228/370
f 105/226/372 138/343/371 38/228/370
f 147/344/373 138/343/371 105/226/372
f 105/226/372 104/345/374 147/344/373
f 103/223/375 104/345/374 105/226/372
f 269/221/376 104/345/374 103/223/375
f 148/346/377 104/345/374 269/221/376
f 71/217/221 148/346/377 269/221/376
f 73/216/220 148/346/377 71/217/221
f 17/232/378 161/339/379 164/337/380
f 18/224/381 17/232/378 164/337/380
f 160/333/382 18/224/381 164/337/380
f 264/222/383 18/224/381 160/333/382
f 70/214/218 264/222/383 160/333/382
f 70/214/218 69/213/217 264/222/383
f 161/339/379 17/232/378 163/347/384
f 17/232/378 162/233/385 163/347/384
f 162/233/385 22/348/386 163/347/384
f 22/348/386 162/233/385 158/237/387
f 88/349/388 22/348/386 158/237/387
f 108/236/389 88/349/388 158/237/387
f 88/349/388 108/236/389 81/350/390
f 81/350/390 108/236/389 107/235/366
f 5/351/365 81/350/390 107/235/366
f 167/338/362 161/339/363 163/347/391
f 168/352/392 167/338/362 163/347/391
f 168/352/392 176/353/393 167/338/362
f 176/353/393 168/352/392 201/354/394
f 168/352/392 26/355/18 201/354/394
f 26/355/18 59/356/395 201/354/394
f 201/354/394 59/356/395 182/357/396
f 59/356/395 23/358/397 182/357/396
f 23/358/397 183/359/398 182/357/396
f 176/353/393 171/336/360 167/338/362
f 171/336/360 176/353/393 170/335/359
f 176/353/393 186/360/399 170/335/359
f 186/360/399 176/353/393 182/357/396
f 176/353/393 201/354/394 182/357/396
f 170/335/359 186/360/399 175/334/358
f 186/360/399 174/326/357 175/334/358
f 174/326/357 186/360/399 179/361/400
f 186/360/399 183/359/398 179/361/400
f 183/359/398 186/360/399 182/357/396
f 22/348/401 168/352/392 163/347/391
f 22/348/401 94/362/402 168/352/392
f 94/362/402 26/355/18 168/352/392
f 178/314/345 174/326/346 179/361/403
f 184/363/404 178/314/345 179/361/403
f 183/359/405 184/363/404 179/361/403
f 184/363/404 183/359/405 180/321/406
f 98/364/407 78/365/245 126/240/247
f 126/240/247 181/323/408 98/364/407
f 98/364/407 181/323/408 93/366/48
f 93/366/48 181/323/408 185/322/409
f 23/358/410 93/366/48 185/322/409
f 23/358/410 185/322/409 183/359/405
f 183/359/405 185/322/409 180/321/406
f 178/314/325 184/363/411 213/315/326
f 184/363/411 215/319/335 213/315/326
f 215/319/335 184/363/411 180/321/337
f 215/319/335 214/317/328 213/315/326
f 235/121/412 211/367/413 196/89/414
f 196/89/414 211/367/413 255/368/415
f 255/368/415 211/367/413 245/369/416
f 245/369/416 211/367/413 228/370/417
f 228/370/417 211/367/413 235/121/412
f 235/121/412 227/118/418 228/370/417
f 228/370/417 227/118/418 229/116/419
f 229/116/419 252/371/420 228/370/417
f 249/114/421 252/371/420 229/116/419
f 255/368/415 205/87/422 196/89/414
f 257/372/423 205/87/422 255/368/415
f 255/368/415 247/373/424 257/372/423
f 245/369/416 247/373/424 255/368/415
f 242/374/425 247/373/424 245/369/416
f 245/369/416 252/371/420 242/374/425
f 228/370/417 252/371/420 245/369/416
f 257/372/423 217/91/426 205/87/422
f 223/93/427 217/91/426 257/372/423
f 256/375/428 223/93/427 257/372/423
f 257/372/423 247/373/424 256/375/428
f 256/375/428 247/373/424 258/376/429
f 258/376/429 247/373/424 263/377/430
f 263/377/430 247/373/424 244/378/431
f 244/378/431 247/373/424 242/374/425
f 244/378/431 242/374/425 234/379/432
f 242/374/425 260/380/433 234/379/432
f 252/371/420 260/380/433 242/374/425
f 231/95/434 223/93/427 256/375/428
f 256/375/428 253/381/435 231/95/434
f 258/376/429 253/381/435 256/375/428
f 261/382/436 253/381/435 258/376/429
f 259/383/437 261/382/436 258/376/429
f 258/376/429 263/377/430 259/383/437
f 263/377/430 221/384/438 259/383/437
f 241/385/439 221/384/438 263/377/430
f 241/385/439 263/377/430 244/378/431
f 244/378/431 225/386/440 241/385/439
f 234/379/432 225/386/440 244/378/431
f 231/95/434 253/381/435 239/96/441
f 239/96/441 253/381/435 261/382/436
f 239/96/441 261/382/436 243/98/442
f 243/98/442 261/382/436 254/101/443
f 254/101/443 261/382/436 259/383/437
f 222/103/444 254/101/443 259/383/437
f 259/383/437 221/384/438 222/103/444
f 222/103/444 221/384/438 240/105/445
f 240/105/445 221/384/438 241/385/439
f 224/107/446 240/105/445 241/385/439
f 241/385/439 225/386/440 224/107/446
f 224/107/446 225/386/440 251/109/447
f 251/109/447 225/386/440 226/111/448
f 226/111/448 225/386/440 234/379/432
f 250/113/449 226/111/448 234/379/432
f 234/379/432 260/380/433 250/113/449
f 250/113/449 260/380/433 249/114/421
f 249/114/421 260/380/433 252/371/420
f 49/182/450 52/150/451 292/387/452
f 51/388/453 49/182/450 292/387/452
f 68/389/454 51/388/453 292/387/452
f 293/390/455 68/389/454 292/387/452
f 52/150/451 293/390/455 292/387/452
f 293/390/455 52/150/451 288/149/456
f 285/391/457 293/390/455 288/149/456
f 285/391/457 288/149/456 290/152/458
f 282/154/459 285/391/457 290/152/458
f 49/182/450 51/388/453 48/179/460
f 51/388/453 58/177/461 48/179/460
f 58/177/461 51/388/453 19/392/462
f 51/388/453 68/389/454 19/392/462
f 68/389/454 67/393/463 19/392/462
f 67/393/463 68/389/454 114/394/464
f 68/389/454 293/390/455 114/394/464
f 293/390/455 285/391/457 114/394/464
f 285/391/457 115/395/465 114/394/464
f 115/395/465 285/391/457 282/154/459
f 284/156/466 115/395/465 282/154/459
f 115/395/465 284/156/466 283/396/467
f 284/156/466 289/157/468 283/396/467
f 21/175/469 58/177/461 19/392/462
f 21/175/469 19/392/462 57/397/470
f 19/392/462 67/393/463 57/397/470
f 67/393/463 66/398/471 57/397/470
f 31/399/472 66/398/471 67/393/463
f 31/399/472 67/393/463 114/394/464
f 111/400/473 31/399/472 114/394/464
f 116/401/474 111/400/473 114/394/464
f 115/395/465 116/401/474 114/394/464
f 116/401/474 115/395/465 283/396/467
f 287/402/475 116/401/474 283/396/467
f 289/157/468 287/402/475 283/396/467
f 289/157/468 281/159/476 287/402/475
f 62/174/477 21/175/469 57/397/470
f 66/398/471 62/174/477 57/397/470
f 62/174/477 66/398/471 20/172/478
f 20/172/478 66/398/471 63/403/479
f 66/398/471 31/399/472 63/403/479
f 31/399/472 29/404/480 63/403/479
f 29/404/480 31/399/472 111/400/473
f 29/404/480 111/400/473 110/405/481
f 111/400/473 117/406/482 110/405/481
f 116/401/474 117/406/482 111/400/473
f 117/406/482 116/401/474 287/402/475
f 291/162/483 117/406/482 287/402/475
f 281/159/476 291/162/483 287/402/475
f 64/170/484 20/172/478 63/403/479
f 30/168/485 64/170/484 63/403/479
f 29/404/480 30/168/485 63/403/479
f 30/168/485 29/404/480 112/166/486
f 112/166/486 29/404/480 110/405/481
f 118/164/487 112/166/486 110/405/481
f 117/406/482 118/164/487 110/405/481
f 118/164/487 117/406/482 291/162/483
