# Blender 4.5.3 LTS
# www.blender.org
mtllib Chest.mtl
o stalker_monolith4nosorog.ogf_03
v 4.909215 41.751835 -5.135353
v 2.890043 41.287148 -5.648422
v 3.430236 41.640755 -5.925997
v -0.349480 46.641674 -6.654346
v -2.797151 46.587395 -6.266025
v -0.003421 47.115192 -6.224502
v 5.578662 46.170963 -5.732718
v 5.328322 43.895367 -5.426886
v 6.364152 41.580097 -2.159547
v 6.089362 46.134830 -1.766301
v 5.715806 41.707420 -1.605589
v 5.811062 41.250107 -1.938260
v 5.800265 46.023293 -4.411955
v 5.308550 46.415745 -4.238075
v 6.601205 45.714336 -2.201096
v 5.989074 43.588402 -1.600170
v 6.653789 43.285973 -2.226895
v 4.640530 41.415916 -4.286931
v 5.411210 41.724274 -4.410411
v 5.158618 46.665764 -4.987649
v 4.776937 43.824966 -4.470198
v 4.919841 43.696575 -4.367319
v 3.726841 43.922092 -6.198847
v 3.640909 46.466087 -6.367421
v 3.320932 46.866371 -5.576735
v -2.895058 41.279186 -5.647330
v -0.003421 41.365852 -6.100930
v -2.599021 41.694199 -6.299348
v -2.944506 46.872940 -5.562155
v -2.669802 43.698456 -6.445037
v -0.295552 41.844875 -6.473625
v 0.342638 46.641674 -6.654346
v 2.931498 46.862343 -5.615431
v -0.431223 43.772755 -6.608928
v -0.003421 43.811695 -6.014885
v 0.424380 43.772755 -6.608928
v 0.288710 41.844875 -6.473625
v 2.592179 41.694199 -6.299349
v -5.339920 41.759491 -5.269929
v -3.733683 43.922092 -6.198845
v 2.662959 43.698456 -6.445039
v -5.460086 41.418449 -4.589395
v -5.811965 41.206364 -2.017369
v 2.758656 46.587395 -6.285213
v -5.877062 41.716034 -1.469821
v -3.105636 43.952618 -5.506887
v -6.218515 41.737892 -4.398906
v -6.636710 41.593716 -2.024600
v -3.437079 41.640839 -5.925705
v -5.544541 46.678249 -4.642514
v 3.098793 43.952618 -5.506890
v -3.729458 46.466087 -6.144466
v -5.600797 46.171143 -5.271692
v -5.667898 43.903427 -5.484528
v -3.315742 46.874863 -5.449799
v -5.989666 46.437496 -4.076072
v -5.750076 43.710194 -4.553391
v -6.568579 46.036911 -4.216802
v -6.691404 43.475986 -4.364915
v -5.628565 43.838585 -4.717614
v 5.859076 43.462368 -4.565958
v -7.100118 43.299591 -2.000618
v -6.069435 46.055901 -1.757937
v -7.054265 45.727955 -1.848583
v -6.201549 43.737095 -1.376641
vn 0.5995 -0.2521 0.7596
vn 0.6214 -0.2008 0.7573
vn 0.5413 -0.4180 0.7296
vn 0.0992 -0.0314 -0.9946
vn -0.2897 -0.0021 -0.9571
vn -0.4746 -0.4590 0.7510
vn -0.3382 -0.7086 0.6193
vn -0.4989 -0.3482 0.7936
vn -0.7938 0.0395 -0.6069
vn 0.6693 -0.0226 0.7426
vn 0.6731 0.0152 0.7394
vn 0.6582 0.0232 0.7525
vn 0.6626 -0.0564 0.7468
vn 0.5838 0.8066 -0.0928
vn 0.8536 0.4637 -0.2373
vn 0.5906 0.8008 -0.0991
vn 0.8519 0.4634 -0.2439
vn 0.9414 -0.0665 -0.3307
vn 0.9267 -0.1371 -0.3499
vn 0.7138 -0.6177 -0.3301
vn 0.7376 -0.5779 -0.3493
vn 0.3786 -0.8958 -0.2330
vn 0.3298 -0.9159 -0.2290
vn -0.2716 0.0844 -0.9587
vn -0.2328 0.0695 -0.9700
vn -0.2083 0.0227 -0.9778
vn -0.2042 0.0112 -0.9789
vn -0.1833 -0.0242 -0.9828
vn -0.1518 -0.0162 -0.9883
vn 0.8638 -0.0244 0.5032
vn 0.8928 -0.0471 0.4479
vn 0.8654 -0.0265 0.5003
vn 0.8666 -0.0654 0.4947
vn 0.9169 -0.0677 0.3933
vn 0.9564 -0.0321 0.2902
vn 0.9530 -0.1733 -0.2484
vn 0.8095 -0.1145 -0.5759
vn 0.7229 -0.1093 -0.6822
vn 0.7228 -0.1093 -0.6823
vn 0.8094 -0.1144 -0.5761
vn 0.5423 -0.0674 -0.8375
vn 0.5246 -0.0941 -0.8461
vn 0.2814 -0.9194 -0.2749
vn 0.2965 -0.8807 -0.3694
vn 0.4145 -0.5909 -0.6921
vn 0.4145 -0.5908 -0.6922
vn 0.2966 -0.8806 -0.3696
vn 0.4270 -0.5440 -0.7223
vn 0.4083 -0.1474 -0.9009
vn 0.4243 -0.1846 -0.8865
vn 0.3909 0.2529 -0.8850
vn 0.3076 0.6675 -0.6781
vn 0.2438 0.8852 -0.3963
vn 0.2171 0.9035 -0.3695
vn 0.3076 0.6676 -0.6780
vn -0.2059 0.7359 -0.6450
vn -0.1682 0.6213 -0.7653
vn -0.1460 0.8387 -0.5246
vn -0.1214 0.3740 -0.9194
vn -0.9274 -0.0186 -0.3736
vn -0.9048 -0.0547 -0.4224
vn -0.8977 -0.0477 -0.4380
vn -0.9101 -0.0379 -0.4126
vn -0.9463 0.0178 -0.3228
vn -0.9734 0.0495 -0.2238
vn -0.1008 -0.0092 -0.9949
vn -0.0720 -0.0305 -0.9969
vn -0.0553 -0.2675 -0.9620
vn -0.0542 -0.5461 -0.8360
vn -0.0624 -0.8289 -0.5559
vn -0.0410 -0.7339 -0.6780
vn 0.8053 -0.0352 -0.5918
vn 0.7985 -0.0381 -0.6008
vn 0.8056 -0.0083 -0.5923
vn 0.8117 -0.0081 -0.5840
vn 0.8054 0.0185 -0.5924
vn 0.7998 0.0211 -0.5998
vn -0.7985 -0.0381 -0.6008
vn -0.8053 -0.0352 -0.5918
vn -0.8056 -0.0083 -0.5923
vn -0.8117 -0.0081 -0.5840
vn -0.8054 0.0185 -0.5924
vn -0.7998 0.0211 -0.5998
vn 0.1980 0.7342 -0.6494
vn 0.1416 0.8359 -0.5303
vn 0.1625 0.6188 -0.7686
vn 0.1624 0.6187 -0.7686
vn 0.1415 0.8360 -0.5301
vn 0.1224 0.3699 -0.9210
vn 0.0988 -0.0112 -0.9950
vn 0.0720 -0.0324 -0.9969
vn 0.0552 -0.2675 -0.9620
vn 0.0546 -0.5480 -0.8347
vn 0.0415 -0.7364 -0.6752
vn 0.0546 -0.5482 -0.8346
vn 0.0633 -0.8329 -0.5498
vn 0.0415 -0.7363 -0.6754
vn 0.8969 -0.0469 -0.4397
vn 0.9044 -0.0543 -0.4233
vn 0.9229 -0.0176 -0.3847
vn 0.9099 -0.0343 -0.4134
vn 0.9385 0.0194 -0.3446
vn 0.9626 0.0454 -0.2670
vn -0.3146 -0.5300 -0.7875
vn -0.2411 -0.8229 -0.5144
vn -0.2394 -0.8504 -0.4685
vn -0.3084 -0.5104 -0.8027
vn 0.7151 0.0468 -0.6974
vn 0.7921 0.0421 -0.6089
vn 0.8381 0.0708 -0.5408
vn 0.7401 0.0144 -0.6724
vn 0.6274 0.0508 -0.7771
vn 0.4993 0.0846 -0.8623
vn -0.3631 -0.0457 -0.9306
vn -0.3461 -0.0238 -0.9379
vn -0.4111 0.3062 -0.8586
vn -0.3810 0.6137 -0.6915
vn -0.3023 0.8227 -0.4815
vn -0.2212 0.8924 -0.3934
vn -0.9989 -0.0439 -0.0135
vn -0.9896 -0.1142 -0.0875
vn -0.9742 -0.0790 -0.2116
vn -0.9970 -0.0616 0.0459
vn -0.9979 0.0262 0.0601
vn -0.9974 0.0277 0.0668
vn -0.4166 -0.8998 -0.1297
vn -0.7523 -0.6360 -0.1722
vn -0.4125 -0.9015 -0.1308
vn -0.7537 -0.6345 -0.1713
vn -0.7524 -0.6358 -0.1722
vn -0.4081 0.1225 -0.9047
vn -0.7927 -0.0287 -0.6089
vn -0.3827 0.0256 -0.9235
vn -0.5347 -0.0544 -0.8433
vn -0.2194 -0.0243 -0.9753
vn -0.2004 0.0172 -0.9796
vn -0.0503 0.1256 -0.9908
vn -0.9703 -0.1618 -0.1797
vn -0.9814 -0.0564 -0.1834
vn -0.9046 0.4090 -0.1202
vn -0.7215 0.6924 -0.0090
vn -0.5493 -0.1099 0.8284
vn -0.4206 0.0014 0.9073
vn -0.3616 0.0656 0.9300
vn -0.1459 0.1686 0.9748
vn -0.5837 0.8041 0.1123
vn -0.4572 0.8852 0.0860
vn -0.8399 -0.0046 -0.5427
vn -0.7431 0.0235 -0.6688
vn -0.9143 0.0601 -0.4004
vn -0.7408 -0.0269 -0.6712
vn -0.6271 0.0510 -0.7772
vn -0.4988 0.0849 -0.8626
vt 0.852283 0.076436
vt 0.860520 0.053591
vt 0.871246 0.074319
vt 0.783629 0.242717
vt 0.704061 0.246915
vt 0.708108 0.230246
vt 0.784221 0.463436
vt 0.697834 0.474011
vt 0.696439 0.456088
vt 0.841132 0.651458
vt 0.866730 0.654430
vt 0.849291 0.676826
vt 0.703457 0.555987
vt 0.784993 0.563221
vt 0.711536 0.582947
vt 0.800092 0.041804
vt 0.741329 0.072569
vt 0.722735 0.061342
vt 0.805590 0.068429
vt 0.722178 0.143428
vt 0.736411 0.134229
vt 0.797949 0.132616
vt 0.840677 0.141507
vt 0.856589 0.159876
vt 0.792403 0.153990
vt 0.716898 0.169787
vt 0.788769 0.154922
vt 0.734589 0.179532
vt 0.783089 0.179327
vt 0.836357 0.178775
vt 0.863558 0.239332
vt 0.845131 0.224576
vt 0.783492 0.220433
vt 0.726903 0.220236
vt 0.693897 0.349211
vt 0.711015 0.364442
vt 0.711791 0.438683
vt 0.852308 0.440324
vt 0.870338 0.462296
vt 0.793037 0.435468
vt 0.793339 0.370262
vt 0.852326 0.364576
vt 0.871246 0.349206
vt 0.792579 0.350580
vt 0.712054 0.334912
vt 0.793085 0.331027
vt 0.851490 0.334885
vt 0.716154 0.264095
vt 0.792303 0.268320
vt 0.848112 0.261471
vt 0.843887 0.545385
vt 0.859105 0.566226
vt 0.852853 0.481563
vt 0.718459 0.487576
vt 0.784887 0.488441
vt 0.783274 0.543897
vt 0.723532 0.543515
vt 0.840083 0.584922
vt 0.788164 0.566616
vt 0.793064 0.590878
vt 0.729137 0.590570
vt 0.794773 0.653546
vt 0.737120 0.648845
vt 0.783430 0.683756
vt 0.715797 0.659106
s 1
usemtl act\nosorog\act_nosorog_parts.001
f 9/1/1 11/2/2 12/3/3
f 51/4/4 33/5/4 25/6/4
f 46/7/5 55/8/5 29/9/5
f 48/10/6 43/11/7 45/12/8
f 50/13/9 60/14/9 56/15/9
f 16/16/10 15/17/11 10/18/12
f 17/19/13 15/17/11 16/16/10
f 16/16/10 11/2/2 17/19/13
f 17/19/13 11/2/2 9/1/1
f 10/18/14 15/17/15 14/20/16
f 14/20/16 15/17/15 13/21/17
f 15/17/15 61/22/18 13/21/17
f 17/19/19 61/22/18 15/17/15
f 17/19/19 19/23/20 61/22/18
f 9/1/21 19/23/20 17/19/19
f 9/1/21 12/3/22 19/23/20
f 19/23/20 12/3/22 18/24/23
f 14/20/24 13/21/25 22/25/26
f 22/25/26 13/21/25 61/22/27
f 61/22/27 19/23/28 22/25/26
f 22/25/26 19/23/28 18/24/29
f 20/26/30 21/27/31 7/28/32
f 7/28/32 21/27/31 8/29/33
f 21/27/31 1/30/34 8/29/33
f 18/24/35 1/30/34 21/27/31
f 20/26/36 14/20/37 21/27/38
f 21/27/39 14/20/40 22/25/41
f 22/25/41 18/24/42 21/27/39
f 18/24/43 2/31/44 1/30/45
f 1/30/46 2/31/47 3/32/48
f 1/30/46 3/32/48 23/33/49
f 8/29/50 1/30/46 23/33/49
f 7/28/51 8/29/50 23/33/49
f 24/34/52 7/28/51 23/33/49
f 24/34/52 20/26/53 7/28/51
f 25/6/54 20/26/53 24/34/55
f 6/35/56 4/36/57 29/9/58
f 29/9/58 4/36/57 5/37/59
f 46/7/60 28/38/61 26/39/62
f 28/38/61 46/7/60 30/40/63
f 46/7/60 5/37/64 30/40/63
f 29/9/65 5/37/64 46/7/60
f 5/37/59 4/36/57 34/41/66
f 30/40/67 5/37/59 34/41/66
f 31/42/68 30/40/67 34/41/66
f 31/42/68 28/38/69 30/40/67
f 26/39/70 28/38/69 27/43/71
f 27/43/71 28/38/69 31/42/68
f 4/36/72 6/35/73 35/44/74
f 4/36/72 35/44/74 34/41/75
f 35/44/74 31/42/76 34/41/75
f 27/43/77 31/42/76 35/44/74
f 6/35/78 32/45/79 35/44/80
f 35/44/80 32/45/79 36/46/81
f 37/47/82 35/44/80 36/46/81
f 37/47/82 27/43/83 35/44/80
f 6/35/84 33/5/85 32/45/86
f 32/45/87 33/5/88 44/48/89
f 32/45/87 44/48/89 36/46/90
f 44/48/89 41/49/91 36/46/90
f 41/49/91 37/47/92 36/46/90
f 38/50/93 37/47/92 41/49/91
f 27/43/94 38/50/95 2/31/96
f 37/47/92 38/50/93 27/43/97
f 2/31/98 38/50/99 51/4/100
f 51/4/100 38/50/99 41/49/101
f 44/48/102 51/4/100 41/49/101
f 33/5/103 51/4/100 44/48/102
f 39/51/104 26/39/105 42/52/106
f 49/53/107 26/39/105 39/51/104
f 46/7/108 52/54/109 55/8/110
f 52/54/109 46/7/108 40/55/111
f 46/7/108 49/53/112 40/55/111
f 49/53/112 46/7/108 26/39/113
f 49/53/107 39/51/104 40/55/114
f 39/51/104 54/56/115 40/55/114
f 54/56/115 53/57/116 40/55/114
f 53/57/116 52/54/117 40/55/114
f 50/13/118 52/54/117 53/57/116
f 55/8/119 52/54/117 50/13/118
f 60/14/120 39/51/121 42/52/122
f 54/56/123 39/51/121 60/14/120
f 60/14/120 53/57/124 54/56/123
f 50/13/125 53/57/124 60/14/120
f 43/11/126 47/58/127 42/52/128
f 48/10/129 47/58/130 43/11/126
f 56/15/131 60/14/132 57/59/133
f 60/14/132 42/52/134 57/59/133
f 42/52/134 47/58/135 57/59/133
f 47/58/135 59/60/136 57/59/133
f 59/60/136 58/61/137 57/59/133
f 58/61/137 56/15/131 57/59/133
f 47/58/130 48/10/129 62/62/138
f 59/60/139 47/58/130 62/62/138
f 64/63/140 59/60/139 62/62/138
f 64/63/140 58/61/141 59/60/139
f 48/10/6 45/12/8 62/62/142
f 45/12/8 65/64/143 62/62/142
f 65/64/143 64/63/144 62/62/142
f 63/65/145 64/63/144 65/64/143
f 56/15/146 58/61/141 63/65/147
f 63/65/147 58/61/141 64/63/140
f 24/34/148 51/4/149 25/6/150
f 51/4/149 24/34/148 23/33/151
f 3/32/152 51/4/149 23/33/151
f 51/4/149 3/32/152 2/31/153
