# Blender 4.5.3 LTS
# www.blender.org
mtllib Foot.mtl
o stalker_monolith4nosorog.ogf_03
v 0.217533 0.137353 -0.034283
v 0.222788 0.116767 -0.034473
v 0.107717 0.101333 -0.034509
v 0.112958 0.029829 0.009153
v 0.121890 0.106106 -0.034440
v 0.109531 0.032731 -0.100536
v 0.126550 0.077018 -0.131157
v 0.118374 0.139173 -0.041379
v 0.250738 0.037159 0.013183
v 0.258341 0.032218 -0.072970
v 0.258737 0.030887 -0.087352
v 0.122446 0.093479 -0.113271
v 0.199911 0.099364 -0.130186
v 0.156203 0.097450 -0.134341
v 0.225658 0.093173 -0.121402
v 0.103928 0.036116 -0.091300
v 0.108905 0.033268 -0.074667
v 0.215436 0.148860 -0.045229
v 0.221406 0.122444 -0.046195
v 0.153911 0.101750 -0.118734
v 0.200078 0.102472 -0.113783
v 0.223645 0.095392 -0.105876
v 0.163960 0.128842 -0.064330
v 0.192224 0.151793 -0.058102
v 0.194452 0.127754 -0.061389
v 0.166646 0.150502 -0.060532
v 0.137529 0.145867 -0.052154
v 0.119611 0.113548 -0.043873
v 0.139286 0.122415 -0.057044
v 0.122166 0.087842 -0.125818
vn -0.8023 -0.5178 -0.2970
vn -0.9947 -0.0540 0.0879
vn -0.9772 -0.0687 -0.2009
vn 0.0588 -0.1603 -0.9853
vn -0.5684 -0.6738 -0.4721
vn -0.2499 -0.1103 -0.9620
vn 0.8897 0.4148 -0.1905
vn 0.9059 0.3875 0.1711
vn 0.8857 0.4239 0.1891
vn 0.9074 0.4185 -0.0375
vn 0.6694 0.7224 -0.1733
vn 0.8957 0.4050 -0.1836
vn 0.6292 0.6772 -0.3815
vn 0.9342 0.3273 0.1416
vn 0.6956 0.6416 -0.3233
vn 0.3281 0.5224 -0.7870
vn 0.1864 0.9384 -0.2909
vn 0.2123 0.7851 -0.5819
vn -0.6332 0.1586 -0.7576
vn -0.6503 0.5449 -0.5294
vn -0.1647 0.6449 -0.7463
vn -0.1791 0.9242 -0.3374
vn -0.7454 0.6458 -0.1653
vn -0.9694 0.2452 0.0109
vn -0.9276 0.2497 0.2779
vn -0.9017 0.2059 0.3803
vn -0.1424 0.6085 -0.7807
vn -0.4872 0.5510 -0.6775
vn -0.7683 0.5197 -0.3737
vn -0.3955 0.6213 -0.6764
vn -0.0857 0.5419 -0.8361
vn 0.1961 0.7571 -0.6232
vt 0.966549 0.257848
vt 0.947189 0.263877
vt 0.958427 0.257597
vt 0.127390 0.314889
vt 0.085081 0.374540
vt 0.116188 0.315514
vt 0.903694 0.124886
vt 0.898514 0.115612
vt 0.893160 0.032802
vt 0.961718 0.061128
vt 0.958748 0.128273
vt 0.973181 0.065904
vt 0.971020 0.130620
vt 0.888598 0.126782
vt 0.887227 0.138038
vt 0.911188 0.150322
vt 0.959924 0.149564
vt 0.973244 0.151557
vt 0.975950 0.214910
vt 0.967101 0.212194
vt 0.973415 0.186496
vt 0.960575 0.186915
vt 0.957495 0.211398
vt 0.903790 0.215998
vt 0.890027 0.288629
vt 0.900717 0.223829
vt 0.911956 0.176117
vt 0.909367 0.197482
vt 0.889106 0.206275
vt 0.893202 0.192277
vt 0.896011 0.172580
vt 0.893565 0.155795
s 1
usemtl act\nosorog\act_nosorog_parts
f 6/1/1 17/2/2 16/3/3
f 5/4/4 4/5/5 3/6/6
f 19/7/7 2/8/8 9/9/9
f 19/7/7 9/9/9 10/10/10
f 22/11/11 19/7/7 10/10/10
f 11/12/12 22/11/11 10/10/10
f 15/13/13 22/11/11 11/12/12
f 1/14/14 2/8/8 19/7/7
f 18/15/15 1/14/14 19/7/7
f 25/16/16 18/15/15 19/7/7
f 25/16/16 19/7/7 22/11/11
f 25/16/16 22/11/11 21/17/17
f 22/11/11 15/13/13 21/17/17
f 15/13/13 13/18/18 21/17/17
f 7/19/19 30/20/20 14/21/21
f 7/19/19 16/3/3 30/20/20
f 6/1/1 16/3/3 7/19/19
f 14/21/21 30/20/20 20/22/22
f 30/20/20 12/23/23 20/22/22
f 30/20/20 16/3/3 12/23/23
f 16/3/3 17/2/2 12/23/23
f 17/2/2 28/24/24 12/23/23
f 28/24/24 17/2/2 4/25/25
f 28/24/24 4/25/25 5/26/26
f 13/18/18 14/21/21 20/22/22
f 21/17/17 13/18/18 20/22/22
f 23/27/27 21/17/17 20/22/22
f 29/28/28 23/27/27 20/22/22
f 12/23/23 29/28/28 20/22/22
f 28/24/24 29/28/28 12/23/23
f 28/24/24 8/29/29 29/28/28
f 29/28/28 8/29/29 27/30/30
f 23/27/27 25/16/16 21/17/17
f 25/16/16 23/27/27 26/31/31
f 26/31/31 23/27/27 27/30/30
f 23/27/27 29/28/28 27/30/30
f 25/16/16 26/31/31 24/32/32
f 18/15/15 25/16/16 24/32/32
