# Blender 4.5.3 LTS
# www.blender.org
mtllib GaussPistolGrip.mtl
o wpn_gauss_world.ogf_10
v 0.010556 0.012014 0.016695
v 0.010556 0.013557 -0.016330
v 0.008649 0.013714 -0.020305
v 0.005404 0.013797 -0.022233
v 0.005404 0.012120 0.014346
v 0.010556 0.013436 -0.013579
v -0.000009 0.011679 0.024715
v 0.009466 0.011789 0.022162
v 0.003234 0.011951 0.018349
v -0.000009 0.011951 0.018349
v 0.005404 0.011679 0.024715
v 0.010556 -0.001003 -0.013093
v 0.010556 -0.005427 -0.014022
v 0.010556 -0.005937 -0.012154
v 0.010556 -0.005677 -0.011218
v 0.010556 -0.008656 -0.007529
v 0.009017 -0.007159 -0.000720
v 0.010556 -0.004688 -0.016705
v 0.010556 -0.006625 -0.015951
v 0.010556 -0.010069 -0.012877
v 0.010556 -0.010314 -0.010106
v 0.010556 -0.009332 -0.007858
v 0.010556 -0.009269 -0.001348
v 0.008649 -0.005435 -0.020772
v 0.008649 -0.007762 -0.019569
v 0.008649 -0.011137 -0.016693
v 0.008649 -0.015728 -0.014783
v 0.010556 -0.014684 -0.010794
v 0.005404 -0.005895 -0.022763
v 0.005404 -0.008885 -0.021021
v 0.005404 -0.011755 -0.018622
v 0.005404 -0.016485 -0.016697
v 0.005404 -0.020215 -0.012963
v 0.008649 -0.019482 -0.011057
v 0.010556 -0.018461 -0.007074
v 0.010556 -0.016209 -0.006640
v -0.000009 -0.008885 -0.021021
v -0.000009 -0.011755 -0.018622
v -0.000009 -0.016485 -0.016697
v -0.000009 -0.020215 -0.012963
v 0.005404 -0.025332 -0.011348
v 0.008649 -0.024648 -0.009428
v 0.010556 -0.023676 -0.005432
v -0.000009 -0.025332 -0.011348
v -0.000009 -0.031785 -0.011647
v 0.005404 -0.031785 -0.011647
v 0.008649 -0.031147 -0.009726
v 0.010556 -0.030221 -0.005727
v 0.005404 -0.037427 -0.007903
v -0.000009 -0.037427 -0.007903
v 0.010556 -0.011280 0.006039
v 0.010556 -0.010033 -0.001563
v 0.010556 -0.010542 0.006393
v 0.009015 -0.008294 0.006802
v -0.005420 -0.008885 -0.021021
v -0.005420 -0.008885 0.014347
v -0.005420 -0.005895 -0.022763
v -0.005420 0.012120 0.014346
v -0.005420 0.013797 -0.022233
v -0.003252 0.011951 0.018349
v -0.003252 -0.008885 0.018350
v 0.005404 -0.008885 0.014347
v 0.003234 -0.008885 0.018350
v -0.000009 -0.008885 0.018350
v -0.008666 0.013714 -0.020305
v -0.010573 0.013436 -0.013579
v -0.010573 0.013557 -0.016330
v -0.010573 0.012014 0.016695
v -0.009484 0.011789 0.022162
v -0.005420 0.011679 0.024715
v -0.005420 -0.037427 -0.007903
v -0.008666 -0.036958 -0.005953
v -0.010572 -0.036200 -0.001926
v -0.005420 -0.031785 -0.011647
v -0.008666 -0.031147 -0.009726
v -0.010572 -0.030221 -0.005727
v -0.005420 -0.025332 -0.011348
v -0.008666 -0.024648 -0.009428
v -0.010572 -0.023676 -0.005432
v -0.010572 -0.023193 -0.003292
v -0.010573 -0.020274 0.019339
v -0.005420 -0.020215 -0.012963
v -0.008666 -0.019482 -0.011057
v -0.010573 -0.018461 -0.007074
v -0.010572 -0.016209 -0.006640
v -0.010573 -0.013116 0.012165
v -0.005420 -0.016485 -0.016697
v -0.008666 -0.015728 -0.014783
v -0.010572 -0.014684 -0.010794
v -0.010572 -0.010314 -0.010106
v -0.010572 -0.010033 -0.001563
v -0.010573 -0.011280 0.006039
v -0.005420 -0.011755 -0.018622
v -0.008666 -0.011137 -0.016693
v -0.010572 -0.010069 -0.012877
v -0.010573 -0.005427 -0.014022
v -0.010572 -0.005937 -0.012154
v -0.010572 -0.009332 -0.007858
v -0.008666 -0.007762 -0.019569
v -0.010573 -0.006625 -0.015951
v -0.010573 -0.004688 -0.016705
v -0.010573 -0.001003 -0.013093
v -0.008666 -0.005435 -0.020772
v -0.000009 -0.074309 -0.003272
v -0.000009 -0.076361 -0.003250
v 0.005404 -0.076361 -0.003250
v 0.005404 -0.074309 -0.003272
v -0.000009 -0.057599 -0.003913
v 0.005404 -0.057599 -0.003913
v -0.000009 -0.049970 -0.006404
v 0.005404 -0.049970 -0.006404
v 0.005404 -0.043820 -0.005633
v -0.000009 -0.043820 -0.005633
v 0.008649 -0.077940 -0.001372
v 0.008649 -0.075889 -0.001402
v 0.008649 -0.057439 -0.001878
v 0.008649 -0.049731 -0.004451
v 0.010556 -0.078265 0.002462
v 0.010556 -0.076212 0.002423
v 0.010556 -0.056990 0.002235
v 0.010556 -0.049203 -0.000422
v 0.008649 -0.043384 -0.003691
v 0.010556 -0.078355 0.005622
v 0.010556 -0.076303 0.005588
v 0.010556 -0.056597 0.005035
v 0.010556 -0.045555 0.002891
v 0.010556 -0.042658 0.000338
v 0.010556 -0.036200 -0.001926
v 0.008649 -0.036958 -0.005953
v 0.010556 -0.077614 0.015809
v 0.010556 -0.075562 0.015663
v 0.010556 -0.072618 0.030024
v 0.010556 -0.051831 0.034179
v 0.010556 -0.039863 0.029932
v 0.010556 -0.029602 0.025611
v 0.010556 -0.034250 -0.000456
v 0.010556 -0.074671 0.030281
v 0.010556 -0.071881 0.037379
v 0.010556 -0.069830 0.037011
v 0.009466 -0.067868 0.040890
v 0.009466 -0.051024 0.038319
v 0.009466 -0.039156 0.034639
v 0.009466 -0.028903 0.029926
v 0.009466 -0.069920 0.041265
v 0.005404 -0.068361 0.043442
v 0.005404 -0.066308 0.043085
v 0.005404 -0.050460 0.040820
v 0.005404 -0.038457 0.037048
v 0.005404 -0.028292 0.032348
v 0.005404 -0.019015 0.026246
v 0.009466 -0.019590 0.023803
v -0.000009 -0.068361 0.043442
v -0.000009 -0.066308 0.043085
v -0.000009 -0.050460 0.040820
v -0.000009 -0.038457 0.037048
v -0.000009 -0.028292 0.032348
v -0.000009 -0.019015 0.026246
v -0.000009 -0.015169 0.022566
v 0.005404 -0.015169 0.022566
v 0.009466 -0.015187 0.020043
v 0.010556 -0.020274 0.019339
v 0.005404 -0.012728 0.020758
v 0.008525 -0.012113 0.018063
v 0.009466 -0.014343 0.019508
v 0.010556 -0.013116 0.012165
v 0.010556 -0.023193 -0.003292
v -0.000009 -0.012728 0.020758
v -0.000009 -0.005291 0.019682
v 0.005404 -0.005291 0.019682
v 0.008539 -0.005627 0.017387
v 0.009017 -0.005898 0.014001
v 0.008998 -0.009734 0.013307
v 0.009013 -0.010201 0.013175
v 0.010556 -0.012405 0.012658
v 0.005404 0.001662 0.020298
v 0.008538 0.002108 0.018061
v 0.009020 0.001938 0.015256
v 0.009017 -0.006079 -0.006534
v 0.009017 -0.006673 -0.000675
v 0.009016 -0.007814 0.006892
v -0.000009 0.001662 0.020298
v 0.005404 0.004641 0.021118
v 0.009466 0.004746 0.018775
v 0.009017 0.002425 0.015289
v 0.009017 0.002910 -0.005983
v 0.009017 -0.001114 -0.009549
v 0.009017 -0.004159 -0.008864
v -0.000009 0.004641 0.021118
v 0.009466 0.005301 0.019052
v 0.010556 0.005445 0.015658
v 0.010556 0.004871 0.015393
v 0.009017 0.003403 -0.006082
v 0.009017 0.001299 -0.008663
v 0.010556 0.006617 -0.006512
v 0.010556 0.005860 -0.006247
v 0.009017 0.001645 -0.009009
v 0.009017 -0.001081 -0.010010
v 0.010556 0.004056 -0.011232
v 0.010556 0.003426 -0.010689
v 0.010556 -0.001010 -0.012317
v 0.009017 -0.004450 -0.009253
v 0.009017 -0.006559 -0.006691
v -0.010573 -0.039863 0.029932
v -0.008666 -0.043384 -0.003691
v -0.010573 -0.029602 0.025611
v -0.010572 -0.034250 -0.000456
v -0.005420 -0.043820 -0.005633
v -0.010572 -0.042658 0.000338
v -0.010572 -0.049203 -0.000422
v -0.010573 -0.056597 0.005035
v -0.010573 -0.072618 0.030024
v -0.010572 -0.045555 0.002891
v -0.008666 -0.049731 -0.004451
v -0.010573 -0.071881 0.037379
v -0.005420 -0.049970 -0.006404
v -0.010573 -0.075562 0.015663
v -0.010573 -0.077614 0.015809
v -0.010573 -0.074671 0.030281
v -0.008666 -0.057439 -0.001878
v -0.005420 -0.057599 -0.003913
v -0.010573 -0.076303 0.005588
v -0.010572 -0.056990 0.002235
v -0.010573 -0.078355 0.005622
v -0.010572 -0.078265 0.002462
v -0.010572 -0.076212 0.002423
v -0.008666 -0.075889 -0.001402
v -0.008666 -0.077940 -0.001372
v -0.005420 -0.074309 -0.003272
v -0.005420 -0.076361 -0.003250
v -0.000009 -0.008885 0.014347
v -0.010572 -0.005677 -0.011218
v -0.010573 -0.001010 -0.012317
v -0.009034 -0.004450 -0.009253
v -0.009034 -0.006559 -0.006691
v -0.010572 -0.008656 -0.007529
v -0.010573 0.004056 -0.011232
v -0.010573 0.003426 -0.010689
v -0.009034 -0.001081 -0.010010
v -0.009034 -0.004159 -0.008864
v -0.009034 -0.006079 -0.006534
v -0.010572 0.006617 -0.006512
v -0.010572 0.005860 -0.006247
v -0.009034 0.001645 -0.009009
v -0.009034 -0.001114 -0.009549
v -0.009037 0.001938 0.015256
v -0.010573 0.005445 0.015658
v -0.010573 0.004871 0.015393
v -0.009034 0.003403 -0.006082
v -0.009034 0.001299 -0.008663
v -0.009034 0.002910 -0.005983
v -0.009484 0.005301 0.019052
v -0.009484 0.004746 0.018775
v -0.009034 0.002425 0.015289
v -0.005420 0.004641 0.021118
v -0.008556 0.002108 0.018061
v -0.005420 0.001662 0.020298
v -0.005420 -0.005291 0.019682
v -0.008557 -0.005627 0.017387
v -0.009034 -0.005898 0.014001
v -0.009034 -0.006673 -0.000675
v -0.005420 -0.012728 0.020758
v -0.008542 -0.012113 0.018063
v -0.009015 -0.009734 0.013307
v -0.009032 -0.007814 0.006892
v -0.009034 -0.007159 -0.000720
v -0.005420 -0.015169 0.022566
v -0.009484 -0.014343 0.019508
v -0.010573 -0.012405 0.012658
v -0.009030 -0.010201 0.013175
v -0.009032 -0.008294 0.006802
v -0.005420 -0.019015 0.026246
v -0.009484 -0.019590 0.023803
v -0.009484 -0.015187 0.020043
v -0.010573 -0.010542 0.006393
v -0.005420 -0.028292 0.032348
v -0.009484 -0.028903 0.029926
v -0.005420 -0.038457 0.037048
v -0.009484 -0.039156 0.034639
v -0.005420 -0.050460 0.040820
v -0.009484 -0.051024 0.038319
v -0.010573 -0.051831 0.034179
v -0.010573 -0.069830 0.037011
v -0.005420 -0.066308 0.043085
v -0.009484 -0.067868 0.040890
v -0.009484 -0.069920 0.041265
v -0.005420 -0.068361 0.043442
v -0.010572 -0.009269 -0.001348
v -0.000009 -0.068956 0.042610
v -0.000009 -0.071881 0.037379
v -0.000009 -0.069920 0.041265
v 0.005156 -0.069038 0.042496
v 0.007690 -0.069920 0.041265
v -0.000009 -0.077067 -0.002392
v 0.009021 -0.071881 0.037379
v 0.009122 -0.074671 0.030281
v -0.000009 -0.078355 0.005622
v -0.000009 -0.078265 0.002462
v -0.000009 -0.074671 0.030281
v -0.000009 -0.077614 0.015809
v 0.009234 -0.077614 0.015809
v -0.000009 -0.077940 -0.001372
v 0.009228 -0.078265 0.002462
v 0.004902 -0.077067 -0.002392
v 0.006788 -0.077940 -0.001372
v 0.009227 -0.078355 0.005622
v -0.007706 -0.069920 0.041265
v -0.009039 -0.071881 0.037379
v -0.005173 -0.069038 0.042496
v -0.009140 -0.074671 0.030281
v -0.009251 -0.077614 0.015809
v -0.009244 -0.078355 0.005622
v -0.009245 -0.078265 0.002462
v -0.004919 -0.077067 -0.002392
v -0.006806 -0.077940 -0.001372
vn -0.0039 0.9990 0.0444
vn -0.0092 0.9990 0.0440
vn -0.0040 0.9991 0.0425
vn -0.0030 0.9990 0.0435
vn -0.0022 0.9990 0.0452
vn 0.0002 0.9990 0.0438
vn 0.0003 0.9991 0.0425
vn 0.0002 0.9991 0.0420
vn -0.0002 0.9991 0.0428
vn -0.0000 0.9991 0.0427
vn 0.0002 0.9991 0.0428
vn -0.0003 0.9991 0.0425
vn -0.0002 0.9991 0.0420
vn -0.0002 0.9990 0.0438
vn 0.0022 0.9990 0.0452
vn 0.0039 0.9990 0.0444
vn 0.0030 0.9990 0.0435
vn 0.0040 0.9991 0.0425
vn 0.0092 0.9990 0.0440
vn -0.5117 -0.0000 -0.8592
vn -0.5116 -0.0000 -0.8592
vn -0.0000 -0.0000 -1.0000
vn 0.5117 -0.0000 -0.8591
vn 0.5117 -0.0000 -0.8592
vn -1.0000 -0.0000 -0.0000
vn -0.9693 -0.0000 -0.2458
vn -0.9866 -0.0000 -0.1633
vn 0.9693 -0.0000 -0.2457
vn 0.9866 -0.0000 -0.1632
vn 1.0000 -0.0000 -0.0000
vn -0.0000 -0.0200 -0.9998
vn 0.1710 -0.0106 -0.9852
vn -0.0000 -0.0108 -0.9999
vn 0.2549 -0.0247 -0.9667
vn -0.0000 -0.1301 -0.9915
vn 0.3064 -0.1870 -0.9333
vn -0.0000 -0.0953 -0.9955
vn 0.2700 -0.0916 -0.9585
vn 0.2728 -0.1036 -0.9565
vn -0.0000 -0.1080 -0.9941
vn 0.6541 -0.0100 -0.7563
vn 0.7301 -0.0165 -0.6831
vn 0.8090 -0.1010 -0.5790
vn 0.6747 -0.0722 -0.7346
vn 0.9525 -0.0051 -0.3046
vn 0.9744 -0.0041 -0.2247
vn 0.9898 -0.0242 -0.1404
vn 0.9575 -0.0294 -0.2870
vn 0.8096 -0.0631 -0.5836
vn 0.9850 -0.0186 -0.1717
vn 0.9642 -0.1072 -0.2424
vn 0.7397 -0.2898 -0.6074
vn 0.9900 0.0328 0.1372
vn 0.9929 0.0452 0.1096
vn 0.9917 0.0647 0.1114
vn 0.9964 0.0150 0.0835
vn 0.9882 0.0262 0.1510
vn 0.7994 0.0999 0.5924
vn 0.7196 0.1547 0.6769
vn 0.8081 0.2192 0.5468
vn 0.8001 0.2974 0.5209
vn 0.8734 0.0874 0.4791
vn 0.3531 0.1630 0.9213
vn 0.2691 0.1525 0.9510
vn 0.1845 0.2176 0.9585
vn 0.2740 0.3477 0.8966
vn 0.3199 0.4486 0.8345
vn 0.2184 0.5990 0.7704
vn 0.7809 0.3887 0.4890
vn -0.0000 0.1715 0.9852
vn -0.0000 0.1515 0.9885
vn -0.0000 0.2214 0.9752
vn -0.0000 0.3404 0.9403
vn -0.0000 0.4859 0.8740
vn -0.0000 0.6230 0.7822
vn -0.0000 0.6445 0.7646
vn 0.3308 0.5983 0.7298
vn 0.8355 0.3343 0.4361
vn 0.9912 0.0846 0.1014
vn 0.2684 0.3376 0.9022
vn 0.8530 0.3091 0.4206
vn 0.8161 0.3629 0.4498
vn 0.9979 0.0244 0.0598
vn -0.0000 0.3807 0.9247
vn -0.0000 0.0277 0.9996
vn 0.3725 0.0060 0.9280
vn 0.8618 0.0175 0.5069
vn 0.9986 -0.0052 0.0530
vn 0.9992 0.0010 0.0404
vn 0.9299 0.3367 0.1481
vn 0.9338 0.3103 0.1782
vn 0.2471 -0.1533 0.9568
vn 0.8019 -0.1745 0.5714
vn 0.9982 -0.0046 0.0602
vn 1.0000 -0.0000 -0.0001
vn 1.0000 -0.0002 -0.0001
vn 1.0000 -0.0023 0.0007
vn -0.0000 -0.2070 0.9783
vn 0.2873 -0.3705 0.8833
vn 0.8187 -0.3484 0.4565
vn 0.9656 -0.2445 0.0879
vn 1.0000 0.0014 -0.0000
vn -0.0000 -0.3621 0.9321
vn -0.0000 -0.4551 0.8904
vn 0.2568 -0.4398 0.8606
vn 0.7030 -0.3146 0.6378
vn 0.8251 -0.2306 0.5158
vn 0.9868 -0.0564 0.1519
vn 0.9275 -0.3594 0.1029
vn 0.9615 -0.2715 0.0431
vn 0.9916 -0.0352 0.1248
vn 0.9605 -0.2622 0.0931
vn 0.9597 -0.2049 0.1924
vn 0.9570 -0.0476 0.2862
vn 0.9598 -0.1532 0.2351
vn 0.9571 0.0101 0.2896
vn 0.9580 0.1226 0.2591
vn 0.9563 0.2578 0.1381
vn 0.9689 0.1541 0.1935
vn 0.9358 0.3378 0.1010
vn 0.9395 0.3397 0.0437
vn 0.9891 0.0030 -0.1473
vn 0.9570 -0.0586 -0.2842
vn 0.9585 -0.1624 -0.2341
vn 0.9742 -0.1125 -0.1956
vn 0.9796 0.1993 0.0262
vn 0.8033 0.0139 -0.5954
vn 0.6783 -0.1727 -0.7142
vn 0.7250 -0.3836 -0.5721
vn 0.7348 -0.3480 -0.5822
vn 0.7402 -0.3891 -0.5484
vn 0.9728 -0.1439 -0.1816
vn 0.5157 0.0220 -0.8565
vn 0.5327 -0.2100 -0.8198
vn 0.3846 -0.5234 -0.7604
vn 0.2651 -0.5409 -0.7982
vn 0.2758 -0.4784 -0.8337
vn 0.2715 -0.5651 -0.7791
vn 0.7427 -0.3352 -0.5796
vn 0.9647 -0.1201 -0.2343
vn -0.0000 -0.6412 -0.7673
vn -0.0000 -0.4701 -0.8826
vn -0.0000 -0.6080 -0.7939
vn -0.0000 -0.4478 -0.8941
vn 0.2724 -0.1237 -0.9542
vn 0.8096 -0.0747 -0.5822
vn 0.9896 -0.0182 -0.1425
vn -0.0000 -0.1293 -0.9916
vn -0.0000 -0.2665 -0.9638
vn 0.2768 -0.2555 -0.9263
vn 0.6804 -0.1933 -0.7068
vn 0.9578 -0.0760 -0.2771
vn 0.2685 -0.4645 -0.8439
vn -0.0000 -0.4102 -0.9120
vn 0.9415 0.3287 0.0746
vn 0.9711 0.2328 0.0533
vn -0.1710 -0.0106 -0.9852
vn -0.2549 -0.0247 -0.9667
vn -0.6541 -0.0100 -0.7563
vn -0.7301 -0.0165 -0.6832
vn -0.9524 -0.0051 -0.3047
vn -0.9744 -0.0041 -0.2248
vn -1.0000 -0.0000 -0.0001
vn -0.3064 -0.1870 -0.9333
vn -0.8090 -0.1010 -0.5790
vn -0.9898 -0.0242 -0.1406
vn -0.2699 -0.0916 -0.9585
vn -0.6747 -0.0730 -0.7345
vn -0.9575 -0.0297 -0.2870
vn -0.9964 0.0150 0.0835
vn -0.2728 -0.1036 -0.9565
vn -0.8096 -0.0631 -0.5836
vn -0.9850 -0.0186 -0.1717
vn -0.9917 0.0647 0.1114
vn -0.9929 0.0452 0.1096
vn -0.2685 -0.4645 -0.8439
vn -0.7397 -0.2898 -0.6074
vn -0.9642 -0.1072 -0.2424
vn -0.2769 -0.2555 -0.9263
vn -0.6804 -0.1933 -0.7068
vn -0.9578 -0.0760 -0.2771
vn -0.2724 -0.1237 -0.9542
vn -0.8096 -0.0747 -0.5822
vn -0.9897 -0.0182 -0.1423
vn -0.9912 0.0846 0.1014
vn -0.2715 -0.5651 -0.7791
vn -0.7427 -0.3352 -0.5797
vn -0.9648 -0.1201 -0.2341
vn -1.0000 0.0001 0.0001
vn -0.9979 0.0244 0.0598
vn -0.2758 -0.4784 -0.8337
vn -0.7402 -0.3891 -0.5484
vn -0.9728 -0.1438 -0.1816
vn -0.2651 -0.5409 -0.7982
vn -0.7347 -0.3480 -0.5823
vn -0.9742 -0.1127 -0.1956
vn -1.0000 -0.0000 0.0002
vn -1.0000 -0.0000 0.0003
vn -0.3846 -0.5234 -0.7604
vn -0.7249 -0.3836 -0.5721
vn -0.9585 -0.1625 -0.2341
vn -0.9570 -0.0587 -0.2842
vn -0.9891 0.0030 -0.1474
vn -0.6783 -0.1728 -0.7142
vn -0.5327 -0.2100 -0.8198
vn -0.5158 0.0220 -0.8565
vn -0.8033 0.0139 -0.5954
vn -0.0000 1.0000 -0.0000
vn -0.9689 0.1540 0.1935
vn -0.9571 0.0101 0.2895
vn -0.9581 0.1225 0.2591
vn -0.9562 0.2579 0.1381
vn -0.9358 0.3377 0.1010
vn -1.0000 -0.0000 0.0001
vn -0.9598 -0.1532 0.2352
vn -0.9570 -0.0476 0.2862
vn -1.0000 -0.0001 -0.0000
vn -0.9605 -0.2621 0.0931
vn -0.9597 -0.2048 0.1924
vn -0.9982 -0.0046 0.0602
vn -0.9916 -0.0352 0.1247
vn -0.9868 -0.0564 0.1519
vn -0.9275 -0.3593 0.1029
vn -0.9615 -0.2715 0.0431
vn -1.0000 0.0014 -0.0000
vn -0.8251 -0.2307 0.5158
vn -0.8187 -0.3484 0.4565
vn -0.9656 -0.2445 0.0879
vn -0.7030 -0.3146 0.6378
vn -0.2872 -0.3705 0.8833
vn -0.8019 -0.1745 0.5714
vn -0.2567 -0.4399 0.8606
vn -0.2470 -0.1533 0.9568
vn -0.3725 0.0060 0.9280
vn -0.8618 0.0175 0.5070
vn -0.9986 -0.0055 0.0529
vn -0.2684 0.3376 0.9022
vn -0.8529 0.3093 0.4207
vn -0.9992 0.0018 0.0407
vn -1.0000 -0.0010 0.0008
vn -0.9393 0.3402 0.0438
vn -0.3307 0.5983 0.7298
vn -0.8160 0.3630 0.4498
vn -0.9338 0.3104 0.1782
vn -0.9297 0.3372 0.1483
vn -0.9708 0.2338 0.0536
vn -0.2184 0.5990 0.7704
vn -0.7809 0.3888 0.4890
vn -0.8355 0.3343 0.4361
vn -0.9415 0.3287 0.0745
vn -0.3198 0.4486 0.8345
vn -0.8001 0.2974 0.5209
vn -0.2740 0.3478 0.8966
vn -0.8080 0.2192 0.5468
vn -0.1845 0.2176 0.9584
vn -0.7196 0.1540 0.6771
vn -0.9900 0.0328 0.1372
vn -0.9882 0.0262 0.1510
vn -0.2691 0.1525 0.9509
vn -0.7994 0.0999 0.5924
vn -0.8734 0.0874 0.4791
vn -0.3530 0.1630 0.9213
vn -0.9796 0.1993 0.0262
vn -0.0000 -0.8129 0.5824
vn -0.0000 -0.8130 0.5822
vn -0.0000 -0.8417 0.5399
vn -0.0000 -0.8554 0.5180
vn -0.0000 -0.9063 0.4227
vn -0.0000 -0.9154 0.4025
vn -0.0000 -0.9503 0.3113
vn -0.0001 -0.8130 0.5823
vn -0.0000 -0.8684 0.4958
vn -0.0000 -0.9127 0.4086
vn -0.0000 -0.9668 0.2557
vn -0.0000 -0.9907 0.1362
vn -0.0000 -0.9923 0.1235
vn -0.0000 -0.9998 0.0220
vn -0.0000 -0.9984 -0.0565
vn -0.0000 -0.9875 0.1573
vn -0.0019 -0.9241 -0.3822
vn -0.0000 -0.8760 -0.4823
vn -0.0022 -0.7667 -0.6419
vn -0.0000 -0.7661 -0.6427
vn -0.0000 -0.7725 -0.6350
vn -0.0036 -0.7692 -0.6390
vn -0.0000 -0.9984 -0.0564
vn -0.0000 -0.9593 -0.2824
vn 0.0001 -0.8130 0.5823
vn 0.0018 -0.9241 -0.3822
vn 0.0022 -0.7668 -0.6419
vn 0.0036 -0.7691 -0.6391
vt 0.999972 0.649181
vt 0.999972 0.623979
vt 0.979319 0.587579
vt 0.944165 0.569919
vt 0.944165 0.905009
vt 0.999968 0.926534
vt 0.920661 0.941666
vt 0.988158 0.976614
vt 0.944138 0.999979
vt 0.885538 0.941653
vt 0.885516 0.999960
vt 0.707298 0.705836
vt 0.861385 0.699231
vt 0.860157 0.673748
vt 0.706070 0.680352
vt 0.874968 0.981210
vt 0.862972 0.732175
vt 0.853445 0.994423
vt 0.707634 0.738834
vt 0.707634 0.996928
vt 0.181568 0.031112
vt 0.251741 0.015481
vt 0.183435 0.009421
vt 0.250023 0.037233
vt 0.166159 0.206671
vt 0.235368 0.215164
vt 0.151726 0.288726
vt 0.217977 0.298654
vt 0.212317 0.363952
vt 0.143358 0.350947
vt 0.298642 0.001898
vt 0.297119 0.023810
vt 0.284249 0.220747
vt 0.260916 0.305032
vt 0.347852 0.000495
vt 0.346669 0.022378
vt 0.338204 0.227436
vt 0.310171 0.312007
vt 0.261392 0.373790
vt 0.383127 0.000205
vt 0.382259 0.022071
vt 0.371039 0.232096
vt 0.346038 0.351734
vt 0.315446 0.382960
vt 0.293099 0.453485
vt 0.240070 0.444693
vt 0.498823 0.009335
vt 0.496646 0.031165
vt 0.660513 0.063455
vt 0.703185 0.284825
vt 0.654582 0.410980
vt 0.607550 0.520426
vt 0.311032 0.475424
vt 0.663911 0.041699
vt 0.745360 0.072385
vt 0.740657 0.094115
vt 0.787055 0.116819
vt 0.751017 0.294240
vt 0.708878 0.418414
vt 0.657325 0.526343
vt 0.792078 0.095132
vt 0.847139 0.119670
vt 0.842265 0.141490
vt 0.807250 0.308596
vt 0.764016 0.435604
vt 0.711851 0.543644
vt 0.647080 0.644854
vt 0.592535 0.627777
vt 0.914690 0.133830
vt 0.909902 0.155682
vt 0.873135 0.325600
vt 0.827859 0.458776
vt 0.772713 0.572444
vt 0.706458 0.675784
vt 0.675679 0.720238
vt 0.613199 0.693317
vt 0.555333 0.680257
vt 0.540243 0.622454
vt 0.596417 0.723773
vt 0.541959 0.725492
vt 0.550510 0.692662
vt 0.463833 0.703034
vt 0.280767 0.596269
vt 0.663865 0.740958
vt 0.650838 0.808855
vt 0.582063 0.804130
vt 0.533343 0.798270
vt 0.492696 0.794165
vt 0.485271 0.750866
vt 0.482509 0.743450
vt 0.471749 0.712190
vt 0.586283 0.879615
vt 0.537278 0.884405
vt 0.503711 0.879626
vt 0.257538 0.786966
vt 0.324312 0.780415
vt 0.410740 0.769205
vt 0.655019 0.873724
vt 0.594990 0.912903
vt 0.537775 0.917676
vt 0.502943 0.885462
vt 0.260813 0.882888
vt 0.222532 0.839091
vt 0.230952 0.806845
vt 0.662012 0.899578
vt 0.686662 0.978125
vt 0.621983 0.994330
vt 0.566778 0.998495
vt 0.540454 0.925243
vt 0.500276 0.924323
vt 0.498709 0.917651
vt 0.258544 0.887815
vt 0.231287 0.864799
vt 0.506873 0.995071
vt 0.247632 0.926560
vt 0.252004 0.918999
vt 0.227403 0.868145
vt 0.217931 0.839689
vt 0.163716 0.995574
vt 0.195840 0.896280
vt 0.202489 0.889575
vt 0.185946 0.840630
vt 0.227061 0.804863
vt 0.255240 0.782762
vt 0.177626 0.841183
vt 0.169665 0.794538
vt 0.189978 0.788002
vt 0.199853 0.789881
vt 0.241642 0.755839
vt 0.322682 0.775371
vt 0.133277 0.997702
vt 0.139835 0.803612
vt 0.147673 0.783131
vt 0.178938 0.743725
vt 0.210634 0.739211
vt 0.237148 0.748939
vt 0.312612 0.746864
vt 0.081949 0.998348
vt 0.088757 0.795646
vt 0.100432 0.772010
vt 0.127902 0.733066
vt 0.148642 0.683907
vt 0.199705 0.692998
vt 0.034961 0.997432
vt 0.043064 0.786818
vt 0.060412 0.752683
vt 0.081836 0.718224
vt 0.105926 0.669599
vt 0.135185 0.620724
vt 0.182993 0.636647
vt 0.237283 0.648082
vt 0.245912 0.673304
vt 0.000074 0.724193
vt 0.019370 0.689467
vt 0.044695 0.642540
vt 0.069897 0.596009
vt 0.154067 0.566155
vt 0.201451 0.580282
vt 0.254793 0.591610
vt 0.086898 0.547569
vt 0.101934 0.482806
vt 0.165667 0.499796
vt 0.206148 0.511194
vt 0.254144 0.520861
vt 0.192660 0.433929
vt 0.125623 0.416033
vt 0.395373 0.724438
vt 0.308770 0.738985
vt 0.400876 0.732864
vt 0.408767 0.763395
vt 0.929009 0.652691
vt 0.929009 0.622320
vt 0.899891 0.622320
vt 0.880416 0.652692
vt 0.880416 0.920998
vt 0.929011 0.920997
vt 0.059958 0.468794
vt 0.000509 0.480147
vt 0.000511 0.470164
vt 0.000516 0.454028
vt 0.089310 0.454040
vt 0.000525 0.411512
vt 0.104750 0.411524
vt 0.000536 0.336972
vt 0.062821 0.480156
vt 0.109895 0.454045
vt 0.122520 0.411528
vt 0.122532 0.336977
vt 0.105930 0.336976
vt 0.000536 0.192503
vt 0.107221 0.192493
vt 0.107121 0.092534
vt 0.000518 0.092556
vt 0.000508 0.061618
vt 0.122532 0.192493
vt 0.122512 0.092532
vt 0.107128 0.061590
vt 0.078848 0.023943
vt 0.000495 0.023966
vt 0.056989 0.010863
vt 0.000490 0.010881
vt 0.000486 0.000044
vt 0.062799 0.000025
vt 0.122501 0.061586
vt 0.100403 0.023937
s 1
usemtl wpn\wpn_pistolgrip_ak_zenit_rk3_diff
f 6/1/1 2/2/2 3/3/3
f 3/3/3 4/4/4 6/1/1
f 6/1/1 4/4/4 5/5/5
f 5/5/5 1/6/6 6/1/1
f 1/6/6 5/5/5 9/7/7
f 9/7/7 8/8/8 1/6/6
f 8/8/8 9/7/7 11/9/9
f 11/9/9 9/7/7 10/10/10
f 10/10/10 7/11/10 11/9/9
f 70/9/11 7/11/10 10/10/10
f 10/10/10 60/7/12 70/9/11
f 69/8/13 70/9/11 60/7/12
f 68/6/14 69/8/13 60/7/12
f 60/7/12 58/5/15 68/6/14
f 66/1/16 68/6/14 58/5/15
f 58/5/15 59/4/17 66/1/16
f 66/1/16 59/4/17 65/3/18
f 65/3/18 67/2/19 66/1/16
f 9/12/20 63/13/21 64/14/22
f 64/14/22 10/15/22 9/12/20
f 60/12/23 10/15/22 64/14/22
f 64/14/22 61/13/24 60/12/23
f 30/16/25 62/17/26 29/18/25
f 29/18/25 62/17/26 5/19/27
f 9/12/20 5/19/27 62/17/26
f 62/17/26 63/13/21 9/12/20
f 5/19/27 4/20/25 29/18/25
f 60/12/23 61/13/24 56/17/28
f 56/17/28 58/19/29 60/12/23
f 58/19/29 56/17/28 57/18/30
f 55/16/30 57/18/30 56/17/28
f 57/18/30 59/20/30 58/19/29
f 104/21/31 106/22/32 105/23/33
f 107/24/34 106/22/32 104/21/31
f 107/24/34 104/21/31 108/25/35
f 107/24/34 108/25/35 109/26/36
f 109/26/36 108/25/35 110/27/37
f 111/28/38 109/26/36 110/27/37
f 111/28/38 110/27/37 112/29/39
f 113/30/40 112/29/39 110/27/37
f 107/24/34 114/31/41 106/22/32
f 107/24/34 115/32/42 114/31/41
f 107/24/34 109/26/36 115/32/42
f 115/32/42 109/26/36 116/33/43
f 117/34/44 116/33/43 109/26/36
f 111/28/38 117/34/44 109/26/36
f 111/28/38 112/29/39 117/34/44
f 115/32/42 118/35/45 114/31/41
f 119/36/46 118/35/45 115/32/42
f 119/36/46 115/32/42 116/33/43
f 119/36/46 116/33/43 120/37/47
f 121/38/48 120/37/47 116/33/43
f 121/38/48 116/33/43 117/34/44
f 121/38/48 117/34/44 122/39/49
f 117/34/44 112/29/39 122/39/49
f 119/36/46 123/40/30 118/35/45
f 119/36/46 124/41/30 123/40/30
f 119/36/46 120/37/47 124/41/30
f 125/42/30 124/41/30 120/37/47
f 125/42/30 120/37/47 126/43/30
f 121/38/48 126/43/30 120/37/47
f 121/38/48 127/44/50 126/43/30
f 121/38/48 122/39/49 127/44/50
f 128/45/51 127/44/50 122/39/49
f 128/45/51 122/39/49 129/46/52
f 129/46/52 122/39/49 112/29/39
f 124/41/30 130/47/30 123/40/30
f 124/41/30 131/48/30 130/47/30
f 125/42/30 131/48/30 124/41/30
f 125/42/30 132/49/30 131/48/30
f 125/42/30 133/50/53 132/49/30
f 125/42/30 134/51/54 133/50/53
f 125/42/30 126/43/30 134/51/54
f 135/52/55 134/51/54 126/43/30
f 135/52/55 126/43/30 136/53/30
f 126/43/30 127/44/50 136/53/30
f 128/45/51 136/53/30 127/44/50
f 131/48/30 137/54/30 130/47/30
f 132/49/30 137/54/30 131/48/30
f 132/49/30 138/55/56 137/54/30
f 132/49/30 139/56/57 138/55/56
f 132/49/30 133/50/53 139/56/57
f 140/57/58 139/56/57 133/50/53
f 140/57/58 133/50/53 141/58/59
f 142/59/60 141/58/59 133/50/53
f 142/59/60 133/50/53 134/51/54
f 142/59/60 134/51/54 143/60/61
f 135/52/55 143/60/61 134/51/54
f 139/56/57 144/61/62 138/55/56
f 140/57/58 144/61/62 139/56/57
f 140/57/58 145/62/63 144/61/62
f 140/57/58 146/63/64 145/62/63
f 140/57/58 141/58/59 146/63/64
f 146/63/64 141/58/59 147/64/65
f 147/64/65 141/58/59 148/65/66
f 142/59/60 148/65/66 141/58/59
f 142/59/60 149/66/67 148/65/66
f 142/59/60 143/60/61 149/66/67
f 149/66/67 143/60/61 150/67/68
f 151/68/69 150/67/68 143/60/61
f 135/52/55 151/68/69 143/60/61
f 146/63/64 152/69/70 145/62/63
f 153/70/71 152/69/70 146/63/64
f 153/70/71 146/63/64 147/64/65
f 153/70/71 147/64/65 154/71/72
f 155/72/73 154/71/72 147/64/65
f 155/72/73 147/64/65 148/65/66
f 155/72/73 148/65/66 156/73/74
f 149/66/67 156/73/74 148/65/66
f 149/66/67 150/67/68 156/73/74
f 157/74/75 156/73/74 150/67/68
f 157/74/75 150/67/68 158/75/76
f 159/76/77 158/75/76 150/67/68
f 159/76/77 150/67/68 151/68/69
f 159/76/77 151/68/69 160/77/78
f 151/68/69 161/78/79 160/77/78
f 135/52/55 161/78/79 151/68/69
f 135/52/55 136/53/30 161/78/79
f 159/76/77 162/79/80 158/75/76
f 159/76/77 163/80/81 162/79/80
f 164/81/82 163/80/81 159/76/77
f 164/81/82 159/76/77 160/77/78
f 164/81/82 160/77/78 165/82/83
f 165/82/83 160/77/78 161/78/79
f 166/83/30 165/82/83 161/78/79
f 166/83/30 161/78/79 136/53/30
f 167/84/84 158/75/76 162/79/80
f 167/84/84 162/79/80 168/85/85
f 169/86/86 168/85/85 162/79/80
f 170/87/87 169/86/86 162/79/80
f 170/87/87 162/79/80 163/80/81
f 170/87/87 163/80/81 171/88/88
f 172/89/89 171/88/88 163/80/81
f 173/90/90 172/89/89 163/80/81
f 173/90/90 163/80/81 174/91/91
f 164/81/82 174/91/91 163/80/81
f 164/81/82 165/82/83 174/91/91
f 175/92/92 168/85/85 169/86/86
f 175/92/92 169/86/86 176/93/93
f 170/87/87 176/93/93 169/86/86
f 177/94/94 176/93/93 170/87/87
f 177/94/94 170/87/87 171/88/88
f 177/94/94 171/88/88 178/95/95
f 179/96/96 178/95/95 171/88/88
f 180/97/97 179/96/96 171/88/88
f 180/97/97 171/88/88 172/89/89
f 175/92/92 181/98/98 168/85/85
f 175/92/92 182/99/99 181/98/98
f 175/92/92 176/93/93 182/99/99
f 183/100/100 182/99/99 176/93/93
f 183/100/100 176/93/93 184/101/101
f 177/94/94 184/101/101 176/93/93
f 177/94/94 185/102/102 184/101/101
f 177/94/94 186/103/30 185/102/102
f 177/94/94 187/104/30 186/103/30
f 177/94/94 178/95/95 187/104/30
f 188/105/103 181/98/98 182/99/99
f 188/105/103 182/99/99 7/106/104
f 182/99/99 11/107/105 7/106/104
f 182/99/99 8/108/106 11/107/105
f 189/109/107 8/108/106 182/99/99
f 189/109/107 182/99/99 183/100/100
f 190/110/108 189/109/107 183/100/100
f 190/110/108 183/100/100 191/111/109
f 183/100/100 184/101/101 191/111/109
f 184/101/101 192/112/110 191/111/109
f 185/102/102 192/112/110 184/101/101
f 193/113/30 192/112/110 185/102/102
f 193/113/30 185/102/102 186/103/30
f 189/109/107 1/114/111 8/108/106
f 190/110/108 1/114/111 189/109/107
f 190/110/108 194/115/30 1/114/111
f 190/110/108 195/116/112 194/115/30
f 190/110/108 191/111/109 195/116/112
f 195/116/112 191/111/109 192/112/110
f 195/116/112 192/112/110 196/117/113
f 193/113/30 196/117/113 192/112/110
f 193/113/30 186/103/30 196/117/113
f 197/118/114 196/117/113 186/103/30
f 197/118/114 186/103/30 187/104/30
f 194/115/30 6/119/30 1/114/111
f 198/120/30 6/119/30 194/115/30
f 198/120/30 194/115/30 199/121/115
f 194/115/30 195/116/112 199/121/115
f 195/116/112 196/117/113 199/121/115
f 197/118/114 199/121/115 196/117/113
f 197/118/114 200/122/116 199/121/115
f 197/118/114 201/123/117 200/122/116
f 197/118/114 187/104/30 201/123/117
f 187/104/30 178/95/95 201/123/117
f 202/124/118 201/123/117 178/95/95
f 202/124/118 178/95/95 179/96/96
f 198/120/30 12/125/30 6/119/30
f 198/120/30 200/122/116 12/125/30
f 198/120/30 199/121/115 200/122/116
f 12/125/30 13/126/30 6/119/30
f 14/127/30 13/126/30 12/125/30
f 14/127/30 12/125/30 15/128/119
f 12/125/30 200/122/116 15/128/119
f 200/122/116 201/123/117 15/128/119
f 202/124/118 15/128/119 201/123/117
f 202/124/118 16/129/120 15/128/119
f 202/124/118 17/130/121 16/129/120
f 202/124/118 179/96/96 17/130/121
f 180/97/97 17/130/121 179/96/96
f 13/126/30 2/131/122 6/119/30
f 13/126/30 18/132/123 2/131/122
f 19/133/124 18/132/123 13/126/30
f 19/133/124 13/126/30 20/134/125
f 21/135/30 20/134/125 13/126/30
f 14/127/30 21/135/30 13/126/30
f 14/127/30 22/136/30 21/135/30
f 14/127/30 15/128/119 22/136/30
f 22/136/30 15/128/119 16/129/120
f 23/137/126 22/136/30 16/129/120
f 23/137/126 16/129/120 17/130/121
f 18/132/123 3/138/127 2/131/122
f 24/139/128 3/138/127 18/132/123
f 24/139/128 18/132/123 25/140/129
f 19/133/124 25/140/129 18/132/123
f 19/133/124 26/141/130 25/140/129
f 19/133/124 20/134/125 26/141/130
f 26/141/130 20/134/125 27/142/131
f 28/143/132 27/142/131 20/134/125
f 28/143/132 20/134/125 21/135/30
f 24/139/128 4/144/133 3/138/127
f 24/139/128 29/145/134 4/144/133
f 24/139/128 30/146/135 29/145/134
f 24/139/128 25/140/129 30/146/135
f 31/147/136 30/146/135 25/140/129
f 31/147/136 25/140/129 26/141/130
f 31/147/136 26/141/130 32/148/137
f 26/141/130 27/142/131 32/148/137
f 33/149/138 32/148/137 27/142/131
f 33/149/138 27/142/131 34/150/139
f 28/143/132 34/150/139 27/142/131
f 28/143/132 35/151/140 34/150/139
f 28/143/132 36/152/30 35/151/140
f 28/143/132 21/135/30 36/152/30
f 31/147/136 37/153/141 30/146/135
f 31/147/136 38/154/142 37/153/141
f 31/147/136 32/148/137 38/154/142
f 38/154/142 32/148/137 39/155/143
f 33/149/138 39/155/143 32/148/137
f 33/149/138 40/156/144 39/155/143
f 33/149/138 41/157/145 40/156/144
f 33/149/138 34/150/139 41/157/145
f 42/158/146 41/157/145 34/150/139
f 42/158/146 34/150/139 35/151/140
f 42/158/146 35/151/140 43/159/147
f 35/151/140 36/152/30 43/159/147
f 44/160/148 40/156/144 41/157/145
f 44/160/148 41/157/145 45/161/149
f 46/162/150 45/161/149 41/157/145
f 47/163/151 46/162/150 41/157/145
f 42/158/146 47/163/151 41/157/145
f 42/158/146 48/164/152 47/163/151
f 42/158/146 43/159/147 48/164/152
f 136/53/30 48/164/152 43/159/147
f 166/83/30 136/53/30 43/159/147
f 166/83/30 43/159/147 36/152/30
f 49/165/153 45/161/149 46/162/150
f 49/165/153 46/162/150 47/163/151
f 49/165/153 47/163/151 129/46/52
f 129/46/52 47/163/151 48/164/152
f 128/45/51 129/46/52 48/164/152
f 128/45/51 48/164/152 136/53/30
f 49/165/153 50/166/154 45/161/149
f 49/165/153 112/29/39 50/166/154
f 49/165/153 129/46/52 112/29/39
f 113/30/40 50/166/154 112/29/39
f 166/83/30 36/152/30 165/82/83
f 51/167/30 165/82/83 36/152/30
f 51/167/30 36/152/30 52/168/30
f 21/135/30 52/168/30 36/152/30
f 21/135/30 22/136/30 52/168/30
f 23/137/126 52/168/30 22/136/30
f 51/167/30 53/169/155 165/82/83
f 51/167/30 23/137/126 53/169/155
f 51/167/30 52/168/30 23/137/126
f 165/82/83 53/169/155 174/91/91
f 173/90/90 174/91/91 53/169/155
f 173/90/90 53/169/155 54/170/156
f 17/130/121 54/170/156 53/169/155
f 23/137/126 17/130/121 53/169/155
f 173/90/90 54/170/156 172/89/89
f 180/97/97 172/89/89 54/170/156
f 180/97/97 54/170/156 17/130/121
f 104/21/31 105/23/33 229/22/157
f 228/24/158 104/21/31 229/22/157
f 228/24/158 229/22/157 227/31/159
f 226/32/160 228/24/158 227/31/159
f 226/32/160 227/31/159 224/35/161
f 226/32/160 224/35/161 225/36/162
f 225/36/162 224/35/161 223/40/163
f 228/24/158 108/25/35 104/21/31
f 228/24/158 220/26/164 108/25/35
f 226/32/160 220/26/164 228/24/158
f 226/32/160 219/33/165 220/26/164
f 226/32/160 225/36/162 219/33/165
f 225/36/162 222/37/166 219/33/165
f 225/36/162 221/41/163 222/37/166
f 225/36/162 223/40/163 221/41/163
f 221/41/163 223/40/163 217/47/25
f 221/41/163 217/47/25 216/48/25
f 216/48/25 217/47/25 218/54/25
f 220/26/164 110/27/37 108/25/35
f 215/28/167 110/27/37 220/26/164
f 215/28/167 220/26/164 213/34/168
f 213/34/168 220/26/164 219/33/165
f 209/38/169 213/34/168 219/33/165
f 209/38/169 219/33/165 222/37/166
f 209/38/169 222/37/166 212/43/25
f 210/42/163 212/43/25 222/37/166
f 210/42/163 222/37/166 221/41/163
f 210/42/163 221/41/163 216/48/25
f 210/42/163 216/48/25 211/49/25
f 211/49/25 216/48/25 218/54/25
f 211/49/25 218/54/25 214/55/170
f 215/28/167 207/29/171 110/27/37
f 215/28/167 213/34/168 207/29/171
f 213/34/168 204/39/172 207/29/171
f 209/38/169 204/39/172 213/34/168
f 209/38/169 208/44/173 204/39/172
f 209/38/169 212/43/25 208/44/173
f 212/43/25 206/53/25 208/44/173
f 205/52/174 206/53/25 212/43/25
f 205/52/174 212/43/25 203/51/175
f 210/42/163 203/51/175 212/43/25
f 113/30/40 110/27/37 207/29/171
f 113/30/40 207/29/171 50/166/154
f 71/165/176 50/166/154 207/29/171
f 71/165/176 207/29/171 72/46/177
f 72/46/177 207/29/171 204/39/172
f 73/45/178 72/46/177 204/39/172
f 73/45/178 204/39/172 208/44/173
f 73/45/178 208/44/173 206/53/25
f 71/165/176 45/161/149 50/166/154
f 71/165/176 74/162/179 45/161/149
f 71/165/176 75/163/180 74/162/179
f 71/165/176 72/46/177 75/163/180
f 72/46/177 76/164/181 75/163/180
f 73/45/178 76/164/181 72/46/177
f 73/45/178 206/53/25 76/164/181
f 77/157/182 45/161/149 74/162/179
f 77/157/182 74/162/179 75/163/180
f 78/158/183 77/157/182 75/163/180
f 78/158/183 75/163/180 76/164/181
f 78/158/183 76/164/181 79/159/184
f 79/159/184 76/164/181 206/53/25
f 80/83/25 79/159/184 206/53/25
f 80/83/25 206/53/25 81/78/185
f 205/52/174 81/78/185 206/53/25
f 44/160/148 45/161/149 77/157/182
f 44/160/148 77/157/182 40/156/144
f 77/157/182 82/149/186 40/156/144
f 77/157/182 83/150/187 82/149/186
f 78/158/183 83/150/187 77/157/182
f 78/158/183 84/151/188 83/150/187
f 78/158/183 79/159/184 84/151/188
f 79/159/184 85/152/189 84/151/188
f 80/83/25 85/152/189 79/159/184
f 80/83/25 86/82/190 85/152/189
f 80/83/25 81/78/185 86/82/190
f 82/149/186 39/155/143 40/156/144
f 87/148/191 39/155/143 82/149/186
f 87/148/191 82/149/186 88/142/192
f 82/149/186 83/150/187 88/142/192
f 89/143/193 88/142/192 83/150/187
f 89/143/193 83/150/187 84/151/188
f 89/143/193 84/151/188 85/152/189
f 89/143/193 85/152/189 90/135/25
f 91/168/163 90/135/25 85/152/189
f 91/168/163 85/152/189 92/167/25
f 92/167/25 85/152/189 86/82/190
f 87/148/191 38/154/142 39/155/143
f 87/148/191 93/147/194 38/154/142
f 87/148/191 94/141/195 93/147/194
f 87/148/191 88/142/192 94/141/195
f 94/141/195 88/142/192 95/134/196
f 89/143/193 95/134/196 88/142/192
f 89/143/193 90/135/25 95/134/196
f 96/126/197 95/134/196 90/135/25
f 96/126/197 90/135/25 97/127/198
f 90/135/25 98/136/25 97/127/198
f 91/168/163 98/136/25 90/135/25
f 93/147/194 37/153/141 38/154/142
f 93/147/194 55/146/199 37/153/141
f 99/140/200 55/146/199 93/147/194
f 99/140/200 93/147/194 94/141/195
f 99/140/200 94/141/195 100/133/201
f 100/133/201 94/141/195 95/134/196
f 96/126/197 100/133/201 95/134/196
f 96/126/197 101/132/202 100/133/201
f 96/126/197 67/131/203 101/132/202
f 96/126/197 66/119/25 67/131/203
f 96/126/197 102/125/25 66/119/25
f 96/126/197 97/127/198 102/125/25
f 99/140/200 103/139/204 55/146/199
f 99/140/200 101/132/202 103/139/204
f 99/140/200 100/133/201 101/132/202
f 103/139/204 57/145/205 55/146/199
f 103/139/204 59/144/206 57/145/205
f 103/139/204 65/138/207 59/144/206
f 103/139/204 101/132/202 65/138/207
f 101/132/202 67/131/203 65/138/207
f 230/171/208 64/172/208 63/173/208
f 230/171/208 63/173/208 62/174/208
f 230/171/208 62/174/208 30/175/208
f 230/171/208 30/175/208 37/176/208
f 230/171/208 37/176/208 55/175/208
f 230/171/208 55/175/208 56/174/208
f 230/171/208 56/174/208 61/173/208
f 230/171/208 61/173/208 64/172/208
f 102/125/25 97/127/198 231/128/209
f 102/125/25 231/128/209 232/122/210
f 232/122/210 231/128/209 233/123/211
f 234/124/212 233/123/211 231/128/209
f 235/129/213 234/124/212 231/128/209
f 235/129/213 231/128/209 98/136/25
f 97/127/198 98/136/25 231/128/209
f 236/120/214 102/125/25 232/122/210
f 236/120/214 232/122/210 237/121/215
f 238/118/216 237/121/215 232/122/210
f 238/118/216 232/122/210 233/123/211
f 239/104/25 238/118/216 233/123/211
f 239/104/25 233/123/211 240/95/217
f 234/124/212 240/95/217 233/123/211
f 236/120/214 66/119/25 102/125/25
f 236/120/214 241/115/214 66/119/25
f 236/120/214 237/121/215 241/115/214
f 241/115/214 237/121/215 242/116/218
f 243/117/219 242/116/218 237/121/215
f 243/117/219 237/121/215 238/118/216
f 243/117/219 238/118/216 244/103/25
f 239/104/25 244/103/25 238/118/216
f 239/104/25 245/94/220 244/103/25
f 239/104/25 240/95/217 245/94/220
f 241/115/214 68/114/221 66/119/25
f 246/110/222 68/114/221 241/115/214
f 246/110/222 241/115/214 242/116/218
f 246/110/222 242/116/218 247/111/223
f 242/116/218 248/112/224 247/111/223
f 243/117/219 248/112/224 242/116/218
f 243/117/219 249/113/25 248/112/224
f 243/117/219 244/103/25 249/113/25
f 250/102/225 249/113/25 244/103/25
f 250/102/225 244/103/25 245/94/220
f 246/110/222 251/109/226 68/114/221
f 246/110/222 252/100/227 251/109/226
f 246/110/222 247/111/223 252/100/227
f 252/100/227 247/111/223 253/101/228
f 253/101/228 247/111/223 248/112/224
f 250/102/225 253/101/228 248/112/224
f 250/102/225 248/112/224 249/113/25
f 251/109/226 69/108/229 68/114/221
f 251/109/226 254/99/230 69/108/229
f 251/109/226 252/100/227 254/99/230
f 252/100/227 255/93/231 254/99/230
f 252/100/227 253/101/228 255/93/231
f 245/94/220 255/93/231 253/101/228
f 250/102/225 245/94/220 253/101/228
f 254/99/230 70/107/232 69/108/229
f 254/99/230 7/106/104 70/107/232
f 188/105/103 7/106/104 254/99/230
f 188/105/103 254/99/230 181/98/98
f 256/92/233 181/98/98 254/99/230
f 256/92/233 254/99/230 255/93/231
f 256/92/233 255/93/231 257/86/234
f 258/87/235 257/86/234 255/93/231
f 258/87/235 255/93/231 245/94/220
f 258/87/235 245/94/220 259/88/236
f 245/94/220 240/95/217 259/88/236
f 260/96/214 259/88/236 240/95/217
f 260/96/214 240/95/217 234/124/212
f 256/92/233 168/85/85 181/98/98
f 256/92/233 257/86/234 168/85/85
f 257/86/234 261/79/237 168/85/85
f 258/87/235 261/79/237 257/86/234
f 258/87/235 262/80/238 261/79/237
f 258/87/235 259/88/236 262/80/238
f 263/89/239 262/80/238 259/88/236
f 263/89/239 259/88/236 264/97/240
f 260/96/214 264/97/240 259/88/236
f 260/96/214 265/130/241 264/97/240
f 260/96/214 234/124/212 265/130/241
f 235/129/213 265/130/241 234/124/212
f 167/84/84 168/85/85 261/79/237
f 167/84/84 261/79/237 158/75/76
f 266/76/242 158/75/76 261/79/237
f 266/76/242 261/79/237 262/80/238
f 267/81/243 266/76/242 262/80/238
f 267/81/243 262/80/238 268/91/244
f 269/90/245 268/91/244 262/80/238
f 263/89/239 269/90/245 262/80/238
f 263/89/239 270/170/246 269/90/245
f 263/89/239 264/97/240 270/170/246
f 264/97/240 265/130/241 270/170/246
f 266/76/242 271/67/247 158/75/76
f 266/76/242 272/68/248 271/67/247
f 266/76/242 273/77/249 272/68/248
f 267/81/243 273/77/249 266/76/242
f 267/81/243 86/82/190 273/77/249
f 267/81/243 268/91/244 86/82/190
f 274/169/250 86/82/190 268/91/244
f 274/169/250 268/91/244 269/90/245
f 274/169/250 269/90/245 270/170/246
f 274/169/250 270/170/246 265/130/241
f 157/74/75 158/75/76 271/67/247
f 157/74/75 271/67/247 156/73/74
f 275/66/251 156/73/74 271/67/247
f 275/66/251 271/67/247 276/60/252
f 272/68/248 276/60/252 271/67/247
f 205/52/174 276/60/252 272/68/248
f 205/52/174 272/68/248 81/78/185
f 272/68/248 273/77/249 81/78/185
f 86/82/190 81/78/185 273/77/249
f 275/66/251 277/65/253 156/73/74
f 278/59/254 277/65/253 275/66/251
f 278/59/254 275/66/251 276/60/252
f 278/59/254 276/60/252 203/51/175
f 205/52/174 203/51/175 276/60/252
f 155/72/73 156/73/74 277/65/253
f 155/72/73 277/65/253 279/64/255
f 279/64/255 277/65/253 280/58/256
f 278/59/254 280/58/256 277/65/253
f 278/59/254 281/50/257 280/58/256
f 278/59/254 203/51/175 281/50/257
f 210/42/163 281/50/257 203/51/175
f 210/42/163 211/49/25 281/50/257
f 282/56/258 281/50/257 211/49/25
f 282/56/258 211/49/25 214/55/170
f 155/72/73 279/64/255 154/71/72
f 153/70/71 154/71/72 279/64/255
f 153/70/71 279/64/255 283/63/259
f 283/63/259 279/64/255 280/58/256
f 283/63/259 280/58/256 284/57/260
f 284/57/260 280/58/256 281/50/257
f 282/56/258 284/57/260 281/50/257
f 282/56/258 285/61/261 284/57/260
f 282/56/258 214/55/170 285/61/261
f 153/70/71 283/63/259 152/69/70
f 283/63/259 286/62/262 152/69/70
f 283/63/259 284/57/260 286/62/262
f 284/57/260 285/61/261 286/62/262
f 274/169/250 92/167/25 86/82/190
f 274/169/250 287/137/263 92/167/25
f 274/169/250 265/130/241 287/137/263
f 235/129/213 287/137/263 265/130/241
f 235/129/213 98/136/25 287/137/263
f 91/168/163 287/137/263 98/136/25
f 91/168/163 92/167/25 287/137/263
f 291/177/264 152/178/265 288/179/264
f 291/177/264 288/179/264 290/180/266
f 291/177/264 290/180/266 292/181/267
f 292/181/267 290/180/266 289/182/268
f 294/183/269 292/181/267 289/182/268
f 294/183/269 289/182/268 298/184/270
f 291/177/264 145/185/271 152/178/265
f 291/177/264 292/181/267 145/185/271
f 292/181/267 144/186/272 145/185/271
f 294/183/269 144/186/272 292/181/267
f 294/183/269 138/187/273 144/186/272
f 294/183/269 137/188/270 138/187/273
f 294/183/269 295/189/274 137/188/270
f 294/183/269 298/184/270 295/189/274
f 295/189/274 298/184/270 299/190/275
f 300/191/276 295/189/274 299/190/275
f 300/191/276 299/190/275 305/192/277
f 296/193/277 305/192/277 299/190/275
f 296/193/277 297/194/278 305/192/277
f 295/189/274 130/195/279 137/188/270
f 300/191/276 130/195/279 295/189/274
f 300/191/276 123/196/277 130/195/279
f 300/191/276 305/192/277 123/196/277
f 302/197/278 123/196/277 305/192/277
f 302/197/278 305/192/277 297/194/278
f 304/198/280 302/197/278 297/194/278
f 304/198/280 297/194/278 301/199/281
f 304/198/280 301/199/281 303/200/282
f 293/201/283 303/200/282 301/199/281
f 293/201/283 105/202/284 303/200/282
f 303/200/282 105/202/284 106/203/285
f 302/197/278 118/204/286 123/196/277
f 302/197/278 114/205/287 118/204/286
f 304/198/280 114/205/287 302/197/278
f 304/198/280 106/203/285 114/205/287
f 304/198/280 303/200/282 106/203/285
f 308/177/264 152/178/265 286/185/288
f 308/177/264 286/185/288 306/181/267
f 306/181/267 286/185/288 285/186/272
f 307/183/269 306/181/267 285/186/272
f 307/183/269 285/186/272 214/187/273
f 307/183/269 214/187/273 218/188/270
f 308/177/264 288/179/264 152/178/265
f 308/177/264 290/180/266 288/179/264
f 308/177/264 306/181/267 290/180/266
f 306/181/267 289/182/268 290/180/266
f 307/183/269 289/182/268 306/181/267
f 307/183/269 298/184/270 289/182/268
f 307/183/269 309/189/274 298/184/270
f 307/183/269 218/188/270 309/189/274
f 309/189/274 218/188/270 217/195/279
f 310/191/276 309/189/274 217/195/279
f 310/191/276 217/195/279 223/196/277
f 310/191/276 223/196/277 311/192/277
f 311/192/277 223/196/277 312/197/278
f 312/197/278 223/196/277 224/204/278
f 309/189/274 299/190/275 298/184/270
f 310/191/276 299/190/275 309/189/274
f 310/191/276 311/192/277 299/190/275
f 296/193/277 299/190/275 311/192/277
f 296/193/277 311/192/277 297/194/278
f 311/192/277 312/197/278 297/194/278
f 314/198/289 297/194/278 312/197/278
f 314/198/289 312/197/278 227/205/287
f 312/197/278 224/204/278 227/205/287
f 314/198/289 301/199/281 297/194/278
f 314/198/289 313/200/290 301/199/281
f 314/198/289 229/203/291 313/200/290
f 314/198/289 227/205/287 229/203/291
f 293/201/283 301/199/281 313/200/290
f 293/201/283 313/200/290 105/202/284
f 313/200/290 229/203/291 105/202/284
