# Blender 4.5.3 LTS
# www.blender.org
mtllib GaussFrontGrip.mtl
o wpn_gauss_world.ogf_03
v 0.009779 -0.018719 -0.296784
v 0.005358 -0.018718 -0.297451
v 0.001217 -0.018718 -0.299298
v 0.005679 -0.018718 -0.298656
v 0.005997 -0.016892 -0.299318
v 0.007165 -0.007084 -0.299318
v 0.004590 -0.017529 -0.299318
v 0.004963 -0.004766 -0.299318
v 0.001217 -0.004766 -0.299318
v 0.012323 -0.018718 -0.293087
v 0.001217 -0.018718 -0.298046
v 0.007165 -0.016042 -0.299318
v 0.003015 -0.004766 -0.299318
v 0.003015 -0.017753 -0.299318
v 0.001217 -0.003141 -0.299318
v 0.009162 -0.018719 -0.295712
v 0.001217 -0.017813 -0.299318
v 0.003015 -0.003141 -0.299318
v 0.004402 0.000135 -0.299318
v 0.004402 -0.003141 -0.299318
v -0.000580 -0.003141 -0.299318
v -0.001967 0.000135 -0.299318
v -0.001967 -0.003141 -0.299318
v 0.001217 0.000135 -0.299318
v -0.000580 -0.004766 -0.299318
v -0.000580 -0.017753 -0.299318
v -0.002154 -0.017529 -0.299318
v -0.002528 -0.004766 -0.299318
v -0.003562 -0.016892 -0.299318
v -0.004730 -0.007084 -0.299318
v -0.004730 -0.016042 -0.299318
v 0.005183 -0.078360 -0.269962
v -0.009888 -0.018717 -0.273842
v -0.009888 -0.018718 -0.293087
v -0.002923 -0.018718 -0.297451
v 0.001217 -0.078360 -0.268300
v 0.001217 -0.078360 -0.269391
v -0.010749 -0.018718 -0.293833
v -0.012149 -0.018718 -0.289568
v -0.006727 -0.018719 -0.295712
v -0.003244 -0.018718 -0.298656
v -0.012647 -0.018718 -0.291316
v -0.012149 -0.018717 -0.277360
v -0.007343 -0.018719 -0.296784
v -0.010749 -0.018717 -0.273095
v -0.006727 -0.018726 -0.271103
v -0.012647 -0.018717 -0.275612
v 0.001217 -0.018717 -0.268770
v -0.002923 -0.018717 -0.269365
v -0.007343 -0.018726 -0.270144
v 0.005679 -0.018717 -0.268272
v -0.003244 -0.018717 -0.268272
v 0.001217 -0.018717 -0.267630
v 0.005358 -0.018717 -0.269365
v 0.015082 -0.018718 -0.291316
v 0.009162 -0.018726 -0.271103
v 0.009779 -0.018726 -0.270144
v 0.014584 -0.018718 -0.289568
v 0.012323 -0.018717 -0.273842
v 0.013185 -0.018717 -0.273095
v 0.013185 -0.018718 -0.293833
v 0.014584 -0.018717 -0.277360
v 0.015082 -0.018717 -0.275612
v 0.012678 -0.078360 -0.273534
v 0.008827 -0.078360 -0.295302
v 0.005491 -0.078360 -0.268915
v 0.012678 -0.078360 -0.293394
v 0.005183 -0.078360 -0.296966
v 0.009417 -0.078360 -0.296220
v 0.011854 -0.078360 -0.274248
v 0.015082 -0.078360 -0.290984
v 0.011854 -0.078360 -0.292679
v 0.009417 -0.078360 -0.270708
v 0.014903 -0.078360 -0.283464
v 0.014019 -0.078360 -0.289310
v 0.008827 -0.078360 -0.271625
v 0.014019 -0.078360 -0.277618
v 0.015082 -0.078360 -0.275944
v -0.006981 -0.078360 -0.296220
v -0.002747 -0.078360 -0.296966
v -0.006391 -0.078360 -0.295302
v -0.010243 -0.078360 -0.293394
v 0.001217 -0.078360 -0.298628
v 0.001217 -0.078360 -0.297537
v 0.005490 -0.078360 -0.298013
v -0.009418 -0.078360 -0.292680
v -0.011583 -0.078360 -0.289310
v -0.012647 -0.078360 -0.290984
v -0.003055 -0.078360 -0.298013
v -0.012468 -0.078360 -0.283464
v -0.006391 -0.078360 -0.271625
v -0.012647 -0.078360 -0.275944
v -0.011584 -0.078360 -0.277618
v -0.009418 -0.078360 -0.274248
v -0.006981 -0.078360 -0.270708
v -0.003055 -0.078360 -0.268915
v -0.002748 -0.078360 -0.269962
v -0.010243 -0.078360 -0.273534
v 0.001217 -0.016679 -0.267168
v 0.006426 -0.010913 -0.261752
v 0.008234 -0.013889 -0.265262
v 0.005358 -0.018064 -0.269365
v 0.012148 -0.017268 -0.271539
v 0.009162 -0.018073 -0.271103
v 0.006216 -0.009127 -0.260618
v 0.005447 -0.008433 -0.260023
v 0.011029 -0.013111 -0.265489
v 0.001217 -0.018064 -0.268770
v 0.009572 -0.016468 -0.268869
v 0.012323 -0.018064 -0.273842
v 0.007584 -0.010459 -0.261685
v 0.009381 -0.011840 -0.263587
v 0.014584 -0.016017 -0.272195
v 0.005609 -0.016713 -0.267936
v 0.012458 -0.014197 -0.267708
v 0.013750 -0.015035 -0.269927
v 0.007584 -0.005900 -0.261685
v 0.006216 -0.004766 -0.295554
v 0.011029 -0.008760 -0.265489
v 0.009381 -0.007391 -0.263587
v 0.013750 -0.011018 -0.269927
v 0.014584 -0.018064 -0.277360
v 0.006216 -0.004766 -0.260618
v 0.014584 -0.011710 -0.285280
v 0.012458 -0.009945 -0.267708
v 0.014584 -0.013646 -0.291243
v 0.014584 -0.011710 -0.272195
v 0.014584 -0.016343 -0.291243
v 0.014584 -0.018064 -0.289568
v 0.003015 -0.008433 -0.259368
v 0.003015 -0.003141 -0.259265
v 0.004402 0.000135 -0.259265
v 0.001217 -0.003141 -0.259216
v 0.001217 0.000135 -0.259216
v 0.001217 -0.008434 -0.259317
v 0.001217 -0.011271 -0.261622
v 0.004715 -0.014286 -0.265050
v 0.001217 -0.014394 -0.264754
v 0.001217 -0.004766 -0.259216
v 0.004402 -0.003141 -0.259265
v 0.003793 -0.011241 -0.261768
v 0.003015 -0.004766 -0.259265
v 0.005447 -0.004766 -0.260023
v 0.013406 -0.016932 -0.292519
v 0.010209 -0.017354 -0.296005
v 0.011850 -0.017317 -0.294214
v 0.012323 -0.018064 -0.293087
v 0.009162 -0.018065 -0.295712
v 0.007037 -0.017521 -0.298096
v 0.008733 -0.016967 -0.297612
v 0.005358 -0.018064 -0.297451
v 0.001217 -0.018064 -0.298046
v 0.015082 -0.074695 -0.291316
v 0.001217 -0.078859 -0.269391
v 0.015082 -0.074695 -0.275612
v 0.008827 -0.078862 -0.271625
v 0.005183 -0.078859 -0.269962
v 0.011854 -0.078859 -0.274248
v 0.014019 -0.078859 -0.289310
v 0.014019 -0.078859 -0.277618
v 0.014903 -0.078859 -0.283464
v 0.008827 -0.078860 -0.295302
v 0.011854 -0.078859 -0.292679
v 0.005183 -0.078859 -0.296966
v 0.001217 -0.078859 -0.297537
v 0.001217 -0.079307 -0.298455
v 0.001217 -0.078860 -0.298130
v 0.009300 -0.079307 -0.296084
v 0.005341 -0.078860 -0.297538
v 0.005432 -0.079307 -0.297849
v 0.012267 -0.078860 -0.293087
v 0.009124 -0.078860 -0.295810
v 0.012513 -0.079307 -0.293300
v 0.014811 -0.079307 -0.289723
v 0.014515 -0.078860 -0.289588
v 0.015687 -0.078860 -0.281438
v 0.015687 -0.078860 -0.285598
v 0.016009 -0.079307 -0.285644
v 0.016009 -0.079307 -0.281392
v 0.014811 -0.079307 -0.277312
v 0.014515 -0.078860 -0.277448
v 0.009300 -0.079307 -0.270952
v 0.012267 -0.078860 -0.273949
v 0.012513 -0.079307 -0.273736
v 0.005432 -0.079307 -0.269186
v 0.005341 -0.078860 -0.269498
v 0.009124 -0.078860 -0.271226
v 0.001217 -0.078860 -0.268906
v -0.012149 -0.018064 -0.277360
v -0.012149 -0.018064 -0.289568
v 0.001217 -0.079307 -0.268581
v -0.012149 -0.016343 -0.291243
v -0.012149 -0.016017 -0.272195
v -0.012149 -0.013646 -0.291243
v -0.012149 -0.011710 -0.272195
v -0.012149 -0.011710 -0.285280
v -0.011315 -0.011018 -0.269927
v -0.008594 -0.008760 -0.265489
v -0.010023 -0.009945 -0.267708
v -0.000580 -0.008433 -0.259368
v -0.000580 -0.004766 -0.259265
v -0.003013 -0.008433 -0.260023
v -0.003782 -0.009127 -0.260618
v -0.001967 -0.003141 -0.259265
v -0.003782 -0.004766 -0.295554
v -0.003782 -0.004766 -0.260619
v -0.005148 -0.005900 -0.261685
v -0.000580 -0.003141 -0.259265
v -0.001967 0.000135 -0.259265
v -0.006945 -0.007391 -0.263587
v -0.003013 -0.004766 -0.260023
v -0.005148 -0.010459 -0.261685
v -0.006945 -0.011840 -0.263587
v -0.008594 -0.013111 -0.265489
v -0.010023 -0.014197 -0.267708
v -0.011315 -0.015035 -0.269927
v -0.006297 -0.016967 -0.297612
v -0.007774 -0.017354 -0.296005
v -0.009888 -0.018064 -0.293087
v -0.010971 -0.016932 -0.292520
v -0.009415 -0.017317 -0.294214
v -0.004602 -0.017521 -0.298096
v -0.006727 -0.018065 -0.295712
v -0.002923 -0.018064 -0.297451
v -0.002923 -0.018064 -0.269365
v -0.006727 -0.018073 -0.271103
v -0.009888 -0.018064 -0.273842
v -0.007343 -0.074697 -0.296784
v -0.003244 -0.074696 -0.298656
v 0.001217 -0.074696 -0.299298
v -0.010749 -0.074696 -0.293833
v -0.012647 -0.074695 -0.291316
v -0.012647 -0.074695 -0.275612
v -0.002748 -0.078859 -0.269962
v -0.006391 -0.078862 -0.271625
v -0.009418 -0.078859 -0.274248
v -0.011584 -0.078859 -0.277618
v -0.011583 -0.078859 -0.289310
v -0.012468 -0.078859 -0.283464
v -0.009418 -0.078859 -0.292680
v -0.006391 -0.078860 -0.295302
v -0.002747 -0.078859 -0.296966
v 0.005045 -0.085136 -0.270510
v 0.014643 -0.085136 -0.285446
v 0.001223 -0.085136 -0.269961
v 0.008555 -0.085136 -0.272113
v 0.005045 -0.085136 -0.296523
v 0.013556 -0.085136 -0.277885
v 0.014643 -0.085136 -0.281587
v 0.011470 -0.085136 -0.274640
v -0.006109 -0.085136 -0.272113
v 0.008555 -0.085136 -0.294921
v 0.011470 -0.085136 -0.292394
v -0.011110 -0.085136 -0.277885
v 0.001223 -0.085136 -0.297072
v -0.002599 -0.085136 -0.296523
v -0.009024 -0.085136 -0.274640
v -0.002599 -0.085136 -0.270510
v 0.013556 -0.085136 -0.289147
v -0.009024 -0.085136 -0.292394
v -0.011110 -0.085136 -0.289147
v -0.012197 -0.085136 -0.285446
v -0.006109 -0.085136 -0.294921
v 0.011206 0.000119 -0.262677
v -0.012197 -0.085136 -0.281587
v 0.011206 0.004537 -0.262677
v 0.011206 0.007392 -0.299231
v 0.011206 0.004537 -0.263217
v 0.010475 -0.000610 -0.262013
v 0.011206 0.007392 -0.263217
v 0.011206 0.000119 -0.299231
v 0.006299 0.004537 -0.258436
v 0.006299 -0.000610 -0.258436
v 0.006299 -0.000610 -0.299231
v 0.006299 0.004537 -0.299231
v 0.010475 -0.000610 -0.299231
v 0.006299 0.004537 -0.263217
v -0.005123 0.004537 -0.258436
v -0.009387 0.004537 -0.299231
v -0.009387 0.004537 -0.262677
v 0.006299 -0.004087 -0.299231
v 0.006299 -0.004086 -0.258436
v 0.006015 -0.004510 -0.299231
v 0.006015 -0.004510 -0.258436
v 0.005526 -0.004756 -0.258436
v 0.003108 -0.004756 -0.299231
v 0.003108 -0.004756 -0.258436
v 0.005526 -0.004756 -0.299231
v 0.004502 -0.003157 -0.299231
v 0.005521 0.009901 -0.299231
v 0.008116 0.009901 -0.299231
v 0.008368 0.006656 -0.299231
v 0.003108 -0.003157 -0.299231
v 0.008348 0.007107 -0.299231
v 0.004502 0.000119 -0.299231
v -0.005123 -0.004756 -0.299231
v -0.009387 -0.000610 -0.299231
v -0.002044 0.000119 -0.299231
v -0.000654 -0.003157 -0.299231
v -0.000654 -0.003157 -0.258436
v -0.002045 -0.003157 -0.299231
v -0.002045 -0.003157 -0.258436
v -0.000654 -0.004756 -0.258436
v -0.000654 -0.004756 -0.299231
v -0.002045 0.000119 -0.258436
v 0.003108 -0.003157 -0.258436
v -0.005123 -0.004756 -0.258436
v -0.009387 -0.000610 -0.262677
v 0.004502 0.000119 -0.258436
v 0.004502 -0.003157 -0.258436
v 0.008116 0.009901 -0.263217
v 0.005521 0.009901 -0.263217
v 0.008348 0.007107 -0.263217
v 0.008368 0.006656 -0.263217
v -0.009408 -0.000544 -0.299228
v -0.009408 0.006866 -0.299228
v -0.009408 0.006866 -0.263214
v -0.006537 -0.003331 -0.299228
v -0.009408 -0.000544 -0.263214
v -0.006752 0.009510 -0.263214
v -0.006537 -0.003331 -0.263214
v -0.006793 -0.003959 -0.299228
v -0.006752 0.009510 -0.299228
v -0.006752 0.009838 -0.263214
v -0.011611 -0.003959 -0.299228
v -0.011611 -0.003960 -0.263214
v -0.006793 -0.003960 -0.263214
v -0.006752 0.009838 -0.299228
v -0.011611 0.009838 -0.299228
v -0.011611 0.009838 -0.263214
v 0.013185 -0.074696 -0.273095
v 0.009779 -0.074704 -0.270144
v 0.005679 -0.074696 -0.268272
v 0.001217 -0.074696 -0.267630
v 0.005679 -0.074696 -0.298656
v 0.009779 -0.074697 -0.296784
v 0.013185 -0.074696 -0.293833
v 0.005432 -0.083714 -0.297849
v 0.009300 -0.083714 -0.296084
v 0.001217 -0.083714 -0.298455
v 0.012513 -0.083714 -0.293300
v 0.014811 -0.083714 -0.289723
v 0.016009 -0.083714 -0.285644
v 0.016009 -0.083714 -0.281392
v 0.014811 -0.083714 -0.277312
v 0.009300 -0.083714 -0.270952
v 0.005432 -0.083714 -0.269186
v 0.012513 -0.083714 -0.273736
v 0.001217 -0.083714 -0.268581
v -0.009712 -0.017268 -0.271539
v -0.003173 -0.016713 -0.267936
v -0.007136 -0.016468 -0.268869
v -0.005799 -0.013889 -0.265262
v -0.002280 -0.014286 -0.265050
v -0.001357 -0.011241 -0.261768
v -0.003990 -0.010913 -0.261752
v -0.010749 -0.074696 -0.273095
v -0.007343 -0.074704 -0.270144
v -0.003244 -0.074696 -0.268272
v -0.002996 -0.083714 -0.297849
v -0.002996 -0.079307 -0.297849
v -0.006864 -0.079307 -0.296084
v -0.006864 -0.083714 -0.296084
v -0.010077 -0.079307 -0.293300
v -0.010077 -0.083714 -0.293300
v -0.012375 -0.079307 -0.289723
v -0.012375 -0.083714 -0.289723
v -0.013573 -0.079307 -0.285644
v -0.013573 -0.083714 -0.285644
v -0.013573 -0.079307 -0.281392
v -0.013573 -0.083714 -0.281392
v -0.012375 -0.083714 -0.277312
v -0.012375 -0.079307 -0.277312
v -0.010077 -0.079307 -0.273736
v -0.010077 -0.083714 -0.273736
v -0.006864 -0.079307 -0.270952
v -0.006864 -0.083714 -0.270952
v -0.002996 -0.079307 -0.269186
v -0.002996 -0.083714 -0.269186
v -0.006689 -0.078860 -0.295810
v -0.002905 -0.078860 -0.297538
v -0.009832 -0.078860 -0.293087
v -0.012080 -0.078860 -0.289588
v -0.013252 -0.078860 -0.285598
v -0.013252 -0.078860 -0.281438
v -0.009832 -0.078860 -0.273949
v -0.006689 -0.078860 -0.271226
v -0.012080 -0.078860 -0.277448
v -0.002905 -0.078860 -0.269498
vn -0.0000 -0.0000 -1.0000
vn 0.0002 1.0000 0.0001
vn -0.0000 1.0000 -0.0000
vn -0.0001 1.0000 -0.0001
vn -0.0007 1.0000 0.0008
vn -0.0007 1.0000 0.0007
vn -0.0003 1.0000 0.0004
vn 0.0004 1.0000 -0.0001
vn 0.0009 1.0000 -0.0003
vn -0.0009 1.0000 -0.0003
vn -0.0004 1.0000 -0.0001
vn 0.0003 1.0000 0.0004
vn 0.0007 1.0000 0.0007
vn 0.0005 1.0000 0.0005
vn 0.0001 1.0000 -0.0001
vn -0.0002 1.0000 0.0001
vn -0.0001 -1.0000 -0.0000
vn -0.0000 -1.0000 -0.0000
vn 0.0001 -1.0000 -0.0001
vn -0.0003 -1.0000 -0.0000
vn -0.0001 -1.0000 -0.0001
vn 0.0001 -1.0000 -0.0000
vn 1.0000 -0.0000 -0.0000
vn 0.6384 0.7697 -0.0000
vn 0.6386 0.7695 -0.0000
vn 0.6388 0.7694 -0.0000
vn 0.6384 0.7697 -0.0001
vn 0.6387 0.7695 -0.0000
vn 0.6385 0.7696 -0.0000
vn 0.4975 -0.8064 0.3197
vn 0.5008 -0.7787 0.3779
vn 0.4316 -0.8415 0.3248
vn 0.3996 -0.7949 0.4565
vn 0.4285 -0.7288 0.5340
vn 0.2902 -0.7588 0.5831
vn 0.3233 -0.7572 0.5676
vn 0.2117 -0.7330 0.6465
vn 0.2568 -0.7427 0.6184
vn 0.2288 -0.6854 0.6912
vn 0.2768 -0.8403 0.4662
vn 0.1806 -0.7598 0.6246
vn 0.1384 -0.7442 0.6535
vn 0.1003 -0.7286 0.6775
vn 0.1625 -0.6258 0.7628
vn 0.1898 -0.6000 0.7771
vn 0.1710 -0.5137 0.8408
vn 0.2074 -0.5031 0.8390
vn 0.0939 -0.6039 0.7915
vn 0.1025 -0.7420 0.6626
vn 0.0992 -0.7401 0.6651
vn 0.0697 -0.7170 0.6936
vn 0.0680 -0.6853 0.7251
vn 0.0406 -0.6602 0.7500
vn 0.0221 -0.6303 0.7760
vn 0.0143 -0.0038 0.9999
vn 0.0155 -0.0000 0.9999
vn 0.0245 -0.0030 0.9997
vn 0.0184 -0.0039 0.9998
vn 0.0956 -0.0137 0.9953
vn 0.0277 -0.0185 0.9994
vn 0.1545 -0.0207 0.9878
vn 0.0281 -0.0276 0.9992
vn -0.0000 -0.0000 1.0000
vn 0.3962 -0.0084 0.9181
vn 0.5035 -0.0000 0.8640
vn 0.6135 -0.0000 0.7897
vn 0.6134 -0.0000 0.7898
vn 0.6728 -0.0000 0.7398
vn 0.7368 -0.0000 0.6761
vn 0.7463 -0.0000 0.6656
vn 0.7858 -0.0000 0.6184
vn 0.8143 -0.0000 0.5805
vn 0.8488 -0.0000 0.5287
vn 0.8566 -0.0000 0.5160
vn 0.8920 -0.0000 0.4520
vn 0.9168 -0.0000 0.3993
vn 0.9385 -0.0000 0.3454
vn 0.7371 -0.4460 -0.5078
vn 0.7474 -0.4632 -0.4762
vn 0.7448 -0.4670 -0.4766
vn 0.6638 -0.4972 -0.5587
vn 0.5712 -0.6208 -0.5369
vn 0.3810 -0.7920 -0.4771
vn 0.4070 -0.7754 -0.4829
vn 0.3297 -0.7691 -0.5476
vn 0.1057 -0.9531 -0.2837
vn 0.2116 -0.8730 -0.4395
vn 0.0832 -0.9607 -0.2648
vn 0.0304 -0.9795 -0.1992
vn 0.0278 -0.9806 -0.1938
vn 0.3980 -0.6761 -0.6201
vn 0.4147 -0.6006 -0.6836
vn 0.3777 -0.6525 -0.6570
vn 0.7364 -0.0000 -0.6765
vn 0.7365 -0.0000 -0.6765
vn 0.7365 -0.0002 -0.6764
vn 0.7369 0.0003 -0.6760
vn 0.7369 0.0002 -0.6760
vn 0.7360 -0.0004 -0.6770
vn 0.7354 -0.0005 -0.6776
vn 0.7348 -0.0000 -0.6783
vn 0.7312 0.6476 -0.2144
vn 0.7417 0.6371 -0.2096
vn 0.7048 0.6695 -0.2346
vn 0.7594 0.6201 -0.1969
vn 0.7622 0.6157 -0.1999
vn 0.2355 -0.0000 0.9719
vn 0.1424 -0.0000 0.9898
vn 0.3273 -0.0001 0.9449
vn 0.4998 0.0001 0.8662
vn 0.5803 0.0001 0.8144
vn 0.7236 -0.0001 0.6903
vn 0.7862 -0.0000 0.6179
vn 0.8413 -0.0000 0.5406
vn 0.7820 -0.0000 -0.6233
vn 0.8413 -0.0000 -0.5406
vn 0.7138 -0.0000 -0.7003
vn 0.5689 -0.0000 -0.8224
vn 0.4939 -0.0000 -0.8695
vn 0.3274 -0.0000 -0.9449
vn 0.2355 -0.0000 -0.9719
vn 0.1422 -0.0000 -0.9898
vn 0.1425 -0.0000 0.9898
vn 0.2356 -0.0000 0.9719
vn 0.3273 -0.0000 0.9449
vn 0.4996 -0.0000 0.8662
vn 0.5803 -0.0000 0.8144
vn 0.7235 -0.0000 0.6903
vn 0.9357 -0.0000 0.3528
vn 0.9987 -0.0000 0.0503
vn 0.9987 -0.0000 -0.0503
vn 0.9357 -0.0000 -0.3529
vn 0.7862 -0.0000 -0.6180
vn 0.7235 -0.0000 -0.6903
vn 0.5803 -0.0000 -0.8144
vn 0.4998 -0.0000 -0.8662
vn 0.1423 -0.0000 -0.9898
vn 0.1904 0.5872 0.7867
vn 0.0649 0.8894 0.4526
vn 0.1153 0.5835 0.8039
vn 0.1483 0.8915 0.4280
vn 0.4044 0.5875 0.7009
vn 0.2624 0.8920 0.3682
vn 0.5856 0.5874 0.5586
vn 0.3567 0.8912 0.2804
vn 0.7191 0.5876 0.3710
vn 0.0009 1.0000 0.0019
vn -0.0009 1.0000 -0.0011
vn 0.0002 1.0000 0.0002
vn 0.0017 1.0000 0.0010
vn 0.4211 0.8913 0.1684
vn 0.7947 0.5873 0.1534
vn 0.0003 1.0000 0.0021
vn 0.0012 1.0000 -0.0000
vn 0.5391 0.8407 0.0513
vn 0.8059 0.5871 -0.0767
vn 0.4453 0.8912 -0.0859
vn 0.7514 0.5874 -0.3006
vn 0.4031 0.8912 -0.2079
vn 0.6362 0.5877 -0.4999
vn 0.0016 1.0000 -0.0007
vn 0.0012 1.0000 -0.0012
vn 0.3279 0.8914 -0.3128
vn 0.4695 0.5877 -0.6589
vn 0.2264 0.8914 -0.3925
vn 0.2649 0.5869 -0.7651
vn 0.1068 0.8910 -0.4412
vn 0.1154 0.5833 -0.8040
vn 0.0649 0.8895 -0.4524
vn 0.0003 1.0000 -0.0003
vn 0.0004 1.0000 -0.0012
vn 0.0002 1.0000 -0.0017
vn -1.0000 -0.0001 -0.0000
vn -1.0000 -0.0000 -0.0000
vn -1.0000 -0.0003 0.0001
vn -0.6384 0.7697 -0.0000
vn -0.6386 0.7696 -0.0000
vn -0.6386 0.7695 -0.0000
vn -0.6387 0.7694 -0.0000
vn -0.6388 0.7694 -0.0000
vn -0.0143 -0.0038 0.9999
vn -0.0183 -0.0039 0.9998
vn -0.0245 -0.0030 0.9997
vn -0.0956 -0.0137 0.9953
vn -0.0277 -0.0185 0.9994
vn -0.1545 -0.0207 0.9878
vn -0.3963 -0.0090 0.9181
vn -0.5037 0.0001 0.8639
vn -0.6138 0.0001 0.7894
vn -0.0155 -0.0000 0.9999
vn -0.0281 -0.0276 0.9992
vn -0.6137 0.0002 0.7896
vn -0.6729 -0.0000 0.7397
vn -0.6728 -0.0000 0.7398
vn -0.7364 -0.0000 0.6765
vn -0.7461 -0.0000 0.6658
vn -0.7858 -0.0000 0.6184
vn -0.8143 -0.0000 0.5805
vn -0.8489 -0.0000 0.5286
vn -0.8565 -0.0000 0.5161
vn -0.8919 -0.0000 0.4522
vn -0.9168 -0.0000 0.3994
vn -0.9385 -0.0000 0.3454
vn -0.7370 -0.4462 -0.5077
vn -0.7449 -0.4670 -0.4765
vn -0.7479 -0.4627 -0.4760
vn -0.6635 -0.4975 -0.5587
vn -0.5710 -0.6210 -0.5369
vn -0.3805 -0.7922 -0.4772
vn -0.4070 -0.7754 -0.4828
vn -0.3297 -0.7690 -0.5476
vn -0.3980 -0.6760 -0.6202
vn -0.4146 -0.6006 -0.6836
vn -0.3777 -0.6525 -0.6570
vn -0.1737 -0.9251 -0.3376
vn -0.1250 -0.9364 -0.3278
vn -0.0722 -0.9815 -0.1776
vn -0.0870 -0.9890 -0.1195
vn -0.0330 -0.9805 -0.1938
vn -0.7364 -0.0000 -0.6766
vn -0.7365 -0.0002 -0.6765
vn -0.7365 -0.0000 -0.6765
vn -0.7367 0.0002 -0.6762
vn -0.7367 -0.0000 -0.6762
vn -0.7360 -0.0005 -0.6770
vn -0.7356 -0.0004 -0.6774
vn -0.7353 -0.0002 -0.6777
vn -0.7312 0.6475 -0.2146
vn -0.7047 0.6695 -0.2348
vn -0.7417 0.6371 -0.2097
vn -0.7593 0.6202 -0.1970
vn -0.7622 0.6158 -0.1999
vn -0.2356 -0.0000 0.9719
vn -0.1424 -0.0000 0.9898
vn -0.3274 -0.0000 0.9449
vn -0.4998 -0.0000 0.8661
vn -0.5803 -0.0000 0.8144
vn -0.7235 -0.0000 0.6903
vn -0.7862 -0.0000 0.6180
vn -0.8412 -0.0000 0.5407
vn -0.7819 -0.0000 -0.6234
vn -0.8412 -0.0000 -0.5407
vn -0.7138 -0.0000 -0.7003
vn -0.5689 -0.0000 -0.8224
vn -0.4939 -0.0000 -0.8695
vn -0.3274 -0.0000 -0.9449
vn -0.2355 -0.0000 -0.9719
vn -0.1422 -0.0000 -0.9898
vn -0.7543 -0.0000 -0.6565
vn -0.7757 -0.0611 -0.6281
vn -0.7984 -0.0000 -0.6021
vn -0.7033 -0.0901 -0.7051
vn -0.5803 -0.0000 -0.8144
vn -0.4977 -0.0902 -0.8626
vn -0.2346 -0.0902 -0.9679
vn -0.1424 -0.0000 -0.9898
vn -0.1419 -0.0893 -0.9859
vn -0.7159 -0.1411 -0.6838
vn -0.5709 -0.1797 -0.8012
vn -0.3220 -0.1797 -0.9295
vn -0.1401 -0.1781 -0.9740
vn -0.7066 -0.0638 -0.7048
vn -0.1426 -0.0000 0.9898
vn -0.2356 -0.0000 0.9718
vn -0.3273 -0.0000 0.9449
vn -0.4996 -0.0000 0.8662
vn -0.7236 -0.0000 0.6903
vn -0.7862 -0.0000 0.6179
vn -0.9357 -0.0000 0.3528
vn -0.9987 -0.0000 0.0503
vn -0.9987 -0.0000 -0.0503
vn -0.9357 -0.0000 -0.3528
vn -0.7862 -0.0000 -0.6180
vn -0.7235 -0.0000 -0.6904
vn -0.5802 -0.0000 -0.8145
vn -0.4998 -0.0000 -0.8662
vn 0.6500 0.0394 0.7589
vn 0.6521 0.0197 0.7579
vn 0.6527 0.0131 0.7575
vn 0.6539 -0.0000 0.7566
vn 0.9812 -0.1930 -0.0000
vn 0.9225 -0.3859 -0.0000
vn 0.7245 -0.6893 -0.0000
vn 0.5933 -0.8050 -0.0000
vn 0.2304 -0.9731 -0.0000
vn -0.0000 0.0001 -1.0000
vn -0.0000 -0.0001 -1.0000
vn -0.0001 -0.0000 1.0000
vn -0.7053 -0.0000 0.7090
vn -0.7053 -0.0000 0.7089
vn -0.6971 -0.7169 -0.0000
vn 1.0000 -0.0003 -0.0000
vn 0.6303 0.7764 -0.0000
vn -0.7029 -0.7113 -0.0000
vn -0.7154 0.6987 -0.0000
vn 0.7063 -0.7079 -0.0000
vn 0.7063 -0.7080 -0.0000
vn -0.9991 -0.0433 -0.0000
vn -0.9991 -0.0434 -0.0000
vn 0.6965 0.7176 -0.0000
vn 0.7054 -0.7088 -0.0000
vn 0.9264 -0.3766 -0.0000
vn 0.9262 -0.3771 -0.0000
vn 0.1418 -0.0894 0.9858
vn 0.3259 -0.0903 0.9411
vn 0.2318 -0.1797 0.9560
vn 0.1401 -0.1781 0.9740
vn 0.4997 0.0001 0.8662
vn 0.5779 -0.0904 0.8111
vn 0.4915 -0.1800 0.8521
vn 0.7062 -0.0001 0.7080
vn 0.7375 -0.0692 0.6718
vn 0.6622 -0.1789 0.7276
vn 0.7985 -0.0000 0.6021
vn 0.7982 -0.0273 0.6018
vn 0.7501 -0.1175 0.6507
vn 0.7757 -0.0611 -0.6281
vn 0.7543 -0.0000 -0.6565
vn 0.7985 -0.0000 -0.6021
vn 0.7033 -0.0901 -0.7051
vn 0.7159 -0.1411 -0.6838
vn 0.7066 -0.0638 -0.7048
vn 0.4977 -0.0902 -0.8626
vn 0.5708 -0.1797 -0.8012
vn 0.2346 -0.0902 -0.9679
vn 0.3220 -0.1797 -0.9295
vn 0.1424 -0.0000 -0.9898
vn 0.1418 -0.0894 -0.9858
vn 0.1401 -0.1781 -0.9740
vn 0.1317 -0.3733 0.9183
vn 0.2353 -0.0000 0.9719
vn 0.1420 -0.0000 0.9899
vn 0.3031 -0.3763 0.8755
vn 0.1690 -0.6960 0.6979
vn 0.1026 -0.6926 0.7140
vn 0.4998 -0.0000 0.8662
vn 0.5377 -0.3762 0.7546
vn 0.3589 -0.6960 0.6220
vn 0.7236 -0.0000 0.6903
vn 0.7285 -0.3763 0.5725
vn 0.5196 -0.6959 0.4957
vn 0.8887 -0.0000 0.4585
vn 0.8603 -0.3762 0.3441
vn 0.6382 -0.6959 0.3292
vn 0.9819 -0.0000 0.1895
vn 0.9224 -0.3762 0.0878
vn 0.7051 -0.6959 0.1361
vn 0.9955 -0.0000 -0.0948
vn 0.9097 -0.3763 -0.1756
vn 0.7148 -0.6960 -0.0681
vn 0.9285 -0.0000 -0.3714
vn 0.8234 -0.3764 -0.4247
vn 0.6666 -0.6961 -0.2666
vn 0.7863 -0.0000 -0.6179
vn 0.6704 -0.3766 -0.6394
vn 0.5643 -0.6964 -0.4434
vn 0.5802 -0.0000 -0.8144
vn 0.4629 -0.3766 -0.8025
vn 0.4164 -0.6965 -0.5844
vn 0.3271 -0.0000 -0.9450
vn 0.2180 -0.3766 -0.9004
vn 0.2348 -0.6965 -0.6781
vn 0.1421 -0.0000 -0.9898
vn 0.1318 -0.3737 -0.9181
vn 0.1024 -0.6933 -0.7134
vn -0.4974 -0.8065 0.3197
vn -0.4315 -0.8416 0.3248
vn -0.5007 -0.7787 0.3780
vn -0.3996 -0.7950 0.4565
vn -0.2768 -0.8403 0.4662
vn -0.2901 -0.7588 0.5831
vn -0.1806 -0.7598 0.6246
vn -0.1384 -0.7442 0.6535
vn -0.1025 -0.7419 0.6626
vn -0.0992 -0.7401 0.6651
vn -0.4285 -0.7289 0.5339
vn -0.3233 -0.7572 0.5676
vn -0.2117 -0.7330 0.6465
vn -0.1003 -0.7286 0.6775
vn -0.0697 -0.7169 0.6936
vn -0.0681 -0.6853 0.7251
vn -0.0406 -0.6602 0.7500
vn -0.0939 -0.6039 0.7915
vn -0.0221 -0.6303 0.7760
vn -0.2568 -0.7427 0.6184
vn -0.2288 -0.6854 0.6913
vn -0.1625 -0.6258 0.7628
vn -0.2073 -0.5032 0.8390
vn -0.1710 -0.5137 0.8407
vn -0.1898 -0.6001 0.7771
vn -0.1419 -0.0894 0.9858
vn -0.1425 -0.0000 0.9898
vn -0.3260 -0.0903 0.9411
vn -0.4997 -0.0000 0.8662
vn -0.5779 -0.0904 0.8111
vn -0.7062 -0.0000 0.7080
vn -0.7375 -0.0692 0.6718
vn -0.7985 -0.0000 0.6021
vn -0.7982 -0.0272 0.6018
vn -0.2318 -0.1797 0.9560
vn -0.4915 -0.1800 0.8521
vn -0.6622 -0.1789 0.7276
vn -0.7501 -0.1175 0.6507
vn -0.1401 -0.1782 0.9740
vn -0.1317 -0.3736 0.9182
vn -0.1420 -0.0000 0.9899
vn -0.2353 -0.0000 0.9719
vn -0.3031 -0.3769 0.8753
vn -0.4998 -0.0000 0.8662
vn -0.5374 -0.3773 0.7542
vn -0.7280 -0.3776 0.5722
vn -0.8887 -0.0000 0.4585
vn -0.1688 -0.6966 0.6973
vn -0.3582 -0.6973 0.6209
vn -0.5182 -0.6979 0.4944
vn -0.6362 -0.6983 0.3282
vn -0.8597 -0.3778 0.3438
vn -0.9819 -0.0000 0.1895
vn -0.1025 -0.6930 0.7136
vn -0.7026 -0.6985 0.1356
vn -0.9217 -0.3780 0.0877
vn -0.9955 -0.0000 -0.0948
vn -0.9090 -0.3780 -0.1755
vn -0.9285 -0.0000 -0.3714
vn -0.8228 -0.3780 -0.4244
vn -0.7863 -0.0000 -0.6179
vn -0.7123 -0.6986 -0.0678
vn -0.6643 -0.6986 -0.2658
vn -0.5627 -0.6984 -0.4422
vn -0.6700 -0.3778 -0.6391
vn -0.5802 -0.0000 -0.8144
vn -0.4627 -0.3774 -0.8022
vn -0.3272 -0.0000 -0.9450
vn -0.2179 -0.3770 -0.9002
vn -0.1319 -0.3739 -0.9180
vn -0.4155 -0.6980 -0.5832
vn -0.2345 -0.6974 -0.6773
vn -0.1024 -0.6937 -0.7130
vn -0.1904 0.5872 0.7867
vn -0.1153 0.5835 0.8039
vn -0.0649 0.8894 0.4526
vn -0.1483 0.8915 0.4280
vn -0.0009 1.0000 0.0019
vn -0.0003 1.0000 0.0021
vn -0.4044 0.5875 0.7009
vn -0.2624 0.8919 0.3682
vn 0.0009 1.0000 -0.0012
vn -0.5856 0.5874 0.5586
vn -0.3568 0.8911 0.2805
vn -0.0001 1.0000 0.0002
vn -0.7195 0.5869 0.3712
vn -0.4214 0.8911 0.1685
vn -0.0018 1.0000 0.0007
vn -0.7950 0.5869 0.1534
vn -0.5391 0.8407 0.0513
vn -0.0012 1.0000 -0.0000
vn -0.8059 0.5871 -0.0767
vn -0.4455 0.8912 -0.0860
vn -0.0016 1.0000 -0.0007
vn -0.4034 0.8911 -0.2081
vn -0.0012 1.0000 -0.0012
vn -0.3279 0.8914 -0.3129
vn -0.0003 1.0000 -0.0003
vn -0.7518 0.5868 -0.3007
vn -0.6363 0.5874 -0.5000
vn -0.4695 0.5877 -0.6589
vn -0.2264 0.8914 -0.3925
vn -0.0004 1.0000 -0.0012
vn -0.1069 0.8910 -0.4412
vn -0.0002 1.0000 -0.0017
vn -0.0649 0.8895 -0.4524
vn -0.1155 0.5832 -0.8041
vn -0.2649 0.5869 -0.7651
vt 0.488094 0.968596
vt 0.495557 0.978832
vt 0.574158 0.978870
vt 0.594502 0.959553
vt 0.482509 0.956250
vt 0.594506 0.942452
vt 0.480558 0.942433
vt 0.594506 0.926677
vt 0.608763 0.942452
vt 0.608763 0.926677
vt 0.637505 0.926677
vt 0.637506 0.954614
vt 0.608766 0.954614
vt 0.480026 0.926677
vt 0.983100 0.046045
vt 0.973381 0.007815
vt 0.983100 0.007815
vt 0.973381 0.046024
vt 0.983100 0.083471
vt 0.973381 0.083499
vt 0.983100 0.120306
vt 0.973381 0.120393
vt 0.983100 0.157267
vt 0.973381 0.144225
vt 0.983100 0.265983
vt 0.973381 0.279027
vt 0.983100 0.302954
vt 0.973381 0.302858
vt 0.983100 0.339780
vt 0.973381 0.339761
vt 0.983100 0.377217
vt 0.973381 0.377227
vt 0.983100 0.415437
vt 0.973381 0.415437
vt 0.996165 0.378533
vt 0.986253 0.415909
vt 0.996165 0.414452
vt 0.986253 0.378521
vt 0.996165 0.342435
vt 0.986253 0.342310
vt 0.996165 0.306807
vt 0.986253 0.306261
vt 0.996165 0.269789
vt 0.986253 0.280345
vt 0.996165 0.215203
vt 0.986253 0.150057
vt 0.996165 0.160615
vt 0.996165 0.123597
vt 0.986253 0.124142
vt 0.996165 0.087968
vt 0.986253 0.088092
vt 0.996165 0.051869
vt 0.986253 0.051880
vt 0.996165 0.015948
vt 0.986253 0.014494
vt 0.459223 0.932090
vt 0.351814 0.926326
vt 0.459223 0.926344
vt 0.351814 0.932071
vt 0.306369 0.950077
vt 0.473951 0.947233
vt 0.421477 0.987987
vt 0.473951 0.970966
vt 0.306369 0.987961
vt 0.408848 0.827715
vt 0.523657 0.827775
vt 0.388948 0.837220
vt 0.369469 0.851946
vt 0.349993 0.868248
vt 0.613774 0.923224
vt 0.333294 0.887045
vt 0.316604 0.907539
vt 0.307241 0.923121
vt 0.924023 0.447155
vt 0.917550 0.495630
vt 0.897418 0.472585
vt 0.892976 0.493500
vt 0.908353 0.516855
vt 0.868365 0.515825
vt 0.895078 0.536684
vt 0.855913 0.554539
vt 0.881300 0.557751
vt 0.866380 0.577650
vt 0.865631 0.491483
vt 0.830637 0.502993
vt 0.832811 0.520298
vt 0.824739 0.553434
vt 0.839822 0.594909
vt 0.850263 0.598174
vt 0.838600 0.613549
vt 0.831923 0.621715
vt 0.810021 0.625366
vt 0.794026 0.506758
vt 0.793922 0.525390
vt 0.793874 0.554635
vt 0.816581 0.592805
vt 0.793917 0.593584
vt 0.794195 0.625753
vt 0.738781 0.753160
vt 0.710768 0.753273
vt 0.710650 0.724458
vt 0.726463 0.724385
vt 0.726397 0.710081
vt 0.710573 0.710172
vt 0.726222 0.677803
vt 0.710399 0.677891
vt 0.738674 0.724342
vt 0.748803 0.709773
vt 0.748367 0.677513
vt 0.757374 0.709656
vt 0.756841 0.671292
vt 0.771917 0.659357
vt 0.772490 0.699462
vt 0.795322 0.686010
vt 0.794752 0.646870
vt 0.817295 0.673648
vt 0.816722 0.635365
vt 0.840360 0.662865
vt 0.839799 0.625467
vt 0.862815 0.653085
vt 0.862264 0.617752
vt 0.883974 0.646665
vt 0.883383 0.608785
vt 0.073514 0.983621
vt 0.057671 0.986711
vt 0.048463 0.967704
vt 0.084697 0.974135
vt 0.094051 0.982613
vt 0.121494 0.975458
vt 0.115365 0.984765
vt 0.148627 0.981542
vt 0.157555 0.968112
vt 0.172332 0.977517
vt 0.183468 0.969107
vt 0.196348 0.959931
vt 0.190353 0.951395
vt 0.134354 0.989284
vt 0.154864 0.997243
vt 0.162698 0.987159
vt 0.973023 0.973245
vt 0.993410 0.965095
vt 0.993380 0.886284
vt 0.953826 0.976658
vt 0.932456 0.976332
vt 0.912210 0.972958
vt 0.896919 0.944050
vt 0.896931 0.967783
vt 0.846494 0.133559
vt 0.846763 0.440911
vt 0.839723 0.128331
vt 0.818312 0.121687
vt 0.835771 0.474038
vt 0.818631 0.474058
vt 0.743364 0.635535
vt 0.390984 0.649825
vt 0.390984 0.635535
vt 0.743364 0.649825
vt 0.880478 0.104570
vt 0.851738 0.456012
vt 0.851738 0.104570
vt 0.880478 0.456012
vt 0.388923 0.653563
vt 0.740373 0.665733
vt 0.388923 0.665733
vt 0.740373 0.653563
vt 0.669340 0.979161
vt 0.663146 0.939867
vt 0.641617 0.957959
vt 0.800707 0.987294
vt 0.775564 0.938193
vt 0.864392 0.992345
vt 0.827596 0.992345
vt 0.827596 0.983496
vt 0.864392 0.983496
vt 0.901190 0.992345
vt 0.901190 0.983496
vt 0.937987 0.992345
vt 0.937987 0.983496
vt 0.974784 0.992345
vt 0.974784 0.983496
vt 0.631018 0.995194
vt 0.594222 0.995200
vt 0.594222 0.987385
vt 0.631018 0.987380
vt 0.667815 0.995188
vt 0.667815 0.987373
vt 0.704612 0.995193
vt 0.704602 0.987378
vt 0.741409 0.995198
vt 0.741409 0.987380
vt 0.155882 0.041259
vt 0.294048 0.533735
vt 0.155884 0.533735
vt 0.294048 0.041259
vt 0.291125 0.008611
vt 0.158802 0.008611
vt 0.192251 0.997193
vt 0.192251 0.990936
vt 0.227490 0.990936
vt 0.227490 0.997193
vt 0.262738 0.990936
vt 0.262738 0.997193
vt 0.297975 0.990936
vt 0.297975 0.997193
vt 0.333214 0.990936
vt 0.333214 0.997193
vt 0.384729 0.997193
vt 0.384729 0.990936
vt 0.436245 0.997193
vt 0.436245 0.990936
vt 0.471482 0.990936
vt 0.471482 0.997193
vt 0.506730 0.990936
vt 0.506730 0.997193
vt 0.541968 0.990936
vt 0.541968 0.997193
vt 0.577205 0.990936
vt 0.577205 0.997193
vt 0.958658 0.379443
vt 0.963583 0.417208
vt 0.958658 0.417208
vt 0.963583 0.379443
vt 0.958658 0.341676
vt 0.963583 0.341676
vt 0.958658 0.303911
vt 0.963583 0.303911
vt 0.958658 0.266146
vt 0.970332 0.379443
vt 0.970332 0.341676
vt 0.970332 0.303911
vt 0.970332 0.266146
vt 0.963583 0.266146
vt 0.958658 0.228381
vt 0.970332 0.417208
vt 0.970332 0.210285
vt 0.963583 0.228381
vt 0.958658 0.190612
vt 0.963583 0.190612
vt 0.958658 0.152847
vt 0.963583 0.152847
vt 0.958658 0.115082
vt 0.970332 0.152847
vt 0.970332 0.115082
vt 0.963583 0.115082
vt 0.958658 0.077317
vt 0.963583 0.077317
vt 0.958658 0.039551
vt 0.963583 0.039551
vt 0.958658 0.001785
vt 0.963583 0.001785
vt 0.970332 0.077317
vt 0.970332 0.039551
vt 0.970332 0.001785
vt 0.351815 0.926326
vt 0.351815 0.932071
vt 0.966998 0.771215
vt 0.994940 0.419562
vt 0.994940 0.771215
vt 0.966998 0.419562
vt 0.390984 0.647880
vt 0.743364 0.633589
vt 0.390984 0.633589
vt 0.743364 0.647880
vt 0.388923 0.651618
vt 0.740373 0.663788
vt 0.740373 0.651618
vt 0.388923 0.663788
vt 0.827595 0.983496
vt 0.827595 0.992345
vt 0.034378 0.533831
vt 0.007043 0.041355
vt 0.007043 0.533831
vt 0.034378 0.041355
vt 0.073469 0.533831
vt 0.073469 0.041355
vt 0.112558 0.533831
vt 0.112558 0.041355
vt 0.151652 0.533831
vt 0.151652 0.041355
vt 0.034378 0.008586
vt 0.073469 0.008586
vt 0.112558 0.008586
vt 0.151652 0.008586
vt 0.007043 0.008586
vt 0.721763 0.864237
vt 0.716731 0.829309
vt 0.721746 0.794380
vt 0.759544 0.922991
vt 0.892231 0.942037
vt 0.944977 0.762233
vt 0.823030 0.706576
vt 0.759492 0.735606
vt 0.736394 0.762281
vt 0.736429 0.896328
vt 0.789175 0.716524
vt 0.858376 0.951987
vt 0.823091 0.951990
vt 0.789232 0.942059
vt 0.959663 0.864177
vt 0.945012 0.896281
vt 0.964675 0.829252
vt 0.921910 0.922952
vt 0.959645 0.794327
vt 0.892175 0.716500
vt 0.921864 0.735572
vt 0.858315 0.706567
vt 0.781229 0.539181
vt 0.781229 0.499432
vt 0.776426 0.539181
vt 0.456099 0.499419
vt 0.776418 0.564856
vt 0.456089 0.564831
vt 0.432370 0.540600
vt 0.441142 0.547170
vt 0.383459 0.540554
vt 0.441105 0.586910
vt 0.383410 0.586847
vt 0.039761 0.646859
vt 0.370812 0.609292
vt 0.370812 0.646859
vt 0.007950 0.609287
vt 0.772832 0.130229
vt 0.777570 0.086093
vt 0.772771 0.086099
vt 0.815359 0.130164
vt 0.815533 0.232883
vt 0.452487 0.130844
vt 0.452752 0.271916
vt 0.777883 0.271294
vt 0.003479 0.600981
vt 0.366339 0.569712
vt 0.366339 0.600981
vt 0.003479 0.569712
vt 0.366339 0.565127
vt 0.003479 0.565127
vt 0.366339 0.560211
vt 0.003479 0.560211
vt 0.003479 0.538464
vt 0.366339 0.538464
vt 0.002595 0.906799
vt 0.009101 0.900245
vt 0.046257 0.900288
vt 0.046209 0.946583
vt 0.062235 0.906864
vt 0.046286 0.869028
vt 0.062265 0.877395
vt 0.048804 0.865212
vt 0.053162 0.863016
vt 0.074657 0.863028
vt 0.002546 0.972219
vt 0.027781 0.965611
vt 0.027965 0.969664
vt 0.030017 0.994789
vt 0.053104 0.994798
vt 0.074648 0.877404
vt 0.120479 0.906952
vt 0.185719 0.946814
vt 0.185797 0.900526
vt 0.147952 0.863173
vt 0.120537 0.877486
vt 0.108204 0.863085
vt 0.108173 0.877460
vt 0.237026 0.862253
vt 0.237016 0.876630
vt 0.224643 0.876613
vt 0.197274 0.862221
vt 0.224614 0.906083
vt 0.197169 0.945784
vt 0.282858 0.906179
vt 0.298767 0.945949
vt 0.298846 0.899663
vt 0.282937 0.876712
vt 0.298942 0.868402
vt 0.292087 0.862366
vt 0.270590 0.862291
vt 0.270532 0.876670
vt 0.296424 0.864581
vt 0.331122 0.721008
vt 0.693982 0.733534
vt 0.331122 0.733534
vt 0.693982 0.721008
vt 0.332518 0.670468
vt 0.695374 0.699929
vt 0.332518 0.699929
vt 0.695374 0.670468
vt 0.811930 0.334515
vt 0.449069 0.275634
vt 0.811930 0.275634
vt 0.449069 0.334515
vt 0.467181 0.440974
vt 0.792313 0.394679
vt 0.792313 0.440974
vt 0.467181 0.394679
vt 0.823782 0.003352
vt 0.777995 0.057437
vt 0.777995 0.003359
vt 0.860658 0.057437
vt 0.812456 0.391190
vt 0.449593 0.337714
vt 0.487317 0.391190
vt 0.812456 0.337714
vt 0.450300 0.483989
vt 0.813155 0.443793
vt 0.813155 0.483989
vt 0.450300 0.443793
vt 0.695358 0.703086
vt 0.332499 0.717463
vt 0.332499 0.703086
vt 0.695358 0.717463
vt 0.330528 0.823055
vt 0.654436 0.787652
vt 0.654436 0.823055
vt 0.330528 0.787652
vt 0.458217 0.608326
vt 0.778552 0.631667
vt 0.778552 0.608326
vt 0.458217 0.631667
vt 0.367359 0.783032
vt 0.687704 0.747277
vt 0.687704 0.783032
vt 0.367359 0.747277
vt 0.962714 0.743874
vt 0.936366 0.419973
vt 0.962706 0.419973
vt 0.936366 0.743874
vt 0.456099 0.486928
vt 0.781229 0.496208
vt 0.787149 0.486922
vt 0.456099 0.496195
vt 0.832309 0.082343
vt 0.814018 0.063175
vt 0.857659 0.063446
vt 0.857507 0.089121
vt 0.832110 0.086403
vt 0.806813 0.111386
vt 0.829897 0.111518
vt 0.887736 0.431602
vt 0.883723 0.107700
vt 0.887736 0.107700
vt 0.883723 0.431602
vt 0.004252 0.655247
vt 0.324589 0.721893
vt 0.004252 0.721893
vt 0.324589 0.655247
vt 0.458851 0.604930
vt 0.779189 0.568945
vt 0.458851 0.568945
vt 0.779189 0.604930
vt 0.004349 0.770961
vt 0.324679 0.804667
vt 0.004349 0.804667
vt 0.324679 0.770961
vt 0.003553 0.850868
vt 0.323880 0.807528
vt 0.323880 0.850868
vt 0.003553 0.807528
vt 0.324216 0.724580
vt 0.003886 0.768280
vt 0.003886 0.724580
vt 0.324216 0.768280
vt 0.665894 0.804713
vt 0.709650 0.804704
vt 0.709650 0.807620
vt 0.685754 0.831148
vt 0.685749 0.897059
vt 0.665894 0.927437
vt 0.709268 0.927455
vt 0.711567 0.921861
vt 0.665894 0.927445
vt 0.709190 0.927450
vt 0.711485 0.921861
vt 0.685667 0.897059
vt 0.685676 0.831148
vt 0.709569 0.804704
vt 0.709569 0.807620
vt 0.448029 0.127003
vt 0.768358 0.002904
vt 0.768358 0.127003
vt 0.448029 0.002904
vt 0.892222 0.112755
vt 0.895139 0.436659
vt 0.892222 0.436659
vt 0.895139 0.112755
vt 0.359031 0.743196
vt 0.679367 0.737088
vt 0.679367 0.743196
vt 0.359031 0.737088
vt 0.298544 0.040702
vt 0.337640 0.533179
vt 0.298544 0.533179
vt 0.337640 0.040702
vt 0.337640 0.007945
vt 0.298544 0.007945
vt 0.376726 0.533179
vt 0.376726 0.040702
vt 0.376726 0.007945
vt 0.415817 0.533179
vt 0.415817 0.040702
vt 0.415817 0.007945
vt 0.443149 0.533179
vt 0.443149 0.040702
vt 0.443149 0.007945
vt 0.917212 0.417208
vt 0.955879 0.379443
vt 0.955879 0.417208
vt 0.917212 0.379443
vt 0.899474 0.379443
vt 0.899474 0.417208
vt 0.955879 0.341676
vt 0.917212 0.341676
vt 0.899474 0.341676
vt 0.955879 0.303911
vt 0.917212 0.303911
vt 0.899474 0.303911
vt 0.955879 0.266146
vt 0.917212 0.266146
vt 0.899474 0.266146
vt 0.955879 0.228381
vt 0.917212 0.228381
vt 0.899474 0.228381
vt 0.955879 0.190612
vt 0.917212 0.190612
vt 0.899474 0.190612
vt 0.955879 0.152847
vt 0.917212 0.152847
vt 0.899474 0.152847
vt 0.955879 0.115082
vt 0.917212 0.115082
vt 0.899474 0.115082
vt 0.955879 0.077317
vt 0.917212 0.077317
vt 0.899474 0.077317
vt 0.955879 0.039551
vt 0.917212 0.039551
vt 0.899474 0.039551
vt 0.955879 0.001785
vt 0.917212 0.001785
vt 0.899474 0.001785
vt 0.793921 0.525390
vt 0.866379 0.577650
s 1
usemtl wpn\wpn_foregrip_zenit_rk_1_diff
f 29/1/1 31/2/1 30/3/1
f 29/1/1 30/3/1 28/4/1
f 28/4/1 27/5/1 29/1/1
f 25/6/1 27/5/1 28/4/1
f 25/6/1 26/7/1 27/5/1
f 9/8/1 26/7/1 25/6/1
f 9/8/1 25/6/1 21/9/1
f 9/8/1 21/9/1 15/10/1
f 15/10/1 21/9/1 24/11/1
f 21/9/1 22/12/1 24/11/1
f 21/9/1 23/13/1 22/12/1
f 9/8/1 17/14/1 26/7/1
f 18/9/1 19/12/1 20/13/1
f 24/11/1 19/12/1 18/9/1
f 15/10/1 24/11/1 18/9/1
f 9/8/1 15/10/1 18/9/1
f 9/8/1 18/9/1 13/6/1
f 9/8/1 13/6/1 14/7/1
f 13/6/1 7/5/1 14/7/1
f 13/6/1 8/4/1 7/5/1
f 8/4/1 5/1/1 7/5/1
f 6/3/1 5/1/1 8/4/1
f 6/3/1 12/2/1 5/1/1
f 9/8/1 14/7/1 17/14/1
f 2/15/2 3/16/3 11/17/3
f 2/15/2 4/18/2 3/16/3
f 16/19/3 4/18/2 2/15/2
f 16/19/3 1/20/3 4/18/2
f 10/21/4 1/20/3 16/19/3
f 10/21/4 61/22/4 1/20/3
f 58/23/3 61/22/4 10/21/4
f 58/23/3 55/24/3 61/22/4
f 62/25/3 55/24/3 58/23/3
f 62/25/3 63/26/3 55/24/3
f 59/27/5 63/26/3 62/25/3
f 59/27/5 60/28/6 63/26/3
f 56/29/7 60/28/6 59/27/5
f 56/29/7 57/30/8 60/28/6
f 54/31/9 57/30/8 56/29/7
f 54/31/9 51/32/9 57/30/8
f 48/33/3 51/32/9 54/31/9
f 48/33/3 53/34/3 51/32/9
f 48/33/3 52/32/10 53/34/3
f 48/33/3 49/31/10 52/32/10
f 49/31/10 50/30/11 52/32/10
f 49/31/10 46/29/12 50/30/11
f 46/29/12 45/28/13 50/30/11
f 46/29/12 33/27/14 45/28/13
f 33/27/14 47/26/3 45/28/13
f 33/27/14 43/25/3 47/26/3
f 43/25/3 42/24/3 47/26/3
f 43/25/3 39/23/3 42/24/3
f 39/23/3 38/22/15 42/24/3
f 39/23/3 34/21/15 38/22/15
f 34/21/15 44/20/3 38/22/15
f 34/21/15 40/19/3 44/20/3
f 40/19/3 41/18/16 44/20/3
f 40/19/3 35/15/16 41/18/16
f 35/15/16 3/16/3 41/18/16
f 35/15/16 11/17/3 3/16/3
f 32/35/17 36/36/18 37/37/18
f 32/35/17 66/38/17 36/36/18
f 76/39/18 66/38/17 32/35/17
f 76/39/18 73/40/18 66/38/17
f 70/41/19 73/40/18 76/39/18
f 70/41/19 64/42/19 73/40/18
f 77/43/18 64/42/19 70/41/19
f 77/43/18 78/44/18 64/42/19
f 74/45/17 78/44/18 77/43/18
f 78/44/18 74/45/17 71/46/18
f 75/47/18 71/46/18 74/45/17
f 72/48/18 71/46/18 75/47/18
f 72/48/18 67/49/18 71/46/18
f 65/50/18 67/49/18 72/48/18
f 65/50/18 69/51/18 67/49/18
f 68/52/18 69/51/18 65/50/18
f 68/52/18 85/53/18 69/51/18
f 84/54/18 85/53/18 68/52/18
f 84/54/18 83/55/18 85/53/18
f 84/54/18 89/53/18 83/55/18
f 84/54/18 80/52/18 89/53/18
f 80/52/18 79/51/18 89/53/18
f 80/52/18 81/50/18 79/51/18
f 81/50/18 82/49/18 79/51/18
f 81/50/18 86/48/18 82/49/18
f 86/48/18 88/46/18 82/49/18
f 86/48/18 87/47/18 88/46/18
f 87/47/18 90/45/20 88/46/18
f 92/44/18 88/46/18 90/45/20
f 90/45/20 93/43/18 92/44/18
f 93/43/18 98/42/21 92/44/18
f 93/43/18 94/41/21 98/42/21
f 94/41/21 95/40/18 98/42/21
f 94/41/21 91/39/18 95/40/18
f 91/39/18 96/38/22 95/40/18
f 91/39/18 97/35/22 96/38/22
f 97/35/22 36/36/18 96/38/22
f 97/35/22 37/37/18 36/36/18
f 129/56/23 62/57/23 58/58/23
f 129/56/23 122/59/23 62/57/23
f 113/60/23 122/59/23 129/56/23
f 113/60/23 129/56/23 128/61/23
f 124/62/23 113/60/23 128/61/23
f 124/62/23 128/61/23 126/63/23
f 113/60/23 124/62/23 127/64/23
f 127/65/24 124/66/25 121/67/26
f 124/66/25 125/68/27 121/67/26
f 124/66/25 119/69/28 125/68/27
f 124/66/25 118/70/25 119/69/28
f 118/70/25 120/71/25 119/69/28
f 118/70/25 117/72/29 120/71/25
f 118/70/25 123/73/29 117/72/29
f 122/74/30 113/75/31 110/76/32
f 103/77/33 110/76/32 113/75/31
f 103/77/33 113/75/31 116/78/34
f 109/79/35 103/77/33 116/78/34
f 109/79/35 116/78/34 115/80/36
f 109/79/35 115/80/36 101/81/37
f 101/81/37 115/80/36 107/82/38
f 101/81/37 107/82/38 112/83/39
f 103/77/33 104/84/40 110/76/32
f 109/79/35 104/84/40 103/77/33
f 109/79/35 102/85/41 104/84/40
f 109/79/35 114/86/42 102/85/41
f 109/79/35 101/81/37 114/86/42
f 137/87/43 114/86/42 101/81/37
f 137/87/43 101/81/37 100/88/44
f 101/81/37 112/83/39 100/88/44
f 100/88/44 112/83/39 111/89/45
f 100/88/44 111/89/45 105/90/46
f 100/88/44 105/90/46 106/91/47
f 100/88/44 106/91/47 130/92/48
f 114/86/42 108/93/49 102/85/41
f 114/86/42 99/94/50 108/93/49
f 137/87/43 99/94/50 114/86/42
f 137/87/43 138/95/51 99/94/50
f 137/87/43 141/96/52 138/95/51
f 137/87/43 100/88/44 141/96/52
f 141/96/52 100/88/44 130/92/48
f 141/96/52 130/92/48 136/97/53
f 130/92/48 135/98/54 136/97/53
f 141/96/52 136/97/53 138/95/51
f 132/99/55 134/100/56 133/101/57
f 132/99/55 133/101/57 131/102/58
f 142/103/59 131/102/58 133/101/57
f 142/103/59 133/101/57 139/104/60
f 139/104/60 130/105/61 142/103/59
f 139/104/60 135/106/62 130/105/61
f 132/99/55 131/102/58 140/107/63
f 143/108/64 142/103/59 130/105/61
f 143/108/64 130/105/61 106/109/65
f 123/110/66 143/108/64 106/109/65
f 123/110/66 106/109/65 105/111/67
f 123/110/66 105/111/67 111/112/68
f 123/110/66 111/112/68 117/113/68
f 111/112/68 120/114/69 117/113/68
f 111/112/68 112/115/70 120/114/69
f 112/115/70 119/116/71 120/114/69
f 112/115/70 107/117/72 119/116/71
f 107/117/72 125/118/73 119/116/71
f 107/117/72 115/119/74 125/118/73
f 115/119/74 121/120/75 125/118/73
f 115/119/74 116/121/76 121/120/75
f 116/121/76 127/122/77 121/120/75
f 116/121/76 113/123/77 127/122/77
f 144/124/78 128/125/79 129/126/80
f 147/127/81 144/124/78 129/126/80
f 146/128/82 144/124/78 147/127/81
f 148/129/83 146/128/82 147/127/81
f 148/129/83 145/130/84 146/128/82
f 149/131/85 145/130/84 148/129/83
f 149/131/85 148/129/83 151/132/86
f 149/131/85 151/132/86 7/133/87
f 151/132/86 14/134/88 7/133/87
f 151/132/86 17/135/89 14/134/88
f 17/135/89 151/132/86 152/136/90
f 149/131/85 150/137/91 145/130/84
f 149/131/85 12/138/92 150/137/91
f 149/131/85 5/139/93 12/138/92
f 149/131/85 7/133/87 5/139/93
f 150/140/94 12/141/95 6/142/96
f 145/143/97 150/140/94 6/142/96
f 146/144/98 145/143/97 6/142/96
f 6/142/96 144/145/99 146/144/98
f 126/146/100 144/145/99 6/142/96
f 126/146/100 128/147/101 144/145/99
f 123/148/3 118/149/3 143/150/3
f 118/149/3 142/151/3 143/150/3
f 142/151/3 118/149/3 8/152/3
f 142/151/3 8/152/3 13/153/3
f 13/154/23 131/155/23 142/156/23
f 13/154/23 18/157/23 131/155/23
f 19/158/23 140/159/23 20/160/23
f 19/158/23 132/161/23 140/159/23
f 131/162/18 20/163/18 140/164/18
f 131/162/18 18/165/18 20/163/18
f 118/166/102 6/167/103 8/168/104
f 124/169/105 6/167/103 118/166/102
f 124/169/105 126/170/106 6/167/103
f 102/171/107 108/172/108 48/173/108
f 102/171/107 48/173/108 54/174/109
f 104/175/110 102/171/107 54/174/109
f 104/175/110 54/174/109 56/176/111
f 110/177/112 104/175/110 56/176/111
f 110/177/112 56/176/111 59/178/113
f 122/179/114 110/177/112 59/178/113
f 122/179/114 59/178/113 62/180/114
f 147/181/115 129/182/116 58/183/116
f 147/181/115 58/183/116 10/184/117
f 148/185/118 147/181/115 10/184/117
f 148/185/118 10/184/117 16/186/119
f 151/187/120 148/185/118 16/186/119
f 151/187/120 16/186/119 2/188/121
f 152/189/122 151/187/120 2/188/121
f 152/189/122 2/188/121 11/190/122
f 155/191/23 55/192/23 63/193/23
f 155/191/23 153/194/23 55/192/23
f 155/191/23 71/195/23 153/194/23
f 155/191/23 78/196/23 71/195/23
f 37/197/123 154/198/123 157/199/124
f 37/197/123 157/199/124 32/200/125
f 32/200/125 157/199/124 156/201/126
f 32/200/125 156/201/126 76/202/127
f 76/202/127 156/201/126 158/203/128
f 76/202/127 158/203/128 70/204/113
f 70/204/113 158/203/128 160/205/129
f 70/204/113 160/205/129 77/206/129
f 160/205/129 74/207/130 77/206/129
f 160/205/129 161/208/131 74/207/130
f 161/208/131 75/209/132 74/207/130
f 161/208/131 159/210/132 75/209/132
f 75/209/132 159/210/132 163/211/133
f 75/209/132 163/211/133 72/212/134
f 72/212/134 163/211/133 162/213/135
f 72/212/134 162/213/135 65/214/136
f 65/214/136 162/213/135 164/215/120
f 65/214/136 164/215/120 68/216/121
f 68/216/121 164/215/120 165/217/137
f 68/216/121 165/217/137 84/218/137
f 185/219/138 188/220/139 191/221/140
f 186/222/141 188/220/139 185/219/138
f 186/222/141 185/219/138 182/223/142
f 187/224/143 186/222/141 182/223/142
f 187/224/143 182/223/142 184/225/144
f 187/224/143 184/225/144 183/226/145
f 183/226/145 184/225/144 180/227/146
f 186/222/141 157/228/147 188/220/139
f 186/222/141 156/229/148 157/228/147
f 187/224/143 156/229/148 186/222/141
f 187/224/143 158/230/149 156/229/148
f 187/224/143 183/226/145 158/230/149
f 183/226/145 160/231/150 158/230/149
f 181/232/151 160/231/150 183/226/145
f 181/232/151 183/226/145 180/227/146
f 181/232/151 180/227/146 179/233/152
f 188/220/139 157/228/147 154/234/153
f 181/232/151 161/235/154 160/231/150
f 181/232/151 176/236/155 161/235/154
f 181/232/151 179/233/152 176/236/155
f 176/236/155 179/233/152 178/237/156
f 177/238/157 176/236/155 178/237/156
f 177/238/157 178/237/156 174/239/158
f 177/238/157 174/239/158 175/240/159
f 175/240/159 174/239/158 173/241/160
f 177/238/157 161/235/154 176/236/155
f 177/238/157 159/242/161 161/235/154
f 177/238/157 175/240/159 159/242/161
f 175/240/159 163/243/162 159/242/161
f 171/244/163 163/243/162 175/240/159
f 171/244/163 175/240/159 173/241/160
f 171/244/163 173/241/160 168/245/164
f 172/246/165 171/244/163 168/245/164
f 172/246/165 168/245/164 170/247/166
f 172/246/165 170/247/166 169/248/167
f 169/248/167 170/247/166 166/249/168
f 169/248/167 166/249/168 167/250/169
f 171/244/163 162/251/170 163/243/162
f 172/246/165 162/251/170 171/244/163
f 172/246/165 164/252/171 162/251/170
f 172/246/165 169/248/167 164/252/171
f 169/248/167 165/253/172 164/252/171
f 169/248/167 167/250/169 165/253/172
f 190/56/173 39/58/174 43/254/174
f 190/56/173 43/254/174 189/255/174
f 193/60/174 190/56/173 189/255/174
f 193/60/174 192/61/174 190/56/173
f 193/60/174 196/62/173 192/61/174
f 196/62/173 193/60/174 195/64/174
f 192/61/174 196/62/173 194/63/175
f 195/65/176 197/67/177 196/66/178
f 196/66/178 197/67/177 199/68/178
f 196/66/178 199/68/178 198/69/178
f 196/66/178 198/69/178 205/70/178
f 205/70/178 198/69/178 210/71/177
f 205/70/178 210/71/177 207/72/179
f 205/70/178 207/72/179 206/73/180
f 209/99/181 204/107/63 208/102/182
f 133/101/183 209/99/181 208/102/182
f 133/101/183 208/102/182 201/103/184
f 133/101/183 201/103/184 139/104/185
f 200/105/186 139/104/185 201/103/184
f 211/108/187 200/105/186 201/103/184
f 211/108/187 202/109/188 200/105/186
f 202/109/188 211/108/187 206/110/189
f 133/101/183 134/100/190 209/99/181
f 200/105/186 135/106/191 139/104/185
f 202/109/188 206/110/189 203/111/192
f 212/112/193 203/111/192 206/110/189
f 212/112/193 206/110/189 207/113/194
f 212/112/193 207/113/194 210/114/195
f 212/112/193 210/114/195 213/115/196
f 213/115/196 210/114/195 198/116/197
f 213/115/196 198/116/197 214/117/198
f 214/117/198 198/116/197 199/118/199
f 214/117/198 199/118/199 215/119/200
f 215/119/200 199/118/199 197/120/201
f 215/119/200 197/120/201 216/121/202
f 216/121/202 197/120/201 195/122/203
f 216/121/202 195/122/203 193/123/203
f 220/124/204 190/126/205 192/125/206
f 190/126/205 220/124/204 219/127/207
f 221/128/208 219/127/207 220/124/204
f 223/129/209 219/127/207 221/128/208
f 223/129/209 221/128/208 218/130/210
f 222/131/211 223/129/209 218/130/210
f 222/131/211 218/130/210 217/137/212
f 222/131/211 217/137/212 31/138/213
f 222/131/211 31/138/213 29/139/214
f 222/131/211 29/139/214 27/133/215
f 222/131/211 224/132/216 223/129/209
f 222/131/211 27/133/215 224/132/216
f 27/133/215 152/136/217 224/132/216
f 152/136/217 27/133/215 26/134/218
f 152/136/217 26/134/218 17/135/219
f 217/140/220 30/142/221 31/141/222
f 218/143/223 30/142/221 217/140/220
f 221/144/224 30/142/221 218/143/223
f 30/142/221 221/144/224 220/145/225
f 220/145/225 194/146/226 30/142/221
f 220/145/225 192/147/227 194/146/226
f 206/148/3 211/150/3 205/149/3
f 205/149/3 211/150/3 201/151/3
f 201/151/3 28/152/3 205/149/3
f 201/151/3 25/153/3 28/152/3
f 24/256/3 132/257/3 19/258/3
f 24/256/3 134/259/3 132/257/3
f 209/257/3 134/259/3 24/256/3
f 209/257/3 24/256/3 22/258/3
f 208/260/174 25/261/174 201/262/174
f 208/260/174 21/263/174 25/261/174
f 204/159/174 22/158/174 23/160/174
f 204/159/174 209/161/174 22/158/174
f 208/264/18 23/265/18 21/266/18
f 208/264/18 204/267/18 23/265/18
f 205/166/228 28/168/229 30/167/230
f 196/169/231 205/166/228 30/167/230
f 196/169/231 30/167/230 194/170/232
f 225/171/233 48/268/234 108/269/234
f 225/171/233 49/174/235 48/268/234
f 226/175/236 49/174/235 225/171/233
f 226/175/236 46/176/237 49/174/235
f 227/177/238 46/176/237 226/175/236
f 227/177/238 33/178/239 46/176/237
f 189/179/240 33/178/239 227/177/238
f 189/179/240 43/180/240 33/178/239
f 219/181/241 39/183/242 190/182/242
f 219/181/241 34/184/243 39/183/242
f 223/185/244 34/184/243 219/181/241
f 223/185/244 40/186/245 34/184/243
f 224/187/246 40/186/245 223/185/244
f 224/187/246 35/188/247 40/186/245
f 152/189/248 35/188/247 224/187/246
f 152/189/248 11/190/248 35/188/247
f 38/270/249 232/271/250 42/272/251
f 231/273/252 232/271/250 38/270/249
f 231/273/252 38/270/249 44/274/253
f 228/275/254 231/273/252 44/274/253
f 228/275/254 44/274/253 41/276/246
f 228/275/254 41/276/246 229/277/255
f 229/277/255 41/276/246 3/278/256
f 229/277/255 3/278/256 230/279/257
f 231/273/252 82/280/258 232/271/250
f 231/273/252 79/281/259 82/280/258
f 228/275/254 79/281/259 231/273/252
f 228/275/254 89/282/260 79/281/259
f 228/275/254 229/277/255 89/282/260
f 229/277/255 83/283/261 89/282/260
f 229/277/255 230/279/257 83/283/261
f 82/280/258 88/284/262 232/271/250
f 42/192/174 233/191/174 47/193/174
f 42/192/174 232/194/174 233/191/174
f 88/195/174 233/191/174 232/194/174
f 88/195/174 92/196/174 233/191/174
f 37/197/263 234/199/264 154/198/263
f 37/197/263 97/200/265 234/199/264
f 97/200/265 235/201/266 234/199/264
f 97/200/265 91/202/237 235/201/266
f 91/202/237 236/203/267 235/201/266
f 91/202/237 94/204/268 236/203/267
f 94/204/268 237/205/269 236/203/267
f 94/204/268 93/206/269 237/205/269
f 90/207/270 237/205/269 93/206/269
f 90/207/270 239/208/271 237/205/269
f 87/209/272 239/208/271 90/207/270
f 87/209/272 238/210/272 239/208/271
f 87/209/272 240/211/273 238/210/272
f 87/209/272 86/212/274 240/211/273
f 86/212/274 241/213/275 240/211/273
f 86/212/274 81/214/276 241/213/275
f 81/214/276 242/215/246 241/213/275
f 81/214/276 80/216/247 242/215/246
f 80/216/247 165/217/256 242/215/246
f 80/216/247 84/218/256 165/217/256
f 243/285/18 245/286/18 258/287/18
f 250/288/18 243/285/18 258/287/18
f 259/289/18 250/288/18 258/287/18
f 259/289/18 258/287/18 263/290/18
f 258/287/18 265/291/18 263/290/18
f 258/287/18 257/292/18 265/291/18
f 258/287/18 251/293/18 257/292/18
f 250/288/18 246/294/18 243/285/18
f 257/292/18 254/295/18 265/291/18
f 259/289/18 244/296/18 249/297/18
f 259/289/18 249/297/18 250/288/18
f 249/297/18 248/298/18 250/288/18
f 247/299/18 252/300/18 255/301/18
f 252/300/18 259/289/18 255/301/18
f 252/300/18 253/302/18 259/289/18
f 259/289/18 263/290/18 255/301/18
f 263/290/18 256/303/18 255/301/18
f 261/304/18 260/305/18 263/290/18
f 265/291/18 261/304/18 263/290/18
f 265/291/18 262/306/18 261/304/18
f 266/307/23 264/308/23 268/309/23
f 264/308/23 271/310/23 268/309/23
f 271/310/23 270/311/23 268/309/23
f 271/310/23 267/312/23 270/311/23
f 269/313/277 264/314/278 273/315/279
f 266/316/280 273/315/279 264/314/278
f 266/316/280 272/317/280 273/315/279
f 269/318/18 274/319/18 276/320/18
f 269/318/18 273/321/18 274/319/18
f 277/322/3 266/323/3 268/324/3
f 266/323/3 277/322/3 272/325/3
f 278/326/3 272/325/3 277/322/3
f 275/327/3 278/326/3 277/322/3
f 275/327/3 279/328/3 278/326/3
f 278/326/3 279/328/3 280/329/3
f 273/330/23 281/331/281 274/332/23
f 273/330/23 282/333/282 281/331/281
f 283/334/283 281/331/281 282/333/282
f 283/334/283 282/333/282 284/335/284
f 288/336/285 283/334/283 284/335/284
f 288/336/285 284/335/284 285/337/285
f 288/336/285 285/337/285 287/338/18
f 288/336/285 287/338/18 286/339/18
f 271/340/1 276/341/286 274/342/1
f 271/340/1 274/342/1 275/343/1
f 274/342/1 295/344/1 275/343/1
f 281/345/287 295/344/1 274/342/1
f 281/345/287 289/346/1 295/344/1
f 283/347/287 289/346/1 281/345/287
f 283/347/287 288/348/1 289/346/1
f 288/348/1 286/349/1 289/346/1
f 275/343/1 267/350/1 271/340/1
f 275/343/1 292/351/1 267/350/1
f 267/350/1 292/351/1 294/352/1
f 294/352/1 291/353/1 267/350/1
f 294/352/1 290/354/1 291/353/1
f 289/346/1 286/349/1 293/355/1
f 275/343/1 295/344/1 298/356/1
f 275/343/1 298/356/1 279/357/1
f 279/357/1 298/356/1 297/358/1
f 298/356/1 296/359/1 297/358/1
f 298/356/1 301/360/1 296/359/1
f 296/359/1 301/360/1 304/361/1
f 301/360/1 299/362/1 304/361/1
f 303/363/63 300/364/63 302/365/288
f 307/366/288 303/363/63 302/365/288
f 307/366/288 302/365/288 305/367/63
f 307/366/288 305/367/63 278/368/63
f 309/369/63 278/368/63 305/367/63
f 309/369/63 272/370/63 278/368/63
f 273/371/63 272/370/63 309/369/63
f 273/371/63 309/369/63 310/372/63
f 273/371/63 310/372/63 282/373/63
f 285/374/63 282/373/63 310/372/63
f 285/374/63 310/372/63 287/375/63
f 287/375/63 310/372/63 306/376/63
f 285/374/63 284/377/63 282/373/63
f 293/378/3 310/379/3 289/380/3
f 293/378/3 306/381/3 310/379/3
f 289/382/174 309/383/174 295/384/174
f 289/382/174 310/385/174 309/383/174
f 295/386/18 305/387/18 298/388/18
f 295/386/18 309/389/18 305/387/18
f 279/390/174 308/391/174 280/392/174
f 279/390/174 297/393/174 308/391/174
f 308/394/289 278/395/289 280/396/290
f 308/394/289 307/397/289 278/395/289
f 297/398/291 307/399/291 308/400/291
f 297/398/291 296/401/291 307/399/291
f 303/402/18 296/403/18 304/404/18
f 303/402/18 307/405/18 296/403/18
f 304/406/23 300/407/23 303/408/23
f 304/406/23 299/409/23 300/407/23
f 302/380/3 299/381/3 301/379/3
f 302/380/3 300/378/3 299/381/3
f 305/384/23 301/385/292 298/383/292
f 305/384/23 302/382/23 301/385/292
f 267/410/293 311/411/293 270/412/293
f 267/410/293 291/413/293 311/411/293
f 291/414/3 312/415/3 311/416/3
f 291/414/3 290/417/3 312/415/3
f 290/418/294 313/419/294 312/420/294
f 290/418/294 294/421/294 313/419/294
f 292/422/295 277/423/295 314/424/295
f 292/422/295 275/425/295 277/423/295
f 293/407/174 287/406/174 306/409/174
f 293/407/174 286/408/174 287/406/174
f 276/426/296 264/427/297 269/428/297
f 276/426/296 271/429/296 264/427/297
f 314/430/63 277/431/63 268/432/63
f 314/430/63 268/432/63 270/433/63
f 314/430/63 270/433/63 313/434/63
f 312/435/63 313/434/63 270/433/63
f 312/435/63 270/433/63 311/436/63
f 294/437/298 314/438/299 313/439/299
f 294/437/298 292/440/298 314/438/299
f 319/441/23 316/442/23 317/443/23
f 319/441/23 315/444/23 316/442/23
f 315/445/300 321/446/300 318/447/300
f 315/445/300 319/448/300 321/446/300
f 317/449/301 323/450/301 320/451/301
f 317/449/301 316/452/301 323/450/301
f 327/453/18 325/454/18 322/455/18
f 327/453/18 326/456/18 325/454/18
f 328/457/3 330/458/3 324/459/3
f 328/457/3 329/460/3 330/458/3
f 329/461/1 328/462/1 323/463/1
f 329/461/1 323/463/1 316/464/1
f 315/465/1 329/461/1 316/464/1
f 315/465/1 325/466/1 329/461/1
f 315/465/1 322/467/1 325/466/1
f 315/465/1 318/468/1 322/467/1
f 326/469/63 327/470/63 321/471/63
f 326/469/63 321/471/63 319/472/63
f 319/472/63 330/461/63 326/469/63
f 319/472/63 317/473/63 330/461/63
f 317/473/63 324/474/63 330/461/63
f 317/473/63 320/475/63 324/474/63
f 329/476/174 326/477/174 330/478/174
f 329/476/174 325/479/174 326/477/174
f 323/480/23 324/481/23 320/482/23
f 323/480/23 328/483/23 324/481/23
f 321/484/302 322/485/303 318/486/303
f 321/484/302 327/487/302 322/485/303
f 334/488/304 51/489/124 53/490/108
f 333/491/305 51/489/124 334/488/304
f 333/491/305 334/488/304 66/492/306
f 334/488/304 36/493/307 66/492/306
f 333/491/305 57/494/308 51/489/124
f 333/491/305 332/495/309 57/494/308
f 333/491/305 73/496/310 332/495/309
f 333/491/305 66/492/306 73/496/310
f 332/495/309 60/497/311 57/494/308
f 331/498/312 60/497/311 332/495/309
f 331/498/312 332/495/309 64/499/313
f 332/495/309 73/496/310 64/499/313
f 331/498/312 63/500/314 60/497/311
f 331/498/312 155/501/315 63/500/314
f 331/498/312 78/502/316 155/501/315
f 331/498/312 64/499/313 78/502/316
f 153/271/317 61/270/318 55/272/319
f 337/273/320 61/270/318 153/271/317
f 337/273/320 153/271/317 67/280/321
f 153/271/317 71/284/322 67/280/321
f 337/273/320 1/274/135 61/270/318
f 337/273/320 336/275/323 1/274/135
f 337/273/320 69/281/324 336/275/323
f 337/273/320 67/280/321 69/281/324
f 336/275/323 4/276/120 1/274/135
f 335/277/325 4/276/120 336/275/323
f 335/277/325 336/275/323 85/282/326
f 336/275/323 69/281/324 85/282/326
f 335/277/325 3/278/327 4/276/120
f 335/277/325 230/279/328 3/278/327
f 335/277/325 83/283/329 230/279/328
f 335/277/325 85/282/326 83/283/329
f 349/503/330 185/504/331 191/505/332
f 347/506/333 185/504/331 349/503/330
f 347/506/333 349/503/330 243/507/334
f 349/503/330 245/508/335 243/507/334
f 347/506/333 182/509/336 185/504/331
f 347/506/333 346/510/337 182/509/336
f 347/506/333 246/511/338 346/510/337
f 347/506/333 243/507/334 246/511/338
f 346/510/337 184/512/339 182/509/336
f 348/513/340 184/512/339 346/510/337
f 348/513/340 346/510/337 250/514/341
f 346/510/337 246/511/338 250/514/341
f 348/513/340 180/515/342 184/512/339
f 348/513/340 345/516/343 180/515/342
f 348/513/340 248/517/344 345/516/343
f 348/513/340 250/514/341 248/517/344
f 345/516/343 179/518/345 180/515/342
f 344/519/346 179/518/345 345/516/343
f 344/519/346 345/516/343 249/520/347
f 345/516/343 248/517/344 249/520/347
f 344/519/346 178/521/348 179/518/345
f 343/522/349 178/521/348 344/519/346
f 343/522/349 344/519/346 244/523/350
f 344/519/346 249/520/347 244/523/350
f 343/522/349 174/524/351 178/521/348
f 343/522/349 342/525/352 174/524/351
f 343/522/349 259/526/353 342/525/352
f 343/522/349 244/523/350 259/526/353
f 342/525/352 173/527/354 174/524/351
f 341/528/355 173/527/354 342/525/352
f 341/528/355 342/525/352 253/529/356
f 342/525/352 259/526/353 253/529/356
f 341/528/355 168/530/357 173/527/354
f 341/528/355 339/531/358 168/530/357
f 341/528/355 252/532/359 339/531/358
f 341/528/355 253/529/356 252/532/359
f 339/531/358 170/533/360 168/530/357
f 338/534/361 170/533/360 339/531/358
f 338/534/361 339/531/358 247/535/362
f 339/531/358 252/532/359 247/535/362
f 338/534/361 166/536/363 170/533/360
f 338/534/361 340/537/364 166/536/363
f 338/534/361 255/538/365 340/537/364
f 338/534/361 247/535/362 255/538/365
f 189/74/366 227/76/367 193/75/368
f 350/77/369 193/75/368 227/76/367
f 350/77/369 227/76/367 226/84/370
f 350/77/369 226/84/370 352/79/371
f 352/79/371 226/84/370 225/85/372
f 351/86/373 352/79/371 225/85/372
f 351/86/373 225/85/372 108/93/374
f 351/86/373 108/93/374 99/539/375
f 350/77/369 216/78/376 193/75/368
f 350/77/369 352/79/371 216/78/376
f 352/79/371 215/80/377 216/78/376
f 352/79/371 353/81/378 215/80/377
f 351/86/373 353/81/378 352/79/371
f 351/86/373 354/87/379 353/81/378
f 351/86/373 99/539/375 354/87/379
f 354/87/379 99/539/375 138/95/380
f 355/96/381 354/87/379 138/95/380
f 355/96/381 138/95/380 136/97/382
f 355/96/381 136/97/382 200/92/383
f 200/92/383 136/97/382 135/98/384
f 353/81/378 214/82/385 215/80/377
f 353/81/378 213/540/386 214/82/385
f 356/88/387 213/540/386 353/81/378
f 354/87/379 356/88/387 353/81/378
f 355/96/381 356/88/387 354/87/379
f 355/96/381 200/92/383 356/88/387
f 356/88/387 200/92/383 202/91/388
f 356/88/387 202/91/388 203/90/389
f 356/88/387 203/90/389 212/89/390
f 356/88/387 212/89/390 213/540/386
f 52/489/233 334/488/391 53/490/392
f 359/491/393 334/488/391 52/489/233
f 359/491/393 52/489/233 50/494/394
f 359/491/393 50/494/394 358/495/395
f 358/495/395 50/494/394 45/497/396
f 357/498/397 358/495/395 45/497/396
f 357/498/397 45/497/396 47/500/398
f 357/498/397 47/500/398 233/501/399
f 359/491/393 96/492/400 334/488/391
f 359/491/393 95/496/401 96/492/400
f 359/491/393 358/495/395 95/496/401
f 358/495/395 98/499/402 95/496/401
f 357/498/397 98/499/402 358/495/395
f 357/498/397 92/502/403 98/499/402
f 357/498/397 233/501/399 92/502/403
f 96/492/400 36/493/404 334/488/391
f 349/503/405 191/505/406 378/504/407
f 379/506/408 349/503/405 378/504/407
f 379/506/408 378/504/407 376/509/409
f 379/506/408 376/509/409 377/510/410
f 377/510/410 376/509/409 374/512/267
f 375/513/411 377/510/410 374/512/267
f 375/513/411 374/512/267 373/515/412
f 379/506/408 258/507/413 349/503/405
f 379/506/408 251/511/414 258/507/413
f 379/506/408 377/510/410 251/511/414
f 377/510/410 257/514/415 251/511/414
f 375/513/411 257/514/415 377/510/410
f 375/513/411 254/517/416 257/514/415
f 375/513/411 372/516/417 254/517/416
f 375/513/411 373/515/412 372/516/417
f 372/516/417 373/515/412 370/518/418
f 349/503/405 258/507/413 245/508/419
f 372/516/417 265/520/420 254/517/416
f 371/519/421 265/520/420 372/516/417
f 371/519/421 372/516/417 370/518/418
f 371/519/421 370/518/418 368/521/422
f 371/519/421 368/521/422 369/522/423
f 369/522/423 368/521/422 366/524/424
f 367/525/425 369/522/423 366/524/424
f 367/525/425 366/524/424 364/527/426
f 371/519/421 262/523/427 265/520/420
f 371/519/421 369/522/423 262/523/427
f 369/522/423 261/526/428 262/523/427
f 367/525/425 261/526/428 369/522/423
f 367/525/425 260/529/429 261/526/428
f 365/528/430 260/529/429 367/525/425
f 365/528/430 367/525/425 364/527/426
f 365/528/430 364/527/426 362/530/431
f 365/528/430 362/530/431 363/531/432
f 363/531/432 362/530/431 361/533/433
f 360/534/434 363/531/432 361/533/433
f 360/534/434 361/533/433 166/536/248
f 360/534/434 166/536/248 340/537/435
f 365/528/430 263/532/436 260/529/429
f 365/528/430 363/531/432 263/532/436
f 363/531/432 256/535/437 263/532/436
f 360/534/434 256/535/437 363/531/432
f 360/534/434 255/538/438 256/535/437
f 360/534/434 340/537/435 255/538/438
f 378/219/439 191/221/440 188/220/441
f 389/222/442 378/219/439 188/220/441
f 389/222/442 188/220/441 234/228/443
f 188/220/441 154/234/444 234/228/443
f 389/222/442 376/223/445 378/219/439
f 389/222/442 387/224/446 376/223/445
f 389/222/442 235/229/447 387/224/446
f 389/222/442 234/228/443 235/229/447
f 387/224/446 374/225/448 376/223/445
f 386/226/449 374/225/448 387/224/446
f 386/226/449 387/224/446 236/230/450
f 387/224/446 235/229/447 236/230/450
f 386/226/449 373/227/451 374/225/448
f 386/226/449 388/232/452 373/227/451
f 386/226/449 237/231/453 388/232/452
f 386/226/449 236/230/450 237/231/453
f 388/232/452 370/233/454 373/227/451
f 385/236/455 370/233/454 388/232/452
f 385/236/455 388/232/452 239/235/456
f 388/232/452 237/231/453 239/235/456
f 385/236/455 368/237/457 370/233/454
f 385/236/455 384/238/458 368/237/457
f 385/236/455 239/235/456 384/238/458
f 384/238/458 239/235/456 238/242/459
f 383/240/460 384/238/458 238/242/459
f 383/240/460 238/242/459 240/243/461
f 382/244/462 383/240/460 240/243/461
f 382/244/462 240/243/461 241/251/463
f 384/238/458 366/239/464 368/237/457
f 383/240/460 366/239/464 384/238/458
f 383/240/460 364/241/465 366/239/464
f 382/244/462 364/241/465 383/240/460
f 382/244/462 362/245/466 364/241/465
f 382/244/462 380/246/467 362/245/466
f 382/244/462 241/251/463 380/246/467
f 380/246/467 241/251/463 242/252/468
f 381/248/469 380/246/467 242/252/468
f 381/248/469 242/252/468 165/253/470
f 381/248/469 165/253/470 167/250/471
f 381/248/469 167/250/471 166/249/472
f 381/248/469 166/249/472 361/247/473
f 380/246/467 361/247/473 362/245/466
f 381/248/469 361/247/473 380/246/467
