# Blender 4.5.3 LTS
# www.blender.org
mtllib GaussDisplay.mtl
o wpn_gauss_world.ogf_01
v -0.031528 0.035953 -0.114075
v -0.031528 0.034451 -0.100920
v -0.031528 0.035953 -0.100920
v -0.031528 0.034451 -0.114075
vn 1.0000 -0.0000 -0.0000
vt 0.999980 0.999977
vt 0.000109 0.999977
vt 0.000109 0.000294
vt 0.999980 0.000294
s 1
usemtl wpn\wpn_gauss_condition
f 1/1/1 3/2/1 2/3/1
f 2/3/1 4/4/1 1/1/1
o wpn_gauss_world.ogf_05
v -0.031528 0.036856 -0.092677
v -0.031528 0.034406 -0.072244
v -0.031528 0.036856 -0.072244
v -0.031528 0.034406 -0.092677
vn 1.0000 -0.0000 -0.0000
vt 0.999987 0.999988
vt 0.000040 0.999988
vt 0.000022 0.000084
vt 0.999650 0.000083
s 1
usemtl wpn\wpn_gauss_energy
f 5/5/2 7/6/2 6/7/2
f 6/7/2 8/8/2 5/5/2
o wpn_gauss_world.ogf_09
v -0.031528 0.033226 -0.111813
v -0.031528 0.028963 -0.107553
v -0.031528 0.033226 -0.107553
v -0.031528 0.028963 -0.111813
v -0.031528 0.033226 -0.107154
v -0.031528 0.028963 -0.102894
v -0.031528 0.033226 -0.102894
v -0.031528 0.028963 -0.107154
v -0.031528 0.033226 -0.102513
v -0.031528 0.028963 -0.098253
v -0.031528 0.033226 -0.098253
v -0.031528 0.028963 -0.102513
v -0.031528 0.033226 -0.097854
v -0.031528 0.028963 -0.093594
v -0.031528 0.033226 -0.093594
v -0.031528 0.028963 -0.097854
v -0.031528 0.033226 -0.093173
v -0.031528 0.028963 -0.088913
v -0.031528 0.033226 -0.088913
v -0.031528 0.028963 -0.093173
v -0.031528 0.033226 -0.083872
v -0.031528 0.028963 -0.079613
v -0.031528 0.033226 -0.079613
v -0.031528 0.028963 -0.083872
v -0.031528 0.033226 -0.079214
v -0.031528 0.028963 -0.074954
v -0.031528 0.033226 -0.074954
v -0.031528 0.028963 -0.079214
v -0.031528 0.047786 -0.092440
v -0.031528 0.040735 -0.072131
v -0.031528 0.047786 -0.072131
v -0.031528 0.040735 -0.092440
v -0.037965 0.047786 -0.092440
v -0.037965 0.040735 -0.072131
v -0.037965 0.047786 -0.072131
v -0.037965 0.040735 -0.092440
v -0.031528 0.038885 -0.112390
v -0.031528 0.036887 -0.102570
v -0.031528 0.038885 -0.102570
v -0.031528 0.036887 -0.112390
v -0.031528 0.046943 -0.107588
v -0.031528 0.041984 -0.101093
v -0.031528 0.046943 -0.101093
v -0.031528 0.041984 -0.107588
v -0.031528 0.056942 -0.114212
v -0.031528 0.054524 -0.107485
v -0.031528 0.056942 -0.107485
v -0.031528 0.054524 -0.114212
v -0.031528 0.033226 -0.088514
v -0.031528 0.028963 -0.084254
v -0.031528 0.033226 -0.084254
v -0.031528 0.028963 -0.088514
vn 1.0000 -0.0000 -0.0000
vt 0.509835 1.000000
vt 0.451167 1.000000
vt 0.451167 0.882875
vt 0.509835 0.882875
vt 0.445373 1.000000
vt 0.386789 1.000000
vt 0.386789 0.883163
vt 0.445373 0.883163
vt 0.381063 1.000000
vt 0.322360 1.000000
vt 0.322360 0.882819
vt 0.381063 0.882819
vt 0.316454 1.000000
vt 0.257651 1.000000
vt 0.257651 0.882674
vt 0.316454 0.882674
vt 0.251985 1.000000
vt 0.193370 1.000000
vt 0.193370 0.882603
vt 0.251985 0.882603
vt 0.123279 1.000000
vt 0.064608 1.000000
vt 0.064608 0.882579
vt 0.123279 0.882579
vt 0.058717 1.000000
vt 0.000000 1.000000
vt 0.000000 0.882678
vt 0.058717 0.882678
vt 0.500005 0.468775
vt 0.218750 0.468775
vt 0.218750 0.273451
vt 0.500005 0.273451
vt 0.806663 0.468751
vt 0.525381 0.468751
vt 0.525381 0.273430
vt 0.806663 0.273430
vt 0.138667 0.871090
vt 0.000000 0.871090
vt 0.000000 0.816448
vt 0.138667 0.816448
vt 0.466778 0.144538
vt 0.376946 0.144538
vt 0.376946 0.011731
vt 0.466778 0.011731
vt 0.101562 0.609378
vt 0.007828 0.609378
vt 0.007828 0.542972
vt 0.101562 0.542972
vt 0.187622 1.000000
vt 0.128904 1.000000
vt 0.128904 0.882752
vt 0.187622 0.882752
s 1
usemtl wpn\wpn_gauss_mui
f 9/9/3 11/10/3 10/11/3
f 10/11/3 12/12/3 9/9/3
f 13/13/3 15/14/3 14/15/3
f 14/15/3 16/16/3 13/13/3
f 17/17/3 19/18/3 18/19/3
f 18/19/3 20/20/3 17/17/3
f 21/21/3 23/22/3 22/23/3
f 22/23/3 24/24/3 21/21/3
f 25/25/3 27/26/3 26/27/3
f 26/27/3 28/28/3 25/25/3
f 29/29/3 31/30/3 30/31/3
f 30/31/3 32/32/3 29/29/3
f 33/33/3 35/34/3 34/35/3
f 34/35/3 36/36/3 33/33/3
f 37/37/3 39/38/3 38/39/3
f 38/39/3 40/40/3 37/37/3
f 41/41/3 43/42/3 42/43/3
f 42/43/3 44/44/3 41/41/3
f 45/45/3 47/46/3 46/47/3
f 46/47/3 48/48/3 45/45/3
f 49/49/3 51/50/3 50/51/3
f 50/51/3 52/52/3 49/49/3
f 53/53/3 55/54/3 54/55/3
f 54/55/3 56/56/3 53/53/3
f 57/57/3 59/58/3 58/59/3
f 58/59/3 60/60/3 57/57/3
