# Blender 4.5.3 LTS
# www.blender.org
mtllib GP7Filter.mtl
o light_gp7b.ogf_00.001
v -0.107593 0.016410 -0.175419
v -0.107937 0.016679 -0.173960
v -0.112245 0.028951 -0.174697
v -0.112073 0.029074 -0.176161
v -0.117932 0.040724 -0.172406
v -0.117932 0.041302 -0.173795
v -0.124481 0.051189 -0.167361
v -0.124739 0.051982 -0.168644
v -0.131546 0.059439 -0.160136
v -0.131976 0.060559 -0.161082
v -0.138525 0.065058 -0.151012
v -0.139214 0.066290 -0.151728
v -0.144986 0.067658 -0.140829
v -0.145934 0.068976 -0.141178
v -0.150588 0.067115 -0.130175
v -0.151707 0.068457 -0.130236
v -0.154982 0.063523 -0.119952
v -0.156188 0.064787 -0.119602
v -0.157739 0.057089 -0.110832
v -0.159032 0.058137 -0.110165
v -0.158686 0.048222 -0.103315
v -0.160065 0.048925 -0.102493
v -0.157825 0.037542 -0.097792
v -0.159204 0.037891 -0.096746
v -0.155154 0.025725 -0.094507
v -0.156361 0.025756 -0.093442
v -0.151966 0.013307 -0.092593
v -0.150846 0.013680 -0.093733
v -0.146107 0.001304 -0.094498
v -0.145246 0.002146 -0.095633
v -0.139300 -0.009239 -0.099132
v -0.138611 -0.008196 -0.100091
v -0.132062 -0.017846 -0.106133
v -0.131546 -0.016448 -0.106892
v -0.124739 -0.023731 -0.115089
v -0.124566 -0.022159 -0.115537
v -0.118018 -0.026558 -0.125308
v -0.118018 -0.024962 -0.125470
v -0.112245 -0.026203 -0.136206
v -0.112418 -0.024597 -0.136012
v -0.107765 -0.022658 -0.147002
v -0.108110 -0.021117 -0.146467
v -0.105008 -0.016055 -0.157013
v -0.105352 -0.014732 -0.156158
v -0.103974 -0.007005 -0.165488
v -0.104404 -0.005974 -0.164330
v -0.104836 0.004121 -0.171716
v -0.105266 0.004810 -0.170400
v -0.082348 0.025762 -0.164125
v -0.086483 0.037370 -0.163839
v -0.091997 0.048826 -0.161529
v -0.098459 0.058925 -0.156616
v -0.070199 0.042772 -0.158922
v -0.075885 0.054443 -0.156505
v -0.082520 0.064744 -0.151417
v -0.089499 0.073043 -0.144043
v -0.105266 0.067024 -0.149416
v -0.065891 0.030540 -0.158390
v -0.064080 0.031427 -0.156478
v -0.068302 0.043331 -0.156921
v -0.073817 0.054710 -0.154624
v -0.080193 0.064796 -0.149641
v -0.087000 0.072882 -0.142372
v -0.096478 0.078725 -0.134837
v -0.112073 0.072530 -0.140523
v -0.060979 0.032150 -0.156570
v -0.062185 0.045338 -0.155954
v -0.067872 0.056995 -0.153470
v -0.074420 0.067358 -0.148300
v -0.081486 0.075633 -0.140789
v -0.088465 0.081364 -0.131435
v -0.093807 0.078375 -0.133410
v -0.057877 0.033107 -0.155423
v -0.094927 0.084079 -0.121445
v -0.100182 0.081040 -0.123572
v -0.102940 0.081414 -0.124711
v -0.118362 0.075093 -0.130558
v -0.100528 0.083640 -0.111339
v -0.105611 0.080677 -0.113452
v -0.108540 0.081061 -0.114236
v -0.123790 0.074704 -0.120302
v -0.128013 0.071254 -0.110409
v -0.104750 0.080176 -0.101377
v -0.109746 0.077190 -0.103777
v -0.112762 0.077521 -0.104288
v -0.115433 0.071128 -0.095375
v -0.130684 0.064960 -0.101620
v -0.131546 0.056374 -0.094339
v -0.107421 0.073782 -0.092463
v -0.112331 0.070986 -0.095044
v -0.108196 0.064928 -0.085014
v -0.113107 0.062323 -0.087776
v -0.116295 0.062274 -0.087926
v -0.115261 0.051580 -0.082334
v -0.130597 0.045886 -0.088997
v -0.107075 0.054248 -0.079492
v -0.112073 0.051986 -0.082409
v -0.104146 0.042417 -0.076137
v -0.109230 0.040498 -0.079210
v -0.112331 0.039764 -0.079049
v -0.127927 0.034397 -0.085799
v -0.123705 0.022580 -0.084988
v -0.118190 0.011350 -0.086836
v -0.104922 0.028683 -0.078399
v -0.107937 0.027719 -0.078275
v -0.099666 0.030375 -0.075364
v -0.099407 0.017438 -0.080179
v -0.102337 0.016096 -0.080118
v -0.094065 0.018826 -0.077194
v -0.093117 0.007399 -0.084589
v -0.095788 0.005830 -0.084564
v -0.111729 0.001311 -0.091245
v -0.104922 -0.006816 -0.097884
v -0.087603 0.008560 -0.081641
v -0.086396 -0.000652 -0.091215
v -0.088895 -0.002423 -0.091366
v -0.080710 0.000232 -0.088455
v -0.079677 -0.006237 -0.099698
v -0.082002 -0.008196 -0.100091
v -0.098201 -0.012401 -0.106367
v -0.091911 -0.015078 -0.116137
v -0.073903 -0.005542 -0.097180
v -0.073472 -0.008990 -0.109481
v -0.075627 -0.010973 -0.110160
v -0.067527 -0.008332 -0.107181
v -0.068216 -0.008587 -0.119805
v -0.070199 -0.010608 -0.120703
v -0.086483 -0.014765 -0.126405
v -0.082348 -0.011338 -0.136585
v -0.062099 -0.007954 -0.117793
v -0.064080 -0.005250 -0.129930
v -0.065977 -0.007128 -0.131158
v -0.057877 -0.004551 -0.128259
v -0.061496 0.000920 -0.139304
v -0.063306 -0.000833 -0.140794
v -0.079763 -0.005156 -0.146030
v -0.078815 0.003474 -0.153939
v -0.055206 0.001823 -0.137883
v -0.060548 0.009548 -0.147215
v -0.062357 0.007988 -0.148884
v -0.054344 0.010642 -0.145974
v -0.061410 0.019900 -0.153073
v -0.063219 0.018683 -0.154899
v -0.079677 0.013914 -0.159855
v -0.055206 0.021337 -0.151988
v -0.112159 0.015607 -0.174491
v -0.111125 0.015362 -0.176086
v -0.115519 0.027951 -0.176841
v -0.116381 0.027561 -0.175209
v -0.121379 0.039952 -0.174512
v -0.121896 0.039107 -0.172955
v -0.128099 0.050569 -0.169443
v -0.128358 0.049295 -0.168097
v -0.135250 0.059007 -0.161974
v -0.135250 0.057406 -0.160966
v -0.142402 0.064689 -0.152770
v -0.142057 0.062836 -0.152085
v -0.149037 0.067325 -0.142368
v -0.148433 0.065398 -0.142120
v -0.154724 0.066818 -0.131496
v -0.153948 0.064908 -0.131740
v -0.159118 0.063111 -0.121079
v -0.158169 0.061356 -0.121722
v -0.161961 0.056563 -0.111767
v -0.160841 0.055100 -0.112715
v -0.162995 0.047504 -0.104069
v -0.161875 0.046348 -0.105390
v -0.162133 0.036571 -0.098447
v -0.161013 0.035922 -0.099968
v -0.159376 0.024589 -0.095118
v -0.158428 0.024359 -0.096782
v -0.154206 0.012617 -0.095959
v -0.154982 0.012304 -0.094313
v -0.148605 0.001311 -0.097819
v -0.149209 0.000542 -0.096250
v -0.142229 -0.008728 -0.102229
v -0.142488 -0.009938 -0.100802
v -0.135337 -0.016855 -0.108866
v -0.135337 -0.018406 -0.107709
v -0.128443 -0.022439 -0.117349
v -0.128099 -0.024242 -0.116515
v -0.122068 -0.025130 -0.127052
v -0.121465 -0.027081 -0.126666
v -0.116553 -0.024816 -0.137321
v -0.115778 -0.026677 -0.137415
v -0.112331 -0.021453 -0.147582
v -0.111383 -0.023159 -0.148074
v -0.109660 -0.015195 -0.157012
v -0.108540 -0.016670 -0.157892
v -0.108713 -0.006552 -0.164990
v -0.107593 -0.007722 -0.166244
v -0.109488 0.003901 -0.170975
v -0.108454 0.003252 -0.172496
v -0.061841 0.051918 -0.118610
v -0.058049 0.042620 -0.117456
v -0.057015 0.042056 -0.120659
v -0.061583 0.050005 -0.115956
v -0.067700 0.056824 -0.111087
v -0.065977 0.053631 -0.110341
v -0.071233 0.053926 -0.102446
v -0.068562 0.051466 -0.103911
v -0.070285 0.044810 -0.097727
v -0.067872 0.044699 -0.100432
v -0.064340 0.037363 -0.101780
v -0.065459 0.034982 -0.099557
v -0.060031 0.033724 -0.107327
v -0.059686 0.030063 -0.107011
v -0.057447 0.035915 -0.113894
v -0.056154 0.032990 -0.115789
v -0.069250 0.037388 -0.127787
v -0.071749 0.043603 -0.127543
v -0.074937 0.049135 -0.125360
v -0.078470 0.052985 -0.121333
v -0.081916 0.054931 -0.116347
v -0.084501 0.054229 -0.111020
v -0.086052 0.051415 -0.106112
v -0.086138 0.046508 -0.102537
v -0.084932 0.040648 -0.100533
v -0.082520 0.034496 -0.100697
v -0.079331 0.028987 -0.102593
v -0.075799 0.025187 -0.106471
v -0.072438 0.023242 -0.111456
v -0.069854 0.023957 -0.116852
v -0.068302 0.026720 -0.121910
v -0.068130 0.031501 -0.125647
v -0.126548 0.013766 -0.145107
v -0.127496 0.018815 -0.146961
v -0.119311 0.021594 -0.143888
v -0.118276 0.016469 -0.142046
v -0.126720 0.009619 -0.141831
v -0.118449 0.012398 -0.138758
v -0.128099 0.007150 -0.137501
v -0.119828 0.009854 -0.134440
v -0.130425 0.006654 -0.132848
v -0.122154 0.009358 -0.129786
v -0.133441 0.008187 -0.128566
v -0.125083 0.010891 -0.125505
v -0.136544 0.011561 -0.125324
v -0.128186 0.014265 -0.122263
v -0.139300 0.016234 -0.123566
v -0.131029 0.018938 -0.120505
v -0.141368 0.021475 -0.123552
v -0.133010 0.024255 -0.120478
v -0.134044 0.029369 -0.122251
v -0.142316 0.026588 -0.125324
v -0.133786 0.033424 -0.125470
v -0.142144 0.030734 -0.128600
v -0.132408 0.035957 -0.129720
v -0.140765 0.033265 -0.132849
v -0.130081 0.036528 -0.134362
v -0.138439 0.033761 -0.137503
v -0.127152 0.034933 -0.138724
v -0.135423 0.032229 -0.141784
v -0.124050 0.031572 -0.142034
v -0.132321 0.028880 -0.145163
v -0.121293 0.026836 -0.143873
v -0.129564 0.024144 -0.147003
v -0.068562 0.045587 -0.096469
v -0.063564 0.035216 -0.098317
v -0.057447 0.030059 -0.106163
v -0.053828 0.033151 -0.115409
v -0.054690 0.042650 -0.120489
v -0.059686 0.053044 -0.118353
v -0.065891 0.058188 -0.110438
v -0.069595 0.055059 -0.101412
v -0.082692 0.034078 -0.098504
v -0.085535 0.041092 -0.098339
v -0.083467 0.041188 -0.099666
v -0.080969 0.034959 -0.099843
v -0.079073 0.027685 -0.100687
v -0.077780 0.029388 -0.101820
v -0.075023 0.023292 -0.105157
v -0.074162 0.025449 -0.105792
v -0.071146 0.021085 -0.110821
v -0.070715 0.023503 -0.110776
v -0.068216 0.021881 -0.117052
v -0.068130 0.024169 -0.116322
v -0.066407 0.025092 -0.122815
v -0.066493 0.027020 -0.121437
v -0.066235 0.030612 -0.127136
v -0.066407 0.031968 -0.125217
v -0.067527 0.037335 -0.129564
v -0.056585 0.028649 -0.111910
v -0.055034 0.031386 -0.116831
v -0.054948 0.036081 -0.120510
v -0.056068 0.041865 -0.122527
v -0.067527 0.037942 -0.127414
v -0.059084 0.027947 -0.106581
v -0.058480 0.047839 -0.122250
v -0.070026 0.044158 -0.127168
v -0.062357 0.029844 -0.101747
v -0.065804 0.033594 -0.098019
v -0.068906 0.039014 -0.096065
v -0.071405 0.045015 -0.095927
v -0.073300 0.049842 -0.124960
v -0.070371 0.044397 -0.129249
v -0.076919 0.053756 -0.120853
v -0.073990 0.050827 -0.126848
v -0.065115 0.057069 -0.116065
v -0.080365 0.055688 -0.115798
v -0.078125 0.055180 -0.122173
v -0.068389 0.058978 -0.111298
v -0.083036 0.054972 -0.110404
v -0.070973 0.058315 -0.106178
v -0.084587 0.052147 -0.105426
v -0.072524 0.055528 -0.101404
v -0.084673 0.047225 -0.101782
v -0.072524 0.050797 -0.097943
v -0.082088 0.057451 -0.116427
v -0.085018 0.056605 -0.110347
v -0.086828 0.053421 -0.104721
v -0.086914 0.047801 -0.100698
v -0.088379 0.060548 -0.106799
v -0.083553 0.062505 -0.117079
v -0.076833 0.058220 -0.126620
v -0.070026 0.048774 -0.132911
v -0.065029 0.036829 -0.133888
v -0.077178 0.062706 -0.121006
v -0.070026 0.055475 -0.129475
v -0.063736 0.044106 -0.133468
v -0.083381 0.063937 -0.110624
v -0.086828 0.058854 -0.100787
v -0.090016 0.052928 -0.098440
v -0.086656 0.048800 -0.094032
v -0.088034 0.041597 -0.094015
v -0.082864 0.036446 -0.092035
v -0.083036 0.029676 -0.094705
v -0.076660 0.025199 -0.095442
v -0.076316 0.020367 -0.100478
v -0.072870 0.017531 -0.104904
v -0.069595 0.017966 -0.103488
v -0.067011 0.016288 -0.115216
v -0.064856 0.017988 -0.120449
v -0.063133 0.025611 -0.129232
v -0.060118 0.031764 -0.131541
v -0.060031 0.021708 -0.124361
v -0.061410 0.018502 -0.119446
v -0.066321 0.016515 -0.108605
v -0.101561 0.042877 -0.076911
v -0.109144 0.016562 -0.173343
v -0.106559 0.004869 -0.169896
v -0.105697 -0.005584 -0.163913
v -0.106645 -0.014226 -0.155934
v -0.109316 -0.020408 -0.146491
v -0.113538 -0.023848 -0.136242
v -0.119052 -0.024161 -0.125974
v -0.125428 -0.021470 -0.116272
v -0.132321 -0.015886 -0.107789
v -0.139214 -0.007759 -0.101150
v -0.145676 0.002279 -0.096741
v -0.151190 0.013587 -0.094879
v -0.155412 0.025404 -0.095692
v -0.157997 0.036878 -0.098822
v -0.158859 0.047378 -0.104231
v -0.157911 0.056056 -0.111568
v -0.155154 0.062387 -0.120562
v -0.150931 0.065864 -0.130593
v -0.145503 0.066354 -0.140973
v -0.139127 0.063791 -0.150938
v -0.132235 0.058362 -0.159819
v -0.125428 0.050250 -0.166950
v -0.118966 0.040063 -0.171808
v -0.113366 0.028516 -0.174061
v -0.123705 0.023735 -0.131307
v -0.080796 0.037848 -0.115414
v -0.148088 0.037570 -0.124223
v -0.141885 0.042758 -0.139132
v -0.146796 0.022141 -0.115948
v -0.131717 0.034580 -0.152070
v -0.123619 0.017710 -0.155130
v -0.122326 0.002201 -0.146445
v -0.128530 -0.002785 -0.131361
v -0.138697 0.005473 -0.118834
vn 0.9329 0.2188 -0.2861
vn 0.7958 0.3421 -0.4997
vn 0.8566 0.1589 -0.4909
vn 0.7486 0.3256 -0.5775
vn 0.7271 0.5122 -0.4571
vn 0.6608 0.5214 -0.5399
vn 0.6273 0.6726 -0.3925
vn 0.5589 0.6885 -0.4621
vn 0.5399 0.7982 -0.2672
vn 0.4656 0.8234 -0.3245
vn 0.4376 0.8917 -0.1158
vn 0.3469 0.9224 -0.1700
vn 0.3340 0.9407 0.0594
vn 0.2431 0.9697 0.0236
vn 0.2494 0.9328 0.2601
vn 0.1602 0.9572 0.2409
vn 0.1987 0.8596 0.4707
vn 0.0966 0.8807 0.4636
vn 0.1678 0.7322 0.6601
vn 0.0395 0.7453 0.6656
vn 0.1345 0.5760 0.8063
vn 0.0166 0.5716 0.8204
vn 0.1388 0.4081 0.9023
vn 0.0377 0.3880 0.9209
vn 0.1806 0.2172 0.9593
vn -0.1414 0.1260 0.9819
vn 0.1443 -0.0014 0.9895
vn 0.2469 0.0274 0.9687
vn 0.2268 -0.1718 0.9587
vn 0.3262 -0.1254 0.9369
vn 0.3196 -0.3291 0.8886
vn 0.4020 -0.2777 0.8725
vn 0.4117 -0.4764 0.7769
vn 0.4969 -0.4070 0.7664
vn 0.5321 -0.5736 0.6228
vn 0.6096 -0.4926 0.6211
vn 0.6471 -0.6295 0.4301
vn 0.7101 -0.5483 0.4418
vn 0.7412 -0.6375 0.2101
vn 0.8032 -0.5475 0.2347
vn 0.8228 -0.5680 -0.0161
vn 0.8739 -0.4856 0.0204
vn 0.8622 -0.4504 -0.2319
vn 0.9098 -0.3738 -0.1806
vn 0.8742 -0.2749 -0.4003
vn 0.9228 -0.2001 -0.3292
vn 0.8608 -0.0606 -0.5053
vn 0.9016 -0.0157 -0.4322
vn 0.3555 -0.0554 -0.9330
vn 0.2580 0.2442 -0.9348
vn 0.1768 0.4405 -0.8802
vn 0.0783 0.6281 -0.7742
vn 0.4641 0.2272 -0.8562
vn 0.3696 0.4373 -0.8198
vn 0.2642 0.6280 -0.7320
vn 0.1615 0.7900 -0.5914
vn -0.0301 0.7835 -0.6207
vn 0.5377 0.0133 -0.8430
vn 0.5093 0.0046 -0.8606
vn 0.3257 0.2383 -0.9149
vn 0.2874 0.4881 -0.8241
vn 0.1846 0.6732 -0.7160
vn 0.0830 0.8264 -0.5569
vn 0.0584 0.9127 -0.4045
vn -0.1427 0.8941 -0.4246
vn 0.1865 -0.1087 -0.9764
vn 0.6268 0.2982 -0.7198
vn 0.6372 0.5184 -0.5703
vn 0.4206 0.6755 -0.6056
vn 0.4447 0.8228 -0.3540
vn 0.2068 0.9318 -0.2984
vn -0.0254 0.9303 -0.3659
vn 0.8990 0.1957 -0.3919
vn 0.2369 0.9715 0.0005
vn -0.1375 0.9806 -0.1399
vn -0.0499 0.9810 -0.1875
vn -0.2529 0.9479 -0.1939
vn -0.0125 0.9893 0.1454
vn -0.2332 0.9635 0.1312
vn -0.1484 0.9868 0.0654
vn -0.3508 0.9340 0.0680
vn -0.4206 0.8395 0.3440
vn 0.0572 0.8924 0.4477
vn -0.3053 0.8630 0.4024
vn -0.2207 0.9136 0.3415
vn -0.2682 0.7652 0.5852
vn -0.4517 0.6709 0.5882
vn -0.4453 0.4584 0.7692
vn -0.1467 0.7652 0.6268
vn -0.3425 0.6920 0.6355
vn 0.0004 0.5790 0.8153
vn -0.3362 0.4832 0.8084
vn -0.2794 0.5686 0.7737
vn -0.2573 0.3536 0.8993
vn -0.4104 0.2332 0.8816
vn -0.0586 0.3859 0.9207
vn -0.3013 0.2659 0.9157
vn -0.2801 0.0800 0.9566
vn -0.2631 0.0861 0.9609
vn -0.2050 0.1058 0.9730
vn -0.3660 0.0532 0.9291
vn -0.3091 -0.1315 0.9419
vn -0.2280 -0.3477 0.9095
vn -0.2108 -0.0920 0.9732
vn -0.1350 -0.1413 0.9807
vn 0.1690 0.0141 0.9855
vn -0.1342 -0.3027 0.9436
vn -0.0512 -0.3454 0.9371
vn 0.2148 -0.1890 0.9582
vn -0.0339 -0.4982 0.8664
vn 0.0532 -0.5307 0.8459
vn -0.1348 -0.5462 0.8267
vn -0.0288 -0.7211 0.6922
vn 0.1789 -0.4455 0.8772
vn 0.0740 -0.6714 0.7374
vn 0.1634 -0.6926 0.7025
vn 0.4066 -0.4989 0.7653
vn 0.1863 -0.8092 0.5571
vn 0.2786 -0.8150 0.5081
vn 0.0839 -0.8586 0.5058
vn 0.1948 -0.9410 0.2768
vn 0.3969 -0.7232 0.5652
vn 0.3000 -0.8961 0.3270
vn 0.3914 -0.8791 0.2721
vn 0.6209 -0.6681 0.4100
vn 0.4075 -0.9103 0.0724
vn 0.4927 -0.8701 0.0144
vn 0.2955 -0.9552 0.0160
vn 0.3730 -0.8928 -0.2525
vn 0.7247 -0.6660 0.1765
vn 0.4833 -0.8539 -0.1931
vn 0.5596 -0.7907 -0.2485
vn 0.6871 -0.7103 -0.1531
vn 0.5344 -0.7203 -0.4422
vn 0.5995 -0.6377 -0.4837
vn 0.4182 -0.7598 -0.4978
vn 0.4307 -0.5690 -0.7005
vn 0.8455 -0.4681 -0.2569
vn 0.5486 -0.5291 -0.6474
vn 0.5971 -0.4354 -0.6737
vn 0.8580 -0.2764 -0.4329
vn 0.4612 -0.3106 -0.8312
vn 0.5723 -0.2078 -0.7933
vn 0.4128 -0.3592 -0.8370
vn 0.7489 -0.1324 -0.6493
vn -0.9608 -0.2768 -0.0138
vn -0.4171 -0.0908 -0.9043
vn -0.1521 -0.2152 -0.9647
vn -0.8710 -0.3482 0.3466
vn -0.4901 0.0415 -0.8707
vn -0.7934 -0.5111 0.3307
vn -0.5620 0.1601 -0.8115
vn -0.7165 -0.6485 0.2571
vn -0.6329 0.2675 -0.7265
vn -0.6284 -0.7630 0.1517
vn -0.7165 0.3387 -0.6098
vn -0.5312 -0.8469 0.0240
vn -0.8015 0.3740 -0.4667
vn -0.4505 -0.8824 -0.1360
vn -0.8741 0.3789 -0.3040
vn -0.3830 -0.8672 -0.3184
vn -0.9364 0.3237 -0.1357
vn -0.3088 -0.8129 -0.4939
vn -0.9772 0.2112 0.0207
vn -0.2627 -0.7045 -0.6592
vn -0.9843 0.0794 0.1574
vn -0.2586 -0.5593 -0.7876
vn -0.9661 -0.0883 0.2427
vn -0.2711 -0.4159 -0.8681
vn -0.9588 -0.2839 -0.0130
vn -0.0552 -0.1852 -0.9812
vn -0.3738 -0.0878 -0.9233
vn -0.8867 -0.3577 0.2930
vn -0.4247 0.0582 -0.9035
vn -0.8242 -0.5042 0.2577
vn -0.5036 0.1813 -0.8447
vn -0.7440 -0.6353 0.2069
vn -0.5882 0.2949 -0.7530
vn -0.6620 -0.7411 0.1121
vn -0.6803 0.3789 -0.6273
vn -0.5731 -0.8194 -0.0092
vn -0.7701 0.4332 -0.4683
vn -0.4976 -0.8522 -0.1617
vn -0.8515 0.4414 -0.2830
vn -0.4354 -0.8396 -0.3248
vn -0.9183 0.3846 -0.0936
vn -0.3805 -0.7875 -0.4848
vn -0.9584 0.2740 0.0804
vn -0.3449 -0.6980 -0.6276
vn -0.9661 0.1277 0.2246
vn -0.3502 -0.5758 -0.7388
vn -0.9455 -0.0441 0.3226
vn -0.3507 -0.4357 -0.8289
vn -0.6421 -0.6791 0.3557
vn -0.8065 -0.1450 0.5732
vn -0.5182 -0.0356 0.8545
vn -0.1610 -0.7185 0.6767
vn -0.3809 -0.9196 -0.0966
vn 0.2414 -0.9667 0.0856
vn -0.2116 -0.7209 -0.6600
vn 0.4832 -0.5857 -0.6507
vn -0.3168 -0.2410 -0.9173
vn 0.3950 -0.0219 -0.9184
vn 0.1653 0.4836 -0.8595
vn -0.4472 0.2438 -0.8606
vn -0.2245 0.8894 -0.3981
vn -0.7317 0.5098 -0.4525
vn -0.5572 0.7573 0.3405
vn -0.9305 0.3420 0.1309
vn 0.0750 -0.1674 0.9830
vn 0.1370 0.1970 0.9708
vn 0.3569 -0.3259 0.8755
vn 0.3566 -0.6356 0.6847
vn 0.6518 -0.6108 0.4496
vn 0.6711 -0.7411 0.0185
vn 0.8839 -0.4197 -0.2065
vn 0.7620 -0.2353 -0.6033
vn 0.8216 0.1606 -0.5470
vn 0.5817 0.4066 -0.7045
vn 0.5790 0.6902 -0.4340
vn 0.2709 0.8901 -0.3666
vn 0.2778 0.9593 0.0502
vn -0.0269 0.9517 0.3057
vn 0.0892 0.7481 0.6576
vn -0.0984 0.4729 0.8756
vn -0.4126 0.2448 0.8774
vn -0.4042 0.2361 0.8837
vn -0.9345 0.1067 0.3395
vn -0.8774 -0.1762 0.4463
vn -0.4424 0.5672 0.6946
vn -0.4476 0.5733 0.6863
vn -0.9274 0.3546 0.1187
vn -0.4123 0.8417 0.3487
vn -0.4082 0.8375 0.3633
vn -0.8454 0.5036 -0.1781
vn -0.2951 0.9544 -0.0457
vn -0.7115 0.5170 -0.4758
vn -0.1383 0.8975 -0.4188
vn -0.1382 0.8986 -0.4165
vn -0.5619 0.4134 -0.7165
vn 0.0301 0.7068 -0.7068
vn -0.4225 0.2342 -0.8756
vn 0.0301 0.7068 -0.7067
vn 0.1808 0.4380 -0.8806
vn 0.1812 0.4410 -0.8791
vn -0.3118 0.0187 -0.9500
vn 0.3084 0.1242 -0.9431
vn -0.2311 -0.2269 -0.9461
vn 0.3605 -0.0544 -0.9312
vn -0.1827 -0.4858 -0.8548
vn 0.4062 -0.2312 -0.8841
vn -0.2401 -0.3574 -0.9026
vn -0.2400 -0.3574 -0.9026
vn 0.4477 -0.5733 -0.6863
vn -0.1876 -0.7164 -0.6720
vn 0.4426 -0.5672 -0.6946
vn 0.4066 -0.8367 -0.3668
vn -0.2524 -0.8756 -0.4118
vn 0.4067 -0.8368 -0.3665
vn 0.2959 -0.9547 0.0308
vn -0.3675 -0.9231 -0.1136
vn 0.2979 -0.9534 0.0472
vn 0.1386 -0.8965 0.4208
vn -0.5047 -0.8501 0.1502
vn 0.1384 -0.8975 0.4188
vn -0.0258 -0.7135 0.7002
vn -0.6469 -0.6843 0.3365
vn -0.0265 -0.7221 0.6913
vn -0.1853 -0.4476 0.8748
vn -0.7777 -0.4488 0.4401
vn -0.1853 -0.4478 0.8747
vn -0.3162 -0.1222 0.9408
vn -0.3148 -0.1147 0.9422
vn 0.7215 0.3178 0.6152
vn 0.7303 0.1320 0.6703
vn 0.8606 -0.0079 0.5093
vn 0.9680 0.0315 0.2489
vn 0.9597 0.2709 -0.0749
vn 0.7348 0.6713 -0.0966
vn 0.7041 0.6112 0.3615
vn 0.6378 0.4890 0.5950
vn 0.7169 0.2455 0.6525
vn 0.1127 0.1919 0.9749
vn 0.7481 0.3200 0.5814
vn 0.2228 -0.1161 0.9679
vn 0.7411 0.1484 0.6548
vn 0.3614 -0.3558 0.8618
vn 0.8173 0.1502 0.5563
vn 0.5034 -0.5380 0.6761
vn 0.8571 0.0352 0.5139
vn 0.6744 -0.6322 0.3814
vn 0.8997 0.1292 0.4169
vn 0.8029 -0.5935 0.0556
vn 0.9509 0.0904 0.2961
vn 0.8752 -0.4015 -0.2698
vn 0.9470 0.2062 0.2465
vn 0.8640 -0.1228 -0.4882
vn 0.9485 0.2996 0.1026
vn 0.6471 -0.7614 0.0387
vn 0.6605 -0.6532 -0.3703
vn 0.7324 -0.3008 -0.6109
vn 0.5481 0.0329 -0.8358
vn 0.8024 0.1432 -0.5793
vn 0.4214 -0.8206 0.3861
vn 0.4930 0.4361 -0.7528
vn 0.6999 0.4067 -0.5872
vn 0.3233 -0.6290 0.7070
vn 0.0844 -0.4429 0.8926
vn 0.0336 -0.1350 0.9903
vn -0.0858 0.1343 0.9872
vn 0.5850 0.6773 -0.4461
vn 0.8936 0.4059 0.1914
vn 0.4537 0.8403 -0.2968
vn 0.8397 0.5079 0.1924
vn 0.1876 0.9004 -0.3926
vn 0.2875 0.9576 -0.0182
vn 0.7945 0.5278 0.3002
vn -0.0120 0.9974 -0.0717
vn 0.1603 0.9335 0.3207
vn -0.0448 0.9370 0.3466
vn 0.0885 0.7767 0.6236
vn -0.1958 0.7120 0.6743
vn 0.0590 0.5100 0.8582
vn -0.1053 0.4275 0.8979
vn 0.7524 0.5256 0.3971
vn 0.7194 0.5009 0.4812
vn 0.6574 0.4710 0.5882
vn 0.6821 0.3798 0.6249
vn 0.9548 -0.1772 0.2385
vn 0.8007 -0.3302 0.4998
vn 0.6444 -0.2179 0.7330
vn 0.5921 0.0525 0.8042
vn 0.5108 0.2824 0.8120
vn 0.8152 -0.0199 0.5788
vn 0.7400 0.0891 0.6667
vn 0.6777 0.2260 0.6997
vn 0.9050 -0.0588 0.4214
vn 0.9739 0.0220 0.2259
vn 0.9925 -0.0552 -0.1089
vn 0.9496 0.2293 0.2135
vn 0.8905 0.1990 -0.4092
vn 0.9121 0.3844 -0.1429
vn 0.8246 0.5219 -0.2182
vn 0.8367 0.5345 0.1195
vn 0.7274 0.6862 -0.0083
vn 0.4758 0.8794 0.0163
vn 0.7677 0.6080 0.2025
vn 0.5334 0.7655 0.3598
vn 0.2781 0.7872 0.5504
vn 0.4744 0.5168 0.7126
vn 0.6330 0.3808 0.6740
vn 0.5176 0.5871 0.6224
vn 0.6424 0.6158 0.4562
vn 0.6169 0.7354 0.2805
vn 0.4623 0.2873 0.8389
vn -0.7578 -0.1029 0.6444
vn -0.9727 -0.0143 0.2317
vn -0.8986 0.2960 0.3239
vn -0.8817 0.4503 0.1406
vn -0.9162 0.3543 -0.1873
vn -0.7472 0.5956 -0.2949
vn -0.6535 0.5663 -0.5022
vn -0.6780 0.3042 -0.6692
vn -0.4609 0.3660 -0.8085
vn -0.3766 0.2244 -0.8988
vn -0.4632 -0.0264 -0.8858
vn -0.2397 -0.0929 -0.9664
vn -0.3791 -0.2623 -0.8874
vn -0.1610 -0.3497 -0.9229
vn -0.3234 -0.5032 -0.8014
vn -0.1287 -0.6854 -0.7167
vn -0.1546 -0.8308 -0.5347
vn -0.4056 -0.8269 -0.3895
vn -0.3010 -0.9453 -0.1261
vn -0.3899 -0.9186 0.0642
vn -0.6353 -0.7700 0.0579
vn -0.5886 -0.7207 0.3663
vn -0.6792 -0.5714 0.4607
vn -0.8651 -0.4116 0.2867
vn -0.8335 -0.3196 -0.4507
vn 0.8398 0.3187 0.4395
vn -0.7859 -0.3629 -0.5006
vn -0.7881 -0.3708 -0.4913
vn -0.7881 -0.3706 -0.4915
vn -0.7902 -0.3785 -0.4820
vn -0.7871 -0.4023 -0.4675
vn -0.8636 -0.2593 -0.4324
vn -0.8442 -0.2464 -0.4761
vn -0.8635 -0.3179 -0.3917
vn -0.7693 -0.3508 -0.5340
vn -0.7821 -0.3285 -0.5296
vn -0.8126 -0.3898 -0.4334
vn -0.8068 -0.3895 -0.4442
vn -0.8066 -0.3895 -0.4446
vn -0.8128 -0.3897 -0.4331
vn -0.8252 -0.4081 -0.3906
vn -0.8153 -0.2742 -0.5099
vn -0.8377 -0.3830 -0.3894
vn -0.8480 -0.3700 -0.3795
vn -0.8482 -0.3698 -0.3793
vn -0.8583 -0.3564 -0.3692
vn -0.8662 -0.3513 -0.3554
vn -0.8026 -0.3198 -0.5035
vn -0.8668 -0.3392 -0.3655
vn -0.8764 -0.3022 -0.3750
vn -0.7941 -0.3644 -0.4864
vn -0.8859 -0.2807 -0.3693
vn -0.8741 -0.2642 -0.4077
vn -0.8740 -0.2640 -0.4079
vn -0.8772 -0.2747 -0.3938
vn -0.8706 -0.2534 -0.4217
vn -0.8088 -0.3876 -0.4423
vn -0.8707 -0.2307 -0.4344
vn -0.8446 -0.2446 -0.4763
vn -0.8569 -0.2436 -0.4543
vn -0.8317 -0.2454 -0.4980
vn -0.8346 -0.3739 -0.4045
vn -0.8250 -0.2388 -0.5122
vn -0.8111 -0.2676 -0.5201
vn -0.8113 -0.2673 -0.5200
vn -0.8180 -0.2585 -0.5139
vn -0.8042 -0.2764 -0.5262
vn -0.7845 -0.2859 -0.5502
vn -0.7867 -0.3089 -0.5345
vt 0.975400 0.326600
vt 0.971800 0.354400
vt 0.971800 0.326600
vt 0.975400 0.354400
vt 0.971800 0.382300
vt 0.975200 0.381800
vt 0.971800 0.410100
vt 0.975200 0.409800
vt 0.971800 0.438000
vt 0.975400 0.438000
vt 0.971800 0.465800
vt 0.975400 0.465800
vt 0.971800 0.493700
vt 0.975400 0.493700
vt 0.971800 0.521600
vt 0.975400 0.521600
vt 0.971800 0.549400
vt 0.975400 0.549400
vt 0.971800 0.577300
vt 0.975600 0.578300
vt 0.971800 0.605100
vt 0.975600 0.605700
vt 0.971800 0.633000
vt 0.975600 0.633000
vt 0.971800 0.660800
vt 0.975400 0.660800
vt 0.975400 0.688700
vt 0.971800 0.688700
vt 0.975400 0.716500
vt 0.971800 0.716500
vt 0.975400 0.744400
vt 0.971800 0.744400
vt 0.975400 0.772200
vt 0.971800 0.772200
vt 0.975400 0.800100
vt 0.971800 0.800100
vt 0.975400 0.827900
vt 0.971800 0.827900
vt 0.975400 0.855800
vt 0.971800 0.855800
vt 0.975400 0.883700
vt 0.971800 0.883700
vt 0.975400 0.911500
vt 0.971800 0.911500
vt 0.975400 0.939400
vt 0.971800 0.939400
vt 0.975400 0.967200
vt 0.971800 0.967200
vt 0.975600 0.995900
vt 0.971800 0.995100
vt 0.911600 0.326600
vt 0.911500 0.354400
vt 0.911500 0.382300
vt 0.911500 0.410100
vt 0.875200 0.354400
vt 0.875200 0.382300
vt 0.875200 0.410100
vt 0.875200 0.438000
vt 0.911500 0.438000
vt 0.875200 0.326600
vt 0.869000 0.326600
vt 0.869000 0.354400
vt 0.869000 0.382300
vt 0.869000 0.410100
vt 0.869000 0.438000
vt 0.875200 0.465800
vt 0.911500 0.465800
vt 0.862800 0.326600
vt 0.855900 0.354400
vt 0.855900 0.382300
vt 0.855900 0.410100
vt 0.855900 0.438000
vt 0.855900 0.465800
vt 0.869000 0.465800
vt 0.855900 0.326600
vt 0.855900 0.493700
vt 0.869000 0.493700
vt 0.875200 0.493700
vt 0.911500 0.493700
vt 0.855900 0.521600
vt 0.869000 0.521600
vt 0.875200 0.521600
vt 0.911500 0.521600
vt 0.911500 0.549400
vt 0.855800 0.550300
vt 0.869000 0.549400
vt 0.875200 0.549400
vt 0.875200 0.577300
vt 0.911500 0.577300
vt 0.911500 0.605100
vt 0.855900 0.577300
vt 0.869000 0.577300
vt 0.855900 0.605100
vt 0.869000 0.605100
vt 0.875200 0.605100
vt 0.875200 0.633000
vt 0.911500 0.633000
vt 0.855900 0.633000
vt 0.869000 0.633000
vt 0.855900 0.660800
vt 0.869000 0.660800
vt 0.875200 0.660800
vt 0.911500 0.660800
vt 0.911500 0.688700
vt 0.911500 0.716500
vt 0.869000 0.688700
vt 0.875200 0.688700
vt 0.855900 0.688700
vt 0.868700 0.716100
vt 0.875200 0.716500
vt 0.855900 0.716500
vt 0.869000 0.744400
vt 0.875200 0.744400
vt 0.911500 0.744400
vt 0.911500 0.772200
vt 0.855900 0.744400
vt 0.869000 0.772200
vt 0.875200 0.772200
vt 0.855900 0.772200
vt 0.869000 0.800100
vt 0.875200 0.800100
vt 0.911500 0.800100
vt 0.911500 0.827900
vt 0.855900 0.800100
vt 0.869000 0.827900
vt 0.875200 0.827900
vt 0.855900 0.827900
vt 0.869000 0.855800
vt 0.875200 0.855800
vt 0.911500 0.855800
vt 0.911500 0.883700
vt 0.855900 0.855800
vt 0.869000 0.883700
vt 0.875200 0.883700
vt 0.855900 0.883700
vt 0.869000 0.911500
vt 0.875200 0.911500
vt 0.911500 0.911500
vt 0.911500 0.939400
vt 0.855900 0.911500
vt 0.869000 0.939400
vt 0.875200 0.939400
vt 0.855900 0.939400
vt 0.869000 0.967200
vt 0.875200 0.967200
vt 0.911500 0.967200
vt 0.911600 0.995100
vt 0.855900 0.967200
vt 0.862800 0.995100
vt 0.869000 0.995100
vt 0.875200 0.995100
vt 0.855900 0.995100
vt 0.987600 0.326600
vt 0.983200 0.354400
vt 0.983200 0.326600
vt 0.987600 0.354400
vt 0.983200 0.382300
vt 0.987600 0.382300
vt 0.983200 0.410100
vt 0.987600 0.410100
vt 0.983200 0.438000
vt 0.987600 0.438000
vt 0.983200 0.465800
vt 0.987600 0.465800
vt 0.983200 0.493700
vt 0.987600 0.493700
vt 0.983200 0.521600
vt 0.987600 0.521600
vt 0.983200 0.549400
vt 0.987600 0.549400
vt 0.983200 0.577300
vt 0.988300 0.578300
vt 0.983200 0.605100
vt 0.987600 0.605100
vt 0.983200 0.633000
vt 0.987600 0.633000
vt 0.983200 0.660800
vt 0.987600 0.660800
vt 0.988300 0.687800
vt 0.983200 0.688700
vt 0.987600 0.716500
vt 0.983200 0.716500
vt 0.987600 0.744400
vt 0.983200 0.744400
vt 0.987600 0.772200
vt 0.983200 0.772200
vt 0.987600 0.800100
vt 0.983200 0.800100
vt 0.987600 0.827900
vt 0.983200 0.827900
vt 0.987600 0.855800
vt 0.983200 0.855800
vt 0.987600 0.883700
vt 0.983200 0.883700
vt 0.987600 0.911500
vt 0.983200 0.911500
vt 0.987600 0.939400
vt 0.983200 0.939400
vt 0.987600 0.967200
vt 0.983200 0.967200
vt 0.988300 0.995900
vt 0.983200 0.995100
vt 0.687000 0.825900
vt 0.687000 0.802400
vt 0.695300 0.802400
vt 0.695300 0.825900
vt 0.687000 0.850100
vt 0.695300 0.850100
vt 0.687000 0.874400
vt 0.695300 0.874400
vt 0.687000 0.897900
vt 0.695300 0.897900
vt 0.695300 0.921400
vt 0.687000 0.921400
vt 0.695300 0.945700
vt 0.687000 0.945700
vt 0.695300 0.969900
vt 0.687000 0.969900
vt 0.695300 0.993400
vt 0.687000 0.993400
vt 0.654600 0.813900
vt 0.654600 0.802400
vt 0.654600 0.825900
vt 0.654600 0.838000
vt 0.654600 0.850100
vt 0.654600 0.862300
vt 0.654600 0.874400
vt 0.654600 0.886300
vt 0.654600 0.897900
vt 0.654600 0.909500
vt 0.654600 0.921400
vt 0.654600 0.933500
vt 0.654600 0.945700
vt 0.654600 0.957800
vt 0.654600 0.969900
vt 0.654600 0.981900
vt 0.654600 0.993400
vt 0.021000 0.328400
vt 0.009200 0.348000
vt 0.009200 0.328400
vt 0.021000 0.348000
vt 0.032800 0.328400
vt 0.032800 0.348000
vt 0.044600 0.328400
vt 0.044600 0.348000
vt 0.056400 0.328400
vt 0.056400 0.348000
vt 0.068200 0.328400
vt 0.068200 0.348000
vt 0.080000 0.328400
vt 0.080000 0.348000
vt 0.091800 0.328400
vt 0.091800 0.348000
vt 0.103600 0.328400
vt 0.103600 0.348000
vt 0.115400 0.348000
vt 0.115400 0.328400
vt 0.127200 0.348000
vt 0.127200 0.328400
vt 0.139000 0.348000
vt 0.139000 0.328400
vt 0.150800 0.348000
vt 0.150800 0.328400
vt 0.162600 0.348000
vt 0.162600 0.328400
vt 0.174400 0.348000
vt 0.174400 0.328400
vt 0.186200 0.348000
vt 0.186200 0.328400
vt 0.198000 0.348000
vt 0.198000 0.328400
vt 0.383100 0.368200
vt 0.358500 0.356500
vt 0.383100 0.356500
vt 0.358500 0.368200
vt 0.332900 0.356500
vt 0.332900 0.368200
vt 0.307300 0.356500
vt 0.307300 0.368200
vt 0.282700 0.356500
vt 0.282700 0.368200
vt 0.258100 0.368200
vt 0.258100 0.356500
vt 0.232500 0.368200
vt 0.232500 0.356500
vt 0.206900 0.368200
vt 0.206900 0.356500
vt 0.182300 0.368200
vt 0.182300 0.356500
vt 0.370900 0.411300
vt 0.383100 0.407800
vt 0.383100 0.411300
vt 0.370900 0.407800
vt 0.358500 0.411300
vt 0.358500 0.407800
vt 0.345800 0.411300
vt 0.345800 0.407800
vt 0.332900 0.411300
vt 0.332900 0.407800
vt 0.320000 0.411300
vt 0.320000 0.407800
vt 0.307300 0.411300
vt 0.307300 0.407800
vt 0.294900 0.411300
vt 0.294900 0.407800
vt 0.282700 0.411300
vt 0.320000 0.378000
vt 0.307300 0.378000
vt 0.294900 0.378000
vt 0.282700 0.378000
vt 0.282700 0.407800
vt 0.332900 0.378000
vt 0.270500 0.378000
vt 0.270500 0.407800
vt 0.345800 0.378000
vt 0.358500 0.378000
vt 0.370900 0.378000
vt 0.383100 0.378000
vt 0.258100 0.407800
vt 0.270500 0.411300
vt 0.245400 0.407800
vt 0.258100 0.411300
vt 0.245400 0.378000
vt 0.232500 0.407800
vt 0.245400 0.411300
vt 0.232500 0.378000
vt 0.219600 0.407800
vt 0.219600 0.378000
vt 0.206900 0.407800
vt 0.206900 0.378000
vt 0.194500 0.407800
vt 0.194500 0.378000
vt 0.182300 0.407800
vt 0.182300 0.378000
vt 0.232500 0.411300
vt 0.219600 0.411300
vt 0.206900 0.411300
vt 0.194500 0.411300
vt 0.182300 0.411300
vt 0.900900 0.202400
vt 0.912900 0.207800
vt 0.899000 0.217200
vt 0.908200 0.183100
vt 0.897800 0.187900
vt 0.891700 0.163300
vt 0.888800 0.176100
vt 0.867600 0.154500
vt 0.876300 0.168000
vt 0.861500 0.166100
vt 0.842100 0.158800
vt 0.846900 0.169200
vt 0.906600 0.167700
vt 0.882600 0.150800
vt 0.853400 0.148200
vt 0.918800 0.194300
vt 0.916200 0.223500
vt 0.903600 0.232600
vt 0.899200 0.247500
vt 0.883900 0.249200
vt 0.872600 0.259800
vt 0.858400 0.253500
vt 0.843400 0.257100
vt 0.890900 0.229700
vt 0.879000 0.238800
vt 0.864500 0.241900
vt 0.834300 0.244600
vt 0.849700 0.239900
vt 0.837200 0.231800
vt 0.824700 0.235700
vt 0.819400 0.240200
vt 0.813900 0.212400
vt 0.828100 0.220000
vt 0.825000 0.205500
vt 0.813400 0.199400
vt 0.822300 0.175300
vt 0.827000 0.190700
vt 0.835100 0.178200
vt 0.826800 0.160400
vt 0.809800 0.184400
vt 0.806500 0.198800
vt 0.811500 0.227700
vt 0.907600 0.300600
vt 0.909000 0.306000
vt 0.881600 0.314000
vt 0.852600 0.315100
vt 0.824200 0.308600
vt 0.798500 0.295000
vt 0.934600 0.289500
vt 0.954300 0.268200
vt 0.967800 0.242400
vt 0.974200 0.214000
vt 0.910700 0.305200
vt 0.973000 0.184900
vt 0.964300 0.157100
vt 0.948800 0.132500
vt 0.927300 0.112800
vt 0.901600 0.099200
vt 0.873100 0.092800
vt 0.844100 0.094000
vt 0.816200 0.102600
vt 0.791600 0.118200
vt 0.771800 0.139600
vt 0.758300 0.165300
vt 0.751800 0.193700
vt 0.752900 0.222800
vt 0.761600 0.250600
vt 0.777100 0.275300
vt 0.994600 0.995900
vt 0.994300 0.967200
vt 0.994300 0.939400
vt 0.994300 0.911500
vt 0.994300 0.883700
vt 0.994300 0.855800
vt 0.994300 0.827900
vt 0.994300 0.800100
vt 0.994300 0.772200
vt 0.994300 0.744400
vt 0.994300 0.716500
vt 0.994600 0.687800
vt 0.994600 0.660400
vt 0.994300 0.633000
vt 0.994600 0.605700
vt 0.994300 0.577300
vt 0.994300 0.549400
vt 0.994300 0.521600
vt 0.994300 0.493700
vt 0.994300 0.465800
vt 0.994300 0.438000
vt 0.994300 0.410100
vt 0.995200 0.381800
vt 0.994300 0.354400
vt 0.994300 0.326600
vt 0.863600 0.204700
vt 0.841100 0.182400
vt 0.851400 0.175500
vt 0.863600 0.173000
vt 0.875800 0.175500
vt 0.886100 0.182400
vt 0.892900 0.192700
vt 0.895300 0.204700
vt 0.892900 0.216700
vt 0.834300 0.192700
vt 0.831900 0.204700
vt 0.834300 0.216700
vt 0.841100 0.226900
vt 0.851400 0.233900
vt 0.863600 0.236300
vt 0.875800 0.233900
vt 0.886100 0.226900
vt 0.361600 0.697300
vt 0.398800 0.698100
vt 0.395900 0.683800
vt 0.388200 0.671300
vt 0.375900 0.663300
vt 0.361700 0.660100
vt 0.347700 0.663200
vt 0.335600 0.670700
vt 0.327800 0.682600
vt 0.395400 0.712000
vt 0.387600 0.723900
vt 0.375500 0.731400
vt 0.361500 0.734500
vt 0.347300 0.731300
vt 0.335000 0.723200
vt 0.327300 0.710800
vt 0.324500 0.696500
vt 0.662800 0.087600
vt 0.688100 0.079300
vt 0.672900 0.094400
vt 0.679700 0.104600
vt 0.703400 0.116600
vt 0.752000 0.089600
vt 0.741600 0.064300
vt 0.725100 0.042600
vt 0.703400 0.025900
vt 0.650900 0.063900
vt 0.650900 0.085200
vt 0.682100 0.116600
vt 0.679700 0.128600
vt 0.688100 0.153900
vt 0.741600 0.168900
vt 0.752000 0.143600
vt 0.755500 0.116600
vt 0.672900 0.138800
vt 0.662800 0.145600
vt 0.650900 0.169300
vt 0.678100 0.217900
vt 0.703400 0.207300
vt 0.725100 0.190600
vt 0.650900 0.148000
vt 0.639000 0.145600
vt 0.613800 0.153900
vt 0.623700 0.217900
vt 0.650900 0.221500
vt 0.628900 0.138800
vt 0.622100 0.128600
vt 0.598400 0.116600
vt 0.560200 0.168900
vt 0.576800 0.190600
vt 0.598400 0.207300
vt 0.619700 0.116600
vt 0.622100 0.104600
vt 0.613800 0.079300
vt 0.549800 0.089600
vt 0.546300 0.116600
vt 0.549800 0.143600
vt 0.628900 0.094400
vt 0.639000 0.087600
vt 0.598400 0.025900
vt 0.576800 0.042600
vt 0.560200 0.064300
vt 0.623700 0.015300
vt 0.650900 0.011700
vt 0.678100 0.015300
s 1
usemtl act\gasmask\gasmask_gp7
f 1/1/1 3/2/2 2/3/3
f 1/1/1 4/4/4 3/2/2
f 3/2/2 4/4/4 5/5/5
f 5/5/5 4/4/4 6/6/6
f 7/7/7 5/5/5 6/6/6
f 8/8/8 7/7/7 6/6/6
f 7/7/7 8/8/8 9/9/9
f 9/9/9 8/8/8 10/10/10
f 11/11/11 9/9/9 10/10/10
f 12/12/12 11/11/11 10/10/10
f 12/12/12 13/13/13 11/11/11
f 13/13/13 12/12/12 14/14/14
f 15/15/15 13/13/13 14/14/14
f 16/16/16 15/15/15 14/14/14
f 15/15/15 16/16/16 17/17/17
f 17/17/17 16/16/16 18/18/18
f 19/19/19 17/17/17 18/18/18
f 18/18/18 20/20/20 19/19/19
f 20/20/20 21/21/21 19/19/19
f 20/20/20 22/22/22 21/21/21
f 23/23/23 21/21/21 22/22/22
f 23/23/23 22/22/22 24/24/24
f 25/25/25 23/23/23 24/24/24
f 26/26/26 25/25/25 24/24/24
f 25/25/25 26/26/26 27/27/27
f 28/28/28 25/25/25 27/27/27
f 29/29/29 28/28/28 27/27/27
f 30/30/30 28/28/28 29/29/29
f 29/29/29 31/31/31 30/30/30
f 30/30/30 31/31/31 32/32/32
f 31/31/31 33/33/33 32/32/32
f 34/34/34 32/32/32 33/33/33
f 35/35/35 34/34/34 33/33/33
f 36/36/36 34/34/34 35/35/35
f 35/35/35 37/37/37 36/36/36
f 36/36/36 37/37/37 38/38/38
f 37/37/37 39/39/39 38/38/38
f 40/40/40 38/38/38 39/39/39
f 41/41/41 40/40/40 39/39/39
f 42/42/42 40/40/40 41/41/41
f 41/41/41 43/43/43 42/42/42
f 42/42/42 43/43/43 44/44/44
f 43/43/43 45/45/45 44/44/44
f 46/46/46 44/44/44 45/45/45
f 47/47/47 46/46/46 45/45/45
f 48/48/48 46/46/46 47/47/47
f 1/49/1 48/48/48 47/47/47
f 48/48/48 1/49/1 2/50/3
f 3/2/2 49/51/49 2/3/3
f 50/52/50 49/51/49 3/2/2
f 5/5/5 50/52/50 3/2/2
f 5/5/5 51/53/51 50/52/50
f 7/7/7 51/53/51 5/5/5
f 7/7/7 52/54/52 51/53/51
f 7/7/7 9/9/9 52/54/52
f 50/52/50 53/55/53 49/51/49
f 50/52/50 54/56/54 53/55/53
f 50/52/50 51/53/51 54/56/54
f 51/53/51 55/57/55 54/56/54
f 51/53/51 52/54/52 55/57/55
f 52/54/52 56/58/56 55/57/55
f 52/54/52 57/59/57 56/58/56
f 9/9/9 57/59/57 52/54/52
f 11/11/11 57/59/57 9/9/9
f 49/51/49 53/55/53 58/60/58
f 58/60/58 53/55/53 59/61/59
f 59/61/59 53/55/53 60/62/60
f 53/55/53 54/56/54 60/62/60
f 60/62/60 54/56/54 61/63/61
f 54/56/54 55/57/55 61/63/61
f 61/63/61 55/57/55 62/64/62
f 55/57/55 56/58/56 62/64/62
f 62/64/62 56/58/56 63/65/63
f 56/58/56 64/66/64 63/65/63
f 57/59/57 64/66/64 56/58/56
f 57/59/57 65/67/65 64/66/64
f 65/67/65 57/59/57 11/11/11
f 65/67/65 11/11/11 13/13/13
f 60/62/60 66/68/66 59/61/59
f 66/68/66 60/62/60 67/69/67
f 60/62/60 68/70/68 67/69/67
f 60/62/60 61/63/61 68/70/68
f 61/63/61 69/71/69 68/70/68
f 61/63/61 62/64/62 69/71/69
f 62/64/62 70/72/70 69/71/69
f 62/64/62 63/65/63 70/72/70
f 63/65/63 71/73/71 70/72/70
f 63/65/63 72/74/72 71/73/71
f 63/65/63 64/66/64 72/74/72
f 66/68/66 67/69/67 73/75/73
f 72/74/72 74/76/74 71/73/71
f 72/74/72 75/77/75 74/76/74
f 72/74/72 76/78/76 75/77/75
f 64/66/64 76/78/76 72/74/72
f 65/67/65 76/78/76 64/66/64
f 65/67/65 77/79/77 76/78/76
f 65/67/65 13/13/13 77/79/77
f 15/15/15 77/79/77 13/13/13
f 75/77/75 78/80/78 74/76/74
f 75/77/75 79/81/79 78/80/78
f 75/77/75 80/82/80 79/81/79
f 76/78/76 80/82/80 75/77/75
f 77/79/77 80/82/80 76/78/76
f 77/79/77 81/83/81 80/82/80
f 77/79/77 15/15/15 81/83/81
f 81/83/81 15/15/15 17/17/17
f 81/83/81 17/17/17 82/84/82
f 82/84/82 17/17/17 19/19/19
f 79/81/79 83/85/83 78/80/78
f 79/81/79 84/86/84 83/85/83
f 79/81/79 85/87/85 84/86/84
f 80/82/80 85/87/85 79/81/79
f 81/83/81 85/87/85 80/82/80
f 81/83/81 82/84/82 85/87/85
f 82/84/82 86/88/86 85/87/85
f 82/84/82 87/89/87 86/88/86
f 19/19/19 87/89/87 82/84/82
f 21/21/21 87/89/87 19/19/19
f 21/21/21 88/90/88 87/89/87
f 23/23/23 88/90/88 21/21/21
f 84/86/84 89/91/89 83/85/83
f 84/86/84 90/92/90 89/91/89
f 84/86/84 86/88/86 90/92/90
f 85/87/85 86/88/86 84/86/84
f 90/92/90 91/93/91 89/91/89
f 90/92/90 92/94/92 91/93/91
f 90/92/90 93/95/93 92/94/92
f 86/88/86 93/95/93 90/92/90
f 87/89/87 93/95/93 86/88/86
f 87/89/87 88/90/88 93/95/93
f 88/90/88 94/96/94 93/95/93
f 88/90/88 95/97/95 94/96/94
f 88/90/88 23/23/23 95/97/95
f 25/25/25 95/97/95 23/23/23
f 92/94/92 96/98/96 91/93/91
f 92/94/92 97/99/97 96/98/96
f 92/94/92 94/96/94 97/99/97
f 93/95/93 94/96/94 92/94/92
f 97/99/97 98/100/98 96/98/96
f 97/99/97 99/101/99 98/100/98
f 97/99/97 100/102/100 99/101/99
f 94/96/94 100/102/100 97/99/97
f 95/97/95 100/102/100 94/96/94
f 95/97/95 101/103/101 100/102/100
f 95/97/95 25/25/25 101/103/101
f 101/103/101 25/25/25 102/104/102
f 28/28/28 102/104/102 25/25/25
f 28/28/28 103/105/103 102/104/102
f 30/30/30 103/105/103 28/28/28
f 99/101/99 104/106/104 98/100/98
f 100/102/100 104/106/104 99/101/99
f 100/102/100 105/107/105 104/106/104
f 100/102/100 102/104/102 105/107/105
f 101/103/101 102/104/102 100/102/100
f 98/100/98 104/106/104 106/108/106
f 104/106/104 107/109/107 106/108/106
f 105/107/105 107/109/107 104/106/104
f 105/107/105 108/110/108 107/109/107
f 105/107/105 103/105/103 108/110/108
f 102/104/102 103/105/103 105/107/105
f 106/108/106 107/109/107 109/111/109
f 107/109/107 110/112/110 109/111/109
f 108/110/108 110/112/110 107/109/107
f 108/110/108 111/113/111 110/112/110
f 108/110/108 112/114/112 111/113/111
f 103/105/103 112/114/112 108/110/108
f 103/105/103 30/30/30 112/114/112
f 112/114/112 30/30/30 32/32/32
f 32/32/32 113/115/113 112/114/112
f 113/115/113 32/32/32 34/34/34
f 109/111/109 110/112/110 114/116/114
f 110/112/110 115/117/115 114/116/114
f 111/113/111 115/117/115 110/112/110
f 111/113/111 116/118/116 115/117/115
f 111/113/111 113/115/113 116/118/116
f 112/114/112 113/115/113 111/113/111
f 114/116/114 115/117/115 117/119/117
f 115/117/115 118/120/118 117/119/117
f 116/118/116 118/120/118 115/117/115
f 116/118/116 119/121/119 118/120/118
f 116/118/116 120/122/120 119/121/119
f 113/115/113 120/122/120 116/118/116
f 34/34/34 120/122/120 113/115/113
f 120/122/120 34/34/34 36/36/36
f 36/36/36 121/123/121 120/122/120
f 121/123/121 36/36/36 38/38/38
f 117/119/117 118/120/118 122/124/122
f 118/120/118 123/125/123 122/124/122
f 119/121/119 123/125/123 118/120/118
f 119/121/119 124/126/124 123/125/123
f 119/121/119 121/123/121 124/126/124
f 120/122/120 121/123/121 119/121/119
f 122/124/122 123/125/123 125/127/125
f 123/125/123 126/128/126 125/127/125
f 124/126/124 126/128/126 123/125/123
f 124/126/124 127/129/127 126/128/126
f 124/126/124 128/130/128 127/129/127
f 121/123/121 128/130/128 124/126/124
f 121/123/121 38/38/38 128/130/128
f 40/40/40 128/130/128 38/38/38
f 40/40/40 129/131/129 128/130/128
f 42/42/42 129/131/129 40/40/40
f 125/127/125 126/128/126 130/132/130
f 126/128/126 131/133/131 130/132/130
f 127/129/127 131/133/131 126/128/126
f 127/129/127 132/134/132 131/133/131
f 127/129/127 129/131/129 132/134/132
f 128/130/128 129/131/129 127/129/127
f 130/132/130 131/133/131 133/135/133
f 131/133/131 134/136/134 133/135/133
f 132/134/132 134/136/134 131/133/131
f 132/134/132 135/137/135 134/136/134
f 132/134/132 136/138/136 135/137/135
f 129/131/129 136/138/136 132/134/132
f 136/138/136 129/131/129 42/42/42
f 136/138/136 42/42/42 44/44/44
f 136/138/136 44/44/44 137/139/137
f 46/46/46 137/139/137 44/44/44
f 133/135/133 134/136/134 138/140/138
f 134/136/134 139/141/139 138/140/138
f 135/137/135 139/141/139 134/136/134
f 135/137/135 140/142/140 139/141/139
f 135/137/135 137/139/137 140/142/140
f 136/138/136 137/139/137 135/137/135
f 138/140/138 139/141/139 141/143/141
f 139/141/139 142/144/142 141/143/141
f 140/142/140 142/144/142 139/141/139
f 140/142/140 143/145/143 142/144/142
f 144/146/144 143/145/143 140/142/140
f 137/139/137 144/146/144 140/142/140
f 137/139/137 46/46/46 144/146/144
f 48/48/48 144/146/144 46/46/46
f 144/146/144 48/48/48 49/147/49
f 49/147/49 48/48/48 2/50/3
f 141/143/141 142/144/142 145/148/145
f 142/144/142 66/149/66 145/148/145
f 66/149/66 142/144/142 59/150/59
f 143/145/143 59/150/59 142/144/142
f 143/145/143 58/151/58 59/150/59
f 143/145/143 49/147/49 58/151/58
f 143/145/143 144/146/144 49/147/49
f 145/148/145 66/149/66 73/152/73
f 146/153/146 148/154/147 147/155/148
f 148/154/147 146/153/146 149/156/149
f 150/157/150 148/154/147 149/156/149
f 151/158/151 150/157/150 149/156/149
f 150/157/150 151/158/151 152/159/152
f 152/159/152 151/158/151 153/160/153
f 154/161/154 152/159/152 153/160/153
f 155/162/155 154/161/154 153/160/153
f 155/162/155 156/163/156 154/161/154
f 156/163/156 155/162/155 157/164/157
f 158/165/158 156/163/156 157/164/157
f 159/166/159 158/165/158 157/164/157
f 158/165/158 159/166/159 160/167/160
f 160/167/160 159/166/159 161/168/161
f 162/169/162 160/167/160 161/168/161
f 161/168/161 163/170/163 162/169/162
f 163/170/163 164/171/164 162/169/162
f 165/172/165 164/171/164 163/170/163
f 164/171/164 165/172/165 166/173/166
f 166/173/166 165/172/165 167/174/167
f 168/175/168 166/173/166 167/174/167
f 169/176/169 168/175/168 167/174/167
f 170/177/170 168/175/168 169/176/169
f 170/177/170 169/176/169 171/178/171
f 172/179/172 170/177/170 171/178/171
f 173/180/173 170/177/170 172/179/172
f 174/181/174 173/180/173 172/179/172
f 173/180/173 174/181/174 175/182/175
f 175/182/175 174/181/174 176/183/176
f 177/184/177 175/182/175 176/183/176
f 178/185/178 177/184/177 176/183/176
f 179/186/179 177/184/177 178/185/178
f 179/186/179 178/185/178 180/187/180
f 181/188/181 179/186/179 180/187/180
f 182/189/182 181/188/181 180/187/180
f 182/189/182 183/190/183 181/188/181
f 183/190/183 182/189/182 184/191/184
f 183/190/183 184/191/184 185/192/185
f 184/191/184 186/193/186 185/192/185
f 186/193/186 187/194/187 185/192/185
f 187/194/187 186/193/186 188/195/188
f 189/196/189 187/194/187 188/195/188
f 190/197/190 189/196/189 188/195/188
f 189/196/189 190/197/190 191/198/191
f 191/198/191 190/197/190 192/199/192
f 193/200/193 191/198/191 192/199/192
f 146/201/146 193/200/193 192/199/192
f 193/200/193 146/201/146 147/202/148
f 194/203/194 196/204/195 195/205/196
f 194/203/194 195/205/196 197/206/197
f 198/207/198 194/203/194 197/206/197
f 198/207/198 197/206/197 199/208/199
f 200/209/200 198/207/198 199/208/199
f 200/209/200 199/208/199 201/210/201
f 202/211/202 200/209/200 201/210/201
f 202/211/202 201/210/201 203/212/203
f 204/213/204 202/211/202 203/212/203
f 205/214/205 202/211/202 204/213/204
f 206/215/206 205/214/205 204/213/204
f 207/216/207 205/214/205 206/215/206
f 208/217/208 207/216/207 206/215/206
f 209/218/209 207/216/207 208/217/208
f 195/219/196 209/218/209 208/217/208
f 196/220/195 209/218/209 195/219/196
f 196/204/195 211/221/210 210/222/211
f 194/203/194 211/221/210 196/204/195
f 212/223/212 211/221/210 194/203/194
f 212/223/212 194/203/194 213/224/213
f 213/224/213 194/203/194 198/207/198
f 213/224/213 198/207/198 214/225/214
f 214/225/214 198/207/198 215/226/215
f 200/209/200 215/226/215 198/207/198
f 215/226/215 200/209/200 216/227/216
f 200/209/200 217/228/217 216/227/216
f 217/228/217 200/209/200 202/211/202
f 217/228/217 202/211/202 218/229/218
f 202/211/202 219/230/219 218/229/218
f 205/214/205 219/230/219 202/211/202
f 219/230/219 205/214/205 220/231/220
f 205/214/205 221/232/221 220/231/220
f 207/216/207 221/232/221 205/214/205
f 221/232/221 207/216/207 222/233/222
f 223/234/223 222/233/222 207/216/207
f 223/234/223 207/216/207 209/218/209
f 223/234/223 209/218/209 224/235/224
f 224/235/224 209/218/209 225/236/225
f 225/236/225 209/218/209 196/220/195
f 225/236/225 196/220/195 210/237/211
f 226/238/226 228/239/226 227/240/226
f 226/238/227 229/241/228 228/239/229
f 230/242/230 229/241/230 226/238/230
f 230/242/231 231/243/232 229/241/228
f 232/244/233 231/243/233 230/242/233
f 232/244/234 233/245/235 231/243/232
f 234/246/236 233/245/236 232/244/236
f 234/246/236 235/247/237 233/245/235
f 236/248/238 235/247/238 234/246/238
f 236/248/239 237/249/240 235/247/237
f 238/250/241 237/249/241 236/248/241
f 239/251/242 237/249/240 238/250/243
f 240/252/244 239/251/244 238/250/244
f 239/251/242 240/252/245 241/253/246
f 241/253/247 240/252/247 242/254/247
f 243/255/248 241/253/246 242/254/249
f 243/255/248 242/254/249 244/256/250
f 244/256/251 242/254/252 245/257/253
f 244/256/250 245/257/254 246/258/255
f 246/258/256 245/257/256 247/259/256
f 247/259/257 248/260/258 246/258/255
f 248/260/259 247/259/259 249/261/259
f 248/260/258 249/261/260 250/262/261
f 251/263/262 250/262/262 249/261/262
f 251/263/263 252/264/264 250/262/261
f 252/264/265 251/263/265 253/265/265
f 252/264/264 253/265/266 254/266/267
f 254/266/268 253/265/268 255/267/268
f 254/266/267 255/267/269 256/268/270
f 256/268/271 255/267/271 257/269/271
f 256/268/270 257/269/272 228/270/229
f 228/270/273 257/269/273 227/271/273
f 258/272/274 204/273/204 203/274/203
f 258/272/274 259/275/275 204/273/204
f 259/275/275 206/276/206 204/273/204
f 259/275/275 260/277/276 206/276/206
f 260/277/276 208/278/208 206/276/206
f 260/277/276 261/279/277 208/278/208
f 261/279/277 195/280/196 208/278/208
f 261/279/277 262/281/278 195/280/196
f 262/281/278 263/282/279 195/280/196
f 195/280/196 263/282/279 197/283/197
f 263/282/279 264/284/280 197/283/197
f 197/283/197 264/284/280 199/285/199
f 264/284/280 265/286/281 199/285/199
f 199/285/199 265/286/281 201/287/201
f 265/286/281 258/288/274 201/287/201
f 201/287/201 258/288/274 203/289/203
f 266/290/282 268/291/283 267/292/284
f 269/293/285 268/291/283 266/290/282
f 269/293/285 266/290/282 270/294/286
f 269/293/285 270/294/286 271/295/287
f 272/296/288 271/295/287 270/294/286
f 273/297/289 271/295/287 272/296/288
f 273/297/289 272/296/288 274/298/290
f 273/297/289 274/298/290 275/299/291
f 276/300/292 275/299/291 274/298/290
f 277/301/293 275/299/291 276/300/292
f 277/301/293 276/300/292 278/302/294
f 277/301/293 278/302/294 279/303/295
f 280/304/296 279/303/295 278/302/294
f 281/305/297 279/303/295 280/304/296
f 281/305/297 280/304/296 282/306/298
f 283/307/299 275/299/291 277/301/293
f 283/307/299 277/301/293 284/308/300
f 284/308/300 277/301/293 279/303/295
f 279/303/295 285/309/301 284/308/300
f 281/305/297 285/309/301 279/303/295
f 285/309/301 281/305/297 286/310/302
f 286/310/302 281/305/297 287/311/303
f 275/299/291 283/307/299 288/312/304
f 288/312/304 283/307/299 260/277/276
f 283/307/299 261/279/277 260/277/276
f 283/307/299 284/308/300 261/279/277
f 284/308/300 285/309/301 261/279/277
f 285/309/301 262/281/278 261/279/277
f 285/309/301 286/310/302 262/281/278
f 286/310/302 289/313/305 262/281/278
f 290/314/306 289/313/305 286/310/302
f 290/314/306 286/310/302 287/311/303
f 288/312/304 273/297/289 275/299/291
f 291/315/307 273/297/289 288/312/304
f 291/315/307 288/312/304 260/277/276
f 291/315/307 260/277/276 259/275/275
f 292/316/308 291/315/307 259/275/275
f 293/317/309 292/316/308 259/275/275
f 293/317/309 259/275/275 258/272/274
f 294/318/310 293/317/309 258/272/274
f 268/291/283 293/317/309 294/318/310
f 273/297/289 291/315/307 271/295/287
f 271/295/287 291/315/307 292/316/308
f 292/316/308 269/293/285 271/295/287
f 269/293/285 292/316/308 293/317/309
f 269/293/285 293/317/309 268/291/283
f 289/313/305 263/282/279 262/281/278
f 289/313/305 295/319/311 263/282/279
f 289/313/305 290/314/306 295/319/311
f 295/319/311 290/314/306 296/320/312
f 296/320/312 290/314/306 282/306/298
f 282/306/298 290/314/306 287/311/303
f 281/305/297 282/306/298 287/311/303
f 297/321/313 263/282/279 295/319/311
f 298/322/314 297/321/313 295/319/311
f 295/319/311 296/320/312 298/322/314
f 263/282/279 297/321/313 299/323/315
f 300/324/316 299/323/315 297/321/313
f 300/324/316 297/321/313 301/325/317
f 301/325/317 297/321/313 298/322/314
f 263/282/279 299/323/315 264/284/280
f 299/323/315 302/326/318 264/284/280
f 299/323/315 300/324/316 302/326/318
f 303/327/319 302/326/318 300/324/316
f 303/327/319 304/328/320 302/326/318
f 304/328/320 303/327/319 305/329/321
f 304/328/320 305/329/321 306/330/322
f 307/331/323 306/330/322 305/329/321
f 302/326/318 304/328/320 264/284/280
f 264/284/280 304/328/320 265/286/281
f 304/328/320 306/330/322 265/286/281
f 306/330/322 308/332/324 265/286/281
f 308/332/324 306/330/322 307/331/323
f 308/332/324 307/331/323 268/333/283
f 308/332/324 268/333/283 294/334/310
f 308/332/324 294/334/310 258/288/274
f 265/286/281 308/332/324 258/288/274
f 300/324/316 301/325/317 309/335/325
f 309/335/325 303/327/319 300/324/316
f 310/336/326 303/327/319 309/335/325
f 305/329/321 303/327/319 310/336/326
f 305/329/321 310/336/326 311/337/327
f 311/337/327 307/331/323 305/329/321
f 312/338/328 307/331/323 311/337/327
f 268/333/283 307/331/323 312/338/328
f 268/333/283 312/338/328 267/339/284
f 310/340/326 313/341/329 311/342/327
f 314/343/330 313/341/329 310/340/326
f 314/343/330 310/340/326 309/344/325
f 315/345/331 314/343/330 309/344/325
f 301/346/317 315/345/331 309/344/325
f 315/345/331 301/346/317 316/347/332
f 316/347/332 301/346/317 298/348/314
f 296/349/312 316/347/332 298/348/314
f 317/350/333 316/347/332 296/349/312
f 317/350/333 296/349/312 282/351/298
f 315/345/331 318/352/334 314/343/330
f 318/352/334 315/345/331 319/353/335
f 315/345/331 316/347/332 319/353/335
f 316/347/332 320/354/336 319/353/335
f 317/350/333 320/354/336 316/347/332
f 321/355/337 314/343/330 318/352/334
f 321/355/337 313/341/329 314/343/330
f 313/341/329 321/355/337 322/356/338
f 323/357/339 313/341/329 322/356/338
f 324/358/340 323/357/339 322/356/338
f 325/359/341 323/357/339 324/358/340
f 326/360/342 325/359/341 324/358/340
f 327/361/343 325/359/341 326/360/342
f 328/362/344 327/361/343 326/360/342
f 323/357/339 312/363/328 313/341/329
f 323/357/339 267/364/284 312/363/328
f 323/357/339 325/359/341 267/364/284
f 325/359/341 327/361/343 267/364/284
f 327/361/343 266/365/282 267/364/284
f 329/366/345 266/365/282 327/361/343
f 313/341/329 312/363/328 311/342/327
f 266/365/282 329/366/345 270/367/286
f 329/366/345 272/368/288 270/367/286
f 330/369/346 272/368/288 329/366/345
f 331/370/347 330/369/346 329/366/345
f 331/370/347 329/366/345 328/362/344
f 329/366/345 327/361/343 328/362/344
f 272/368/288 330/369/346 332/371/348
f 272/368/288 332/371/348 274/372/290
f 274/372/290 332/371/348 276/373/292
f 333/374/349 276/373/292 332/371/348
f 333/374/349 334/375/350 276/373/292
f 276/373/292 334/375/350 278/376/294
f 334/375/350 280/377/296 278/376/294
f 317/350/333 280/377/296 334/375/350
f 317/350/333 334/375/350 335/378/351
f 334/375/350 336/379/352 335/378/351
f 334/375/350 333/374/349 336/379/352
f 336/379/352 333/374/349 337/380/353
f 337/380/353 333/374/349 332/371/348
f 280/377/296 317/350/333 282/351/298
f 320/354/336 317/350/333 335/378/351
f 332/371/348 338/381/354 337/380/353
f 332/371/348 330/369/346 338/381/354
f 338/381/354 330/369/346 331/370/347
f 339/382/355 98/383/98 106/384/106
f 106/384/106 324/358/340 339/382/355
f 106/384/106 326/360/342 324/358/340
f 109/385/109 326/360/342 106/384/106
f 326/360/342 109/385/109 328/362/344
f 328/362/344 109/385/109 114/386/114
f 117/387/117 328/362/344 114/386/114
f 324/358/340 96/388/96 339/382/355
f 91/389/91 96/388/96 324/358/340
f 322/356/338 91/389/91 324/358/340
f 91/389/91 322/356/338 89/390/89
f 89/390/89 322/356/338 83/391/83
f 321/355/337 83/391/83 322/356/338
f 339/382/355 96/388/96 98/392/98
f 321/355/337 78/393/78 83/391/83
f 321/355/337 74/394/74 78/393/78
f 74/394/74 321/355/337 318/352/334
f 318/352/334 71/395/71 74/394/74
f 70/396/70 71/395/71 318/352/334
f 318/352/334 319/353/335 70/396/70
f 70/396/70 319/353/335 69/397/69
f 69/397/69 319/353/335 68/398/68
f 320/354/336 68/398/68 319/353/335
f 320/354/336 67/399/67 68/398/68
f 67/399/67 320/354/336 73/400/73
f 335/378/351 73/400/73 320/354/336
f 335/378/351 145/401/145 73/400/73
f 145/401/145 335/378/351 141/402/141
f 141/402/141 335/378/351 336/379/352
f 336/379/352 138/403/138 141/402/141
f 138/403/138 336/379/352 337/380/353
f 337/380/353 133/404/133 138/403/138
f 133/404/133 337/380/353 130/405/130
f 130/405/130 337/380/353 338/381/354
f 338/381/354 125/406/125 130/405/130
f 125/406/125 338/381/354 331/370/347
f 125/406/125 331/370/347 122/407/122
f 122/407/122 331/370/347 117/387/117
f 117/387/117 331/370/347 328/362/344
f 1/49/1 47/47/47 147/202/148
f 47/47/47 193/200/193 147/202/148
f 193/200/193 47/47/47 45/45/45
f 193/200/193 45/45/45 191/198/191
f 45/45/45 43/43/43 191/198/191
f 43/43/43 189/196/189 191/198/191
f 189/196/189 43/43/43 41/41/41
f 189/196/189 41/41/41 187/194/187
f 41/41/41 39/39/39 187/194/187
f 187/194/187 39/39/39 185/192/185
f 39/39/39 37/37/37 185/192/185
f 183/190/183 185/192/185 37/37/37
f 183/190/183 37/37/37 35/35/35
f 181/188/181 183/190/183 35/35/35
f 33/33/33 181/188/181 35/35/35
f 181/188/181 33/33/33 179/186/179
f 33/33/33 31/31/31 179/186/179
f 177/184/177 179/186/179 31/31/31
f 177/184/177 31/31/31 29/29/29
f 177/184/177 29/29/29 175/182/175
f 29/29/29 27/27/27 175/182/175
f 173/180/173 175/182/175 27/27/27
f 26/26/26 173/180/173 27/27/27
f 26/26/26 170/177/170 173/180/173
f 26/26/26 168/175/168 170/177/170
f 168/175/168 26/26/26 24/24/24
f 166/173/166 168/175/168 24/24/24
f 24/24/24 22/22/22 166/173/166
f 164/171/164 166/173/166 22/22/22
f 20/20/20 164/171/164 22/22/22
f 162/169/162 164/171/164 20/20/20
f 20/20/20 18/18/18 162/169/162
f 18/18/18 160/167/160 162/169/162
f 16/16/16 160/167/160 18/18/18
f 16/16/16 158/165/158 160/167/160
f 16/16/16 14/14/14 158/165/158
f 14/14/14 156/163/156 158/165/158
f 156/163/156 14/14/14 12/12/12
f 156/163/156 12/12/12 154/161/154
f 154/161/154 12/12/12 10/10/10
f 10/10/10 152/159/152 154/161/154
f 10/10/10 8/8/8 152/159/152
f 8/8/8 150/157/150 152/159/152
f 8/8/8 6/6/6 150/157/150
f 150/157/150 6/6/6 148/154/147
f 4/4/4 148/154/147 6/6/6
f 148/154/147 4/4/4 147/155/148
f 4/4/4 1/1/1 147/155/148
f 192/199/192 340/408/356 146/201/146
f 192/199/192 341/409/357 340/408/356
f 190/197/190 341/409/357 192/199/192
f 341/409/357 190/197/190 342/410/358
f 190/197/190 188/195/188 342/410/358
f 188/195/188 343/411/359 342/410/358
f 186/193/186 343/411/359 188/195/188
f 343/411/359 186/193/186 344/412/360
f 186/193/186 184/191/184 344/412/360
f 184/191/184 345/413/361 344/412/360
f 182/189/182 345/413/361 184/191/184
f 345/413/361 182/189/182 346/414/362
f 346/414/362 182/189/182 180/187/180
f 346/414/362 180/187/180 347/415/363
f 178/185/178 347/415/363 180/187/180
f 178/185/178 348/416/364 347/415/363
f 176/183/176 348/416/364 178/185/178
f 348/416/364 176/183/176 349/417/365
f 174/181/174 349/417/365 176/183/176
f 174/181/174 350/418/366 349/417/365
f 350/418/366 174/181/174 172/179/172
f 350/418/366 172/179/172 351/419/367
f 172/179/172 171/178/171 351/419/367
f 351/419/367 171/178/171 352/420/368
f 171/178/171 353/421/369 352/420/368
f 353/421/369 171/178/171 169/176/169
f 353/421/369 169/176/169 354/422/370
f 354/422/370 169/176/169 167/174/167
f 167/174/167 355/423/371 354/422/370
f 165/172/165 355/423/371 167/174/167
f 355/423/371 165/172/165 356/424/372
f 356/424/372 165/172/165 163/170/163
f 163/170/163 357/425/373 356/424/372
f 163/170/163 161/168/161 357/425/373
f 357/425/373 161/168/161 358/426/374
f 161/168/161 159/166/159 358/426/374
f 159/166/159 359/427/375 358/426/374
f 359/427/375 159/166/159 157/164/157
f 359/427/375 157/164/157 360/428/376
f 155/162/155 360/428/376 157/164/157
f 155/162/155 361/429/377 360/428/376
f 361/429/377 155/162/155 153/160/153
f 361/429/377 153/160/153 362/430/378
f 362/430/378 153/160/153 151/158/151
f 151/158/151 363/431/379 362/430/378
f 363/431/379 151/158/151 149/156/149
f 363/431/379 149/156/149 340/432/356
f 340/432/356 149/156/149 146/153/146
f 364/433/380 239/434/242 241/435/246
f 241/435/246 243/436/248 364/433/380
f 364/433/380 243/436/248 244/437/250
f 364/433/380 244/437/250 246/438/255
f 248/439/258 364/433/380 246/438/255
f 364/433/380 248/439/258 250/440/261
f 252/441/264 364/433/380 250/440/261
f 239/434/242 364/433/380 237/442/240
f 237/442/240 364/433/380 235/443/237
f 235/443/237 364/433/380 233/444/235
f 233/444/235 364/433/380 231/445/232
f 231/445/232 364/433/380 229/446/228
f 229/446/228 364/433/380 228/447/229
f 364/433/380 256/448/270 228/447/229
f 364/433/380 254/449/267 256/448/270
f 254/449/267 364/433/380 252/441/264
f 365/450/381 224/451/224 225/452/225
f 365/450/381 225/452/225 210/453/211
f 211/454/210 365/450/381 210/453/211
f 212/455/212 365/450/381 211/454/210
f 365/450/381 212/455/212 213/456/213
f 365/450/381 213/456/213 214/457/214
f 365/450/381 214/457/214 215/458/215
f 365/450/381 223/459/223 224/451/224
f 222/460/222 223/459/223 365/450/381
f 365/450/381 221/461/221 222/460/222
f 221/461/221 365/450/381 220/462/220
f 365/450/381 219/463/219 220/462/220
f 219/463/219 365/450/381 218/464/218
f 365/450/381 217/465/217 218/464/218
f 217/465/217 365/450/381 216/466/216
f 365/450/381 215/458/215 216/466/216
f 245/467/382 366/468/383 247/469/384
f 247/469/384 366/468/383 249/470/385
f 249/470/386 366/468/387 367/471/388
f 366/468/387 357/472/373 367/471/388
f 357/472/373 366/468/387 356/473/372
f 356/473/372 366/468/387 355/474/371
f 355/474/371 366/468/387 354/475/370
f 366/468/387 368/476/389 354/475/370
f 368/476/389 366/468/387 245/467/390
f 368/476/391 245/467/253 242/477/252
f 367/471/392 251/478/393 249/470/394
f 251/478/393 367/471/392 253/479/395
f 253/479/396 367/471/388 369/480/397
f 360/481/376 369/480/397 367/471/388
f 360/481/376 367/471/388 359/482/375
f 359/482/375 367/471/388 358/483/374
f 367/471/388 357/472/373 358/483/374
f 253/479/398 369/480/399 255/484/400
f 255/484/400 369/480/399 257/485/401
f 257/485/402 369/480/397 370/486/403
f 369/480/397 363/487/379 370/486/403
f 363/487/379 369/480/397 362/488/378
f 369/480/397 361/489/377 362/488/378
f 369/480/397 360/481/376 361/489/377
f 257/485/404 370/486/404 227/490/404
f 370/486/405 226/491/405 227/490/405
f 370/486/403 371/492/406 226/491/407
f 371/492/406 370/486/403 341/493/357
f 341/493/357 370/486/403 340/494/356
f 370/486/403 363/487/379 340/494/356
f 371/492/408 230/495/409 226/491/410
f 371/492/408 232/496/411 230/495/409
f 372/497/412 232/496/413 371/492/406
f 344/498/360 372/497/412 371/492/406
f 371/492/406 343/499/359 344/498/360
f 343/499/359 371/492/406 342/500/358
f 371/492/406 341/493/357 342/500/358
f 372/497/414 234/501/414 232/496/415
f 372/497/414 236/502/416 234/501/414
f 373/503/417 236/502/418 372/497/412
f 373/503/417 372/497/412 347/504/363
f 372/497/412 346/505/362 347/504/363
f 372/497/412 345/506/361 346/505/362
f 372/497/412 344/498/360 345/506/361
f 373/503/419 238/507/420 236/502/421
f 373/503/419 240/508/422 238/507/420
f 373/503/417 368/476/389 240/508/423
f 368/476/389 373/503/417 350/509/366
f 350/509/366 373/503/417 349/510/365
f 373/503/417 348/511/364 349/510/365
f 373/503/417 347/504/363 348/511/364
f 240/508/424 368/476/424 242/477/424
f 368/476/389 350/509/366 351/512/367
f 352/513/368 368/476/389 351/512/367
f 368/476/389 352/513/368 353/514/369
f 368/476/389 353/514/369 354/475/370
