# Blender 4.5.3 LTS
# www.blender.org
mtllib GP7Lenses.mtl
o light_gp7b.ogf_03.001
v 0.077811 1.760942 -0.080165
v 0.077696 1.764048 -0.080641
v 0.076997 1.766973 -0.081769
v 0.077579 1.757799 -0.080513
v 0.075718 1.769375 -0.083922
v 0.076532 1.751523 -0.081718
v 0.073623 1.771371 -0.086672
v 0.075253 1.745249 -0.083430
v 0.070949 1.772756 -0.090058
v 0.073507 1.738752 -0.085599
v 0.070483 1.732673 -0.088191
v 0.066761 1.773593 -0.094375
v 0.068273 1.727377 -0.091435
v 0.061874 1.774080 -0.098560
v 0.064548 1.722989 -0.094901
v 0.060710 1.720057 -0.098165
v 0.056523 1.717764 -0.101398
v 0.052684 1.774400 -0.104924
v 0.051520 1.717173 -0.104582
v 0.046635 1.718078 -0.107253
v 0.042563 1.774236 -0.110061
v 0.041517 1.720236 -0.109763
v 0.036630 1.723333 -0.111671
v 0.031744 1.727640 -0.113225
v 0.036397 1.773805 -0.112498
v 0.027206 1.732931 -0.114369
v 0.030465 1.773121 -0.114275
v 0.023485 1.739144 -0.115322
v 0.020692 1.745396 -0.115960
v 0.025579 1.771651 -0.115397
v 0.018599 1.751788 -0.116263
v 0.021856 1.769766 -0.116096
v 0.017203 1.758181 -0.116565
v 0.018948 1.767364 -0.116389
v 0.016854 1.761203 -0.116652
v 0.017203 1.764532 -0.116674
v -0.077026 1.764048 -0.080641
v -0.077141 1.760942 -0.080165
v -0.076329 1.766973 -0.081769
v -0.076910 1.757799 -0.080513
v -0.075048 1.769375 -0.083922
v -0.075862 1.751523 -0.081718
v -0.072954 1.771371 -0.086672
v -0.074583 1.745249 -0.083430
v -0.070279 1.772756 -0.090058
v -0.072838 1.738752 -0.085599
v -0.069813 1.732673 -0.088191
v -0.066090 1.773593 -0.094375
v -0.067603 1.727377 -0.091435
v -0.061205 1.774080 -0.098560
v -0.063880 1.722989 -0.094901
v -0.060040 1.720057 -0.098164
v -0.055853 1.717764 -0.101398
v -0.052015 1.774400 -0.104924
v -0.050851 1.717173 -0.104582
v -0.045966 1.718078 -0.107253
v -0.041893 1.774236 -0.110061
v -0.040848 1.720236 -0.109763
v -0.035960 1.723333 -0.111671
v -0.031075 1.727640 -0.113225
v -0.035729 1.773805 -0.112498
v -0.026538 1.732931 -0.114369
v -0.029796 1.773121 -0.114275
v -0.022816 1.739144 -0.115322
v -0.020023 1.745396 -0.115960
v -0.024909 1.771651 -0.115397
v -0.017929 1.751788 -0.116263
v -0.021187 1.769766 -0.116096
v -0.016534 1.758181 -0.116565
v -0.018278 1.767364 -0.116389
v -0.016301 1.761203 -0.116652
v -0.016534 1.764532 -0.116674
vn 0.8183 -0.0420 -0.5733
vn 0.8295 -0.0339 -0.5575
vn 0.7525 -0.0724 -0.6546
vn 0.8519 -0.0201 -0.5234
vn 0.8210 -0.0303 -0.5701
vn 0.8138 -0.0300 -0.5803
vn 0.7970 -0.0294 -0.6033
vn 0.8048 -0.0214 -0.5932
vn 0.7498 -0.0323 -0.6608
vn 0.7529 -0.0296 -0.6575
vn 0.7510 -0.0302 -0.6596
vn 0.7364 -0.0255 -0.6761
vn 0.7293 -0.0170 -0.6840
vn 0.6374 -0.0188 -0.7703
vn 0.6738 -0.0176 -0.7387
vn 0.6372 -0.0194 -0.7705
vn 0.5754 -0.0159 -0.8177
vn 0.5101 -0.0138 -0.8600
vn 0.5085 -0.0155 -0.8609
vn 0.4554 -0.0134 -0.8902
vn 0.3834 -0.0129 -0.9235
vn 0.3967 -0.0128 -0.9179
vn 0.3283 -0.0084 -0.9445
vn 0.3017 -0.0119 -0.9533
vn 0.2982 -0.0174 -0.9543
vn 0.2493 -0.0152 -0.9683
vn 0.2356 -0.0175 -0.9717
vn 0.2114 -0.0133 -0.9773
vn 0.1877 -0.0121 -0.9822
vn 0.1869 -0.0174 -0.9822
vn 0.1569 -0.0155 -0.9875
vn 0.1462 -0.0143 -0.9892
vn 0.1319 -0.0089 -0.9912
vn 0.1534 -0.0128 -0.9881
vn 0.1796 -0.0191 -0.9836
vn 0.2045 -0.0278 -0.9785
vn -0.7538 -0.0721 -0.6531
vn -0.8301 -0.0338 -0.5566
vn -0.8194 -0.0417 -0.5717
vn -0.8521 -0.0200 -0.5230
vn -0.8209 -0.0303 -0.5703
vn -0.8137 -0.0300 -0.5804
vn -0.7970 -0.0294 -0.6033
vn -0.8048 -0.0213 -0.5931
vn -0.7498 -0.0323 -0.6609
vn -0.7529 -0.0295 -0.6575
vn -0.7509 -0.0302 -0.6597
vn -0.7364 -0.0255 -0.6761
vn -0.7293 -0.0170 -0.6839
vn -0.6374 -0.0188 -0.7703
vn -0.6738 -0.0176 -0.7387
vn -0.6371 -0.0194 -0.7705
vn -0.5754 -0.0159 -0.8177
vn -0.5101 -0.0138 -0.8600
vn -0.5083 -0.0155 -0.8611
vn -0.4554 -0.0134 -0.8902
vn -0.3834 -0.0129 -0.9235
vn -0.3967 -0.0128 -0.9179
vn -0.3283 -0.0084 -0.9445
vn -0.3017 -0.0119 -0.9533
vn -0.2983 -0.0174 -0.9543
vn -0.2493 -0.0151 -0.9683
vn -0.2356 -0.0175 -0.9717
vn -0.2114 -0.0133 -0.9773
vn -0.1877 -0.0121 -0.9822
vn -0.1869 -0.0174 -0.9822
vn -0.1569 -0.0155 -0.9875
vn -0.1462 -0.0143 -0.9891
vn -0.1391 -0.0103 -0.9902
vn -0.1563 -0.0115 -0.9876
vn -0.1841 -0.0172 -0.9828
vn -0.1919 -0.0198 -0.9812
vt 0.030700 0.755900
vt 0.069000 0.834900
vt 0.044600 0.798100
vt 0.030000 0.712800
vt 0.109100 0.862700
vt 0.037500 0.623500
vt 0.160100 0.882500
vt 0.052200 0.533600
vt 0.221200 0.892000
vt 0.075600 0.440700
vt 0.114200 0.348800
vt 0.302200 0.890900
vt 0.157300 0.268700
vt 0.386500 0.885100
vt 0.215700 0.198400
vt 0.277400 0.149000
vt 0.341900 0.106600
vt 0.531700 0.867900
vt 0.416300 0.087100
vt 0.490400 0.088900
vt 0.675600 0.842400
vt 0.567100 0.106900
vt 0.640100 0.139000
vt 0.713000 0.186500
vt 0.758000 0.823500
vt 0.782700 0.250300
vt 0.833200 0.802300
vt 0.843600 0.325700
vt 0.893000 0.406200
vt 0.891800 0.772800
vt 0.934100 0.488800
vt 0.934200 0.739100
vt 0.965200 0.571800
vt 0.964800 0.701300
vt 0.976100 0.612900
vt 0.980000 0.658500
s 1
usemtl act\gasmask\gasmask_glass_1
f 1/1/1 3/2/2 2/3/3
f 4/4/4 3/2/2 1/1/1
f 3/2/2 4/4/4 5/5/5
f 6/6/6 5/5/5 4/4/4
f 5/5/5 6/6/6 7/7/7
f 8/8/8 7/7/7 6/6/6
f 7/7/7 8/8/8 9/9/9
f 10/10/10 9/9/9 8/8/8
f 9/9/9 10/10/10 11/11/11
f 9/9/9 11/11/11 12/12/12
f 13/13/13 12/12/12 11/11/11
f 12/12/12 13/13/13 14/14/14
f 15/15/15 14/14/14 13/13/13
f 14/14/14 15/15/15 16/16/16
f 14/14/14 16/16/16 17/17/17
f 14/14/14 17/17/17 18/18/18
f 19/19/19 18/18/18 17/17/17
f 19/19/19 20/20/20 18/18/18
f 21/21/21 18/18/18 20/20/20
f 21/21/21 20/20/20 22/22/22
f 21/21/21 22/22/22 23/23/23
f 23/23/23 24/24/24 21/21/21
f 25/25/25 21/21/21 24/24/24
f 24/24/24 26/26/26 25/25/25
f 27/27/27 25/25/25 26/26/26
f 27/27/27 26/26/26 28/28/28
f 28/28/28 29/29/29 27/27/27
f 30/30/30 27/27/27 29/29/29
f 29/29/29 31/31/31 30/30/30
f 32/32/32 30/30/30 31/31/31
f 31/31/31 33/33/33 32/32/32
f 34/34/34 32/32/32 33/33/33
f 34/34/34 33/33/33 35/35/35
f 34/34/34 35/35/35 36/36/36
f 37/3/37 39/2/38 38/1/39
f 38/1/39 39/2/38 40/4/40
f 39/2/38 41/5/41 40/4/40
f 42/6/42 40/4/40 41/5/41
f 41/5/41 43/7/43 42/6/42
f 44/8/44 42/6/42 43/7/43
f 43/7/43 45/9/45 44/8/44
f 46/10/46 44/8/44 45/9/45
f 47/11/47 46/10/46 45/9/45
f 45/9/45 48/12/48 47/11/47
f 49/13/49 47/11/47 48/12/48
f 48/12/48 50/14/50 49/13/49
f 51/15/51 49/13/49 50/14/50
f 52/16/52 51/15/51 50/14/50
f 53/17/53 52/16/52 50/14/50
f 50/14/50 54/18/54 53/17/53
f 55/19/55 53/17/53 54/18/54
f 55/19/55 54/18/54 56/20/56
f 57/21/57 56/20/56 54/18/54
f 58/22/58 56/20/56 57/21/57
f 59/23/59 58/22/58 57/21/57
f 59/23/59 57/21/57 60/24/60
f 61/25/61 60/24/60 57/21/57
f 60/24/60 61/25/61 62/26/62
f 63/27/63 62/26/62 61/25/61
f 64/28/64 62/26/62 63/27/63
f 64/28/64 63/27/63 65/29/65
f 66/30/66 65/29/65 63/27/63
f 65/29/65 66/30/66 67/31/67
f 68/32/68 67/31/67 66/30/66
f 67/31/67 68/32/68 69/33/69
f 70/34/70 69/33/69 68/32/68
f 71/35/71 69/33/69 70/34/70
f 72/36/72 71/35/71 70/34/70
