# Blender 4.5.3 LTS
# www.blender.org
mtllib Knee.mtl
o stalker_monolith4nosorog.ogf_03
v 0.094806 0.648140 -0.122692
v 0.097587 0.629015 -0.123573
v 0.204676 0.556809 -0.110036
v 0.162746 0.630794 -0.135110
v 0.210535 0.599535 -0.101900
v 0.060024 0.606820 -0.014002
v 0.145328 0.433434 -0.102732
v 0.100542 0.587920 -0.133917
v 0.098116 0.624667 -0.129352
v 0.137233 0.549219 -0.146385
v 0.160446 0.638523 -0.129586
v 0.189031 0.648388 -0.111747
v 0.214939 0.489836 -0.068745
v 0.218955 0.518063 -0.064951
v 0.221981 0.517863 -0.077715
v 0.215984 0.487397 -0.083060
v 0.197300 0.451515 -0.086997
v 0.206778 0.516726 -0.104424
v 0.197243 0.454266 -0.094522
v 0.219922 0.562173 -0.072231
v 0.211137 0.602704 -0.089047
v 0.210344 0.635132 -0.089301
v 0.190693 0.627692 -0.113023
v 0.197330 0.594461 -0.113907
v 0.221603 0.562691 -0.084350
v 0.177000 0.437705 -0.098698
v 0.129612 0.638397 -0.132538
v 0.159753 0.657169 -0.128843
v 0.190970 0.622289 -0.120275
v 0.135537 0.593748 -0.144086
v 0.133042 0.633074 -0.139349
v 0.128612 0.657986 -0.132720
v 0.167699 0.595019 -0.138490
v 0.172851 0.551713 -0.139859
v 0.176177 0.512197 -0.134740
v 0.226211 0.614286 -0.015139
v 0.223866 0.503939 -0.005791
v 0.067284 0.493921 -0.010960
v 0.145447 0.437387 -0.099673
v 0.229582 0.519488 -0.007926
v 0.063675 0.581213 -0.078865
v 0.063948 0.544487 -0.062979
v 0.058443 0.572975 -0.007676
v 0.073761 0.485396 -0.065165
v 0.224556 0.521090 -0.046801
v 0.232082 0.585656 -0.011854
v 0.068874 0.513282 -0.060789
v 0.060667 0.541679 -0.006840
v 0.117765 0.437520 -0.097809
v 0.227228 0.558225 -0.052385
v 0.225367 0.597020 -0.057358
v 0.231159 0.614349 -0.015855
v 0.228797 0.503506 -0.006499
v 0.060616 0.621409 -0.075417
v 0.224398 0.626174 -0.061152
v 0.231974 0.549099 -0.006671
v 0.055109 0.606281 -0.014743
v 0.076792 0.610677 -0.103292
v 0.079631 0.577023 -0.109206
v 0.102920 0.546188 -0.134129
v 0.076035 0.604420 -0.111046
v 0.072582 0.634510 -0.103021
v 0.140205 0.508086 -0.140840
v 0.111683 0.472648 -0.116727
v 0.106639 0.506869 -0.128255
v 0.079135 0.545774 -0.109575
v 0.064774 0.575056 -0.089134
v 0.206239 0.634967 -0.086451
v 0.174785 0.441351 -0.096091
v 0.219668 0.626159 -0.059532
v 0.216575 0.495940 -0.043635
v 0.078516 0.486943 -0.065146
v 0.076343 0.635092 -0.099779
v 0.065581 0.542536 -0.006493
v 0.063361 0.573681 -0.007116
v 0.193487 0.456640 -0.092230
v 0.064680 0.513365 -0.005547
v 0.097013 0.648279 -0.118208
v 0.069624 0.514010 -0.005173
v 0.224636 0.519823 -0.007273
v 0.128953 0.658050 -0.127733
v 0.185992 0.647938 -0.107803
v 0.174951 0.444895 -0.101638
v 0.227017 0.549373 -0.006081
v 0.158280 0.656972 -0.124069
v 0.065289 0.621754 -0.073673
v 0.227124 0.585626 -0.011209
v 0.072229 0.494541 -0.010562
v 0.199191 0.486129 -0.096234
v 0.144960 0.441677 -0.105291
v 0.073787 0.514094 -0.061234
v 0.096548 0.455145 -0.079082
v 0.120099 0.440959 -0.095030
v 0.083468 0.577349 -0.106017
v 0.069466 0.574942 -0.087411
v 0.118870 0.444907 -0.100081
v 0.100847 0.622728 -0.125641
v 0.135849 0.593340 -0.139113
v 0.160985 0.628815 -0.130870
v 0.217031 0.518280 -0.077146
v 0.202854 0.517264 -0.101373
v 0.216709 0.562270 -0.083415
v 0.193507 0.452891 -0.084045
v 0.093969 0.462039 -0.088393
v 0.081224 0.609972 -0.101087
v 0.100582 0.627558 -0.119844
v 0.165724 0.594591 -0.133917
v 0.211338 0.488880 -0.081958
v 0.158714 0.636770 -0.125236
v 0.077385 0.488511 -0.075539
v 0.080324 0.603496 -0.108648
v 0.103155 0.587869 -0.129655
v 0.170645 0.551748 -0.135372
v 0.070258 0.514011 -0.072248
v 0.137594 0.549478 -0.141405
v 0.173887 0.513111 -0.130391
v 0.068929 0.544915 -0.063059
v 0.140546 0.509344 -0.136013
v 0.130397 0.636471 -0.127991
v 0.206184 0.598328 -0.099754
v 0.187600 0.620421 -0.117089
v 0.133478 0.630750 -0.134944
v 0.200886 0.556838 -0.106775
v 0.092174 0.486519 -0.094834
v 0.067551 0.544830 -0.072404
v 0.174809 0.476475 -0.116991
v 0.114103 0.474485 -0.112756
v 0.144330 0.471392 -0.120825
v 0.109281 0.508167 -0.124214
v 0.083166 0.546263 -0.106659
v 0.194031 0.594329 -0.110153
v 0.086446 0.511312 -0.100757
v 0.068572 0.581115 -0.077862
v 0.105623 0.546646 -0.129948
v 0.187092 0.626039 -0.109974
v 0.222371 0.558429 -0.051217
v 0.220556 0.596963 -0.055997
v 0.214972 0.561937 -0.071571
v 0.206484 0.601861 -0.087422
v 0.213986 0.518562 -0.064712
v 0.210099 0.491045 -0.068411
v 0.219693 0.521642 -0.045779
v 0.065352 0.513211 -0.072784
v 0.116657 0.441837 -0.103349
v 0.088479 0.485133 -0.097904
v 0.090134 0.459676 -0.090563
v 0.144128 0.469323 -0.125372
v 0.092719 0.453519 -0.081855
v 0.082490 0.510234 -0.103617
v 0.176941 0.441842 -0.105061
v 0.072837 0.486808 -0.076726
v 0.144775 0.438482 -0.109132
v 0.062601 0.544502 -0.073026
v 0.202862 0.485034 -0.099447
v 0.176989 0.474792 -0.121164
vn -0.0133 -0.7221 -0.6916
vn -0.0208 0.3346 0.9421
vn 0.4374 0.0610 0.8972
vn -0.3651 -0.5520 -0.7496
vn -0.6169 0.3549 -0.7025
vn 0.4167 -0.4840 0.7694
vn 0.5771 -0.5482 0.6053
vn -0.5378 0.8431 0.0009
vn -0.0534 -0.1719 0.9837
vn -0.0653 -0.0680 0.9955
vn -0.0768 0.0301 0.9966
vn -0.0885 0.0228 0.9958
vn -0.1238 0.1030 0.9870
vn -0.1267 0.1003 0.9869
vn -0.1717 0.5181 0.8379
vn -0.1785 0.8162 0.5496
vn 0.4104 -0.6941 -0.5915
vn -0.4747 0.0750 0.8769
vn 0.1115 0.6651 0.7384
vn 0.0990 0.6634 0.7417
vn 0.1313 0.1395 0.9815
vn 0.1263 0.1396 0.9821
vn 0.1241 0.0442 0.9913
vn 0.1205 0.0440 0.9917
vn 0.1321 0.0161 0.9911
vn 0.1321 0.0177 0.9911
vn -0.5623 -0.1998 0.8024
vn 0.4801 0.8648 0.1471
vn -0.8069 -0.4048 0.4302
vn -0.1679 0.9460 0.2772
vn -0.2442 0.9253 0.2902
vn -0.3101 0.9031 0.2971
vn -0.3742 0.8989 0.2279
vn -0.3410 0.9239 0.1734
vn -0.3158 0.9443 0.0926
vn -0.1223 0.9918 0.0361
vn -0.1258 0.9920 -0.0041
vn 0.0954 0.9942 0.0489
vn 0.1433 0.9805 0.1345
vn 0.2179 0.9513 0.2180
vn 0.2120 0.9303 0.2992
vn 0.1983 0.9331 0.2999
vn 0.1431 0.9465 0.2893
vn 0.0993 0.9630 0.2506
vn 0.0645 0.9648 0.2551
vn -0.3305 0.7816 0.5290
vn -0.7294 0.6078 0.3140
vn -0.8301 0.5429 0.1271
vn 0.0919 0.7983 0.5952
vn 0.5133 0.7394 0.4358
vn 0.7726 0.6008 0.2054
vn 0.7651 0.6004 0.2326
vn 0.9055 0.4241 0.0126
vn 0.9342 0.3325 -0.1293
vn 0.9629 0.1760 -0.2048
vn 0.9383 0.1683 -0.3020
vn 0.9783 0.0560 -0.1994
vn 0.9979 0.0079 -0.0639
vn 0.9931 -0.0978 0.0649
vn 0.9731 -0.1721 0.1534
vn 0.9103 -0.3406 0.2353
vn 0.8564 -0.4211 0.2987
vn 0.6698 -0.5754 0.4694
vn 0.5191 -0.6211 0.5871
vn 0.2300 -0.7244 0.6498
vn 0.0487 -0.6951 0.7173
vn -0.2596 -0.6755 0.6901
vn -0.4066 -0.6423 0.6497
vn -0.6993 -0.5842 0.4120
vn -0.6804 -0.5980 0.4236
vn -0.8912 -0.4114 0.1911
vn -0.9375 -0.3458 0.0386
vn -0.9816 -0.1787 -0.0678
vn -0.9787 -0.1023 -0.1782
vn -0.9788 0.0835 -0.1872
vn -0.9681 0.0762 -0.2388
vn -0.9455 0.2763 -0.1723
vn -0.9298 0.3670 -0.0263
vn -0.9538 0.1076 0.2803
vn -0.9022 0.1030 0.4189
vn -0.9785 0.1009 0.1799
vn -0.9892 0.0670 0.1302
vn -0.9911 0.0607 0.1188
vn -0.9739 0.0441 0.2229
vn -0.9917 -0.0075 0.1285
vn -0.9303 0.0137 0.3665
vn -0.9640 -0.0115 0.2655
vn -0.9898 -0.0123 0.1422
vn -0.9422 -0.0035 0.3351
vn -0.8791 -0.0140 0.4765
vn -0.8127 -0.0491 0.5806
vn -0.6844 -0.0801 0.7247
vn -0.5984 -0.0920 0.7959
vn -0.3812 -0.0784 0.9212
vn -0.2522 -0.0477 0.9665
vn 0.0853 -0.0258 0.9960
vn 0.0812 -0.0065 0.9967
vn 0.4088 0.0100 0.9126
vn 0.5347 0.0372 0.8442
vn 0.7392 0.0971 0.6664
vn 0.8132 0.0860 0.5756
vn 0.9308 0.0802 0.3565
vn 0.9789 0.0629 0.1945
vn 0.9911 0.0934 0.0951
vn 0.9942 0.0771 0.0750
vn 0.9935 0.0911 0.0683
vn 0.9899 0.1250 0.0669
vn 0.9868 0.1432 0.0759
vn 0.9891 0.1278 0.0736
vn 0.3300 -0.7708 -0.5450
vn 0.7304 -0.6163 -0.2944
vn 0.8229 -0.5593 -0.1002
vn -0.0929 -0.7908 -0.6050
vn -0.5145 -0.7392 -0.4346
vn -0.7687 -0.6074 -0.2004
vn -0.7592 -0.6160 -0.2102
vn -0.9007 -0.4341 -0.0164
vn -0.9343 -0.3389 0.1103
vn -0.9668 -0.1770 0.1844
vn -0.9454 -0.1693 0.2786
vn -0.9816 -0.0557 0.1827
vn -0.9987 -0.0083 0.0511
vn -0.9926 0.0970 -0.0734
vn -0.9723 0.1707 -0.1597
vn -0.9089 0.3428 -0.2375
vn -0.8536 0.4252 -0.3010
vn -0.6661 0.5865 -0.4608
vn -0.5166 0.6314 -0.5784
vn -0.2285 0.7395 -0.6332
vn -0.0475 0.7048 -0.7079
vn 0.2585 0.6857 -0.6804
vn 0.4025 0.6496 -0.6450
vn 0.6946 0.5903 -0.4112
vn 0.6756 0.6033 -0.4237
vn 0.8888 0.4136 -0.1975
vn 0.9359 0.3497 -0.0438
vn 0.9817 0.1807 0.0600
vn 0.9795 0.1047 0.1722
vn 0.9805 -0.0836 0.1777
vn 0.9700 -0.0758 0.2311
vn 0.9446 -0.2855 0.1619
vn 0.9245 -0.3801 0.0280
vn 0.9521 -0.1085 -0.2857
vn 0.9731 -0.0448 -0.2260
vn 0.9781 -0.1010 -0.1821
vn 0.9289 -0.0163 -0.3701
vn 0.9636 0.0106 -0.2672
vn 0.8781 0.0098 -0.4783
vn 0.9892 -0.0670 -0.1306
vn 0.4802 0.8647 0.1471
vn 0.9910 -0.0605 -0.1194
vn 0.9915 0.0078 -0.1295
vn 0.9896 0.0129 -0.1435
vn 0.9417 0.0031 -0.3363
vn 0.8113 0.0446 -0.5830
vn 0.6830 0.0702 -0.7270
vn 0.5966 0.0833 -0.7982
vn 0.3796 0.0647 -0.9229
vn 0.2499 0.0318 -0.9677
vn -0.0842 0.0056 -0.9964
vn -0.0790 -0.0133 -0.9968
vn -0.4048 -0.0259 -0.9140
vn -0.5304 -0.0540 -0.8460
vn -0.7349 -0.1064 -0.6698
vn -0.8110 -0.0949 -0.5772
vn -0.9302 -0.0815 -0.3578
vn -0.9788 -0.0633 -0.1949
vn -0.9911 -0.0919 -0.0965
vn -0.9942 -0.0770 -0.0754
vn -0.9935 -0.0914 -0.0686
vn -0.9898 -0.1253 -0.0674
vn -0.9867 -0.1433 -0.0770
vn -0.9890 -0.1276 -0.0749
vn -0.7999 0.1694 0.5758
vn -0.7212 0.2161 0.6581
vn -0.6822 0.2703 0.6793
vn -0.4334 0.3331 0.8374
vn -0.5503 0.1691 0.8177
vn -0.7957 0.1061 0.5963
vn -0.8620 0.0751 0.5013
vn -0.8415 0.0370 0.5390
vn -0.7356 0.0058 0.6774
vn -0.7151 0.0005 0.6991
vn -0.3173 0.4216 0.8494
vn 0.0451 0.4248 0.9042
vn 0.0686 0.2545 0.9646
vn -0.4436 0.0091 0.8962
vn 0.0368 0.4636 0.8853
vn 0.3734 0.4293 0.8224
vn 0.4882 0.3569 0.7965
vn 0.5963 0.2565 0.7606
vn 0.5485 0.0898 0.8313
vn 0.0710 0.0224 0.9972
vn -0.3925 -0.0723 0.9169
vn -0.6532 -0.0246 0.7568
vn 0.6966 0.2811 0.6601
vn 0.7310 0.2780 0.6233
vn 0.8116 0.2056 0.5469
vn 0.8014 0.1037 0.5890
vn 0.7598 0.0620 0.6472
vn 0.5271 0.0064 0.8498
vn 0.0649 -0.0863 0.9942
vn 0.8090 0.2346 0.5390
vn 0.8675 0.1296 0.4803
vn 0.8891 0.1278 0.4396
vn 0.8328 0.0957 0.5452
vn 0.7267 0.0896 0.6810
vn 0.4233 -0.0750 0.9029
vn 0.0715 -0.1060 0.9918
vn -0.2738 -0.1263 0.9534
vn -0.6012 -0.0205 0.7988
vn 0.8106 -0.1708 -0.5601
vn 0.6859 -0.2767 -0.6730
vn 0.7248 -0.2191 -0.6532
vn 0.8006 -0.1056 -0.5898
vn 0.5478 -0.1692 -0.8193
vn 0.4327 -0.3352 -0.8369
vn 0.3195 -0.4246 -0.8471
vn -0.0444 -0.4266 -0.9034
vn -0.0369 -0.4662 -0.8839
vn -0.3753 -0.4325 -0.8198
vn 0.8680 -0.0749 -0.4909
vn 0.8480 -0.0360 -0.5287
vn 0.7399 -0.0053 -0.6727
vn 0.4419 -0.0098 -0.8970
vn -0.0674 -0.2540 -0.9649
vn -0.4871 -0.3598 -0.7958
vn -0.6994 -0.2876 -0.6543
vn -0.7325 -0.2811 -0.6201
vn -0.8152 -0.2349 -0.5294
vn 0.7299 0.0093 -0.6835
vn 0.6587 0.0329 -0.7517
vn 0.3918 0.0763 -0.9169
vn -0.0705 -0.0231 -0.9972
vn -0.5463 -0.0901 -0.8327
vn -0.5942 -0.2561 -0.7625
vn -0.8143 -0.2048 -0.5432
vn -0.8720 -0.1287 -0.4723
vn 0.6074 0.0352 -0.7936
vn 0.2742 0.1328 -0.9525
vn -0.0665 0.0913 -0.9936
vn -0.5269 -0.0014 -0.8499
vn -0.7611 -0.0571 -0.6461
vn -0.8021 -0.1045 -0.5880
vn -0.8914 -0.1294 -0.4344
vn -0.0736 0.1147 -0.9907
vn -0.4259 0.0829 -0.9010
vn -0.7309 -0.0790 -0.6780
vn -0.8373 -0.0931 -0.5387
vt 0.295875 0.693907
vt 0.298017 0.691970
vt 0.307541 0.699684
vt 0.306872 0.701382
vt 0.324846 0.697829
vt 0.324145 0.696834
vt 0.335647 0.689754
vt 0.336304 0.690779
vt 0.340439 0.688049
vt 0.339786 0.687022
vt 0.346373 0.684392
vt 0.345764 0.683338
vt 0.352578 0.679932
vt 0.351937 0.678897
vt 0.358893 0.674405
vt 0.359576 0.675413
vt 0.284340 0.675141
vt 0.288105 0.674136
vt 0.353123 0.396432
vt 0.359576 0.399043
vt 0.344489 0.436403
vt 0.338068 0.433867
vt 0.327200 0.483488
vt 0.320815 0.481388
vt 0.309364 0.518885
vt 0.315467 0.520850
vt 0.308965 0.539690
vt 0.303223 0.537902
vt 0.296170 0.583562
vt 0.612199 0.314070
vt 0.610063 0.315289
vt 0.593195 0.282411
vt 0.596421 0.280639
vt 0.585406 0.264878
vt 0.587700 0.263588
vt 0.577669 0.249416
vt 0.579908 0.248107
vt 0.568765 0.232638
vt 0.570907 0.231393
vt 0.562329 0.216359
vt 0.559721 0.217837
vt 0.549311 0.196587
vt 0.546331 0.198345
vt 0.533208 0.173296
vt 0.528945 0.176302
vt 0.514004 0.149385
vt 0.510221 0.152377
vt 0.484683 0.115439
vt 0.481584 0.118490
vt 0.494797 0.243850
vt 0.494517 0.244956
vt 0.489429 0.243397
vt 0.498269 0.246317
vt 0.499178 0.245059
vt 0.489401 0.244665
vt 0.484743 0.243966
vt 0.484878 0.245083
vt 0.479344 0.245504
vt 0.480030 0.247373
vt 0.475873 0.251152
vt 0.474339 0.250209
vt 0.474087 0.255180
vt 0.472219 0.254620
vt 0.471575 0.259971
vt 0.473162 0.260219
vt 0.473330 0.266411
vt 0.475004 0.265465
vt 0.477664 0.271648
vt 0.478727 0.270363
vt 0.482528 0.274510
vt 0.483111 0.273386
vt 0.488055 0.275959
vt 0.488651 0.274489
vt 0.493209 0.275844
vt 0.493193 0.274098
vt 0.498937 0.273840
vt 0.498070 0.272564
vt 0.502021 0.268718
vt 0.504029 0.269461
vt 0.504671 0.262636
vt 0.506649 0.262448
vt 0.504557 0.255427
vt 0.506649 0.254970
vt 0.504728 0.250445
vt 0.502495 0.250971
vt 0.393321 0.190616
vt 0.420827 0.199636
vt 0.399125 0.214237
vt 0.415803 0.181683
vt 0.384873 0.154921
vt 0.398831 0.149728
vt 0.423209 0.136697
vt 0.448807 0.171276
vt 0.455810 0.126589
vt 0.460096 0.188149
vt 0.483432 0.160535
vt 0.500624 0.187829
vt 0.529988 0.204517
vt 0.547392 0.223921
vt 0.558219 0.239906
vt 0.568175 0.256887
vt 0.574222 0.274626
vt 0.573563 0.297325
vt 0.598068 0.331225
vt 0.563499 0.317937
vt 0.584605 0.343642
vt 0.550442 0.330801
vt 0.572420 0.355374
vt 0.561687 0.360617
vt 0.536764 0.339712
vt 0.194367 0.991728
vt 0.150993 0.995098
vt 0.191815 0.982268
vt 0.222788 0.971953
vt 0.229380 0.980004
vt 0.150797 0.984215
vt 0.112942 0.990041
vt 0.114336 0.980948
vt 0.070525 0.976064
vt 0.075477 0.963132
vt 0.042895 0.933960
vt 0.029833 0.941166
vt 0.028591 0.902791
vt 0.013414 0.907223
vt 0.008949 0.866505
vt 0.021713 0.864385
vt 0.023369 0.817275
vt 0.036880 0.824277
vt 0.057527 0.777078
vt 0.065821 0.786457
vt 0.096644 0.754757
vt 0.101301 0.762610
vt 0.141044 0.743461
vt 0.145930 0.754008
vt 0.182946 0.744779
vt 0.182809 0.757587
vt 0.228707 0.760329
vt 0.221797 0.769573
vt 0.253034 0.799638
vt 0.268880 0.794682
vt 0.274085 0.846589
vt 0.289242 0.848385
vt 0.273181 0.901828
vt 0.289242 0.905517
vt 0.274350 0.940282
vt 0.256581 0.936350
vt 0.579352 0.064314
vt 0.544359 0.090467
vt 0.560803 0.056468
vt 0.559468 0.105778
vt 0.527000 0.124499
vt 0.550567 0.148631
vt 0.528545 0.034082
vt 0.535563 0.019772
vt 0.511647 0.057940
vt 0.496448 0.090483
vt 0.559326 0.183811
vt 0.571787 0.208602
vt 0.581105 0.226967
vt 0.590089 0.245349
vt 0.600893 0.261235
vt 0.619429 0.274727
vt 0.631923 0.314228
vt 0.641970 0.279649
vt 0.649758 0.311165
vt 0.660067 0.277227
vt 0.666063 0.308602
vt 0.676531 0.303301
vt 0.675544 0.271459
vt 0.499459 0.251099
vt 0.494249 0.250585
vt 0.493997 0.256377
vt 0.500143 0.256037
vt 0.500114 0.262257
vt 0.489466 0.250092
vt 0.489138 0.256172
vt 0.493797 0.262046
vt 0.484591 0.250352
vt 0.484312 0.255803
vt 0.483989 0.261569
vt 0.488930 0.261983
vt 0.493572 0.268547
vt 0.499395 0.268255
vt 0.479858 0.251508
vt 0.479343 0.255623
vt 0.479137 0.261181
vt 0.478799 0.266078
vt 0.483606 0.267816
vt 0.488875 0.268529
vt 0.231275 0.934240
vt 0.236926 0.896660
vt 0.188502 0.894004
vt 0.190104 0.938286
vt 0.151508 0.942065
vt 0.236761 0.849393
vt 0.187131 0.850492
vt 0.149139 0.895561
vt 0.112386 0.939760
vt 0.075113 0.930609
vt 0.230933 0.804097
vt 0.185463 0.801206
vt 0.147773 0.850886
vt 0.107996 0.854085
vt 0.110292 0.898290
vt 0.071023 0.899437
vt 0.147605 0.801110
vt 0.105353 0.806702
vt 0.067426 0.820108
vt 0.069529 0.857051
s 1
usemtl act\nosorog\act_nosorog_parts
f 7/1/1 39/2/2 93/3/3
f 7/1/1 93/3/3 49/4/4
f 44/5/5 72/6/6 88/7/7
f 44/5/5 88/7/7 38/8/8
f 77/9/9 38/8/8 88/7/7
f 77/9/9 88/7/7 79/10/10
f 48/11/11 77/9/9 79/10/10
f 48/11/11 79/10/10 74/12/12
f 43/13/13 48/11/11 74/12/12
f 43/13/13 74/12/12 75/14/14
f 43/13/13 75/14/14 6/15/15
f 43/13/13 6/15/15 57/16/16
f 7/1/1 26/17/17 69/18/18
f 7/1/1 69/18/18 39/2/2
f 52/19/19 36/20/20 87/21/21
f 52/19/19 87/21/21 46/22/22
f 46/22/22 87/21/21 84/23/23
f 46/22/22 84/23/23 56/24/24
f 40/25/25 56/24/24 84/23/23
f 40/25/25 84/23/23 80/26/26
f 40/25/25 80/26/26 37/27/27
f 40/25/25 37/27/27 53/28/28
f 53/28/28 37/27/27 71/29/29
f 57/30/16 6/31/15 86/32/30
f 57/30/16 86/32/30 54/33/31
f 54/33/31 86/32/30 73/34/32
f 54/33/31 73/34/32 62/35/33
f 62/35/33 73/34/32 78/36/34
f 62/35/33 78/36/34 1/37/35
f 1/37/35 78/36/34 81/38/36
f 1/37/35 81/38/36 32/39/37
f 28/40/38 32/39/37 81/38/36
f 28/40/38 81/38/36 85/41/39
f 12/42/40 28/40/38 85/41/39
f 12/42/40 85/41/39 82/43/41
f 22/44/42 12/42/40 82/43/41
f 22/44/42 82/43/41 68/45/43
f 55/46/44 22/44/42 68/45/43
f 55/46/44 68/45/43 70/47/45
f 52/48/19 55/46/44 70/47/45
f 52/48/19 70/47/45 36/49/20
f 69/50/18 83/51/46 39/52/2
f 76/53/47 83/51/46 69/50/18
f 69/50/18 103/54/48 76/53/47
f 83/51/46 90/55/49 39/52/2
f 39/52/2 90/55/49 93/56/3
f 93/56/3 90/55/49 96/57/50
f 96/57/50 92/58/51 93/56/3
f 104/59/52 92/58/51 96/57/50
f 110/60/53 92/58/51 104/59/52
f 72/61/54 92/58/51 110/60/53
f 72/61/54 110/60/53 114/62/55
f 114/62/55 91/63/56 72/61/54
f 117/64/57 91/63/56 114/62/55
f 125/65/58 117/64/57 114/62/55
f 125/65/58 133/66/59 117/64/57
f 95/67/60 133/66/59 125/65/58
f 105/68/61 133/66/59 95/67/60
f 95/67/60 111/69/62 105/68/61
f 111/69/62 106/70/63 105/68/61
f 97/71/64 106/70/63 111/69/62
f 119/72/65 106/70/63 97/71/64
f 122/73/66 119/72/65 97/71/64
f 109/74/67 119/72/65 122/73/66
f 122/73/66 99/75/68 109/74/67
f 99/75/68 135/76/69 109/74/67
f 121/77/70 135/76/69 99/75/68
f 120/78/71 135/76/69 121/77/70
f 139/79/72 135/76/69 120/78/71
f 102/80/73 139/79/72 120/78/71
f 138/81/74 139/79/72 102/80/73
f 102/80/73 100/82/75 138/81/74
f 138/81/74 100/82/75 140/83/76
f 140/83/76 100/82/75 141/84/77
f 141/84/77 100/82/75 108/85/78
f 108/85/78 103/54/48 141/84/77
f 76/53/47 103/54/48 108/85/78
f 71/86/29 140/87/79 141/88/80
f 71/86/29 142/89/81 140/87/79
f 37/90/27 142/89/81 71/86/29
f 80/91/82 142/89/81 37/90/27
f 84/92/83 142/89/81 80/91/82
f 136/93/84 142/89/81 84/92/83
f 84/92/83 87/94/85 136/93/84
f 140/87/79 142/89/81 136/93/84
f 138/95/86 140/87/79 136/93/84
f 136/93/84 137/96/87 138/95/86
f 87/94/85 137/96/87 136/93/84
f 36/49/88 137/96/87 87/94/85
f 70/47/89 137/96/87 36/49/88
f 139/97/90 137/96/87 70/47/89
f 68/45/91 139/97/90 70/47/89
f 68/45/91 135/98/92 139/97/90
f 82/43/93 135/98/92 68/45/91
f 138/95/86 137/96/87 139/97/90
f 109/99/94 135/98/92 82/43/93
f 85/41/95 109/99/94 82/43/93
f 85/41/95 119/100/96 109/99/94
f 81/38/97 119/100/96 85/41/95
f 78/36/98 119/100/96 81/38/97
f 78/36/98 106/101/99 119/100/96
f 73/34/100 106/101/99 78/36/98
f 105/102/101 106/101/99 73/34/100
f 86/32/102 105/102/101 73/34/100
f 86/32/102 133/103/103 105/102/101
f 6/31/104 133/103/103 86/32/102
f 75/104/105 133/103/103 6/31/104
f 117/105/106 133/103/103 75/104/105
f 74/106/107 117/105/106 75/104/105
f 74/106/107 91/107/108 117/105/106
f 79/108/109 91/107/108 74/106/107
f 88/109/7 91/107/108 79/108/109
f 72/110/6 91/107/108 88/109/7
f 26/111/17 7/112/1 150/113/110
f 19/114/111 26/111/17 150/113/110
f 26/111/17 19/114/111 17/115/112
f 150/113/110 7/112/1 152/116/113
f 7/112/1 49/117/4 152/116/113
f 49/117/4 144/118/114 152/116/113
f 144/118/114 49/117/4 148/119/115
f 146/120/116 144/118/114 148/119/115
f 151/121/117 146/120/116 148/119/115
f 44/122/118 151/121/117 148/119/115
f 44/122/118 143/123/119 151/121/117
f 143/123/119 44/122/118 47/124/120
f 42/125/121 143/123/119 47/124/120
f 153/126/122 143/123/119 42/125/121
f 153/126/122 42/125/121 41/127/123
f 67/128/124 153/126/122 41/127/123
f 58/129/125 67/128/124 41/127/123
f 67/128/124 58/129/125 61/130/126
f 61/130/126 58/129/125 2/131/127
f 9/132/128 61/130/126 2/131/127
f 27/133/129 9/132/128 2/131/127
f 31/134/130 9/132/128 27/133/129
f 11/135/131 31/134/130 27/133/129
f 31/134/130 11/135/131 4/136/132
f 4/136/132 11/135/131 23/137/133
f 29/138/134 4/136/132 23/137/133
f 5/139/135 29/138/134 23/137/133
f 21/140/136 5/139/135 23/137/133
f 25/141/137 5/139/135 21/140/136
f 20/142/138 25/141/137 21/140/136
f 25/141/137 20/142/138 15/143/139
f 20/142/138 14/144/140 15/143/139
f 14/144/140 13/145/141 15/143/139
f 13/145/141 16/146/142 15/143/139
f 16/146/142 13/145/141 17/115/112
f 19/114/111 16/146/142 17/115/112
f 14/147/143 50/148/144 45/149/145
f 20/150/146 50/148/144 14/147/143
f 50/148/144 20/150/146 51/151/147
f 20/150/146 21/152/148 51/151/147
f 40/153/149 53/154/150 45/149/145
f 56/155/151 40/153/149 45/149/145
f 50/148/144 56/155/151 45/149/145
f 56/155/151 50/148/144 46/156/152
f 46/156/152 50/148/144 51/151/147
f 52/48/153 46/156/152 51/151/147
f 55/46/154 52/48/153 51/151/147
f 21/152/148 55/46/154 51/151/147
f 22/44/155 55/46/154 21/152/148
f 22/44/155 21/152/148 23/157/156
f 12/42/157 22/44/155 23/157/156
f 11/158/158 12/42/157 23/157/156
f 28/40/159 12/42/157 11/158/158
f 28/40/159 11/158/158 27/159/160
f 32/39/161 28/40/159 27/159/160
f 1/37/162 32/39/161 27/159/160
f 1/37/162 27/159/160 2/160/163
f 62/35/164 1/37/162 2/160/163
f 58/161/165 62/35/164 2/160/163
f 54/33/166 62/35/164 58/161/165
f 54/33/166 58/161/165 41/162/167
f 57/30/168 54/33/166 41/162/167
f 43/163/169 57/30/168 41/162/167
f 42/164/170 43/163/169 41/162/167
f 48/165/171 43/163/169 42/164/170
f 48/165/171 42/164/170 47/166/172
f 77/167/173 48/165/171 47/166/172
f 38/168/8 77/167/173 47/166/172
f 44/169/5 38/168/8 47/166/172
f 108/85/174 89/170/175 76/53/176
f 76/53/176 89/170/175 126/171/177
f 126/171/177 89/170/175 116/172/178
f 116/172/178 89/170/175 101/173/179
f 101/173/179 89/170/175 108/85/174
f 108/85/174 100/82/180 101/173/179
f 101/173/179 100/82/180 102/80/181
f 102/80/181 123/174/182 101/173/179
f 120/78/183 123/174/182 102/80/181
f 126/171/177 83/51/184 76/53/176
f 128/175/185 83/51/184 126/171/177
f 126/171/177 118/176/186 128/175/185
f 116/172/178 118/176/186 126/171/177
f 113/177/187 118/176/186 116/172/178
f 116/172/178 123/174/182 113/177/187
f 101/173/179 123/174/182 116/172/178
f 128/175/185 90/55/188 83/51/184
f 96/57/189 90/55/188 128/175/185
f 127/178/190 96/57/189 128/175/185
f 128/175/185 118/176/186 127/178/190
f 127/178/190 118/176/186 129/179/191
f 129/179/191 118/176/186 134/180/192
f 134/180/192 118/176/186 115/181/193
f 115/181/193 118/176/186 113/177/187
f 115/181/193 113/177/187 107/182/194
f 113/177/187 131/183/195 107/182/194
f 123/174/182 131/183/195 113/177/187
f 104/59/196 96/57/189 127/178/190
f 127/178/190 124/184/197 104/59/196
f 129/179/191 124/184/197 127/178/190
f 132/185/198 124/184/197 129/179/191
f 130/186/199 132/185/198 129/179/191
f 129/179/191 134/180/192 130/186/199
f 134/180/192 94/187/200 130/186/199
f 112/188/201 94/187/200 134/180/192
f 112/188/201 134/180/192 115/181/193
f 115/181/193 98/189/202 112/188/201
f 107/182/194 98/189/202 115/181/193
f 104/59/196 124/184/197 110/60/203
f 110/60/203 124/184/197 132/185/198
f 110/60/203 132/185/198 114/62/204
f 114/62/204 132/185/198 125/65/205
f 125/65/205 132/185/198 130/186/199
f 95/67/206 125/65/205 130/186/199
f 130/186/199 94/187/200 95/67/206
f 95/67/206 94/187/200 111/69/207
f 111/69/207 94/187/200 112/188/201
f 97/71/208 111/69/207 112/188/201
f 112/188/201 98/189/202 97/71/208
f 97/71/208 98/189/202 122/73/209
f 122/73/209 98/189/202 99/75/210
f 99/75/210 98/189/202 107/182/194
f 121/77/211 99/75/210 107/182/194
f 107/182/194 131/183/195 121/77/211
f 121/77/211 131/183/195 120/78/183
f 120/78/183 131/183/195 123/174/182
f 16/146/212 19/114/213 154/190/214
f 18/191/215 16/146/212 154/190/214
f 35/192/216 18/191/215 154/190/214
f 155/193/217 35/192/216 154/190/214
f 19/114/213 155/193/217 154/190/214
f 155/193/217 19/114/213 150/113/218
f 147/194/219 155/193/217 150/113/218
f 147/194/219 150/113/218 152/116/220
f 144/118/221 147/194/219 152/116/220
f 16/146/212 18/191/215 15/143/222
f 18/191/215 25/141/223 15/143/222
f 25/141/223 18/191/215 3/195/224
f 18/191/215 35/192/216 3/195/224
f 35/192/216 34/196/225 3/195/224
f 34/196/225 35/192/216 63/197/226
f 35/192/216 155/193/217 63/197/226
f 155/193/217 147/194/219 63/197/226
f 147/194/219 64/198/227 63/197/226
f 64/198/227 147/194/219 144/118/221
f 146/120/228 64/198/227 144/118/221
f 64/198/227 146/120/228 145/199/229
f 146/120/228 151/121/230 145/199/229
f 5/139/231 25/141/223 3/195/224
f 5/139/231 3/195/224 24/200/232
f 3/195/224 34/196/225 24/200/232
f 34/196/225 33/201/233 24/200/232
f 10/202/234 33/201/233 34/196/225
f 10/202/234 34/196/225 63/197/226
f 60/203/235 10/202/234 63/197/226
f 65/204/236 60/203/235 63/197/226
f 64/198/227 65/204/236 63/197/226
f 65/204/236 64/198/227 145/199/229
f 149/205/237 65/204/236 145/199/229
f 151/121/230 149/205/237 145/199/229
f 151/121/230 143/123/238 149/205/237
f 29/138/239 5/139/231 24/200/232
f 33/201/233 29/138/239 24/200/232
f 29/138/239 33/201/233 4/136/240
f 4/136/240 33/201/233 30/206/241
f 33/201/233 10/202/234 30/206/241
f 10/202/234 8/207/242 30/206/241
f 8/207/242 10/202/234 60/203/235
f 8/207/242 60/203/235 59/208/243
f 60/203/235 66/209/244 59/208/243
f 65/204/236 66/209/244 60/203/235
f 66/209/244 65/204/236 149/205/237
f 153/126/245 66/209/244 149/205/237
f 143/123/238 153/126/245 149/205/237
f 31/134/246 4/136/240 30/206/241
f 9/132/247 31/134/246 30/206/241
f 8/207/242 9/132/247 30/206/241
f 9/132/247 8/207/242 61/130/248
f 61/130/248 8/207/242 59/208/243
f 67/128/249 61/130/248 59/208/243
f 66/209/244 67/128/249 59/208/243
f 67/128/249 66/209/244 153/126/245
l 44 49
