# Blender 4.5.3 LTS
# www.blender.org
mtllib NosrogVisor.mtl
o stalker_monolith4nosorog.ogf_01.001
v 0.536158 -1.126417 -4.197288
v 0.731232 -1.268921 -4.029992
v 0.536158 -1.126417 -4.197288
v 2.217511 -1.275337 -2.775544
v 1.920255 -1.464125 -3.116924
v 2.282537 0.187848 -3.413931
v -0.504238 -1.126417 -4.197288
v -0.504238 -1.126417 -4.197288
v 2.282537 0.187848 -3.413931
v 1.920255 -1.464125 -3.116924
v 0.443265 0.151763 -4.523938
v 0.257480 -0.906737 -4.331139
v 1.084223 0.168160 -4.343770
v -2.659343 -0.556902 -2.423447
v -2.464269 -0.973116 -2.512217
v -2.538584 0.139478 -2.925884
v -0.225561 -0.906737 -4.331139
v 0.127431 -0.844409 -4.360121
v 1.009909 -1.420552 -3.861562
v -2.250617 0.187848 -3.413931
v -1.888336 -1.464125 -3.116924
v -2.185592 -1.275337 -2.775544
v 0.015960 -0.836205 -4.371835
v 0.015960 0.150794 -4.534533
v 0.731232 -1.268921 -4.029992
v 2.570503 0.139478 -2.925884
v 2.217511 -1.275337 -2.775544
v 2.496187 -0.973116 -2.512217
v 0.443265 0.151763 -4.523938
v 1.084223 0.168160 -4.343770
v -2.659343 -0.556902 -2.423447
v -2.538584 0.139478 -2.925884
v -1.786154 0.194668 -3.950520
v 0.257480 -0.906737 -4.331139
v -1.637526 -1.551483 -3.363488
v -2.715079 -0.255107 -2.470810
v -2.668632 -0.018951 -2.628064
v -2.464269 -0.973116 -2.512217
v 1.353611 -1.529742 -3.634018
v 1.818074 0.194668 -3.950520
v 1.669445 -1.551483 -3.363488
v -1.052304 0.168160 -4.343770
v 2.746998 -0.255107 -2.470810
v 2.691264 -0.556902 -2.423447
v 0.015960 0.150794 -4.534533
v 0.127431 -0.844409 -4.360121
v 0.015960 -0.836205 -4.371835
v -2.250617 0.187848 -3.413931
v 2.570503 0.139478 -2.925884
v 2.496187 -0.973116 -2.512217
v -1.786154 0.194668 -3.950520
v -1.321691 -1.529742 -3.634018
v -2.668632 -0.018951 -2.628064
v -2.715079 -0.255107 -2.470810
v -1.321691 -1.529742 -3.634018
v 2.700552 -0.018951 -2.628064
v -0.411346 0.151763 -4.523938
v -0.104800 -0.844409 -4.360121
v -0.104800 -0.844409 -4.360121
v -0.987279 -1.420552 -3.861562
v -0.699313 -1.268921 -4.029992
v -1.888336 -1.464125 -3.116924
v -1.637526 -1.551483 -3.363488
v 2.691264 -0.556902 -2.423447
v 1.353611 -1.529742 -3.634018
v -0.411346 0.151763 -4.523938
v -0.225561 -0.906737 -4.331139
v -0.987279 -1.420552 -3.861562
v -1.052304 0.168160 -4.343770
v -0.699313 -1.268921 -4.029992
v 1.818074 0.194668 -3.950520
v 2.700552 -0.018951 -2.628064
v 1.669445 -1.551483 -3.363488
v 2.746998 -0.255107 -2.470810
v 1.009909 -1.420552 -3.861562
v -2.185592 -1.275337 -2.775544
vn -0.8187 0.2164 0.5318
vn -0.8116 0.2299 0.5371
vn -0.7778 0.2351 0.5828
vn -0.8264 0.2330 0.5126
vn -0.8070 0.2571 0.5316
vn -0.7876 0.2653 0.5562
vn -0.7972 0.2708 0.5396
vn -0.7484 0.2737 0.6041
vn -0.6035 0.2839 0.7451
vn -0.6669 0.2878 0.6874
vn -0.5399 0.2904 0.7901
vn -0.4356 0.2811 0.8551
vn -0.3759 0.2618 0.8889
vn -0.4326 0.2925 0.8528
vn -0.3833 0.2625 0.8855
vn -0.2223 0.2135 0.9513
vn -0.1393 0.1966 0.9705
vn -0.0793 0.1769 0.9810
vn -0.0017 0.1662 0.9861
vn -0.0034 0.1626 0.9867
vn 0.0798 0.1773 0.9809
vn 0.1421 0.1969 0.9701
vn 0.2251 0.2138 0.9506
vn 0.3742 0.2610 0.8899
vn 0.3833 0.2625 0.8855
vn 0.4282 0.2919 0.8552
vn 0.4359 0.2803 0.8552
vn 0.6051 0.2836 0.7439
vn 0.5441 0.2910 0.7870
vn 0.6669 0.2878 0.6874
vn 0.7484 0.2737 0.6041
vn 0.7876 0.2653 0.5562
vn 0.7973 0.2708 0.5394
vn 0.8070 0.2571 0.5316
vn 0.8264 0.2331 0.5126
vn 0.8116 0.2299 0.5371
vn 0.8187 0.2164 0.5318
vn 0.7778 0.2351 0.5828
vn 0.8187 -0.2164 -0.5318
vn 0.7778 -0.2351 -0.5828
vn 0.8116 -0.2299 -0.5371
vn 0.8264 -0.2330 -0.5126
vn 0.8070 -0.2572 -0.5316
vn 0.7876 -0.2653 -0.5562
vn 0.7972 -0.2708 -0.5396
vn 0.7484 -0.2737 -0.6041
vn 0.6035 -0.2839 -0.7451
vn 0.6669 -0.2878 -0.6873
vn 0.5399 -0.2904 -0.7900
vn 0.4356 -0.2811 -0.8551
vn 0.3759 -0.2618 -0.8889
vn 0.4326 -0.2925 -0.8528
vn 0.3833 -0.2625 -0.8855
vn 0.2223 -0.2135 -0.9513
vn 0.1393 -0.1966 -0.9705
vn 0.0794 -0.1769 -0.9810
vn 0.0017 -0.1662 -0.9861
vn 0.0033 -0.1626 -0.9867
vn -0.0798 -0.1773 -0.9809
vn -0.1421 -0.1969 -0.9701
vn -0.2251 -0.2138 -0.9506
vn -0.3742 -0.2610 -0.8899
vn -0.3833 -0.2625 -0.8855
vn -0.4282 -0.2919 -0.8552
vn -0.4359 -0.2803 -0.8552
vn -0.6051 -0.2836 -0.7439
vn -0.5441 -0.2910 -0.7870
vn -0.6669 -0.2878 -0.6873
vn -0.7484 -0.2737 -0.6041
vn -0.7876 -0.2652 -0.5562
vn -0.7973 -0.2708 -0.5394
vn -0.8070 -0.2572 -0.5316
vn -0.8264 -0.2330 -0.5126
vn -0.8116 -0.2299 -0.5371
vn -0.8187 -0.2164 -0.5318
vn -0.7778 -0.2351 -0.5828
vt 0.169381 0.307405
vt 0.161156 0.241771
vt 0.163294 0.277180
vt 0.183070 0.334726
vt 0.163695 0.189818
vt 0.211439 0.360825
vt 0.175351 0.142436
vt 0.196439 0.099573
vt 0.256215 0.395323
vt 0.216502 0.067315
vt 0.246496 0.041053
vt 0.286257 0.023134
vt 0.325450 0.451282
vt 0.332758 0.026529
vt 0.383180 0.060540
vt 0.448560 0.133444
vt 0.420706 0.501043
vt 0.478342 0.158472
vt 0.504297 0.519498
vt 0.503736 0.162560
vt 0.531206 0.158355
vt 0.587757 0.500299
vt 0.558859 0.132833
vt 0.682720 0.449856
vt 0.624169 0.059260
vt 0.674699 0.024863
vt 0.721890 0.022698
vt 0.751779 0.393623
vt 0.761405 0.039148
vt 0.791523 0.065446
vt 0.811635 0.097761
vt 0.796493 0.359100
vt 0.832736 0.140710
vt 0.844360 0.188158
vt 0.824848 0.333047
vt 0.846845 0.240140
vt 0.838552 0.305762
vt 0.844667 0.275551
s 1
usemtl act\act_glass_universal
f 72/1/1 44/2/2 74/3/3
f 72/1/1 26/4/4 44/2/2
f 26/4/4 28/5/5 44/2/2
f 26/4/4 9/6/6 28/5/5
f 28/5/5 9/6/6 4/7/7
f 4/7/7 9/6/6 10/8/8
f 40/9/9 10/8/8 9/6/6
f 73/10/10 10/8/8 40/9/9
f 65/11/11 73/10/10 40/9/9
f 19/12/12 65/11/11 40/9/9
f 30/13/13 19/12/12 40/9/9
f 2/14/14 19/12/12 30/13/13
f 1/15/15 2/14/14 30/13/13
f 34/16/16 1/15/15 30/13/13
f 29/17/17 34/16/16 30/13/13
f 46/18/18 34/16/16 29/17/17
f 29/17/17 24/19/19 46/18/18
f 46/18/18 24/19/19 23/20/20
f 23/20/20 24/19/19 58/21/21
f 58/21/21 24/19/19 57/22/22
f 57/22/22 17/23/23 58/21/21
f 69/24/24 17/23/23 57/22/22
f 69/24/24 7/25/25 17/23/23
f 69/24/24 61/26/26 7/25/25
f 69/24/24 60/27/27 61/26/26
f 51/28/28 60/27/27 69/24/24
f 51/28/28 55/29/29 60/27/27
f 51/28/28 63/30/30 55/29/29
f 51/28/28 21/31/31 63/30/30
f 48/32/32 21/31/31 51/28/28
f 21/31/31 48/32/32 22/33/33
f 22/33/33 48/32/32 38/34/34
f 38/34/34 48/32/32 32/35/35
f 31/36/36 38/34/34 32/35/35
f 31/36/36 32/35/35 53/37/37
f 54/38/38 31/36/36 53/37/37
f 56/1/39 43/3/40 64/2/41
f 56/1/39 64/2/41 49/4/42
f 49/4/42 64/2/41 50/5/43
f 49/4/42 50/5/43 6/6/44
f 50/5/43 27/7/45 6/6/44
f 27/7/45 5/8/46 6/6/44
f 71/9/47 6/6/44 5/8/46
f 41/10/48 71/9/47 5/8/46
f 39/11/49 71/9/47 41/10/48
f 75/12/50 71/9/47 39/11/49
f 13/13/51 71/9/47 75/12/50
f 25/14/52 13/13/51 75/12/50
f 3/15/53 13/13/51 25/14/52
f 12/16/54 13/13/51 3/15/53
f 11/17/55 13/13/51 12/16/54
f 18/18/56 11/17/55 12/16/54
f 11/17/55 18/18/56 45/19/57
f 18/18/56 47/20/58 45/19/57
f 47/20/58 59/21/59 45/19/57
f 59/21/59 66/22/60 45/19/57
f 66/22/60 59/21/59 67/23/61
f 42/24/62 66/22/60 67/23/61
f 42/24/62 67/23/61 8/25/63
f 42/24/62 8/25/63 70/26/64
f 42/24/62 70/26/64 68/27/65
f 33/28/66 42/24/62 68/27/65
f 33/28/66 68/27/65 52/29/67
f 33/28/66 52/29/67 35/30/68
f 33/28/66 35/30/68 62/31/69
f 20/32/70 33/28/66 62/31/69
f 62/31/69 76/33/71 20/32/70
f 76/33/71 15/34/72 20/32/70
f 15/34/72 16/35/73 20/32/70
f 14/36/74 16/35/73 15/34/72
f 14/36/74 37/37/75 16/35/73
f 36/38/76 37/37/75 14/36/74
