# Blender 4.5.3 LTS
# www.blender.org
mtllib PelvisBack.mtl
o stalker_monolith4nosorog.ogf_03
v 0.021248 30.612158 4.574075
v -5.475415 38.594952 2.363296
v -2.978557 38.528645 3.737036
v 3.213270 38.540756 4.404216
v 0.000000 38.535221 4.202993
v 5.808986 38.640438 2.974498
v -4.594872 34.202805 3.230878
v -5.845361 36.003994 3.099945
v -5.525783 35.948849 2.477465
v 3.047859 32.835320 3.880167
v 1.885298 30.845671 5.224370
v 3.303354 32.903736 4.514501
v 2.534220 36.192223 3.820130
v 2.715339 36.201366 4.504376
v 2.996083 38.540390 3.729043
v 5.263660 35.926559 2.749496
v 5.478709 38.529613 2.366832
v -1.717006 30.750828 4.520349
v -1.826491 30.759979 5.220966
v 1.774523 30.822779 4.605975
v 1.887848 32.886440 4.402662
v 0.000000 32.976692 4.652297
v 0.000001 33.025524 5.342703
v -1.890942 32.903461 4.396414
v -2.085439 32.960327 5.058818
v -3.037577 32.887348 3.865132
v -3.301923 32.902611 4.514849
v 0.020720 30.593021 5.275175
v -5.810498 38.652729 2.975770
v 4.493709 34.299377 3.325483
v 0.000000 34.841213 5.041625
v 2.178746 34.581829 3.962316
v 2.086223 32.958862 5.062195
v -2.621588 36.151035 3.881069
v -2.824422 36.171555 4.563990
v 4.723384 34.467712 3.971124
v 2.354122 34.721951 4.630487
v -3.215328 38.549541 4.405958
v 0.000000 36.240444 4.369409
v 0.000000 38.606243 4.913175
v -4.871045 34.364769 3.860341
v -2.189422 34.606171 4.041677
v 0.000000 34.702118 4.344636
v -2.367669 34.734482 4.713664
v 0.000000 36.261208 5.082165
v 5.558130 35.992268 3.384916
vn 0.0273 0.9982 -0.0526
vn -0.7733 0.4452 -0.4515
vn -0.3502 0.9021 -0.2522
vn 0.0180 0.9995 -0.0248
vn 0.0020 0.9969 -0.0782
vn 0.0054 0.9978 -0.0664
vn -0.0100 0.9995 -0.0299
vn -0.0359 0.9984 -0.0436
vn 0.3735 0.8843 -0.2802
vn 0.8148 0.3335 -0.4743
vn 0.3608 -0.0243 -0.9323
vn 0.4524 -0.0618 -0.8897
vn 0.4806 -0.0469 -0.8757
vn 0.2890 -0.0513 -0.9560
vn -0.0075 -0.0474 -0.9989
vn -0.0154 -0.0340 -0.9993
vn -0.2655 -0.0429 -0.9632
vn -0.3364 -0.0207 -0.9415
vn -0.4069 -0.0673 -0.9110
vn -0.4794 -0.0887 -0.8731
vn 0.3639 -0.0745 -0.9284
vn 0.2574 -0.0674 -0.9640
vn -0.0122 -0.1206 -0.9926
vn -0.2549 -0.0875 -0.9630
vn -0.3062 -0.0885 -0.9478
vn 0.3901 -0.0661 -0.9184
vn 0.2544 -0.1074 -0.9611
vn 0.0084 -0.0702 -0.9975
vn -0.2579 -0.1438 -0.9554
vn -0.3671 -0.1073 -0.9240
vn 0.1995 -0.0105 -0.9798
vn 0.0239 0.0333 -0.9992
vn -0.1808 -0.0419 -0.9826
vn -0.3618 0.0255 0.9319
vn -0.4807 0.0474 0.8756
vn -0.4525 0.0623 0.8896
vn -0.2887 0.0488 0.9562
vn -0.3650 0.0715 0.9283
vn -0.2560 0.0600 0.9648
vn -0.3838 0.0656 0.9211
vn -0.2500 0.1043 0.9626
vn -0.1951 0.0162 0.9806
vn 0.0069 0.0482 0.9988
vn 0.0150 0.0274 0.9995
vn 0.0117 0.1089 0.9940
vn -0.0006 0.0654 0.9979
vn -0.0007 -0.0278 0.9996
vn 0.1952 0.0224 0.9805
vn 0.2574 0.1257 0.9581
vn 0.3673 0.0906 0.9257
vn 0.2647 0.0401 0.9635
vn 0.2542 0.0787 0.9640
vn 0.3366 0.0207 0.9414
vn 0.4064 0.0675 0.9112
vn 0.3065 0.0828 0.9483
vn 0.4778 0.0902 0.8738
vn -0.8721 -0.2976 -0.3884
vn -0.8616 -0.2900 -0.4166
vn -0.7072 -0.6729 -0.2171
vn -0.7329 -0.6634 -0.1509
vn -0.7088 -0.6809 -0.1843
vn -0.6805 -0.6848 -0.2608
vn -0.4793 -0.8690 -0.1228
vn -0.4883 -0.8703 -0.0649
vn 0.0215 -0.9997 -0.0107
vn 0.0206 -0.9994 -0.0272
vn 0.4983 -0.8606 -0.1050
vn 0.5067 -0.8601 -0.0589
vn 0.7437 -0.6490 -0.1604
vn 0.7220 -0.6560 -0.2201
vn 0.7577 -0.6346 -0.1519
vn 0.7968 -0.5732 -0.1912
vn 0.8678 -0.3925 -0.3047
vn 0.8736 -0.2835 -0.3954
vt 0.567451 0.471798
vt 0.615752 0.426912
vt 0.626104 0.437829
vt 0.578885 0.483663
vt 0.525124 0.531606
vt 0.514539 0.519643
vt 0.471945 0.579810
vt 0.461258 0.567658
vt 0.421091 0.621396
vt 0.411303 0.609687
vt 0.574357 0.383117
vt 0.523093 0.436791
vt 0.478401 0.479804
vt 0.433110 0.519322
vt 0.378653 0.559255
vt 0.527690 0.371565
vt 0.491073 0.417436
vt 0.454657 0.453159
vt 0.414787 0.485652
vt 0.369653 0.517359
vt 0.479616 0.375009
vt 0.458538 0.393810
vt 0.427746 0.423526
vt 0.394723 0.450568
vt 0.373333 0.469363
vt 0.423248 0.360617
vt 0.392096 0.384287
vt 0.365936 0.414032
vt 0.665173 0.481283
vt 0.607897 0.528866
vt 0.670242 0.526222
vt 0.621574 0.559669
vt 0.664546 0.575119
vt 0.642511 0.594089
vt 0.670242 0.633783
vt 0.559474 0.570398
vt 0.580624 0.593638
vt 0.607657 0.623742
vt 0.642660 0.663478
vt 0.608604 0.686496
vt 0.574465 0.655158
vt 0.553075 0.674753
vt 0.514441 0.611543
vt 0.542482 0.630645
vt 0.466617 0.659462
vt 0.505340 0.670630
vt 0.349142 0.513770
vt 0.339067 0.529112
vt 0.344709 0.512123
vt 0.343516 0.530745
vt 0.337920 0.543897
vt 0.333613 0.541853
vt 0.329440 0.556391
vt 0.333977 0.557759
vt 0.328555 0.574423
vt 0.323821 0.573712
vt 0.323537 0.586235
vt 0.328271 0.586197
vt 0.328200 0.598119
vt 0.324035 0.598932
vt 0.329831 0.615474
vt 0.334167 0.613832
vt 0.338201 0.627641
vt 0.333878 0.629644
vt 0.342871 0.639515
vt 0.338419 0.641165
vt 0.349142 0.656196
vt 0.344842 0.658161
s 1
usemtl act\nosorog\act_nosorog_parts.001
f 3/1/1 2/2/2 29/3/3
f 3/1/1 29/3/3 38/4/4
f 3/1/1 38/4/4 40/5/5
f 3/1/1 40/5/5 5/6/6
f 5/6/6 40/5/5 4/7/7
f 5/6/6 4/7/7 15/8/8
f 15/8/8 4/7/7 6/9/9
f 15/8/8 6/9/9 17/10/10
f 3/1/11 9/11/12 2/2/13
f 34/12/14 9/11/12 3/1/11
f 34/12/14 3/1/11 5/6/15
f 34/12/14 5/6/15 39/13/16
f 13/14/17 39/13/16 5/6/15
f 13/14/17 5/6/15 15/8/18
f 13/14/17 15/8/18 16/15/19
f 16/15/19 15/8/18 17/10/20
f 34/12/14 7/16/21 9/11/12
f 34/12/14 42/17/22 7/16/21
f 34/12/14 39/13/16 42/17/22
f 43/18/23 42/17/22 39/13/16
f 43/18/23 39/13/16 32/19/24
f 13/14/17 32/19/24 39/13/16
f 13/14/17 30/20/25 32/19/24
f 13/14/17 16/15/19 30/20/25
f 42/17/22 26/21/26 7/16/21
f 24/22/27 26/21/26 42/17/22
f 43/18/23 24/22/27 42/17/22
f 43/18/23 22/23/28 24/22/27
f 43/18/23 21/24/29 22/23/28
f 43/18/23 32/19/24 21/24/29
f 21/24/29 32/19/24 10/25/30
f 32/19/24 30/20/25 10/25/30
f 24/22/27 18/26/31 26/21/26
f 24/22/27 22/23/28 18/26/31
f 22/23/28 1/27/32 18/26/31
f 22/23/28 20/28/33 1/27/32
f 21/24/29 20/28/33 22/23/28
f 21/24/29 10/25/30 20/28/33
f 38/4/34 29/3/35 8/29/36
f 35/30/37 38/4/34 8/29/36
f 35/30/37 8/29/36 41/31/38
f 35/30/37 41/31/38 44/32/39
f 44/32/39 41/31/38 27/33/40
f 25/34/41 44/32/39 27/33/40
f 25/34/41 27/33/40 19/35/42
f 35/30/37 40/5/43 38/4/34
f 35/30/37 45/36/44 40/5/43
f 35/30/37 44/32/39 45/36/44
f 31/37/45 45/36/44 44/32/39
f 31/37/45 44/32/39 25/34/41
f 31/37/45 25/34/41 23/38/46
f 25/34/41 19/35/42 23/38/46
f 23/38/46 19/35/42 28/39/47
f 23/38/46 28/39/47 11/40/48
f 33/41/49 23/38/46 11/40/48
f 33/41/49 11/40/48 12/42/50
f 14/43/51 40/5/43 45/36/44
f 14/43/51 45/36/44 37/44/52
f 31/37/45 37/44/52 45/36/44
f 31/37/45 33/41/49 37/44/52
f 31/37/45 23/38/46 33/41/49
f 14/43/51 4/7/53 40/5/43
f 14/43/51 46/45/54 4/7/53
f 14/43/51 36/46/55 46/45/54
f 14/43/51 37/44/52 36/46/55
f 37/44/52 12/42/50 36/46/55
f 33/41/49 12/42/50 37/44/52
f 46/45/54 6/9/56 4/7/53
f 2/47/2 8/48/57 29/49/3
f 2/47/2 9/50/58 8/48/57
f 7/51/59 8/48/57 9/50/58
f 7/51/59 41/52/60 8/48/57
f 7/51/59 27/53/61 41/52/60
f 7/51/59 26/54/62 27/53/61
f 18/55/63 27/53/61 26/54/62
f 18/55/63 19/56/64 27/53/61
f 18/55/63 28/57/65 19/56/64
f 18/55/63 1/58/66 28/57/65
f 28/57/65 1/58/66 20/59/67
f 28/57/65 20/59/67 11/60/68
f 12/61/69 11/60/68 20/59/67
f 12/61/69 20/59/67 10/62/70
f 12/61/69 10/62/70 30/63/71
f 12/61/69 30/63/71 36/64/72
f 36/64/72 30/63/71 16/65/73
f 36/64/72 16/65/73 46/66/74
f 46/66/74 16/65/73 17/67/10
f 46/66/74 17/67/10 6/68/9
