# Blender 4.5.3 LTS
# www.blender.org
mtllib PelvisFront.mtl
o stalker_monolith4nosorog.ogf_03
v 5.475415 38.594952 -3.286057
v -0.021248 30.612158 -5.496837
v -2.354122 34.721951 -5.553249
v -2.178746 34.581829 -4.885078
v 5.810498 38.652729 -3.898531
v 4.594872 34.202805 -4.153640
v -2.086223 32.958862 -5.984957
v -1.887848 32.886440 -5.325424
v -1.885298 30.845671 -6.147132
v 1.826491 30.759979 -6.143728
v 1.717006 30.750828 -5.443110
v 3.037577 32.887348 -4.787893
v -1.774523 30.822779 -5.528737
v -0.000001 33.025524 -6.265465
v 3.303353 32.903736 -5.437263
v -0.000000 32.976692 -5.575059
v 1.890942 32.903461 -5.319176
v 2.085439 32.960327 -5.981580
v -0.020720 30.593021 -6.197937
v -3.301924 32.902611 -5.437610
v -3.047859 32.835320 -4.802929
v -0.000000 36.240444 -5.292171
v -0.000000 34.841213 -5.964387
v -0.000000 34.702118 -5.267398
v 2.367669 34.734482 -5.636426
v 2.189422 34.606171 -4.964439
v 4.871045 34.364769 -4.783103
v -2.534220 36.192223 -4.742892
v -4.493709 34.299377 -4.248245
v -4.723384 34.467712 -4.893886
v 5.525783 35.948849 -3.400226
v 3.215328 38.549541 -5.328720
v 5.845361 36.003994 -4.022707
v 2.978557 38.528645 -4.659798
v 2.621588 36.151035 -4.803830
v 2.824422 36.171555 -5.486752
v -0.000000 38.535221 -5.125755
v -0.000000 36.261208 -6.004927
v -0.000000 38.606243 -5.835937
v -5.558130 35.992268 -4.307677
v -3.213270 38.540756 -5.326978
v -5.808986 38.640438 -3.897260
v -5.263660 35.926559 -3.672257
v -5.478709 38.529613 -3.289594
v -2.715339 36.201366 -5.427138
v -2.996083 38.540390 -4.651804
vn 0.2655 -0.0429 0.9632
vn 0.2548 -0.0875 0.9630
vn 0.0154 -0.0339 0.9993
vn -0.0273 0.9982 0.0526
vn 0.7733 0.4452 0.4515
vn 0.3502 0.9021 0.2522
vn -0.0180 0.9995 0.0248
vn -0.0020 0.9969 0.0782
vn -0.0054 0.9978 0.0664
vn 0.0100 0.9995 0.0299
vn 0.0359 0.9984 0.0436
vn -0.3735 0.8843 0.2802
vn -0.8148 0.3335 0.4743
vn -0.3608 -0.0243 0.9323
vn -0.4524 -0.0618 0.8897
vn -0.4806 -0.0469 0.8757
vn -0.2890 -0.0513 0.9560
vn 0.0075 -0.0474 0.9989
vn 0.3364 -0.0207 0.9415
vn 0.4069 -0.0673 0.9110
vn 0.4794 -0.0887 0.8731
vn -0.3639 -0.0745 0.9284
vn -0.2574 -0.0673 0.9640
vn 0.0122 -0.1206 0.9926
vn 0.2579 -0.1438 0.9554
vn 0.3671 -0.1073 0.9240
vn 0.3062 -0.0885 0.9478
vn -0.3901 -0.0661 0.9184
vn -0.2544 -0.1074 0.9611
vn -0.0084 -0.0702 0.9975
vn 0.1808 -0.0419 0.9826
vn -0.1995 -0.0105 0.9798
vn -0.0239 0.0333 0.9992
vn 0.3618 0.0255 -0.9319
vn 0.4807 0.0474 -0.8756
vn 0.4525 0.0623 -0.8896
vn 0.2887 0.0488 -0.9562
vn 0.3650 0.0715 -0.9283
vn 0.2559 0.0600 -0.9648
vn 0.3836 0.0657 -0.9212
vn 0.2499 0.1044 -0.9626
vn 0.1951 0.0162 -0.9807
vn -0.0069 0.0482 -0.9988
vn -0.0150 0.0274 -0.9995
vn -0.0117 0.1089 -0.9940
vn 0.0006 0.0654 -0.9979
vn 0.0007 -0.0278 -0.9996
vn -0.1953 0.0224 -0.9805
vn -0.2575 0.1257 -0.9581
vn -0.3675 0.0906 -0.9256
vn -0.2647 0.0401 -0.9635
vn -0.2542 0.0787 -0.9639
vn -0.3366 0.0207 -0.9414
vn -0.4064 0.0674 -0.9112
vn -0.3065 0.0828 -0.9483
vn -0.4778 0.0902 -0.8738
vn 0.8721 -0.2976 0.3884
vn 0.8616 -0.2899 0.4167
vn 0.7072 -0.6729 0.2171
vn 0.7329 -0.6634 0.1509
vn 0.7087 -0.6809 0.1845
vn 0.6801 -0.6851 0.2610
vn 0.4791 -0.8691 0.1229
vn 0.4882 -0.8703 0.0649
vn -0.0215 -0.9997 0.0107
vn -0.0206 -0.9994 0.0272
vn -0.4985 -0.8606 0.1048
vn -0.5068 -0.8601 0.0589
vn -0.7438 -0.6489 0.1601
vn -0.7222 -0.6559 0.2196
vn -0.7577 -0.6347 0.1518
vn -0.7968 -0.5732 0.1912
vn -0.8678 -0.3925 0.3047
vn -0.8736 -0.2835 0.3954
vt 0.433110 0.519322
vt 0.414787 0.485652
vt 0.478401 0.479804
vt 0.567451 0.471798
vt 0.615752 0.426912
vt 0.626104 0.437829
vt 0.578885 0.483663
vt 0.525124 0.531606
vt 0.514539 0.519643
vt 0.471945 0.579810
vt 0.461258 0.567658
vt 0.421091 0.621396
vt 0.411303 0.609687
vt 0.574357 0.383117
vt 0.523093 0.436791
vt 0.378653 0.559255
vt 0.527690 0.371565
vt 0.491073 0.417436
vt 0.454657 0.453159
vt 0.394723 0.450568
vt 0.373333 0.469363
vt 0.369653 0.517359
vt 0.479616 0.375009
vt 0.458538 0.393810
vt 0.427746 0.423526
vt 0.365936 0.414032
vt 0.423248 0.360617
vt 0.392096 0.384287
vt 0.665173 0.481283
vt 0.607897 0.528866
vt 0.670242 0.526222
vt 0.621574 0.559669
vt 0.664546 0.575119
vt 0.642511 0.594089
vt 0.670242 0.633783
vt 0.559474 0.570398
vt 0.580624 0.593638
vt 0.607657 0.623742
vt 0.642660 0.663478
vt 0.608604 0.686496
vt 0.574465 0.655158
vt 0.553075 0.674753
vt 0.514441 0.611543
vt 0.542482 0.630645
vt 0.466617 0.659462
vt 0.505340 0.670630
vt 0.349142 0.513770
vt 0.339067 0.529112
vt 0.344709 0.512123
vt 0.343516 0.530745
vt 0.337920 0.543897
vt 0.333613 0.541853
vt 0.329440 0.556391
vt 0.333977 0.557759
vt 0.328555 0.574423
vt 0.323821 0.573712
vt 0.323537 0.586235
vt 0.328271 0.586197
vt 0.328200 0.598119
vt 0.324035 0.598932
vt 0.329831 0.615474
vt 0.334167 0.613832
vt 0.338201 0.627641
vt 0.333878 0.629644
vt 0.342871 0.639515
vt 0.338419 0.641165
vt 0.349142 0.656196
vt 0.344842 0.658161
s 1
usemtl act\nosorog\act_nosorog_parts.001
f 28/1/1 4/2/2 22/3/3
f 34/4/4 1/5/5 5/6/6
f 34/4/4 5/6/6 32/7/7
f 34/4/4 32/7/7 39/8/8
f 34/4/4 39/8/8 37/9/9
f 37/9/9 39/8/8 41/10/10
f 37/9/9 41/10/10 46/11/11
f 46/11/11 41/10/10 42/12/12
f 46/11/11 42/12/12 44/13/13
f 34/4/14 31/14/15 1/5/16
f 35/15/17 31/14/15 34/4/14
f 35/15/17 34/4/14 37/9/18
f 35/15/17 37/9/18 22/3/3
f 28/1/1 22/3/3 37/9/18
f 28/1/1 37/9/18 46/11/19
f 28/1/1 46/11/19 43/16/20
f 43/16/20 46/11/19 44/13/21
f 35/15/17 6/17/22 31/14/15
f 35/15/17 26/18/23 6/17/22
f 35/15/17 22/3/3 26/18/23
f 24/19/24 26/18/23 22/3/3
f 24/19/24 22/3/3 4/2/2
f 24/19/24 4/2/2 8/20/25
f 8/20/25 4/2/2 21/21/26
f 4/2/2 29/22/27 21/21/26
f 28/1/1 29/22/27 4/2/2
f 28/1/1 43/16/20 29/22/27
f 26/18/23 12/23/28 6/17/22
f 17/24/29 12/23/28 26/18/23
f 24/19/24 17/24/29 26/18/23
f 24/19/24 16/25/30 17/24/29
f 24/19/24 8/20/25 16/25/30
f 8/20/25 13/26/31 16/25/30
f 8/20/25 21/21/26 13/26/31
f 17/24/29 11/27/32 12/23/28
f 17/24/29 16/25/30 11/27/32
f 16/25/30 2/28/33 11/27/32
f 16/25/30 13/26/31 2/28/33
f 32/7/34 5/6/35 33/29/36
f 36/30/37 32/7/34 33/29/36
f 36/30/37 33/29/36 27/31/38
f 36/30/37 27/31/38 25/32/39
f 25/32/39 27/31/38 15/33/40
f 18/34/41 25/32/39 15/33/40
f 18/34/41 15/33/40 10/35/42
f 36/30/37 39/8/43 32/7/34
f 36/30/37 38/36/44 39/8/43
f 36/30/37 25/32/39 38/36/44
f 23/37/45 38/36/44 25/32/39
f 23/37/45 25/32/39 18/34/41
f 23/37/45 18/34/41 14/38/46
f 18/34/41 10/35/42 14/38/46
f 14/38/46 10/35/42 19/39/47
f 14/38/46 19/39/47 9/40/48
f 7/41/49 14/38/46 9/40/48
f 7/41/49 9/40/48 20/42/50
f 45/43/51 39/8/43 38/36/44
f 45/43/51 38/36/44 3/44/52
f 23/37/45 3/44/52 38/36/44
f 23/37/45 7/41/49 3/44/52
f 23/37/45 14/38/46 7/41/49
f 45/43/51 41/10/53 39/8/43
f 45/43/51 40/45/54 41/10/53
f 45/43/51 30/46/55 40/45/54
f 45/43/51 3/44/52 30/46/55
f 3/44/52 20/42/50 30/46/55
f 7/41/49 20/42/50 3/44/52
f 40/45/54 42/12/56 41/10/53
f 1/47/5 33/48/57 5/49/6
f 1/47/5 31/50/58 33/48/57
f 6/51/59 33/48/57 31/50/58
f 6/51/59 27/52/60 33/48/57
f 6/51/59 15/53/61 27/52/60
f 6/51/59 12/54/62 15/53/61
f 11/55/63 15/53/61 12/54/62
f 11/55/63 10/56/64 15/53/61
f 11/55/63 19/57/65 10/56/64
f 11/55/63 2/58/66 19/57/65
f 19/57/65 2/58/66 13/59/67
f 19/57/65 13/59/67 9/60/68
f 20/61/69 9/60/68 13/59/67
f 20/61/69 13/59/67 21/62/70
f 20/61/69 21/62/70 29/63/71
f 20/61/69 29/63/71 30/64/72
f 30/64/72 29/63/71 43/65/73
f 30/64/72 43/65/73 40/66/74
f 40/66/74 43/65/73 44/67/13
f 40/66/74 44/67/13 42/68/12
