# Blender 4.5.3 LTS
# www.blender.org
mtllib SHoe.mtl
o stalker_monolith4nosorog.ogf_03
v 0.217533 0.137353 -0.034283
v 0.241403 0.037190 0.029455
v 0.222788 0.116767 -0.034473
v 0.207024 0.150782 -0.029639
v 0.190747 0.154157 -0.047753
v 0.137465 0.001725 0.076255
v 0.136800 0.025443 0.076658
v 0.218441 0.025838 0.081228
v 0.215903 0.001684 0.081104
v 0.162331 0.069298 -0.223115
v 0.136053 0.064793 -0.214422
v 0.125711 0.030529 -0.215440
v 0.161926 0.033668 -0.233677
v 0.197843 0.071558 -0.219306
v 0.252160 0.029876 -0.175188
v 0.233682 0.028960 -0.209170
v 0.251324 0.001575 -0.173886
v 0.112958 0.029829 0.009153
v 0.125024 0.141343 -0.027159
v 0.121890 0.106106 -0.034440
v 0.120011 0.001468 0.036256
v 0.118411 0.025886 0.039025
v 0.230891 0.031431 0.057916
v 0.109139 0.001580 -0.181239
v 0.256041 0.001439 -0.098234
v 0.125888 0.002095 -0.216629
v 0.229732 0.001043 -0.209044
v 0.205637 0.009320 -0.229464
v 0.115911 0.001396 0.007505
v 0.242005 0.001421 0.023811
v 0.255531 0.001443 -0.067951
v 0.231016 0.001648 0.061543
v 0.108760 0.001517 -0.076236
v 0.160818 0.010005 -0.233533
v 0.109531 0.032731 -0.100536
v 0.126550 0.077018 -0.131157
v 0.158031 0.088058 -0.139082
v 0.108906 0.033424 -0.183042
v 0.199229 0.089057 -0.136394
v 0.200255 0.080130 -0.193834
v 0.161139 0.082342 -0.198638
v 0.128687 0.071515 -0.195199
v 0.206157 0.033627 -0.229597
v 0.223585 0.081310 -0.127555
v 0.257354 0.028645 -0.099436
v 0.230789 0.068632 -0.187712
v 0.166819 0.153978 -0.051604
v 0.225323 0.063843 -0.206440
v 0.140755 0.149235 -0.043587
v 0.118374 0.139173 -0.041379
v 0.250738 0.037159 0.013183
v 0.258341 0.032218 -0.072970
v 0.258737 0.030887 -0.087352
v 0.122446 0.093479 -0.113271
v 0.199911 0.099364 -0.130186
v 0.156203 0.097450 -0.134341
v 0.225658 0.093173 -0.121402
v 0.103928 0.036116 -0.091300
v 0.108905 0.033268 -0.074667
v 0.215436 0.148860 -0.045229
v 0.221406 0.122444 -0.046195
v 0.153911 0.101750 -0.118734
v 0.200078 0.102472 -0.113783
v 0.223645 0.095392 -0.105876
v 0.163960 0.128842 -0.064330
v 0.192224 0.151793 -0.058102
v 0.194452 0.127754 -0.061389
v 0.166646 0.150502 -0.060532
v 0.137529 0.145867 -0.052154
v 0.119611 0.113548 -0.043873
v 0.139286 0.122415 -0.057044
v 0.122166 0.087842 -0.125818
vn -0.8023 -0.5177 -0.2970
vn -0.9947 -0.0539 0.0879
vn -0.9772 -0.0688 -0.2009
vn -0.0002 -1.0000 0.0039
vn -0.0000 -1.0000 0.0048
vn -0.0006 -1.0000 0.0014
vn -0.0000 -1.0000 0.0045
vn 0.0002 -1.0000 0.0025
vn -0.0002 -1.0000 0.0005
vn -0.0003 -1.0000 -0.0003
vn -0.0005 -1.0000 -0.0009
vn -0.0003 -1.0000 -0.0007
vn -0.0025 -1.0000 -0.0013
vn -0.0004 -1.0000 0.0067
vn 0.0081 -0.9794 -0.2018
vn 0.0053 -0.9780 -0.2084
vn 0.0206 -0.9188 -0.3943
vn 0.0221 -0.9172 -0.3978
vn -0.9310 0.3648 0.0101
vn -0.7798 0.6237 -0.0536
vn -0.9102 0.3744 -0.1772
vn -0.6649 0.6879 -0.2911
vn -0.1581 0.9809 -0.1132
vn -0.1364 0.9365 -0.3230
vn 0.2221 0.9468 -0.2329
vn 0.2401 0.9591 -0.1500
vn 0.6827 0.6838 -0.2577
vn 0.7311 0.6786 -0.0704
vn -0.7496 0.2511 -0.6124
vn -0.5054 0.5287 -0.6819
vn -0.1541 0.6245 -0.7657
vn 0.2102 0.6645 -0.7171
vn 0.6124 0.5499 -0.5680
vn 0.8047 0.2601 -0.5337
vn 0.8762 0.4496 -0.1738
vn 0.8527 0.5200 -0.0500
vn -0.1617 0.2571 -0.9527
vn 0.4010 0.2780 -0.8729
vn 0.2494 -0.0386 0.9676
vn 0.8863 0.0049 0.4632
vn 0.6094 -0.0087 0.7928
vn 0.9293 0.0210 0.3688
vn 0.9456 -0.0653 0.3186
vn 0.9062 -0.0510 0.4197
vn 0.9619 -0.1136 0.2488
vn 0.9909 -0.1134 0.0719
vn 0.9947 -0.0805 0.0636
vn 0.9968 -0.0780 -0.0175
vn 0.9965 -0.0670 -0.0499
vn 0.9959 -0.0453 -0.0784
vn 0.9551 -0.0651 -0.2891
vn 0.9594 -0.0412 -0.2789
vn 0.7510 -0.0712 -0.6565
vn 0.7468 -0.1086 -0.6561
vn 0.3651 -0.0330 -0.9304
vn 0.3560 -0.0127 -0.9344
vn -0.0928 -0.0007 -0.9957
vn -0.2768 0.0138 -0.9608
vn -0.7085 0.0080 -0.7057
vn -0.7126 0.0249 -0.7012
vn -0.9740 -0.0013 -0.2265
vn -0.9725 -0.0203 -0.2321
vn -1.0000 0.0069 -0.0068
vn -0.9998 0.0093 0.0191
vn -0.9988 -0.0333 0.0349
vn -0.9933 -0.0720 0.0900
vn -0.9880 -0.1000 0.1177
vn -0.9662 -0.1003 0.2375
vn -0.9383 -0.0743 0.3378
vn -0.7125 -0.0595 0.6991
vn -0.3853 -0.0192 0.9226
vn 0.9059 0.3874 0.1710
vn 0.7435 0.5158 0.4256
vn 0.8857 0.4240 0.1892
vn 0.8897 0.4148 -0.1905
vn 0.9074 0.4185 -0.0375
vn 0.6694 0.7224 -0.1733
vn 0.8957 0.4051 -0.1836
vn 0.6291 0.6771 -0.3817
vn 0.6718 0.3804 -0.6356
vn 0.8692 0.4588 -0.1846
vn 0.9342 0.3273 0.1416
vn 0.6956 0.6416 -0.3233
vn 0.3281 0.5225 -0.7870
vn 0.1864 0.9384 -0.2909
vn 0.2124 0.7851 -0.5819
vn 0.1808 0.4799 -0.8585
vn -0.1648 0.6451 -0.7461
vn -0.1529 0.4215 -0.8939
vn 0.5517 0.8103 0.1978
vn -0.6332 0.1586 -0.7576
vn -0.6503 0.5449 -0.5294
vn -0.1791 0.9242 -0.3374
vn -0.7454 0.6458 -0.1653
vn -0.9694 0.2452 0.0108
vn -0.9276 0.2497 0.2778
vn -0.9017 0.2059 0.3803
vn -0.8941 0.3392 0.2924
vn -0.1424 0.6085 -0.7807
vn -0.4872 0.5510 -0.6775
vn -0.7684 0.5196 -0.3736
vn -0.3955 0.6213 -0.6764
vn -0.3630 0.9214 -0.1390
vn -0.0857 0.5419 -0.8360
vn 0.1961 0.7570 -0.6233
vn -0.1215 0.9452 -0.3030
vn 0.1555 0.9781 -0.1386
vt 0.966549 0.257848
vt 0.947189 0.263877
vt 0.958427 0.257597
vt 0.452808 0.222503
vt 0.415989 0.228429
vt 0.421913 0.220705
vt 0.459738 0.238229
vt 0.411716 0.243304
vt 0.461393 0.249545
vt 0.406520 0.279458
vt 0.464328 0.282512
vt 0.406362 0.291384
vt 0.464328 0.323861
vt 0.408327 0.321168
vt 0.416879 0.334984
vt 0.457785 0.337824
vt 0.444040 0.345192
vt 0.426384 0.343643
vt 0.234248 0.533884
vt 0.198790 0.501893
vt 0.232553 0.455452
vt 0.196712 0.454290
vt 0.174237 0.495111
vt 0.173981 0.452828
vt 0.147008 0.453882
vt 0.143287 0.496145
vt 0.123633 0.453289
vt 0.123882 0.502417
vt 0.217680 0.423869
vt 0.193481 0.440437
vt 0.175468 0.433918
vt 0.150581 0.435926
vt 0.128868 0.439926
vt 0.107576 0.418508
vt 0.083718 0.448838
vt 0.064371 0.521270
vt 0.183461 0.402610
vt 0.139305 0.405088
vt 0.106922 0.734369
vt 0.078199 0.712946
vt 0.112510 0.713281
vt 0.101963 0.689580
vt 0.052862 0.667325
vt 0.093378 0.658917
vt 0.087219 0.641611
vt 0.032487 0.560304
vt 0.068308 0.552757
vt 0.067008 0.535808
vt 0.033237 0.519687
vt 0.056811 0.435396
vt 0.089415 0.393213
vt 0.131864 0.379339
vt 0.192558 0.379298
vt 0.240084 0.402797
vt 0.263943 0.448045
vt 0.263943 0.563774
vt 0.227636 0.562130
vt 0.247665 0.655387
vt 0.218125 0.646947
vt 0.232840 0.688785
vt 0.209400 0.676392
vt 0.196943 0.727891
vt 0.187715 0.708603
vt 0.898514 0.115612
vt 0.877101 0.028699
vt 0.893160 0.032802
vt 0.903694 0.124886
vt 0.961718 0.061128
vt 0.958748 0.128273
vt 0.973181 0.065904
vt 0.971020 0.130620
vt 0.981475 0.128247
vt 0.983129 0.069537
vt 0.888598 0.126782
vt 0.887227 0.138038
vt 0.911188 0.150322
vt 0.959924 0.149564
vt 0.973244 0.151557
vt 0.983129 0.151794
vt 0.973415 0.186496
vt 0.982047 0.187325
vt 0.876801 0.130942
vt 0.975950 0.214910
vt 0.967101 0.212194
vt 0.960575 0.186915
vt 0.957495 0.211398
vt 0.903790 0.215998
vt 0.890027 0.288629
vt 0.900717 0.223829
vt 0.881761 0.212635
vt 0.911956 0.176117
vt 0.909367 0.197482
vt 0.889106 0.206275
vt 0.893202 0.192277
vt 0.887125 0.190697
vt 0.879290 0.203891
vt 0.896011 0.172580
vt 0.893565 0.155795
vt 0.889616 0.172798
vt 0.886279 0.156463
vt 0.875078 0.142534
s 1
usemtl act\nosorog\act_nosorog_parts
f 35/1/1 59/2/2 58/3/3
f 6/4/4 32/5/5 9/6/6
f 21/7/7 32/5/5 6/4/4
f 32/5/5 21/7/7 30/8/8
f 30/8/8 21/7/7 29/9/9
f 30/8/8 29/9/9 31/10/10
f 31/10/10 29/9/9 33/11/11
f 25/12/12 31/10/10 33/11/11
f 33/11/11 24/13/13 25/12/12
f 25/12/12 24/13/13 17/14/14
f 24/13/13 27/15/15 17/14/14
f 26/16/16 27/15/15 24/13/13
f 34/17/17 27/15/15 26/16/16
f 28/18/18 27/15/15 34/17/17
f 35/19/19 36/20/20 38/21/21
f 38/21/21 36/20/20 42/22/22
f 36/20/20 37/23/23 42/22/22
f 37/23/23 41/24/24 42/22/22
f 41/24/24 37/23/23 40/25/25
f 37/23/23 39/26/26 40/25/25
f 40/25/25 39/26/26 46/27/27
f 39/26/26 44/28/28 46/27/27
f 12/29/29 38/21/21 42/22/22
f 11/30/30 12/29/29 42/22/22
f 41/24/24 11/30/30 42/22/22
f 11/30/30 41/24/24 10/31/31
f 41/24/24 14/32/32 10/31/31
f 14/32/32 41/24/24 40/25/25
f 48/33/33 14/32/32 40/25/25
f 48/33/33 40/25/25 46/27/27
f 16/34/34 48/33/33 46/27/27
f 15/35/35 16/34/34 46/27/27
f 44/28/28 15/35/35 46/27/27
f 44/28/28 45/36/36 15/35/35
f 11/30/30 13/37/37 12/29/29
f 13/37/37 11/30/30 10/31/31
f 14/32/32 13/37/37 10/31/31
f 13/37/37 14/32/32 43/38/38
f 14/32/32 48/33/33 43/38/38
f 48/33/33 16/34/34 43/38/38
f 9/39/39 32/40/40 8/41/41
f 32/40/40 23/42/42 8/41/41
f 32/40/40 30/43/43 23/42/42
f 23/42/42 30/43/43 2/44/44
f 2/44/44 30/43/43 51/45/45
f 30/43/43 31/46/46 51/45/45
f 51/45/45 31/46/46 52/47/47
f 31/46/46 53/48/48 52/47/47
f 31/46/46 25/49/49 53/48/48
f 25/49/49 45/36/50 53/48/48
f 25/49/49 17/50/51 45/36/50
f 45/36/50 17/50/51 15/35/52
f 15/35/52 17/50/51 16/34/53
f 17/50/51 27/51/54 16/34/53
f 27/51/54 28/52/55 16/34/53
f 16/34/53 28/52/55 43/38/56
f 28/52/55 13/37/57 43/38/56
f 28/52/55 34/53/58 13/37/57
f 13/37/57 34/53/58 12/29/59
f 34/53/58 26/54/60 12/29/59
f 26/54/60 24/55/61 12/29/59
f 24/55/61 38/21/62 12/29/59
f 24/55/61 35/19/63 38/21/62
f 33/56/64 35/19/63 24/55/61
f 35/19/63 33/56/64 59/57/65
f 33/56/64 29/58/66 59/57/65
f 59/57/65 29/58/66 18/59/67
f 21/60/68 18/59/67 29/58/66
f 22/61/69 18/59/67 21/60/68
f 21/60/68 6/62/70 22/61/69
f 22/61/69 6/62/70 7/63/71
f 9/39/39 8/41/41 7/63/71
f 6/62/70 9/39/39 7/63/71
f 3/64/72 2/65/73 51/66/74
f 61/67/75 3/64/72 51/66/74
f 61/67/75 51/66/74 52/68/76
f 64/69/77 61/67/75 52/68/76
f 53/70/78 64/69/77 52/68/76
f 57/71/79 64/69/77 53/70/78
f 44/72/80 57/71/79 53/70/78
f 45/73/81 44/72/80 53/70/78
f 1/74/82 3/64/72 61/67/75
f 60/75/83 1/74/82 61/67/75
f 67/76/84 60/75/83 61/67/75
f 67/76/84 61/67/75 64/69/77
f 67/76/84 64/69/77 63/77/85
f 64/69/77 57/71/79 63/77/85
f 57/71/79 55/78/86 63/77/85
f 57/71/79 44/72/80 55/78/86
f 44/72/80 39/79/87 55/78/86
f 55/78/86 39/79/87 56/80/88
f 39/79/87 37/81/89 56/80/88
f 1/74/82 60/75/83 4/82/90
f 37/81/89 36/83/91 56/80/88
f 36/83/91 72/84/92 56/80/88
f 36/83/91 58/3/3 72/84/92
f 35/1/1 58/3/3 36/83/91
f 56/80/88 72/84/92 62/85/93
f 72/84/92 54/86/94 62/85/93
f 72/84/92 58/3/3 54/86/94
f 58/3/3 59/2/2 54/86/94
f 59/2/2 70/87/95 54/86/94
f 70/87/95 59/2/2 18/88/96
f 70/87/95 18/88/96 20/89/97
f 19/90/98 70/87/95 20/89/97
f 55/78/86 56/80/88 62/85/93
f 63/77/85 55/78/86 62/85/93
f 65/91/99 63/77/85 62/85/93
f 71/92/100 65/91/99 62/85/93
f 54/86/94 71/92/100 62/85/93
f 70/87/95 71/92/100 54/86/94
f 70/87/95 50/93/101 71/92/100
f 71/92/100 50/93/101 69/94/102
f 50/93/101 49/95/103 69/94/102
f 49/95/103 50/93/101 19/96/98
f 65/91/99 67/76/84 63/77/85
f 67/76/84 65/91/99 68/97/104
f 68/97/104 65/91/99 69/94/102
f 65/91/99 71/92/100 69/94/102
f 67/76/84 68/97/104 66/98/105
f 60/75/83 67/76/84 66/98/105
f 50/93/101 70/87/95 19/90/98
f 49/95/103 47/99/106 69/94/102
f 47/99/106 68/97/104 69/94/102
f 68/97/104 47/99/106 66/98/105
f 47/99/106 5/100/107 66/98/105
f 5/100/107 60/75/83 66/98/105
f 60/75/83 5/100/107 4/101/90
