# Blender 4.5.3 LTS
# www.blender.org
mtllib Untitled.mtl
o stalker_monolith4nosorog.ogf_03
v 0.097813 0.274728 0.070555
v 0.229317 0.143913 0.077505
v 0.213411 0.222585 0.095444
v 0.105927 0.463380 0.063128
v 0.065075 0.496829 0.007527
v 0.088243 0.495616 0.029787
v 0.114013 0.066025 0.071840
v 0.140620 0.098250 0.081575
v 0.119650 0.093463 0.040006
v 0.217533 0.137353 -0.034283
v 0.250123 0.202520 0.050579
v 0.239896 0.166859 -0.014711
v 0.243276 0.220037 0.082220
v 0.068280 0.253722 0.023228
v 0.086019 0.305854 -0.045355
v 0.092352 0.243186 -0.033701
v 0.095371 0.440357 -0.083713
v 0.200355 0.445792 -0.084987
v 0.224075 0.503040 0.027099
v 0.145328 0.433434 -0.102732
v 0.187604 0.499555 0.048285
v 0.229321 0.452052 0.056110
v 0.233160 0.117752 -0.022896
v 0.241403 0.037190 0.029455
v 0.222788 0.116767 -0.034473
v 0.207024 0.150782 -0.029639
v 0.053545 0.389119 0.069458
v 0.190747 0.154157 -0.047753
v 0.060653 0.335598 0.075514
v 0.071854 0.389424 0.074081
v 0.247524 0.149858 0.045602
v 0.239476 0.142881 0.075483
v 0.136800 0.025443 0.076658
v 0.218441 0.025838 0.081228
v 0.197300 0.451515 -0.086997
v 0.177000 0.437705 -0.098698
v 0.107717 0.101333 -0.034509
v 0.125024 0.141343 -0.027159
v 0.088764 0.102194 0.039144
v 0.121890 0.106106 -0.034440
v 0.111522 0.093447 0.050566
v 0.118411 0.025886 0.039025
v 0.230891 0.031431 0.057916
v 0.155701 0.497670 0.054866
v 0.119715 0.495860 0.049080
v 0.233900 0.501954 0.021073
v 0.223866 0.503939 -0.005791
v 0.067284 0.493921 -0.010960
v 0.145447 0.437387 -0.099673
v 0.098156 0.440332 -0.079561
v 0.073761 0.485396 -0.065165
v 0.221411 0.495219 -0.044678
v 0.117765 0.437520 -0.097809
v 0.228797 0.503506 -0.006499
v 0.075707 0.209716 0.026473
v 0.101027 0.210933 0.034270
v 0.069682 0.266329 0.080132
v 0.044159 0.456796 0.054257
v 0.048087 0.492328 0.002140
v 0.063956 0.479879 -0.057779
v 0.253604 0.268993 0.058331
v 0.243200 0.087821 0.039473
v 0.233695 0.074040 0.073973
v 0.222836 0.070096 0.071776
v 0.214272 0.063635 0.081228
v 0.122009 0.064033 0.054599
v 0.093366 0.061001 0.061774
v 0.248350 0.503049 0.017462
v 0.240442 0.448441 0.064846
v 0.212121 0.465364 0.063400
v 0.232939 0.391843 0.080825
v 0.154387 0.466410 0.070369
v 0.209766 0.096767 0.082048
v 0.243186 0.391189 0.077530
v 0.192071 0.469225 0.064242
v 0.107374 0.033100 0.028945
v 0.231705 0.220903 0.083652
v 0.089753 0.334394 0.077124
v 0.080606 0.380571 0.078588
v 0.077981 0.334874 0.080438
v 0.224821 0.221928 0.076771
v 0.113909 0.275047 0.100109
v 0.212025 0.145135 0.087205
v 0.075140 0.452192 0.040141
v 0.196165 0.400953 0.112268
v 0.113219 0.398370 0.111238
v 0.065417 0.455656 0.059954
v 0.125356 0.218520 0.094210
v 0.091502 0.271475 0.078766
v 0.106414 0.142349 0.038708
v 0.085842 0.460480 0.058350
v 0.240761 0.330354 0.087210
v 0.221795 0.329848 0.106913
v 0.106446 0.215500 0.031883
v 0.136328 0.145625 0.086567
v 0.136798 0.064234 0.076414
v 0.240134 0.047434 0.053073
v 0.051873 0.379201 0.013919
v 0.059128 0.324175 0.019135
v 0.076629 0.442078 -0.082483
v 0.042328 0.451471 0.006746
v 0.118783 0.173788 -0.029571
v 0.110292 0.307477 -0.047890
v 0.081204 0.365227 -0.059590
v 0.105028 0.365783 -0.060987
v 0.116477 0.245964 -0.040271
v 0.166819 0.153978 -0.051604
v 0.140755 0.149235 -0.043587
v 0.130601 0.305971 -0.062959
v 0.126031 0.365848 -0.077011
v 0.164221 0.173762 -0.051746
v 0.160290 0.242961 -0.059341
v 0.135506 0.242554 -0.052663
v 0.139493 0.172942 -0.044679
v 0.189428 0.174793 -0.049334
v 0.206194 0.248977 -0.040441
v 0.184986 0.244028 -0.059311
v 0.154137 0.306596 -0.068418
v 0.207507 0.172164 -0.032131
v 0.224926 0.250563 -0.043672
v 0.205131 0.312871 -0.052266
v 0.223496 0.370888 -0.067042
v 0.237771 0.490473 -0.052779
v 0.179261 0.367500 -0.082636
v 0.204307 0.369113 -0.064498
v 0.223476 0.315002 -0.054589
v 0.219352 0.444735 -0.085605
v 0.182741 0.308016 -0.069255
v 0.197172 0.445868 -0.081132
v 0.174785 0.441351 -0.096091
v 0.216575 0.495940 -0.043635
v 0.078516 0.486943 -0.065146
v 0.224931 0.168723 -0.031548
v 0.149356 0.368315 -0.083324
v 0.072229 0.494541 -0.010562
v 0.242067 0.253563 -0.021934
v 0.243377 0.317900 -0.029485
v 0.254503 0.383212 0.034480
v 0.244433 0.374530 -0.036849
v 0.245620 0.444403 -0.046784
v 0.118374 0.139173 -0.041379
v 0.096548 0.455145 -0.079082
v 0.120099 0.440959 -0.095030
v 0.193507 0.452891 -0.084045
v 0.254576 0.447950 0.061834
v 0.256490 0.389664 0.073185
v 0.215436 0.148860 -0.045229
v 0.192224 0.151793 -0.058102
v 0.101948 0.166250 -0.024294
v 0.236115 0.270660 0.063696
v 0.253914 0.324519 0.045807
v 0.229662 0.271537 0.062840
v 0.254445 0.330252 0.083533
v 0.086992 0.151861 0.033310
v 0.166646 0.150502 -0.060532
v 0.137529 0.145867 -0.052154
v 0.255428 0.448588 0.023834
v 0.104671 0.328829 0.105737
v 0.216241 0.273395 0.100867
v 0.092719 0.453519 -0.081855
vn -0.0134 -0.7221 -0.6916
vn 0.5777 -0.0406 -0.8152
vn 0.4104 -0.6939 -0.5916
vn -0.3208 -0.5299 0.7851
vn -0.6086 0.0114 0.7934
vn -0.4748 0.0750 0.8769
vn 0.5776 -0.0403 -0.8153
vn 0.4103 -0.6942 -0.5914
vn 0.5780 0.0221 -0.8157
vn -0.1102 0.2304 0.9668
vn -0.4256 0.0027 0.9049
vn 0.7998 0.3112 0.5133
vn 0.9082 0.0522 0.4152
vn -0.0318 -0.3752 0.9264
vn -0.2746 0.1428 0.9509
vn 0.6222 -0.1883 0.7599
vn -0.5215 -0.2171 0.8251
vn -0.0133 -0.7222 -0.6916
vn -0.0209 0.3346 0.9421
vn 0.4373 0.0609 0.8972
vn -0.3651 -0.5519 -0.7498
vn 0.2342 -0.6015 0.7637
vn 0.6196 0.0419 0.7838
vn 0.4168 -0.4841 0.7694
vn -0.5375 -0.3633 -0.7610
vn -0.6169 0.3549 -0.7025
vn 0.5771 -0.5482 0.6054
vn -0.5377 0.8431 0.0007
vn 0.4799 0.8649 0.1469
vn -0.5623 -0.1999 0.8024
vn -0.8069 -0.4048 0.4303
vn 0.5370 0.6819 -0.4966
vn -0.3651 -0.5516 -0.7499
vn -0.5374 -0.3630 -0.7612
vn -0.6171 0.3546 -0.7025
vn 0.5372 0.6817 -0.4966
vn 0.0128 0.9968 -0.0790
vn -0.5380 0.8429 0.0008
vn 0.1023 0.9903 -0.0938
vn 0.1780 0.9751 -0.1321
vn -0.0578 0.9964 -0.0627
vn -0.1537 0.9853 -0.0745
vn 0.4803 0.8646 0.1473
vn 0.0172 0.9997 0.0163
vn 0.1291 0.9911 0.0319
vn -0.3651 -0.5519 -0.7497
vn -0.5374 -0.3627 -0.7613
vn -0.6177 -0.0134 -0.7863
vn -0.6170 0.3546 -0.7025
vn 0.0587 -0.1602 -0.9853
vn -0.2498 -0.1102 -0.9620
vn -0.0894 0.0841 -0.9924
vn -0.5293 -0.1127 0.8409
vn -0.3800 0.3848 0.8412
vn -0.2921 0.2461 0.9242
vn -0.4224 -0.0742 0.9034
vn -0.5188 -0.7737 0.3637
vn -0.7839 -0.6208 0.0108
vn -0.9618 -0.1094 -0.2509
vn -0.9480 -0.2216 -0.2284
vn -0.9570 -0.1695 -0.2353
vn -0.9505 -0.2243 -0.2150
vn -0.9569 -0.1086 -0.2693
vn -0.9432 -0.1399 -0.3012
vn -0.9543 -0.1820 -0.2371
vn -0.9210 -0.1660 -0.3525
vn -0.9684 -0.1571 -0.1937
vn -0.9890 -0.1377 0.0549
vn -0.9788 -0.1410 -0.1483
vn -0.9907 -0.1257 0.0523
vn -0.9872 -0.1380 -0.0801
vn -0.9984 -0.0368 0.0426
vn -0.9245 -0.1525 -0.3492
vn -0.9271 -0.1562 -0.3407
vn -0.9766 -0.0472 -0.2099
vn -0.9840 0.1243 -0.1277
vn -0.9494 0.0098 -0.3139
vn -0.9308 -0.1204 -0.3451
vn 0.0959 0.8163 0.5697
vn 0.2216 0.4325 0.8740
vn 0.1363 0.9628 0.2333
vn 0.2017 0.4406 0.8747
vn 0.2794 0.1767 0.9438
vn 0.3235 0.1708 0.9307
vn 0.2742 -0.1168 0.9545
vn 0.2568 -0.1192 0.9591
vn 0.2487 -0.0058 0.9686
vn 0.2929 -0.0039 0.9561
vn 0.1924 0.1405 0.9712
vn 0.1320 0.1407 0.9812
vn 0.0800 -0.0697 0.9944
vn 0.1883 -0.0659 0.9799
vn 0.0263 -0.2481 0.9684
vn 0.1921 -0.2982 0.9350
vn 0.0575 0.5701 0.8196
vn 0.4975 0.4993 0.7093
vn 0.1789 0.4880 0.8543
vn -0.2244 0.3883 0.8938
vn 0.4262 0.2654 0.8648
vn 0.3115 0.1785 0.9333
vn 0.5644 -0.1146 0.8175
vn 0.3759 -0.0158 0.9265
vn 0.2365 0.3214 0.9169
vn 0.4285 0.4743 0.7691
vn 0.2168 0.5171 0.8280
vn 0.1252 0.5099 0.8510
vn 0.0332 0.4576 0.8885
vn 0.5645 -0.1452 0.8125
vn -0.4006 -0.1691 0.9005
vn -0.5542 -0.1283 0.8224
vn -0.3526 0.3338 0.8742
vn -0.0513 0.5063 0.8608
vn 0.5231 -0.1248 0.8431
vn 0.3436 0.0897 0.9348
vn 0.3807 -0.1118 0.9179
vn -0.5476 -0.2073 0.8107
vn -0.3213 -0.3713 0.8711
vn -0.1294 -0.0763 0.9887
vn -0.5546 0.1296 0.8219
vn 0.3224 -0.0838 0.9429
vn -0.5186 -0.1117 0.8477
vn 0.2141 -0.0651 0.9746
vn 0.2782 -0.0763 0.9575
vn -0.5676 -0.0926 0.8181
vn 0.6581 -0.0343 0.7522
vn -0.2620 0.4728 0.8413
vn -0.2626 0.5461 0.7955
vn -0.4329 0.5626 0.7043
vn -0.6428 0.3971 0.6551
vn -0.3221 0.5857 0.7438
vn -0.0008 0.4819 0.8762
vn 0.8746 0.3068 0.3756
vn 0.2169 0.2996 0.9291
vn 0.0481 0.0409 0.9980
vn 0.6632 -0.0660 0.7455
vn -0.6872 0.1526 0.7102
vn -0.3289 0.0955 0.9395
vn -0.3996 -0.0366 0.9160
vn -0.5235 -0.0256 0.8516
vn 0.4091 0.0134 0.9124
vn 0.4792 0.0529 0.8761
vn 0.8222 0.0123 0.5691
vn 0.7966 -0.3015 0.5239
vn 0.8709 -0.4321 0.2342
vn 0.5918 -0.4442 0.6726
vn 0.9957 -0.0446 0.0809
vn 0.9669 -0.0338 0.2529
vn 0.9845 -0.0158 0.1749
vn 0.9592 -0.1348 -0.2484
vn 0.9225 -0.1004 -0.3726
vn 0.6858 -0.0592 -0.7254
vn 0.9673 -0.0794 0.2407
vn 0.9973 -0.0729 0.0021
vn 0.8684 -0.0329 -0.4947
vn 0.6472 0.0151 -0.7622
vn 0.7557 -0.0933 -0.6482
vn 0.9968 -0.0555 0.0569
vn 0.9311 -0.0588 -0.3600
vn 0.7872 -0.0879 -0.6104
vn 0.9202 -0.0654 -0.3861
vn 0.9964 -0.0287 -0.0794
vn 0.9965 -0.0194 -0.0813
vn 0.9653 -0.0746 0.2502
vn 0.9991 -0.0407 -0.0078
vn 0.9997 -0.0222 -0.0107
vn 0.9992 -0.0110 -0.0372
vn 0.9989 0.0478 -0.0027
vn 0.9967 0.0322 -0.0739
vn 0.9277 -0.0721 -0.3663
vn 0.9308 0.0170 -0.3653
vn 0.8234 -0.1040 -0.5579
vn 0.8281 -0.0130 -0.5604
vn 0.9211 0.1083 -0.3739
vn 0.9868 0.1293 -0.0975
vn -0.2437 0.1411 -0.9595
vn -0.1186 0.0128 -0.9929
vn -0.0776 -0.0411 -0.9961
vn -0.0486 -0.1242 -0.9911
vn -0.1034 -0.1519 -0.9830
vn -0.1562 -0.1455 -0.9770
vn 0.7316 -0.0952 -0.6751
vn 0.5510 -0.0600 -0.8324
vn 0.7017 -0.0580 -0.7101
vn 0.4207 -0.0592 -0.9053
vn -0.0773 -0.0414 -0.9961
vn -0.0694 -0.0817 -0.9942
vn -0.3823 -0.0920 -0.9195
vn -0.5233 -0.1053 -0.8456
vn -0.6015 -0.1290 -0.7884
vn -0.6651 -0.1818 -0.7243
vn 0.6619 -0.0886 -0.7444
vn 0.3101 -0.1172 -0.9435
vn -0.1324 -0.1363 -0.9818
vn -0.4127 -0.1514 -0.8982
vn -0.5712 -0.1572 -0.8057
vn -0.4703 -0.2035 -0.8587
vn -0.5939 -0.1925 -0.7812
vn -0.2622 0.6210 0.7387
vn -0.2479 0.9077 0.3385
vn -0.2937 0.9556 0.0248
vn -0.2161 0.4024 0.8896
vn -0.2451 0.1456 0.9585
vn -0.2530 0.1128 0.9609
vn -0.2623 0.0623 0.9630
vn -0.1609 0.0331 0.9864
vn -0.0558 -0.3345 0.9407
vn 0.1302 -0.3015 0.9445
vn -0.1490 -0.3148 0.9374
vn -0.2612 -0.3437 0.9020
vn -0.2542 0.0682 0.9648
vn -0.2849 0.1100 0.9522
vn -0.1173 -0.1994 -0.9729
vn -0.0904 -0.1786 -0.9798
vn -0.1918 -0.1612 -0.9681
vn -0.2384 -0.1659 -0.9569
vn -0.2424 -0.1386 -0.9602
vn -0.1474 -0.0362 -0.9884
vn -0.0622 -0.2533 -0.9654
vn -0.0632 -0.2745 -0.9595
vn -0.5376 -0.3632 -0.7610
vn -0.2870 0.1170 -0.9508
vn -0.6169 0.3553 -0.7023
vn -0.5534 0.7160 -0.4256
vn -0.5375 0.8432 0.0005
vn -0.5865 -0.2534 -0.7692
vn -0.3752 -0.2758 -0.8850
vn -0.1350 -0.2035 -0.9697
vn -0.0527 -0.2561 -0.9652
vn 0.4104 -0.6940 -0.5916
vn 0.3017 -0.2049 -0.9311
vn 0.5776 -0.0406 -0.8153
vn 0.5966 -0.1616 -0.7861
vn 0.3736 -0.1583 -0.9140
vn 0.6179 -0.1456 -0.7727
vn -0.5373 -0.3630 -0.7612
vn -0.3652 -0.5516 -0.7499
vn -0.1184 -0.1880 -0.9750
vn -0.1039 -0.1991 -0.9745
vn -0.0895 -0.2344 -0.9680
vn -0.1067 -0.2321 -0.9668
vn 0.4801 0.8648 0.1472
vn 0.0868 0.8982 -0.4309
vn -0.0943 0.2091 -0.9733
vn 0.5779 -0.0405 -0.8151
vn 0.7983 -0.1015 -0.5937
vn 0.9342 0.3274 0.1417
vn 0.6956 0.6416 -0.3233
vn 0.5517 0.8103 0.1978
vn -0.7683 0.5195 -0.3738
vn -0.3630 0.9214 -0.1390
vn -0.3955 0.6213 -0.6764
vn -0.8942 0.3390 0.2925
vn -0.1215 0.9452 -0.3030
vn -0.0857 0.5418 -0.8361
vn 0.1960 0.7571 -0.6232
vn 0.1555 0.9781 -0.1386
vt 0.630615 0.256655
vt 0.638429 0.251588
vt 0.635333 0.254787
vt 0.365936 0.245240
vt 0.373626 0.246935
vt 0.371065 0.270188
vt 0.641211 0.004747
vt 0.676531 0.000000
vt 0.643508 0.012419
vt 0.449307 0.933872
vt 0.502364 0.949322
vt 0.444090 0.944114
vt 0.416039 0.939946
vt 0.374347 0.936004
vt 0.416304 0.922930
vt 0.583273 0.973501
vt 0.586468 0.966709
vt 0.295875 0.693907
vt 0.298017 0.691970
vt 0.307541 0.699684
vt 0.306872 0.701382
vt 0.313354 0.702848
vt 0.315488 0.699987
vt 0.324145 0.696834
vt 0.313400 0.703938
vt 0.324846 0.697829
vt 0.335647 0.689754
vt 0.336304 0.690779
vt 0.284340 0.675141
vt 0.278429 0.651165
vt 0.283201 0.650753
vt 0.288105 0.674136
vt 0.303223 0.537902
vt 0.308965 0.539690
vt 0.296170 0.583562
vt 0.290810 0.582281
vt 0.626158 0.256598
vt 0.621982 0.256232
vt 0.617411 0.249192
vt 0.639493 0.241062
vt 0.620717 0.230008
vt 0.614576 0.240964
vt 0.616488 0.233999
vt 0.613601 0.238160
vt 0.626069 0.227911
vt 0.631208 0.227847
vt 0.639493 0.234799
vt 0.637580 0.229808
vt 0.639312 0.230379
vt 0.290417 0.761351
vt 0.278429 0.744158
vt 0.284582 0.735434
vt 0.290417 0.703938
vt 0.127390 0.314889
vt 0.116188 0.315514
vt 0.128564 0.283160
vt 0.044827 0.348373
vt 0.035368 0.322769
vt 0.056138 0.315985
vt 0.028966 0.351007
vt 0.058418 0.381506
vt 0.068323 0.370913
vt 0.059277 0.275159
vt 0.108598 0.261894
vt 0.059488 0.225795
vt 0.110335 0.195794
vt 0.061042 0.189909
vt 0.020054 0.183436
vt 0.057653 0.136428
vt 0.015550 0.134642
vt 0.054637 0.095447
vt 0.013981 0.094948
vt 0.017743 0.047023
vt 0.112208 0.144603
vt 0.114304 0.097032
vt 0.049572 0.043716
vt 0.046722 0.014095
vt 0.093924 0.014450
vt 0.117874 0.038265
vt 0.340781 0.010958
vt 0.354860 0.066027
vt 0.328978 0.015064
vt 0.365936 0.063411
vt 0.365936 0.113114
vt 0.354275 0.113280
vt 0.351361 0.161294
vt 0.361905 0.164626
vt 0.336528 0.209842
vt 0.321727 0.206583
vt 0.330124 0.251296
vt 0.339148 0.252578
vt 0.318777 0.312588
vt 0.310449 0.310504
vt 0.296609 0.363946
vt 0.302207 0.371232
vt 0.969545 0.725885
vt 0.967318 0.741152
vt 0.887591 0.737080
vt 0.877112 0.721275
vt 0.805473 0.738424
vt 0.804113 0.724957
vt 0.726512 0.735493
vt 0.727502 0.768176
vt 0.809100 0.794918
vt 0.899277 0.764277
vt 0.949639 0.795187
vt 0.904970 0.790797
vt 0.943497 0.836458
vt 0.660469 0.777264
vt 0.670689 0.898765
vt 0.734495 0.903310
vt 0.810340 0.885768
vt 0.899821 0.838373
vt 0.648099 0.730025
vt 0.592993 0.758932
vt 0.598788 0.784998
vt 0.601791 0.890876
vt 0.666736 0.939415
vt 0.741257 0.941100
vt 0.800651 0.940554
vt 0.505640 0.794716
vt 0.513034 0.884408
vt 0.500459 0.772006
vt 0.448444 0.802311
vt 0.456493 0.883384
vt 0.415678 0.786404
vt 0.944168 0.881721
vt 0.900634 0.898107
vt 0.954523 0.926217
vt 0.898860 0.924347
vt 0.969545 0.962348
vt 0.900094 0.952224
vt 0.889828 0.977663
vt 0.813110 0.950913
vt 0.744619 0.955406
vt 0.669023 0.951803
vt 0.587392 0.748660
vt 0.646743 0.722948
vt 0.416804 0.891364
vt 0.373300 0.892946
vt 0.409392 0.801217
vt 0.366130 0.800228
vt 0.371513 0.770187
vt 0.277730 0.396432
vt 0.254852 0.385101
vt 0.275394 0.380861
vt 0.271483 0.346710
vt 0.226619 0.312258
vt 0.214133 0.311335
vt 0.287554 0.298846
vt 0.242087 0.274300
vt 0.214035 0.294150
vt 0.223774 0.269307
vt 0.301551 0.258218
vt 0.253366 0.203385
vt 0.230538 0.201084
vt 0.259956 0.150772
vt 0.321103 0.159602
vt 0.322851 0.111581
vt 0.325819 0.059280
vt 0.265628 0.105333
vt 0.271297 0.051271
vt 0.236714 0.101402
vt 0.237282 0.042914
vt 0.272451 0.016022
vt 0.207087 0.282082
vt 0.209433 0.264725
vt 0.214916 0.201354
vt 0.188335 0.275961
vt 0.189285 0.259019
vt 0.168797 0.273909
vt 0.168129 0.257597
vt 0.146521 0.256939
vt 0.146547 0.276315
vt 0.124658 0.256064
vt 0.191238 0.201028
vt 0.170816 0.199813
vt 0.149580 0.198646
vt 0.130941 0.195324
vt 0.151870 0.146052
vt 0.131567 0.145198
vt 0.035059 0.005958
vt 0.003480 0.044818
vt 0.000000 0.096555
vt 0.002344 0.138462
vt 0.006094 0.188252
vt 0.040089 0.233029
vt 0.043944 0.283668
vt 0.132739 0.098267
vt 0.131269 0.037474
vt 0.101802 0.007770
vt 0.059530 0.001907
vt 0.045328 0.000214
vt 0.153455 0.096633
vt 0.171573 0.146739
vt 0.172827 0.095151
vt 0.174166 0.040547
vt 0.200410 0.039706
vt 0.196759 0.098103
vt 0.223867 0.037346
vt 0.221344 0.102101
vt 0.195104 0.147803
vt 0.218541 0.148450
vt 0.151979 0.037325
vt 0.233861 0.147507
vt 0.307419 0.000000
vt 0.331162 0.002554
vt 0.270790 0.002282
vt 0.888598 0.126782
vt 0.887227 0.138038
vt 0.876801 0.130942
vt 0.889106 0.206275
vt 0.887125 0.190697
vt 0.893202 0.192277
vt 0.879290 0.203891
vt 0.889616 0.172798
vt 0.896011 0.172580
vt 0.893565 0.155795
vt 0.886279 0.156463
vt 0.875078 0.142534
s 1
usemtl act\nosorog\act_nosorog_parts
f 20/1/1 18/2/2 36/3/3
f 129/4/4 144/5/5 130/6/6
f 18/7/7 36/8/8 35/9/9
f 9/10/10 90/11/11 41/12/12
f 7/13/13 42/14/14 66/15/15
f 56/16/16 90/11/11 94/17/17
f 20/18/18 49/19/19 143/20/20
f 20/18/18 143/20/20 53/21/21
f 53/21/21 143/20/20 50/22/22
f 143/20/20 142/23/23 50/22/22
f 50/22/22 142/23/23 132/24/24
f 53/21/21 50/22/22 17/25/25
f 17/25/25 50/22/22 132/24/24
f 17/25/25 132/24/24 51/26/26
f 51/26/26 132/24/24 135/27/27
f 51/26/26 135/27/27 48/28/28
f 36/29/3 18/30/7 129/31/4
f 36/29/3 129/31/4 130/32/6
f 20/18/18 36/29/3 130/32/6
f 20/18/18 130/32/6 49/19/19
f 54/33/29 47/34/30 131/35/31
f 54/33/29 131/35/31 52/36/32
f 52/36/32 131/35/31 129/31/4
f 52/36/32 129/31/4 18/30/7
f 53/37/33 17/38/34 51/39/35
f 53/37/33 51/39/35 52/40/36
f 45/41/37 52/40/36 51/39/35
f 51/39/35 48/42/38 45/41/37
f 6/43/39 45/41/37 48/42/38
f 5/44/40 6/43/39 48/42/38
f 20/1/1 53/37/33 52/40/36
f 52/40/36 18/2/2 20/1/1
f 45/41/37 44/45/41 52/40/36
f 44/45/41 21/46/42 52/40/36
f 54/47/43 52/40/36 21/46/42
f 21/46/42 19/48/44 54/47/43
f 19/48/44 46/49/45 54/47/43
f 53/50/46 17/51/47 160/52/48
f 17/51/47 51/53/49 160/52/48
f 40/54/50 37/55/51 38/56/52
f 67/57/53 41/58/54 39/59/55
f 7/60/56 41/58/54 67/57/53
f 67/57/53 42/61/57 7/60/56
f 76/62/58 42/61/57 67/57/53
f 37/55/59 76/62/60 39/59/61
f 39/59/61 76/62/60 67/57/62
f 39/59/61 154/63/63 37/55/59
f 37/55/59 154/63/63 149/64/64
f 149/64/64 154/63/63 55/65/65
f 149/64/64 55/65/65 16/66/66
f 16/66/66 55/65/65 14/67/67
f 55/65/65 57/68/68 14/67/67
f 57/68/68 99/69/69 14/67/67
f 99/69/69 57/68/68 29/70/70
f 99/69/69 29/70/70 98/71/71
f 29/70/70 27/72/70 98/71/71
f 27/72/70 58/73/72 98/71/71
f 15/74/73 16/66/66 14/67/67
f 99/69/69 15/74/73 14/67/67
f 99/69/69 104/75/74 15/74/73
f 104/75/74 99/69/69 98/71/71
f 101/76/75 104/75/74 98/71/71
f 58/73/72 101/76/75 98/71/71
f 58/73/72 59/77/76 101/76/75
f 59/77/76 60/78/77 101/76/75
f 101/76/75 60/78/77 100/79/78
f 104/75/74 101/76/75 100/79/78
f 46/80/79 145/81/80 68/82/81
f 69/83/82 145/81/80 46/80/79
f 69/83/82 74/84/83 145/81/80
f 145/81/80 74/84/83 146/85/84
f 74/84/83 153/86/85 146/85/84
f 92/87/86 153/86/85 74/84/83
f 92/87/86 150/88/87 153/86/85
f 153/86/85 150/88/87 61/89/88
f 150/88/87 13/90/89 61/89/88
f 77/91/90 13/90/89 150/88/87
f 2/92/91 13/90/89 77/91/90
f 13/90/89 2/92/91 32/93/92
f 2/92/91 63/94/93 32/93/92
f 64/95/94 63/94/93 2/92/91
f 46/96/95 19/97/96 22/98/97
f 69/99/98 46/96/95 22/98/97
f 69/99/98 22/98/97 71/100/99
f 74/101/100 69/99/98 71/100/99
f 92/102/101 74/101/100 71/100/99
f 93/103/102 92/102/101 71/100/99
f 85/104/103 93/103/102 71/100/99
f 70/105/104 85/104/103 71/100/99
f 22/98/97 70/105/104 71/100/99
f 19/97/96 70/105/104 22/98/97
f 19/97/96 21/106/105 70/105/104
f 70/105/104 21/106/105 75/107/106
f 21/106/105 44/108/107 75/107/106
f 159/109/108 92/102/101 93/103/102
f 159/109/108 93/103/102 82/110/109
f 93/103/102 158/111/110 82/110/109
f 85/104/103 158/111/110 93/103/102
f 158/111/110 85/104/103 86/112/111
f 86/112/111 85/104/103 72/113/112
f 72/113/112 85/104/103 75/107/106
f 85/104/103 70/105/104 75/107/106
f 152/114/113 92/102/101 159/109/108
f 159/109/108 81/115/114 152/114/113
f 81/115/114 159/109/108 3/116/115
f 159/109/108 88/117/116 3/116/115
f 88/117/116 159/109/108 82/110/109
f 1/118/117 88/117/116 82/110/109
f 158/111/110 1/118/117 82/110/109
f 1/118/117 158/111/110 78/119/118
f 78/119/118 158/111/110 79/120/119
f 79/120/119 158/111/110 86/112/111
f 83/121/120 81/115/114 3/116/115
f 95/122/121 83/121/120 3/116/115
f 88/117/116 95/122/121 3/116/115
f 2/123/122 81/115/114 83/121/120
f 73/124/123 2/123/122 83/121/120
f 8/125/124 73/124/123 83/121/120
f 95/122/121 8/125/124 83/121/120
f 90/11/11 8/125/124 95/122/121
f 94/17/17 90/11/11 95/122/121
f 94/17/17 95/122/121 88/117/116
f 64/126/125 2/123/122 73/124/123
f 9/10/10 8/125/124 90/11/11
f 1/118/117 94/17/17 88/117/116
f 44/108/107 72/113/112 75/107/106
f 44/108/107 45/127/126 72/113/112
f 72/113/112 45/127/126 4/128/127
f 45/127/126 6/129/128 4/128/127
f 6/129/128 91/130/129 4/128/127
f 6/129/128 5/131/130 91/130/129
f 91/130/129 5/131/130 84/132/131
f 79/120/119 91/130/129 84/132/131
f 79/120/119 86/112/111 91/130/129
f 86/112/111 72/113/112 4/128/127
f 91/130/129 86/112/111 4/128/127
f 5/131/130 87/133/132 84/132/131
f 87/133/132 30/134/133 84/132/131
f 30/134/133 79/120/119 84/132/131
f 80/135/134 79/120/119 30/134/133
f 78/119/118 79/120/119 80/135/134
f 89/136/135 78/119/118 80/135/134
f 1/118/117 78/119/118 89/136/135
f 56/16/16 1/118/117 89/136/135
f 94/17/17 1/118/117 56/16/16
f 81/115/114 2/123/122 77/137/136
f 77/137/136 150/138/137 81/115/114
f 81/115/114 150/138/137 152/114/113
f 152/114/113 150/138/137 92/102/101
f 8/125/124 9/10/10 66/15/15
f 8/125/124 66/15/15 96/139/138
f 96/139/138 66/15/15 33/140/139
f 66/15/15 42/14/14 33/140/139
f 73/124/123 8/125/124 96/139/138
f 65/141/140 73/124/123 96/139/138
f 65/141/140 96/139/138 33/140/139
f 34/142/141 65/141/140 33/140/139
f 64/126/125 73/124/123 65/141/140
f 43/143/142 64/126/125 65/141/140
f 43/143/142 65/141/140 34/142/141
f 9/10/10 41/12/12 66/15/15
f 41/12/12 7/13/13 66/15/15
f 43/144/143 24/145/144 97/146/145
f 64/95/94 43/144/143 97/146/145
f 63/94/93 64/95/94 97/146/145
f 62/147/146 63/94/147 97/146/148
f 24/145/149 62/147/146 97/146/148
f 24/145/149 23/148/150 62/147/146
f 23/148/150 24/145/149 25/149/151
f 63/94/147 62/147/146 32/93/152
f 62/147/146 31/150/153 32/93/152
f 62/147/146 23/148/150 31/150/153
f 31/150/153 23/148/150 12/151/154
f 23/148/150 25/149/151 12/151/154
f 25/149/151 10/152/155 12/151/154
f 10/152/155 133/153/156 12/151/154
f 32/93/152 31/150/153 11/154/157
f 31/150/153 12/151/154 11/154/157
f 12/151/154 136/155/158 11/154/157
f 133/153/156 136/155/158 12/151/154
f 136/155/158 133/153/156 120/156/159
f 136/155/158 120/156/159 137/157/160
f 151/158/161 136/155/158 137/157/160
f 138/159/162 151/158/161 137/157/160
f 13/90/163 32/93/152 11/154/157
f 61/89/164 13/90/163 11/154/157
f 136/155/158 61/89/164 11/154/157
f 151/158/161 61/89/164 136/155/158
f 61/89/164 151/158/161 153/86/165
f 153/86/165 151/158/161 146/85/166
f 151/158/161 138/159/162 146/85/166
f 138/159/162 145/81/167 146/85/166
f 157/160/168 145/81/167 138/159/162
f 139/161/169 157/160/168 138/159/162
f 157/160/168 139/161/169 140/162/170
f 140/162/170 139/161/169 122/163/171
f 127/164/172 140/162/170 122/163/171
f 127/164/172 123/165/173 140/162/170
f 123/165/173 68/82/174 140/162/170
f 157/160/168 68/82/174 145/81/167
f 68/82/174 157/160/168 140/162/170
f 10/152/175 26/166/176 133/153/177
f 133/153/177 26/166/176 119/167/178
f 120/156/179 133/153/177 119/167/178
f 116/168/180 120/156/179 119/167/178
f 26/166/181 28/169/182 119/167/183
f 28/169/182 115/170/184 119/167/183
f 28/169/182 107/171/185 115/170/184
f 115/170/184 107/171/185 111/172/186
f 111/172/186 107/171/185 114/173/187
f 107/171/185 108/174/188 114/173/187
f 108/174/188 102/175/189 114/173/187
f 108/174/188 38/56/190 102/175/189
f 115/170/184 116/168/191 119/167/183
f 116/168/191 115/170/184 117/176/192
f 115/170/184 111/172/186 117/176/192
f 111/172/186 112/177/193 117/176/192
f 112/177/193 111/172/186 114/173/187
f 113/178/194 112/177/193 114/173/187
f 102/175/189 113/178/194 114/173/187
f 113/178/194 102/175/189 106/179/195
f 109/180/196 113/178/194 106/179/195
f 103/181/197 109/180/196 106/179/195
f 58/73/198 5/182/199 59/77/200
f 87/183/201 5/182/199 58/73/198
f 87/183/201 58/73/198 27/72/202
f 30/184/203 87/183/201 27/72/202
f 30/184/203 27/72/202 29/70/204
f 80/185/205 30/184/203 29/70/204
f 57/68/206 80/185/205 29/70/204
f 89/186/207 80/185/205 57/68/206
f 57/68/206 56/187/208 89/186/207
f 55/65/209 56/187/208 57/68/206
f 154/63/210 56/187/208 55/65/209
f 90/188/211 56/187/208 154/63/210
f 39/59/55 90/188/211 154/63/210
f 41/58/54 90/188/211 39/59/55
f 15/74/212 103/181/213 106/179/214
f 16/66/215 15/74/212 106/179/214
f 102/175/216 16/66/215 106/179/214
f 149/64/217 16/66/215 102/175/216
f 38/56/52 149/64/217 102/175/216
f 38/56/52 37/55/51 149/64/217
f 103/181/213 15/74/212 105/189/218
f 15/74/212 104/75/219 105/189/218
f 104/75/219 17/190/220 105/189/218
f 17/190/220 104/75/219 100/79/221
f 51/191/222 17/190/220 100/79/221
f 60/78/223 51/191/222 100/79/221
f 51/191/222 60/78/223 48/192/224
f 48/192/224 60/78/223 59/77/200
f 5/193/199 48/192/224 59/77/200
f 109/180/196 103/181/197 105/189/225
f 110/194/226 109/180/196 105/189/225
f 110/194/226 118/195/227 109/180/196
f 118/195/227 110/194/226 134/196/228
f 110/194/226 20/197/18 134/196/228
f 20/197/18 36/198/229 134/196/228
f 134/196/228 36/198/229 124/199/230
f 36/198/229 18/200/231 124/199/230
f 18/200/231 125/201/232 124/199/230
f 118/195/227 113/178/194 109/180/196
f 113/178/194 118/195/227 112/177/193
f 118/195/227 128/202/233 112/177/193
f 128/202/233 118/195/227 124/199/230
f 118/195/227 134/196/228 124/199/230
f 112/177/193 128/202/233 117/176/192
f 128/202/233 116/168/191 117/176/192
f 116/168/191 128/202/233 121/203/234
f 128/202/233 125/201/232 121/203/234
f 125/201/232 128/202/233 124/199/230
f 17/190/235 110/194/226 105/189/225
f 17/190/235 53/204/236 110/194/226
f 53/204/236 20/197/18 110/194/226
f 120/156/179 116/168/180 121/203/237
f 126/205/238 120/156/179 121/203/237
f 125/201/239 126/205/238 121/203/237
f 126/205/238 125/201/239 122/163/240
f 54/206/241 46/207/79 68/82/81
f 68/82/81 123/165/242 54/206/241
f 54/206/241 123/165/242 52/208/32
f 52/208/32 123/165/242 127/164/243
f 18/200/244 52/208/32 127/164/243
f 18/200/244 127/164/243 125/201/239
f 125/201/239 127/164/243 122/163/240
f 120/156/159 126/205/245 137/157/160
f 126/205/245 139/161/169 137/157/160
f 139/161/169 126/205/245 122/163/171
f 139/161/169 138/159/162 137/157/160
f 10/209/246 147/210/247 26/211/248
f 141/212/249 108/213/250 156/214/251
f 108/213/250 141/212/249 38/215/252
f 108/213/250 107/216/253 156/214/251
f 107/216/253 155/217/254 156/214/251
f 155/217/254 107/216/253 148/218/255
f 107/216/253 28/219/256 148/218/255
f 28/219/256 147/210/247 148/218/255
f 147/210/247 28/219/256 26/220/248
